M48
; DRILL file {KiCad (5.1.9-0-10_14)} date Tuesday, May 04, 2021 at 01:02:17 PM
; FORMAT={-:-/ absolute / metric / decimal}
; #@! TF.CreationDate,2021-05-04T13:02:17-03:00
; #@! TF.GenerationSoftware,Kicad,Pcbnew,(5.1.9-0-10_14)
; #@! TF.FileFunction,Plated,1,2,PTH
FMAT,2
METRIC
T1C0.400
T2C1.000
T3C1.016
T4C1.500
%
G90
G05
T1
X26.098Y-101.536
X26.924Y-106.553
X28.702Y-105.918
X31.496Y-110.744
X32.385Y-104.902
X32.512Y-107.442
X35.515Y-97.073
X37.592Y-108.712
X38.608Y-110.236
X39.116Y-96.139
X39.624Y-108.712
X41.351Y-111.125
X42.545Y-111.125
X43.18Y-95.441
X43.18Y-97.028
X43.82Y-96.209
X44.767Y-99.377
X44.958Y-110.871
X46.482Y-98.679
X47.879Y-108.966
X48.514Y-106.68
X49.403Y-105.664
X49.693Y-102.652
X50.347Y-99.687
X52.578Y-103.378
X55.308Y-100.412
X55.562Y-96.703
X56.007Y-107.95
X57.785Y-101.727
X58.42Y-107.061
X62.801Y-94.996
X63.754Y-95.758
X63.754Y-108.458
X64.453Y-98.933
X65.151Y-105.727
X66.04Y-106.362
X66.24Y-100.94
X67.564Y-98.933
X67.564Y-112.522
X67.627Y-103.84
T2
X69.653Y-101.501
X69.653Y-104.001
X69.653Y-106.501
X84.152Y-101.501
X84.152Y-106.501
T3
X21.59Y-97.79
X21.59Y-100.33
X21.59Y-102.87
X21.59Y-105.41
X21.59Y-107.95
X21.59Y-110.49
X24.13Y-97.79
X24.13Y-100.33
X24.13Y-102.87
X24.13Y-105.41
X24.13Y-107.95
X24.13Y-110.49
T4
X76.502Y-98.401G85X77.802Y-98.401
G05
X76.502Y-109.601G85X77.802Y-109.601
G05
T0
M30
