%FSLAX45Y45*%
G04 Gerber Fmt 4.5, Leading zero omitted, Abs format (unit mm)*
G04 Created by KiCad (PCBNEW (5.1.9-0-10_14)) date 2021-05-04 13:02:18*
%MOMM*%
%LPD*%
G01*
G04 APERTURE LIST*
%TA.AperFunction,Profile*%
%ADD10C,0.120000*%
%TD*%
%ADD11C,0.200000*%
%ADD12C,0.300000*%
G04 APERTURE END LIST*
D10*
X8693150Y-11176000D02*
G75*
G02*
X8439150Y-11430000I-254000J0D01*
G01*
X8439150Y-9398000D02*
G75*
G02*
X8693150Y-9652000I0J-254000D01*
G01*
X1778000Y-11430000D02*
X1778000Y-9398000D01*
X8439150Y-11430000D02*
X1778000Y-11430000D01*
X8693150Y-9652000D02*
X8693150Y-11176000D01*
X1778000Y-9398000D02*
X8439150Y-9398000D01*
D11*
X2589850Y-10133650D02*
X2629850Y-10173650D01*
X2629850Y-10133650D02*
X2589850Y-10173650D01*
X2672400Y-10635300D02*
X2712400Y-10675300D01*
X2712400Y-10635300D02*
X2672400Y-10675300D01*
X2850200Y-10571800D02*
X2890200Y-10611800D01*
X2890200Y-10571800D02*
X2850200Y-10611800D01*
X3129600Y-11054400D02*
X3169600Y-11094400D01*
X3169600Y-11054400D02*
X3129600Y-11094400D01*
X3218500Y-10470200D02*
X3258500Y-10510200D01*
X3258500Y-10470200D02*
X3218500Y-10510200D01*
X3231200Y-10724200D02*
X3271200Y-10764200D01*
X3271200Y-10724200D02*
X3231200Y-10764200D01*
X3531475Y-9687325D02*
X3571475Y-9727325D01*
X3571475Y-9687325D02*
X3531475Y-9727325D01*
X3739200Y-10851200D02*
X3779200Y-10891200D01*
X3779200Y-10851200D02*
X3739200Y-10891200D01*
X3840800Y-11003600D02*
X3880800Y-11043600D01*
X3880800Y-11003600D02*
X3840800Y-11043600D01*
X3891600Y-9593900D02*
X3931600Y-9633900D01*
X3931600Y-9593900D02*
X3891600Y-9633900D01*
X3942400Y-10851200D02*
X3982400Y-10891200D01*
X3982400Y-10851200D02*
X3942400Y-10891200D01*
X4115105Y-11092500D02*
X4155105Y-11132500D01*
X4155105Y-11092500D02*
X4115105Y-11132500D01*
X4234500Y-11092500D02*
X4274500Y-11132500D01*
X4274500Y-11092500D02*
X4234500Y-11132500D01*
X4298000Y-9524101D02*
X4338000Y-9564101D01*
X4338000Y-9524101D02*
X4298000Y-9564101D01*
X4298000Y-9682800D02*
X4338000Y-9722800D01*
X4338000Y-9682800D02*
X4298000Y-9722800D01*
X4362044Y-9600902D02*
X4402044Y-9640902D01*
X4402044Y-9600902D02*
X4362044Y-9640902D01*
X4456750Y-9917750D02*
X4496750Y-9957750D01*
X4496750Y-9917750D02*
X4456750Y-9957750D01*
X4475800Y-11067100D02*
X4515800Y-11107100D01*
X4515800Y-11067100D02*
X4475800Y-11107100D01*
X4628200Y-9847900D02*
X4668200Y-9887900D01*
X4668200Y-9847900D02*
X4628200Y-9887900D01*
X4767900Y-10876600D02*
X4807900Y-10916600D01*
X4807900Y-10876600D02*
X4767900Y-10916600D01*
X4831400Y-10648000D02*
X4871400Y-10688000D01*
X4871400Y-10648000D02*
X4831400Y-10688000D01*
X4920300Y-10546400D02*
X4960300Y-10586400D01*
X4960300Y-10546400D02*
X4920300Y-10586400D01*
X4949340Y-10245240D02*
X4989340Y-10285240D01*
X4989340Y-10245240D02*
X4949340Y-10285240D01*
X5014725Y-9948675D02*
X5054725Y-9988675D01*
X5054725Y-9948675D02*
X5014725Y-9988675D01*
X5237800Y-10317800D02*
X5277800Y-10357800D01*
X5277800Y-10317800D02*
X5237800Y-10357800D01*
X5510850Y-10021175D02*
X5550850Y-10061175D01*
X5550850Y-10021175D02*
X5510850Y-10061175D01*
X5536250Y-9650317D02*
X5576250Y-9690317D01*
X5576250Y-9650317D02*
X5536250Y-9690317D01*
X5580700Y-10775000D02*
X5620700Y-10815000D01*
X5620700Y-10775000D02*
X5580700Y-10815000D01*
X5758500Y-10152700D02*
X5798500Y-10192700D01*
X5798500Y-10152700D02*
X5758500Y-10192700D01*
X5822000Y-10686100D02*
X5862000Y-10726100D01*
X5862000Y-10686100D02*
X5822000Y-10726100D01*
X6260150Y-9479600D02*
X6300150Y-9519600D01*
X6300150Y-9479600D02*
X6260150Y-9519600D01*
X6355400Y-9555800D02*
X6395400Y-9595800D01*
X6395400Y-9555800D02*
X6355400Y-9595800D01*
X6355400Y-10825800D02*
X6395400Y-10865800D01*
X6395400Y-10825800D02*
X6355400Y-10865800D01*
X6425250Y-9873300D02*
X6465250Y-9913300D01*
X6465250Y-9873300D02*
X6425250Y-9913300D01*
X6495100Y-10552750D02*
X6535100Y-10592750D01*
X6535100Y-10552750D02*
X6495100Y-10592750D01*
X6584000Y-10616250D02*
X6624000Y-10656250D01*
X6624000Y-10616250D02*
X6584000Y-10656250D01*
X6604000Y-10074000D02*
X6644000Y-10114000D01*
X6644000Y-10074000D02*
X6604000Y-10114000D01*
X6736400Y-9873300D02*
X6776400Y-9913300D01*
X6776400Y-9873300D02*
X6736400Y-9913300D01*
X6736400Y-11232200D02*
X6776400Y-11272200D01*
X6776400Y-11232200D02*
X6736400Y-11272200D01*
X6742750Y-10363999D02*
X6782750Y-10403999D01*
X6782750Y-10363999D02*
X6742750Y-10403999D01*
X7015250Y-10150100D02*
G75*
G03*
X7015250Y-10150100I-50000J0D01*
G01*
X7015250Y-10400100D02*
G75*
G03*
X7015250Y-10400100I-50000J0D01*
G01*
X7015250Y-10650100D02*
G75*
G03*
X7015250Y-10650100I-50000J0D01*
G01*
X8465250Y-10150100D02*
G75*
G03*
X8465250Y-10150100I-50000J0D01*
G01*
X8465250Y-10650100D02*
G75*
G03*
X8465250Y-10650100I-50000J0D01*
G01*
X2159000Y-9728200D02*
X2159000Y-9829800D01*
X2108200Y-9779000D02*
X2209800Y-9779000D01*
X2159000Y-9982200D02*
X2159000Y-10083800D01*
X2108200Y-10033000D02*
X2209800Y-10033000D01*
X2159000Y-10236200D02*
X2159000Y-10337800D01*
X2108200Y-10287000D02*
X2209800Y-10287000D01*
X2159000Y-10490200D02*
X2159000Y-10591800D01*
X2108200Y-10541000D02*
X2209800Y-10541000D01*
X2159000Y-10744200D02*
X2159000Y-10845800D01*
X2108200Y-10795000D02*
X2209800Y-10795000D01*
X2159000Y-10998200D02*
X2159000Y-11099800D01*
X2108200Y-11049000D02*
X2209800Y-11049000D01*
X2413000Y-9728200D02*
X2413000Y-9829800D01*
X2362200Y-9779000D02*
X2463800Y-9779000D01*
X2413000Y-9982200D02*
X2413000Y-10083800D01*
X2362200Y-10033000D02*
X2463800Y-10033000D01*
X2413000Y-10236200D02*
X2413000Y-10337800D01*
X2362200Y-10287000D02*
X2463800Y-10287000D01*
X2413000Y-10490200D02*
X2413000Y-10591800D01*
X2362200Y-10541000D02*
X2463800Y-10541000D01*
X2413000Y-10744200D02*
X2413000Y-10845800D01*
X2362200Y-10795000D02*
X2463800Y-10795000D01*
X2413000Y-10998200D02*
X2413000Y-11099800D01*
X2362200Y-11049000D02*
X2463800Y-11049000D01*
X7768283Y-9893134D02*
X7768283Y-9787067D01*
X7662216Y-9787067D01*
X7662216Y-9893134D01*
X7768283Y-9893134D01*
X7650250Y-9905100D02*
X7780250Y-9905100D01*
X7650250Y-9775100D02*
X7780250Y-9775100D01*
X7780250Y-9905100D02*
G75*
G03*
X7780250Y-9775100I0J65000D01*
G01*
X7650250Y-9775100D02*
G75*
G03*
X7650250Y-9905100I0J-65000D01*
G01*
X7768283Y-11013134D02*
X7768283Y-10907067D01*
X7662216Y-10907067D01*
X7662216Y-11013134D01*
X7768283Y-11013134D01*
X7650250Y-11025100D02*
X7780250Y-11025100D01*
X7650250Y-10895100D02*
X7780250Y-10895100D01*
X7780250Y-11025100D02*
G75*
G03*
X7780250Y-10895100I0J65000D01*
G01*
X7650250Y-10895100D02*
G75*
G03*
X7650250Y-11025100I0J-65000D01*
G01*
D12*
X2058428Y-11901714D02*
X2058428Y-11601714D01*
X2129857Y-11601714D01*
X2172714Y-11616000D01*
X2201286Y-11644571D01*
X2215571Y-11673143D01*
X2229857Y-11730286D01*
X2229857Y-11773143D01*
X2215571Y-11830286D01*
X2201286Y-11858857D01*
X2172714Y-11887429D01*
X2129857Y-11901714D01*
X2058428Y-11901714D01*
X2358428Y-11901714D02*
X2358428Y-11701714D01*
X2358428Y-11758857D02*
X2372714Y-11730286D01*
X2387000Y-11716000D01*
X2415571Y-11701714D01*
X2444143Y-11701714D01*
X2544143Y-11901714D02*
X2544143Y-11701714D01*
X2544143Y-11601714D02*
X2529857Y-11616000D01*
X2544143Y-11630286D01*
X2558428Y-11616000D01*
X2544143Y-11601714D01*
X2544143Y-11630286D01*
X2729857Y-11901714D02*
X2701286Y-11887429D01*
X2687000Y-11858857D01*
X2687000Y-11601714D01*
X2887000Y-11901714D02*
X2858428Y-11887429D01*
X2844143Y-11858857D01*
X2844143Y-11601714D01*
X3229857Y-11901714D02*
X3229857Y-11601714D01*
X3329857Y-11816000D01*
X3429857Y-11601714D01*
X3429857Y-11901714D01*
X3701286Y-11901714D02*
X3701286Y-11744571D01*
X3687000Y-11716000D01*
X3658428Y-11701714D01*
X3601286Y-11701714D01*
X3572714Y-11716000D01*
X3701286Y-11887429D02*
X3672714Y-11901714D01*
X3601286Y-11901714D01*
X3572714Y-11887429D01*
X3558428Y-11858857D01*
X3558428Y-11830286D01*
X3572714Y-11801714D01*
X3601286Y-11787429D01*
X3672714Y-11787429D01*
X3701286Y-11773143D01*
X3844143Y-11701714D02*
X3844143Y-12001714D01*
X3844143Y-11716000D02*
X3872714Y-11701714D01*
X3929857Y-11701714D01*
X3958428Y-11716000D01*
X3972714Y-11730286D01*
X3987000Y-11758857D01*
X3987000Y-11844571D01*
X3972714Y-11873143D01*
X3958428Y-11887429D01*
X3929857Y-11901714D01*
X3872714Y-11901714D01*
X3844143Y-11887429D01*
X4115571Y-11873143D02*
X4129857Y-11887429D01*
X4115571Y-11901714D01*
X4101286Y-11887429D01*
X4115571Y-11873143D01*
X4115571Y-11901714D01*
X4115571Y-11716000D02*
X4129857Y-11730286D01*
X4115571Y-11744571D01*
X4101286Y-11730286D01*
X4115571Y-11716000D01*
X4115571Y-11744571D01*
X1732000Y-12376000D02*
X1772000Y-12416000D01*
X1772000Y-12376000D02*
X1732000Y-12416000D01*
X2115571Y-12231714D02*
X2144143Y-12231714D01*
X2172714Y-12246000D01*
X2187000Y-12260286D01*
X2201286Y-12288857D01*
X2215571Y-12346000D01*
X2215571Y-12417429D01*
X2201286Y-12474571D01*
X2187000Y-12503143D01*
X2172714Y-12517429D01*
X2144143Y-12531714D01*
X2115571Y-12531714D01*
X2087000Y-12517429D01*
X2072714Y-12503143D01*
X2058428Y-12474571D01*
X2044143Y-12417429D01*
X2044143Y-12346000D01*
X2058428Y-12288857D01*
X2072714Y-12260286D01*
X2087000Y-12246000D01*
X2115571Y-12231714D01*
X2344143Y-12503143D02*
X2358428Y-12517429D01*
X2344143Y-12531714D01*
X2329857Y-12517429D01*
X2344143Y-12503143D01*
X2344143Y-12531714D01*
X2615571Y-12331714D02*
X2615571Y-12531714D01*
X2544143Y-12217429D02*
X2472714Y-12431714D01*
X2658428Y-12431714D01*
X2829857Y-12231714D02*
X2858428Y-12231714D01*
X2887000Y-12246000D01*
X2901286Y-12260286D01*
X2915571Y-12288857D01*
X2929857Y-12346000D01*
X2929857Y-12417429D01*
X2915571Y-12474571D01*
X2901286Y-12503143D01*
X2887000Y-12517429D01*
X2858428Y-12531714D01*
X2829857Y-12531714D01*
X2801286Y-12517429D01*
X2787000Y-12503143D01*
X2772714Y-12474571D01*
X2758428Y-12417429D01*
X2758428Y-12346000D01*
X2772714Y-12288857D01*
X2787000Y-12260286D01*
X2801286Y-12246000D01*
X2829857Y-12231714D01*
X3058428Y-12531714D02*
X3058428Y-12331714D01*
X3058428Y-12360286D02*
X3072714Y-12346000D01*
X3101286Y-12331714D01*
X3144143Y-12331714D01*
X3172714Y-12346000D01*
X3187000Y-12374571D01*
X3187000Y-12531714D01*
X3187000Y-12374571D02*
X3201286Y-12346000D01*
X3229857Y-12331714D01*
X3272714Y-12331714D01*
X3301286Y-12346000D01*
X3315571Y-12374571D01*
X3315571Y-12531714D01*
X3458428Y-12531714D02*
X3458428Y-12331714D01*
X3458428Y-12360286D02*
X3472714Y-12346000D01*
X3501286Y-12331714D01*
X3544143Y-12331714D01*
X3572714Y-12346000D01*
X3587000Y-12374571D01*
X3587000Y-12531714D01*
X3587000Y-12374571D02*
X3601286Y-12346000D01*
X3629857Y-12331714D01*
X3672714Y-12331714D01*
X3701286Y-12346000D01*
X3715571Y-12374571D01*
X3715571Y-12531714D01*
X4301286Y-12217429D02*
X4044143Y-12603143D01*
X4687000Y-12231714D02*
X4715571Y-12231714D01*
X4744143Y-12246000D01*
X4758428Y-12260286D01*
X4772714Y-12288857D01*
X4787000Y-12346000D01*
X4787000Y-12417429D01*
X4772714Y-12474571D01*
X4758428Y-12503143D01*
X4744143Y-12517429D01*
X4715571Y-12531714D01*
X4687000Y-12531714D01*
X4658428Y-12517429D01*
X4644143Y-12503143D01*
X4629857Y-12474571D01*
X4615571Y-12417429D01*
X4615571Y-12346000D01*
X4629857Y-12288857D01*
X4644143Y-12260286D01*
X4658428Y-12246000D01*
X4687000Y-12231714D01*
X4915571Y-12503143D02*
X4929857Y-12517429D01*
X4915571Y-12531714D01*
X4901286Y-12517429D01*
X4915571Y-12503143D01*
X4915571Y-12531714D01*
X5115571Y-12231714D02*
X5144143Y-12231714D01*
X5172714Y-12246000D01*
X5187000Y-12260286D01*
X5201286Y-12288857D01*
X5215571Y-12346000D01*
X5215571Y-12417429D01*
X5201286Y-12474571D01*
X5187000Y-12503143D01*
X5172714Y-12517429D01*
X5144143Y-12531714D01*
X5115571Y-12531714D01*
X5087000Y-12517429D01*
X5072714Y-12503143D01*
X5058428Y-12474571D01*
X5044143Y-12417429D01*
X5044143Y-12346000D01*
X5058428Y-12288857D01*
X5072714Y-12260286D01*
X5087000Y-12246000D01*
X5115571Y-12231714D01*
X5501286Y-12531714D02*
X5329857Y-12531714D01*
X5415571Y-12531714D02*
X5415571Y-12231714D01*
X5387000Y-12274571D01*
X5358428Y-12303143D01*
X5329857Y-12317429D01*
X5758428Y-12231714D02*
X5701286Y-12231714D01*
X5672714Y-12246000D01*
X5658428Y-12260286D01*
X5629857Y-12303143D01*
X5615571Y-12360286D01*
X5615571Y-12474571D01*
X5629857Y-12503143D01*
X5644143Y-12517429D01*
X5672714Y-12531714D01*
X5729857Y-12531714D01*
X5758428Y-12517429D01*
X5772714Y-12503143D01*
X5787000Y-12474571D01*
X5787000Y-12403143D01*
X5772714Y-12374571D01*
X5758428Y-12360286D01*
X5729857Y-12346000D01*
X5672714Y-12346000D01*
X5644143Y-12360286D01*
X5629857Y-12374571D01*
X5615571Y-12403143D01*
X5901286Y-12231714D02*
X5901286Y-12288857D01*
X6015571Y-12231714D02*
X6015571Y-12288857D01*
X6458428Y-12646000D02*
X6444143Y-12631714D01*
X6415571Y-12588857D01*
X6401286Y-12560286D01*
X6387000Y-12517429D01*
X6372714Y-12446000D01*
X6372714Y-12388857D01*
X6387000Y-12317429D01*
X6401286Y-12274571D01*
X6415571Y-12246000D01*
X6444143Y-12203143D01*
X6458428Y-12188857D01*
X6701286Y-12331714D02*
X6701286Y-12531714D01*
X6629857Y-12217429D02*
X6558428Y-12431714D01*
X6744143Y-12431714D01*
X6915571Y-12231714D02*
X6944143Y-12231714D01*
X6972714Y-12246000D01*
X6987000Y-12260286D01*
X7001286Y-12288857D01*
X7015571Y-12346000D01*
X7015571Y-12417429D01*
X7001286Y-12474571D01*
X6987000Y-12503143D01*
X6972714Y-12517429D01*
X6944143Y-12531714D01*
X6915571Y-12531714D01*
X6887000Y-12517429D01*
X6872714Y-12503143D01*
X6858428Y-12474571D01*
X6844143Y-12417429D01*
X6844143Y-12346000D01*
X6858428Y-12288857D01*
X6872714Y-12260286D01*
X6887000Y-12246000D01*
X6915571Y-12231714D01*
X7372714Y-12531714D02*
X7372714Y-12231714D01*
X7501286Y-12531714D02*
X7501286Y-12374571D01*
X7487000Y-12346000D01*
X7458428Y-12331714D01*
X7415571Y-12331714D01*
X7387000Y-12346000D01*
X7372714Y-12360286D01*
X7687000Y-12531714D02*
X7658428Y-12517429D01*
X7644143Y-12503143D01*
X7629857Y-12474571D01*
X7629857Y-12388857D01*
X7644143Y-12360286D01*
X7658428Y-12346000D01*
X7687000Y-12331714D01*
X7729857Y-12331714D01*
X7758428Y-12346000D01*
X7772714Y-12360286D01*
X7787000Y-12388857D01*
X7787000Y-12474571D01*
X7772714Y-12503143D01*
X7758428Y-12517429D01*
X7729857Y-12531714D01*
X7687000Y-12531714D01*
X7958428Y-12531714D02*
X7929857Y-12517429D01*
X7915571Y-12488857D01*
X7915571Y-12231714D01*
X8187000Y-12517429D02*
X8158428Y-12531714D01*
X8101286Y-12531714D01*
X8072714Y-12517429D01*
X8058428Y-12488857D01*
X8058428Y-12374571D01*
X8072714Y-12346000D01*
X8101286Y-12331714D01*
X8158428Y-12331714D01*
X8187000Y-12346000D01*
X8201286Y-12374571D01*
X8201286Y-12403143D01*
X8058428Y-12431714D01*
X8315571Y-12517429D02*
X8344143Y-12531714D01*
X8401286Y-12531714D01*
X8429857Y-12517429D01*
X8444143Y-12488857D01*
X8444143Y-12474571D01*
X8429857Y-12446000D01*
X8401286Y-12431714D01*
X8358428Y-12431714D01*
X8329857Y-12417429D01*
X8315571Y-12388857D01*
X8315571Y-12374571D01*
X8329857Y-12346000D01*
X8358428Y-12331714D01*
X8401286Y-12331714D01*
X8429857Y-12346000D01*
X8544143Y-12646000D02*
X8558428Y-12631714D01*
X8587000Y-12588857D01*
X8601286Y-12560286D01*
X8615571Y-12517429D01*
X8629857Y-12446000D01*
X8629857Y-12388857D01*
X8615571Y-12317429D01*
X8601286Y-12274571D01*
X8587000Y-12246000D01*
X8558428Y-12203143D01*
X8544143Y-12188857D01*
X1772000Y-12792000D02*
G75*
G03*
X1772000Y-12792000I-50000J0D01*
G01*
X2215571Y-12927714D02*
X2044143Y-12927714D01*
X2129857Y-12927714D02*
X2129857Y-12627714D01*
X2101286Y-12670571D01*
X2072714Y-12699143D01*
X2044143Y-12713429D01*
X2344143Y-12899143D02*
X2358428Y-12913429D01*
X2344143Y-12927714D01*
X2329857Y-12913429D01*
X2344143Y-12899143D01*
X2344143Y-12927714D01*
X2544143Y-12627714D02*
X2572714Y-12627714D01*
X2601286Y-12642000D01*
X2615571Y-12656286D01*
X2629857Y-12684857D01*
X2644143Y-12742000D01*
X2644143Y-12813429D01*
X2629857Y-12870571D01*
X2615571Y-12899143D01*
X2601286Y-12913429D01*
X2572714Y-12927714D01*
X2544143Y-12927714D01*
X2515571Y-12913429D01*
X2501286Y-12899143D01*
X2487000Y-12870571D01*
X2472714Y-12813429D01*
X2472714Y-12742000D01*
X2487000Y-12684857D01*
X2501286Y-12656286D01*
X2515571Y-12642000D01*
X2544143Y-12627714D01*
X2829857Y-12627714D02*
X2858428Y-12627714D01*
X2887000Y-12642000D01*
X2901286Y-12656286D01*
X2915571Y-12684857D01*
X2929857Y-12742000D01*
X2929857Y-12813429D01*
X2915571Y-12870571D01*
X2901286Y-12899143D01*
X2887000Y-12913429D01*
X2858428Y-12927714D01*
X2829857Y-12927714D01*
X2801286Y-12913429D01*
X2787000Y-12899143D01*
X2772714Y-12870571D01*
X2758428Y-12813429D01*
X2758428Y-12742000D01*
X2772714Y-12684857D01*
X2787000Y-12656286D01*
X2801286Y-12642000D01*
X2829857Y-12627714D01*
X3058428Y-12927714D02*
X3058428Y-12727714D01*
X3058428Y-12756286D02*
X3072714Y-12742000D01*
X3101286Y-12727714D01*
X3144143Y-12727714D01*
X3172714Y-12742000D01*
X3187000Y-12770571D01*
X3187000Y-12927714D01*
X3187000Y-12770571D02*
X3201286Y-12742000D01*
X3229857Y-12727714D01*
X3272714Y-12727714D01*
X3301286Y-12742000D01*
X3315571Y-12770571D01*
X3315571Y-12927714D01*
X3458428Y-12927714D02*
X3458428Y-12727714D01*
X3458428Y-12756286D02*
X3472714Y-12742000D01*
X3501286Y-12727714D01*
X3544143Y-12727714D01*
X3572714Y-12742000D01*
X3587000Y-12770571D01*
X3587000Y-12927714D01*
X3587000Y-12770571D02*
X3601286Y-12742000D01*
X3629857Y-12727714D01*
X3672714Y-12727714D01*
X3701286Y-12742000D01*
X3715571Y-12770571D01*
X3715571Y-12927714D01*
X4301286Y-12613429D02*
X4044143Y-12999143D01*
X4687000Y-12627714D02*
X4715571Y-12627714D01*
X4744143Y-12642000D01*
X4758428Y-12656286D01*
X4772714Y-12684857D01*
X4787000Y-12742000D01*
X4787000Y-12813429D01*
X4772714Y-12870571D01*
X4758428Y-12899143D01*
X4744143Y-12913429D01*
X4715571Y-12927714D01*
X4687000Y-12927714D01*
X4658428Y-12913429D01*
X4644143Y-12899143D01*
X4629857Y-12870571D01*
X4615571Y-12813429D01*
X4615571Y-12742000D01*
X4629857Y-12684857D01*
X4644143Y-12656286D01*
X4658428Y-12642000D01*
X4687000Y-12627714D01*
X4915571Y-12899143D02*
X4929857Y-12913429D01*
X4915571Y-12927714D01*
X4901286Y-12913429D01*
X4915571Y-12899143D01*
X4915571Y-12927714D01*
X5115571Y-12627714D02*
X5144143Y-12627714D01*
X5172714Y-12642000D01*
X5187000Y-12656286D01*
X5201286Y-12684857D01*
X5215571Y-12742000D01*
X5215571Y-12813429D01*
X5201286Y-12870571D01*
X5187000Y-12899143D01*
X5172714Y-12913429D01*
X5144143Y-12927714D01*
X5115571Y-12927714D01*
X5087000Y-12913429D01*
X5072714Y-12899143D01*
X5058428Y-12870571D01*
X5044143Y-12813429D01*
X5044143Y-12742000D01*
X5058428Y-12684857D01*
X5072714Y-12656286D01*
X5087000Y-12642000D01*
X5115571Y-12627714D01*
X5315571Y-12627714D02*
X5501286Y-12627714D01*
X5401286Y-12742000D01*
X5444143Y-12742000D01*
X5472714Y-12756286D01*
X5487000Y-12770571D01*
X5501286Y-12799143D01*
X5501286Y-12870571D01*
X5487000Y-12899143D01*
X5472714Y-12913429D01*
X5444143Y-12927714D01*
X5358428Y-12927714D01*
X5329857Y-12913429D01*
X5315571Y-12899143D01*
X5644143Y-12927714D02*
X5701286Y-12927714D01*
X5729857Y-12913429D01*
X5744143Y-12899143D01*
X5772714Y-12856286D01*
X5787000Y-12799143D01*
X5787000Y-12684857D01*
X5772714Y-12656286D01*
X5758428Y-12642000D01*
X5729857Y-12627714D01*
X5672714Y-12627714D01*
X5644143Y-12642000D01*
X5629857Y-12656286D01*
X5615571Y-12684857D01*
X5615571Y-12756286D01*
X5629857Y-12784857D01*
X5644143Y-12799143D01*
X5672714Y-12813429D01*
X5729857Y-12813429D01*
X5758428Y-12799143D01*
X5772714Y-12784857D01*
X5787000Y-12756286D01*
X5901286Y-12627714D02*
X5901286Y-12684857D01*
X6015571Y-12627714D02*
X6015571Y-12684857D01*
X6458428Y-13042000D02*
X6444143Y-13027714D01*
X6415571Y-12984857D01*
X6401286Y-12956286D01*
X6387000Y-12913429D01*
X6372714Y-12842000D01*
X6372714Y-12784857D01*
X6387000Y-12713429D01*
X6401286Y-12670571D01*
X6415571Y-12642000D01*
X6444143Y-12599143D01*
X6458428Y-12584857D01*
X6715571Y-12627714D02*
X6572714Y-12627714D01*
X6558428Y-12770571D01*
X6572714Y-12756286D01*
X6601286Y-12742000D01*
X6672714Y-12742000D01*
X6701286Y-12756286D01*
X6715571Y-12770571D01*
X6729857Y-12799143D01*
X6729857Y-12870571D01*
X6715571Y-12899143D01*
X6701286Y-12913429D01*
X6672714Y-12927714D01*
X6601286Y-12927714D01*
X6572714Y-12913429D01*
X6558428Y-12899143D01*
X7087000Y-12927714D02*
X7087000Y-12627714D01*
X7215571Y-12927714D02*
X7215571Y-12770571D01*
X7201286Y-12742000D01*
X7172714Y-12727714D01*
X7129857Y-12727714D01*
X7101286Y-12742000D01*
X7087000Y-12756286D01*
X7401286Y-12927714D02*
X7372714Y-12913429D01*
X7358428Y-12899143D01*
X7344143Y-12870571D01*
X7344143Y-12784857D01*
X7358428Y-12756286D01*
X7372714Y-12742000D01*
X7401286Y-12727714D01*
X7444143Y-12727714D01*
X7472714Y-12742000D01*
X7487000Y-12756286D01*
X7501286Y-12784857D01*
X7501286Y-12870571D01*
X7487000Y-12899143D01*
X7472714Y-12913429D01*
X7444143Y-12927714D01*
X7401286Y-12927714D01*
X7672714Y-12927714D02*
X7644143Y-12913429D01*
X7629857Y-12884857D01*
X7629857Y-12627714D01*
X7901286Y-12913429D02*
X7872714Y-12927714D01*
X7815571Y-12927714D01*
X7787000Y-12913429D01*
X7772714Y-12884857D01*
X7772714Y-12770571D01*
X7787000Y-12742000D01*
X7815571Y-12727714D01*
X7872714Y-12727714D01*
X7901286Y-12742000D01*
X7915571Y-12770571D01*
X7915571Y-12799143D01*
X7772714Y-12827714D01*
X8029857Y-12913429D02*
X8058428Y-12927714D01*
X8115571Y-12927714D01*
X8144143Y-12913429D01*
X8158428Y-12884857D01*
X8158428Y-12870571D01*
X8144143Y-12842000D01*
X8115571Y-12827714D01*
X8072714Y-12827714D01*
X8044143Y-12813429D01*
X8029857Y-12784857D01*
X8029857Y-12770571D01*
X8044143Y-12742000D01*
X8072714Y-12727714D01*
X8115571Y-12727714D01*
X8144143Y-12742000D01*
X8258428Y-13042000D02*
X8272714Y-13027714D01*
X8301286Y-12984857D01*
X8315571Y-12956286D01*
X8329857Y-12913429D01*
X8344143Y-12842000D01*
X8344143Y-12784857D01*
X8329857Y-12713429D01*
X8315571Y-12670571D01*
X8301286Y-12642000D01*
X8272714Y-12599143D01*
X8258428Y-12584857D01*
X1721200Y-13137200D02*
X1721200Y-13238800D01*
X1670400Y-13188000D02*
X1772000Y-13188000D01*
X2215571Y-13323714D02*
X2044143Y-13323714D01*
X2129857Y-13323714D02*
X2129857Y-13023714D01*
X2101286Y-13066571D01*
X2072714Y-13095143D01*
X2044143Y-13109429D01*
X2344143Y-13295143D02*
X2358428Y-13309429D01*
X2344143Y-13323714D01*
X2329857Y-13309429D01*
X2344143Y-13295143D01*
X2344143Y-13323714D01*
X2544143Y-13023714D02*
X2572714Y-13023714D01*
X2601286Y-13038000D01*
X2615571Y-13052286D01*
X2629857Y-13080857D01*
X2644143Y-13138000D01*
X2644143Y-13209429D01*
X2629857Y-13266571D01*
X2615571Y-13295143D01*
X2601286Y-13309429D01*
X2572714Y-13323714D01*
X2544143Y-13323714D01*
X2515571Y-13309429D01*
X2501286Y-13295143D01*
X2487000Y-13266571D01*
X2472714Y-13209429D01*
X2472714Y-13138000D01*
X2487000Y-13080857D01*
X2501286Y-13052286D01*
X2515571Y-13038000D01*
X2544143Y-13023714D01*
X2758428Y-13052286D02*
X2772714Y-13038000D01*
X2801286Y-13023714D01*
X2872714Y-13023714D01*
X2901286Y-13038000D01*
X2915571Y-13052286D01*
X2929857Y-13080857D01*
X2929857Y-13109429D01*
X2915571Y-13152286D01*
X2744143Y-13323714D01*
X2929857Y-13323714D01*
X3058428Y-13323714D02*
X3058428Y-13123714D01*
X3058428Y-13152286D02*
X3072714Y-13138000D01*
X3101286Y-13123714D01*
X3144143Y-13123714D01*
X3172714Y-13138000D01*
X3187000Y-13166571D01*
X3187000Y-13323714D01*
X3187000Y-13166571D02*
X3201286Y-13138000D01*
X3229857Y-13123714D01*
X3272714Y-13123714D01*
X3301286Y-13138000D01*
X3315571Y-13166571D01*
X3315571Y-13323714D01*
X3458428Y-13323714D02*
X3458428Y-13123714D01*
X3458428Y-13152286D02*
X3472714Y-13138000D01*
X3501286Y-13123714D01*
X3544143Y-13123714D01*
X3572714Y-13138000D01*
X3587000Y-13166571D01*
X3587000Y-13323714D01*
X3587000Y-13166571D02*
X3601286Y-13138000D01*
X3629857Y-13123714D01*
X3672714Y-13123714D01*
X3701286Y-13138000D01*
X3715571Y-13166571D01*
X3715571Y-13323714D01*
X4301286Y-13009429D02*
X4044143Y-13395143D01*
X4687000Y-13023714D02*
X4715571Y-13023714D01*
X4744143Y-13038000D01*
X4758428Y-13052286D01*
X4772714Y-13080857D01*
X4787000Y-13138000D01*
X4787000Y-13209429D01*
X4772714Y-13266571D01*
X4758428Y-13295143D01*
X4744143Y-13309429D01*
X4715571Y-13323714D01*
X4687000Y-13323714D01*
X4658428Y-13309429D01*
X4644143Y-13295143D01*
X4629857Y-13266571D01*
X4615571Y-13209429D01*
X4615571Y-13138000D01*
X4629857Y-13080857D01*
X4644143Y-13052286D01*
X4658428Y-13038000D01*
X4687000Y-13023714D01*
X4915571Y-13295143D02*
X4929857Y-13309429D01*
X4915571Y-13323714D01*
X4901286Y-13309429D01*
X4915571Y-13295143D01*
X4915571Y-13323714D01*
X5115571Y-13023714D02*
X5144143Y-13023714D01*
X5172714Y-13038000D01*
X5187000Y-13052286D01*
X5201286Y-13080857D01*
X5215571Y-13138000D01*
X5215571Y-13209429D01*
X5201286Y-13266571D01*
X5187000Y-13295143D01*
X5172714Y-13309429D01*
X5144143Y-13323714D01*
X5115571Y-13323714D01*
X5087000Y-13309429D01*
X5072714Y-13295143D01*
X5058428Y-13266571D01*
X5044143Y-13209429D01*
X5044143Y-13138000D01*
X5058428Y-13080857D01*
X5072714Y-13052286D01*
X5087000Y-13038000D01*
X5115571Y-13023714D01*
X5472714Y-13123714D02*
X5472714Y-13323714D01*
X5401286Y-13009429D02*
X5329857Y-13223714D01*
X5515571Y-13223714D01*
X5687000Y-13023714D02*
X5715571Y-13023714D01*
X5744143Y-13038000D01*
X5758428Y-13052286D01*
X5772714Y-13080857D01*
X5787000Y-13138000D01*
X5787000Y-13209429D01*
X5772714Y-13266571D01*
X5758428Y-13295143D01*
X5744143Y-13309429D01*
X5715571Y-13323714D01*
X5687000Y-13323714D01*
X5658428Y-13309429D01*
X5644143Y-13295143D01*
X5629857Y-13266571D01*
X5615571Y-13209429D01*
X5615571Y-13138000D01*
X5629857Y-13080857D01*
X5644143Y-13052286D01*
X5658428Y-13038000D01*
X5687000Y-13023714D01*
X5901286Y-13023714D02*
X5901286Y-13080857D01*
X6015571Y-13023714D02*
X6015571Y-13080857D01*
X6458428Y-13438000D02*
X6444143Y-13423714D01*
X6415571Y-13380857D01*
X6401286Y-13352286D01*
X6387000Y-13309429D01*
X6372714Y-13238000D01*
X6372714Y-13180857D01*
X6387000Y-13109429D01*
X6401286Y-13066571D01*
X6415571Y-13038000D01*
X6444143Y-12995143D01*
X6458428Y-12980857D01*
X6729857Y-13323714D02*
X6558428Y-13323714D01*
X6644143Y-13323714D02*
X6644143Y-13023714D01*
X6615571Y-13066571D01*
X6587000Y-13095143D01*
X6558428Y-13109429D01*
X6844143Y-13052286D02*
X6858428Y-13038000D01*
X6887000Y-13023714D01*
X6958428Y-13023714D01*
X6987000Y-13038000D01*
X7001286Y-13052286D01*
X7015571Y-13080857D01*
X7015571Y-13109429D01*
X7001286Y-13152286D01*
X6829857Y-13323714D01*
X7015571Y-13323714D01*
X7372714Y-13323714D02*
X7372714Y-13023714D01*
X7501286Y-13323714D02*
X7501286Y-13166571D01*
X7487000Y-13138000D01*
X7458428Y-13123714D01*
X7415571Y-13123714D01*
X7387000Y-13138000D01*
X7372714Y-13152286D01*
X7687000Y-13323714D02*
X7658428Y-13309429D01*
X7644143Y-13295143D01*
X7629857Y-13266571D01*
X7629857Y-13180857D01*
X7644143Y-13152286D01*
X7658428Y-13138000D01*
X7687000Y-13123714D01*
X7729857Y-13123714D01*
X7758428Y-13138000D01*
X7772714Y-13152286D01*
X7787000Y-13180857D01*
X7787000Y-13266571D01*
X7772714Y-13295143D01*
X7758428Y-13309429D01*
X7729857Y-13323714D01*
X7687000Y-13323714D01*
X7958428Y-13323714D02*
X7929857Y-13309429D01*
X7915571Y-13280857D01*
X7915571Y-13023714D01*
X8187000Y-13309429D02*
X8158428Y-13323714D01*
X8101286Y-13323714D01*
X8072714Y-13309429D01*
X8058428Y-13280857D01*
X8058428Y-13166571D01*
X8072714Y-13138000D01*
X8101286Y-13123714D01*
X8158428Y-13123714D01*
X8187000Y-13138000D01*
X8201286Y-13166571D01*
X8201286Y-13195143D01*
X8058428Y-13223714D01*
X8315571Y-13309429D02*
X8344143Y-13323714D01*
X8401286Y-13323714D01*
X8429857Y-13309429D01*
X8444143Y-13280857D01*
X8444143Y-13266571D01*
X8429857Y-13238000D01*
X8401286Y-13223714D01*
X8358428Y-13223714D01*
X8329857Y-13209429D01*
X8315571Y-13180857D01*
X8315571Y-13166571D01*
X8329857Y-13138000D01*
X8358428Y-13123714D01*
X8401286Y-13123714D01*
X8429857Y-13138000D01*
X8544143Y-13438000D02*
X8558428Y-13423714D01*
X8587000Y-13380857D01*
X8601286Y-13352286D01*
X8615571Y-13309429D01*
X8629857Y-13238000D01*
X8629857Y-13180857D01*
X8615571Y-13109429D01*
X8601286Y-13066571D01*
X8587000Y-13038000D01*
X8558428Y-12995143D01*
X8544143Y-12980857D01*
X1750033Y-13637034D02*
X1750033Y-13530967D01*
X1643966Y-13530967D01*
X1643966Y-13637034D01*
X1750033Y-13637034D01*
X2215571Y-13719714D02*
X2044143Y-13719714D01*
X2129857Y-13719714D02*
X2129857Y-13419714D01*
X2101286Y-13462571D01*
X2072714Y-13491143D01*
X2044143Y-13505429D01*
X2344143Y-13691143D02*
X2358428Y-13705429D01*
X2344143Y-13719714D01*
X2329857Y-13705429D01*
X2344143Y-13691143D01*
X2344143Y-13719714D01*
X2629857Y-13419714D02*
X2487000Y-13419714D01*
X2472714Y-13562571D01*
X2487000Y-13548286D01*
X2515571Y-13534000D01*
X2587000Y-13534000D01*
X2615571Y-13548286D01*
X2629857Y-13562571D01*
X2644143Y-13591143D01*
X2644143Y-13662571D01*
X2629857Y-13691143D01*
X2615571Y-13705429D01*
X2587000Y-13719714D01*
X2515571Y-13719714D01*
X2487000Y-13705429D01*
X2472714Y-13691143D01*
X2829857Y-13419714D02*
X2858428Y-13419714D01*
X2887000Y-13434000D01*
X2901286Y-13448286D01*
X2915571Y-13476857D01*
X2929857Y-13534000D01*
X2929857Y-13605429D01*
X2915571Y-13662571D01*
X2901286Y-13691143D01*
X2887000Y-13705429D01*
X2858428Y-13719714D01*
X2829857Y-13719714D01*
X2801286Y-13705429D01*
X2787000Y-13691143D01*
X2772714Y-13662571D01*
X2758428Y-13605429D01*
X2758428Y-13534000D01*
X2772714Y-13476857D01*
X2787000Y-13448286D01*
X2801286Y-13434000D01*
X2829857Y-13419714D01*
X3058428Y-13719714D02*
X3058428Y-13519714D01*
X3058428Y-13548286D02*
X3072714Y-13534000D01*
X3101286Y-13519714D01*
X3144143Y-13519714D01*
X3172714Y-13534000D01*
X3187000Y-13562571D01*
X3187000Y-13719714D01*
X3187000Y-13562571D02*
X3201286Y-13534000D01*
X3229857Y-13519714D01*
X3272714Y-13519714D01*
X3301286Y-13534000D01*
X3315571Y-13562571D01*
X3315571Y-13719714D01*
X3458428Y-13719714D02*
X3458428Y-13519714D01*
X3458428Y-13548286D02*
X3472714Y-13534000D01*
X3501286Y-13519714D01*
X3544143Y-13519714D01*
X3572714Y-13534000D01*
X3587000Y-13562571D01*
X3587000Y-13719714D01*
X3587000Y-13562571D02*
X3601286Y-13534000D01*
X3629857Y-13519714D01*
X3672714Y-13519714D01*
X3701286Y-13534000D01*
X3715571Y-13562571D01*
X3715571Y-13719714D01*
X4301286Y-13405429D02*
X4044143Y-13791143D01*
X4687000Y-13419714D02*
X4715571Y-13419714D01*
X4744143Y-13434000D01*
X4758428Y-13448286D01*
X4772714Y-13476857D01*
X4787000Y-13534000D01*
X4787000Y-13605429D01*
X4772714Y-13662571D01*
X4758428Y-13691143D01*
X4744143Y-13705429D01*
X4715571Y-13719714D01*
X4687000Y-13719714D01*
X4658428Y-13705429D01*
X4644143Y-13691143D01*
X4629857Y-13662571D01*
X4615571Y-13605429D01*
X4615571Y-13534000D01*
X4629857Y-13476857D01*
X4644143Y-13448286D01*
X4658428Y-13434000D01*
X4687000Y-13419714D01*
X4915571Y-13691143D02*
X4929857Y-13705429D01*
X4915571Y-13719714D01*
X4901286Y-13705429D01*
X4915571Y-13691143D01*
X4915571Y-13719714D01*
X5115571Y-13419714D02*
X5144143Y-13419714D01*
X5172714Y-13434000D01*
X5187000Y-13448286D01*
X5201286Y-13476857D01*
X5215571Y-13534000D01*
X5215571Y-13605429D01*
X5201286Y-13662571D01*
X5187000Y-13691143D01*
X5172714Y-13705429D01*
X5144143Y-13719714D01*
X5115571Y-13719714D01*
X5087000Y-13705429D01*
X5072714Y-13691143D01*
X5058428Y-13662571D01*
X5044143Y-13605429D01*
X5044143Y-13534000D01*
X5058428Y-13476857D01*
X5072714Y-13448286D01*
X5087000Y-13434000D01*
X5115571Y-13419714D01*
X5487000Y-13419714D02*
X5344143Y-13419714D01*
X5329857Y-13562571D01*
X5344143Y-13548286D01*
X5372714Y-13534000D01*
X5444143Y-13534000D01*
X5472714Y-13548286D01*
X5487000Y-13562571D01*
X5501286Y-13591143D01*
X5501286Y-13662571D01*
X5487000Y-13691143D01*
X5472714Y-13705429D01*
X5444143Y-13719714D01*
X5372714Y-13719714D01*
X5344143Y-13705429D01*
X5329857Y-13691143D01*
X5644143Y-13719714D02*
X5701286Y-13719714D01*
X5729857Y-13705429D01*
X5744143Y-13691143D01*
X5772714Y-13648286D01*
X5787000Y-13591143D01*
X5787000Y-13476857D01*
X5772714Y-13448286D01*
X5758428Y-13434000D01*
X5729857Y-13419714D01*
X5672714Y-13419714D01*
X5644143Y-13434000D01*
X5629857Y-13448286D01*
X5615571Y-13476857D01*
X5615571Y-13548286D01*
X5629857Y-13576857D01*
X5644143Y-13591143D01*
X5672714Y-13605429D01*
X5729857Y-13605429D01*
X5758428Y-13591143D01*
X5772714Y-13576857D01*
X5787000Y-13548286D01*
X5901286Y-13419714D02*
X5901286Y-13476857D01*
X6015571Y-13419714D02*
X6015571Y-13476857D01*
X6458428Y-13834000D02*
X6444143Y-13819714D01*
X6415571Y-13776857D01*
X6401286Y-13748286D01*
X6387000Y-13705429D01*
X6372714Y-13634000D01*
X6372714Y-13576857D01*
X6387000Y-13505429D01*
X6401286Y-13462571D01*
X6415571Y-13434000D01*
X6444143Y-13391143D01*
X6458428Y-13376857D01*
X6629857Y-13419714D02*
X6658428Y-13419714D01*
X6687000Y-13434000D01*
X6701286Y-13448286D01*
X6715571Y-13476857D01*
X6729857Y-13534000D01*
X6729857Y-13605429D01*
X6715571Y-13662571D01*
X6701286Y-13691143D01*
X6687000Y-13705429D01*
X6658428Y-13719714D01*
X6629857Y-13719714D01*
X6601286Y-13705429D01*
X6587000Y-13691143D01*
X6572714Y-13662571D01*
X6558428Y-13605429D01*
X6558428Y-13534000D01*
X6572714Y-13476857D01*
X6587000Y-13448286D01*
X6601286Y-13434000D01*
X6629857Y-13419714D01*
X7087000Y-13719714D02*
X7087000Y-13419714D01*
X7215571Y-13719714D02*
X7215571Y-13562571D01*
X7201286Y-13534000D01*
X7172714Y-13519714D01*
X7129857Y-13519714D01*
X7101286Y-13534000D01*
X7087000Y-13548286D01*
X7401286Y-13719714D02*
X7372714Y-13705429D01*
X7358428Y-13691143D01*
X7344143Y-13662571D01*
X7344143Y-13576857D01*
X7358428Y-13548286D01*
X7372714Y-13534000D01*
X7401286Y-13519714D01*
X7444143Y-13519714D01*
X7472714Y-13534000D01*
X7487000Y-13548286D01*
X7501286Y-13576857D01*
X7501286Y-13662571D01*
X7487000Y-13691143D01*
X7472714Y-13705429D01*
X7444143Y-13719714D01*
X7401286Y-13719714D01*
X7672714Y-13719714D02*
X7644143Y-13705429D01*
X7629857Y-13676857D01*
X7629857Y-13419714D01*
X7901286Y-13705429D02*
X7872714Y-13719714D01*
X7815571Y-13719714D01*
X7787000Y-13705429D01*
X7772714Y-13676857D01*
X7772714Y-13562571D01*
X7787000Y-13534000D01*
X7815571Y-13519714D01*
X7872714Y-13519714D01*
X7901286Y-13534000D01*
X7915571Y-13562571D01*
X7915571Y-13591143D01*
X7772714Y-13619714D01*
X8029857Y-13705429D02*
X8058428Y-13719714D01*
X8115571Y-13719714D01*
X8144143Y-13705429D01*
X8158428Y-13676857D01*
X8158428Y-13662571D01*
X8144143Y-13634000D01*
X8115571Y-13619714D01*
X8072714Y-13619714D01*
X8044143Y-13605429D01*
X8029857Y-13576857D01*
X8029857Y-13562571D01*
X8044143Y-13534000D01*
X8072714Y-13519714D01*
X8115571Y-13519714D01*
X8144143Y-13534000D01*
X8515571Y-13605429D02*
X8744143Y-13605429D01*
X8629857Y-13719714D02*
X8629857Y-13491143D01*
X9101286Y-13448286D02*
X9115571Y-13434000D01*
X9144143Y-13419714D01*
X9215571Y-13419714D01*
X9244143Y-13434000D01*
X9258428Y-13448286D01*
X9272714Y-13476857D01*
X9272714Y-13505429D01*
X9258428Y-13548286D01*
X9087000Y-13719714D01*
X9272714Y-13719714D01*
X9615571Y-13705429D02*
X9644143Y-13719714D01*
X9701286Y-13719714D01*
X9729857Y-13705429D01*
X9744143Y-13676857D01*
X9744143Y-13662571D01*
X9729857Y-13634000D01*
X9701286Y-13619714D01*
X9658428Y-13619714D01*
X9629857Y-13605429D01*
X9615571Y-13576857D01*
X9615571Y-13562571D01*
X9629857Y-13534000D01*
X9658428Y-13519714D01*
X9701286Y-13519714D01*
X9729857Y-13534000D01*
X9915571Y-13719714D02*
X9887000Y-13705429D01*
X9872714Y-13676857D01*
X9872714Y-13419714D01*
X10072714Y-13719714D02*
X10044143Y-13705429D01*
X10029857Y-13691143D01*
X10015571Y-13662571D01*
X10015571Y-13576857D01*
X10029857Y-13548286D01*
X10044143Y-13534000D01*
X10072714Y-13519714D01*
X10115571Y-13519714D01*
X10144143Y-13534000D01*
X10158428Y-13548286D01*
X10172714Y-13576857D01*
X10172714Y-13662571D01*
X10158428Y-13691143D01*
X10144143Y-13705429D01*
X10115571Y-13719714D01*
X10072714Y-13719714D01*
X10258428Y-13519714D02*
X10372714Y-13519714D01*
X10301286Y-13419714D02*
X10301286Y-13676857D01*
X10315571Y-13705429D01*
X10344143Y-13719714D01*
X10372714Y-13719714D01*
X10458428Y-13705429D02*
X10487000Y-13719714D01*
X10544143Y-13719714D01*
X10572714Y-13705429D01*
X10587000Y-13676857D01*
X10587000Y-13662571D01*
X10572714Y-13634000D01*
X10544143Y-13619714D01*
X10501286Y-13619714D01*
X10472714Y-13605429D01*
X10458428Y-13576857D01*
X10458428Y-13562571D01*
X10472714Y-13534000D01*
X10501286Y-13519714D01*
X10544143Y-13519714D01*
X10572714Y-13534000D01*
X10687000Y-13834000D02*
X10701286Y-13819714D01*
X10729857Y-13776857D01*
X10744143Y-13748286D01*
X10758428Y-13705429D01*
X10772714Y-13634000D01*
X10772714Y-13576857D01*
X10758428Y-13505429D01*
X10744143Y-13462571D01*
X10729857Y-13434000D01*
X10701286Y-13391143D01*
X10687000Y-13376857D01*
M02*
