G04 #@! TF.GenerationSoftware,KiCad,Pcbnew,(5.1.9-0-10_14)*
G04 #@! TF.CreationDate,2021-05-04T13:02:15-03:00*
G04 #@! TF.ProjectId,RingPush-PMOD,52696e67-5075-4736-982d-504d4f442e6b,rev?*
G04 #@! TF.SameCoordinates,Original*
G04 #@! TF.FileFunction,Legend,Bot*
G04 #@! TF.FilePolarity,Positive*
%FSLAX46Y46*%
G04 Gerber Fmt 4.6, Leading zero omitted, Abs format (unit mm)*
G04 Created by KiCad (PCBNEW (5.1.9-0-10_14)) date 2021-05-04 13:02:15*
%MOMM*%
%LPD*%
G01*
G04 APERTURE LIST*
%ADD10C,0.150000*%
%ADD11C,0.120000*%
%ADD12C,0.300000*%
%ADD13C,0.010000*%
%ADD14C,0.203200*%
%ADD15C,0.304800*%
%ADD16C,2.101600*%
%ADD17C,1.625600*%
G04 APERTURE END LIST*
D10*
X27859047Y-94392380D02*
X27859047Y-95106666D01*
X27906666Y-95249523D01*
X28001904Y-95344761D01*
X28144761Y-95392380D01*
X28240000Y-95392380D01*
X26906666Y-95392380D02*
X27382857Y-95392380D01*
X27382857Y-94392380D01*
X26001904Y-95297142D02*
X26049523Y-95344761D01*
X26192380Y-95392380D01*
X26287619Y-95392380D01*
X26430476Y-95344761D01*
X26525714Y-95249523D01*
X26573333Y-95154285D01*
X26620952Y-94963809D01*
X26620952Y-94820952D01*
X26573333Y-94630476D01*
X26525714Y-94535238D01*
X26430476Y-94440000D01*
X26287619Y-94392380D01*
X26192380Y-94392380D01*
X26049523Y-94440000D01*
X26001904Y-94487619D01*
X25287619Y-94392380D02*
X25287619Y-95106666D01*
X25335238Y-95249523D01*
X25430476Y-95344761D01*
X25573333Y-95392380D01*
X25668571Y-95392380D01*
X24335238Y-95392380D02*
X24811428Y-95392380D01*
X24811428Y-94392380D01*
X23430476Y-95297142D02*
X23478095Y-95344761D01*
X23620952Y-95392380D01*
X23716190Y-95392380D01*
X23859047Y-95344761D01*
X23954285Y-95249523D01*
X24001904Y-95154285D01*
X24049523Y-94963809D01*
X24049523Y-94820952D01*
X24001904Y-94630476D01*
X23954285Y-94535238D01*
X23859047Y-94440000D01*
X23716190Y-94392380D01*
X23620952Y-94392380D01*
X23478095Y-94440000D01*
X23430476Y-94487619D01*
X22716190Y-94392380D02*
X22716190Y-95106666D01*
X22763809Y-95249523D01*
X22859047Y-95344761D01*
X23001904Y-95392380D01*
X23097142Y-95392380D01*
X21763809Y-95392380D02*
X22240000Y-95392380D01*
X22240000Y-94392380D01*
X20859047Y-95297142D02*
X20906666Y-95344761D01*
X21049523Y-95392380D01*
X21144761Y-95392380D01*
X21287619Y-95344761D01*
X21382857Y-95249523D01*
X21430476Y-95154285D01*
X21478095Y-94963809D01*
X21478095Y-94820952D01*
X21430476Y-94630476D01*
X21382857Y-94535238D01*
X21287619Y-94440000D01*
X21144761Y-94392380D01*
X21049523Y-94392380D01*
X20906666Y-94440000D01*
X20859047Y-94487619D01*
X20144761Y-94392380D02*
X20144761Y-95106666D01*
X20192380Y-95249523D01*
X20287619Y-95344761D01*
X20430476Y-95392380D01*
X20525714Y-95392380D01*
X19192380Y-95392380D02*
X19668571Y-95392380D01*
X19668571Y-94392380D01*
X18287619Y-95297142D02*
X18335238Y-95344761D01*
X18478095Y-95392380D01*
X18573333Y-95392380D01*
X18716190Y-95344761D01*
X18811428Y-95249523D01*
X18859047Y-95154285D01*
X18906666Y-94963809D01*
X18906666Y-94820952D01*
X18859047Y-94630476D01*
X18811428Y-94535238D01*
X18716190Y-94440000D01*
X18573333Y-94392380D01*
X18478095Y-94392380D01*
X18335238Y-94440000D01*
X18287619Y-94487619D01*
X72116190Y-103920952D02*
X71163809Y-103920952D01*
X71925714Y-104206666D02*
X71354285Y-104206666D01*
X71640000Y-103492380D02*
X71640000Y-103920952D01*
X71544761Y-104492380D02*
X71735238Y-104492380D01*
X71878095Y-101806666D02*
X71401904Y-101806666D01*
X71973333Y-102092380D02*
X71640000Y-101092380D01*
X71306666Y-102092380D01*
X71568571Y-106368571D02*
X71425714Y-106416190D01*
X71378095Y-106463809D01*
X71330476Y-106559047D01*
X71330476Y-106701904D01*
X71378095Y-106797142D01*
X71425714Y-106844761D01*
X71520952Y-106892380D01*
X71901904Y-106892380D01*
X71901904Y-105892380D01*
X71568571Y-105892380D01*
X71473333Y-105940000D01*
X71425714Y-105987619D01*
X71378095Y-106082857D01*
X71378095Y-106178095D01*
X71425714Y-106273333D01*
X71473333Y-106320952D01*
X71568571Y-106368571D01*
X71901904Y-106368571D01*
X47635238Y-113392380D02*
X47635238Y-112392380D01*
X47206666Y-113392380D02*
X47206666Y-112868571D01*
X47254285Y-112773333D01*
X47349523Y-112725714D01*
X47492380Y-112725714D01*
X47587619Y-112773333D01*
X47635238Y-112820952D01*
X46873333Y-112725714D02*
X46492380Y-112725714D01*
X46730476Y-112392380D02*
X46730476Y-113249523D01*
X46682857Y-113344761D01*
X46587619Y-113392380D01*
X46492380Y-113392380D01*
X46301904Y-112725714D02*
X45920952Y-112725714D01*
X46159047Y-112392380D02*
X46159047Y-113249523D01*
X46111428Y-113344761D01*
X46016190Y-113392380D01*
X45920952Y-113392380D01*
X45587619Y-112725714D02*
X45587619Y-113725714D01*
X45587619Y-112773333D02*
X45492380Y-112725714D01*
X45301904Y-112725714D01*
X45206666Y-112773333D01*
X45159047Y-112820952D01*
X45111428Y-112916190D01*
X45111428Y-113201904D01*
X45159047Y-113297142D01*
X45206666Y-113344761D01*
X45301904Y-113392380D01*
X45492380Y-113392380D01*
X45587619Y-113344761D01*
X44730476Y-113344761D02*
X44635238Y-113392380D01*
X44444761Y-113392380D01*
X44349523Y-113344761D01*
X44301904Y-113249523D01*
X44301904Y-113201904D01*
X44349523Y-113106666D01*
X44444761Y-113059047D01*
X44587619Y-113059047D01*
X44682857Y-113011428D01*
X44730476Y-112916190D01*
X44730476Y-112868571D01*
X44682857Y-112773333D01*
X44587619Y-112725714D01*
X44444761Y-112725714D01*
X44349523Y-112773333D01*
X43873333Y-113297142D02*
X43825714Y-113344761D01*
X43873333Y-113392380D01*
X43920952Y-113344761D01*
X43873333Y-113297142D01*
X43873333Y-113392380D01*
X43873333Y-112773333D02*
X43825714Y-112820952D01*
X43873333Y-112868571D01*
X43920952Y-112820952D01*
X43873333Y-112773333D01*
X43873333Y-112868571D01*
X42682857Y-112344761D02*
X43540000Y-113630476D01*
X41635238Y-112344761D02*
X42492380Y-113630476D01*
X40873333Y-112725714D02*
X40873333Y-113535238D01*
X40920952Y-113630476D01*
X40968571Y-113678095D01*
X41063809Y-113725714D01*
X41206666Y-113725714D01*
X41301904Y-113678095D01*
X40873333Y-113344761D02*
X40968571Y-113392380D01*
X41159047Y-113392380D01*
X41254285Y-113344761D01*
X41301904Y-113297142D01*
X41349523Y-113201904D01*
X41349523Y-112916190D01*
X41301904Y-112820952D01*
X41254285Y-112773333D01*
X41159047Y-112725714D01*
X40968571Y-112725714D01*
X40873333Y-112773333D01*
X40397142Y-113392380D02*
X40397142Y-112725714D01*
X40397142Y-112392380D02*
X40444761Y-112440000D01*
X40397142Y-112487619D01*
X40349523Y-112440000D01*
X40397142Y-112392380D01*
X40397142Y-112487619D01*
X40063809Y-112725714D02*
X39682857Y-112725714D01*
X39920952Y-112392380D02*
X39920952Y-113249523D01*
X39873333Y-113344761D01*
X39778095Y-113392380D01*
X39682857Y-113392380D01*
X39349523Y-113297142D02*
X39301904Y-113344761D01*
X39349523Y-113392380D01*
X39397142Y-113344761D01*
X39349523Y-113297142D01*
X39349523Y-113392380D01*
X38873333Y-113392380D02*
X38873333Y-112725714D01*
X38873333Y-112392380D02*
X38920952Y-112440000D01*
X38873333Y-112487619D01*
X38825714Y-112440000D01*
X38873333Y-112392380D01*
X38873333Y-112487619D01*
X38254285Y-113392380D02*
X38349523Y-113344761D01*
X38397142Y-113297142D01*
X38444761Y-113201904D01*
X38444761Y-112916190D01*
X38397142Y-112820952D01*
X38349523Y-112773333D01*
X38254285Y-112725714D01*
X38111428Y-112725714D01*
X38016190Y-112773333D01*
X37968571Y-112820952D01*
X37920952Y-112916190D01*
X37920952Y-113201904D01*
X37968571Y-113297142D01*
X38016190Y-113344761D01*
X38111428Y-113392380D01*
X38254285Y-113392380D01*
X36778095Y-112344761D02*
X37635238Y-113630476D01*
X36159047Y-112392380D02*
X36159047Y-113106666D01*
X36206666Y-113249523D01*
X36301904Y-113344761D01*
X36444761Y-113392380D01*
X36540000Y-113392380D01*
X35492380Y-112392380D02*
X35301904Y-112392380D01*
X35206666Y-112440000D01*
X35111428Y-112535238D01*
X35063809Y-112725714D01*
X35063809Y-113059047D01*
X35111428Y-113249523D01*
X35206666Y-113344761D01*
X35301904Y-113392380D01*
X35492380Y-113392380D01*
X35587619Y-113344761D01*
X35682857Y-113249523D01*
X35730476Y-113059047D01*
X35730476Y-112725714D01*
X35682857Y-112535238D01*
X35587619Y-112440000D01*
X35492380Y-112392380D01*
X34063809Y-113392380D02*
X34397142Y-112916190D01*
X34635238Y-113392380D02*
X34635238Y-112392380D01*
X34254285Y-112392380D01*
X34159047Y-112440000D01*
X34111428Y-112487619D01*
X34063809Y-112582857D01*
X34063809Y-112725714D01*
X34111428Y-112820952D01*
X34159047Y-112868571D01*
X34254285Y-112916190D01*
X34635238Y-112916190D01*
X33682857Y-113344761D02*
X33587619Y-113392380D01*
X33397142Y-113392380D01*
X33301904Y-113344761D01*
X33254285Y-113249523D01*
X33254285Y-113201904D01*
X33301904Y-113106666D01*
X33397142Y-113059047D01*
X33540000Y-113059047D01*
X33635238Y-113011428D01*
X33682857Y-112916190D01*
X33682857Y-112868571D01*
X33635238Y-112773333D01*
X33540000Y-112725714D01*
X33397142Y-112725714D01*
X33301904Y-112773333D01*
X32492380Y-112868571D02*
X32825714Y-112868571D01*
X32825714Y-113392380D02*
X32825714Y-112392380D01*
X32349523Y-112392380D01*
X19799523Y-112892380D02*
X19466190Y-113892380D01*
X19132857Y-112892380D01*
X18275714Y-113892380D02*
X18847142Y-113892380D01*
X18561428Y-113892380D02*
X18561428Y-112892380D01*
X18656666Y-113035238D01*
X18751904Y-113130476D01*
X18847142Y-113178095D01*
D11*
X44450000Y-99314000D02*
X44450000Y-108712000D01*
X49022000Y-100584000D02*
X38481000Y-100647500D01*
D10*
X43146023Y-102006761D02*
X43003166Y-102054380D01*
X42765071Y-102054380D01*
X42669833Y-102006761D01*
X42622214Y-101959142D01*
X42574595Y-101863904D01*
X42574595Y-101768666D01*
X42622214Y-101673428D01*
X42669833Y-101625809D01*
X42765071Y-101578190D01*
X42955547Y-101530571D01*
X43050785Y-101482952D01*
X43098404Y-101435333D01*
X43146023Y-101340095D01*
X43146023Y-101244857D01*
X43098404Y-101149619D01*
X43050785Y-101102000D01*
X42955547Y-101054380D01*
X42717452Y-101054380D01*
X42574595Y-101102000D01*
X42146023Y-101530571D02*
X41812690Y-101530571D01*
X41669833Y-102054380D02*
X42146023Y-102054380D01*
X42146023Y-101054380D01*
X41669833Y-101054380D01*
X40669833Y-102054380D02*
X41003166Y-101578190D01*
X41241261Y-102054380D02*
X41241261Y-101054380D01*
X40860309Y-101054380D01*
X40765071Y-101102000D01*
X40717452Y-101149619D01*
X40669833Y-101244857D01*
X40669833Y-101387714D01*
X40717452Y-101482952D01*
X40765071Y-101530571D01*
X40860309Y-101578190D01*
X41241261Y-101578190D01*
X42526976Y-103704380D02*
X42860309Y-103228190D01*
X43098404Y-103704380D02*
X43098404Y-102704380D01*
X42717452Y-102704380D01*
X42622214Y-102752000D01*
X42574595Y-102799619D01*
X42526976Y-102894857D01*
X42526976Y-103037714D01*
X42574595Y-103132952D01*
X42622214Y-103180571D01*
X42717452Y-103228190D01*
X43098404Y-103228190D01*
X41526976Y-103609142D02*
X41574595Y-103656761D01*
X41717452Y-103704380D01*
X41812690Y-103704380D01*
X41955547Y-103656761D01*
X42050785Y-103561523D01*
X42098404Y-103466285D01*
X42146023Y-103275809D01*
X42146023Y-103132952D01*
X42098404Y-102942476D01*
X42050785Y-102847238D01*
X41955547Y-102752000D01*
X41812690Y-102704380D01*
X41717452Y-102704380D01*
X41574595Y-102752000D01*
X41526976Y-102799619D01*
X40622214Y-103704380D02*
X41098404Y-103704380D01*
X41098404Y-102704380D01*
X40288880Y-103704380D02*
X40288880Y-102704380D01*
X39717452Y-103704380D02*
X40146023Y-103132952D01*
X39717452Y-102704380D02*
X40288880Y-103275809D01*
X43146023Y-105306761D02*
X43003166Y-105354380D01*
X42765071Y-105354380D01*
X42669833Y-105306761D01*
X42622214Y-105259142D01*
X42574595Y-105163904D01*
X42574595Y-105068666D01*
X42622214Y-104973428D01*
X42669833Y-104925809D01*
X42765071Y-104878190D01*
X42955547Y-104830571D01*
X43050785Y-104782952D01*
X43098404Y-104735333D01*
X43146023Y-104640095D01*
X43146023Y-104544857D01*
X43098404Y-104449619D01*
X43050785Y-104402000D01*
X42955547Y-104354380D01*
X42717452Y-104354380D01*
X42574595Y-104402000D01*
X41574595Y-105354380D02*
X41907928Y-104878190D01*
X42146023Y-105354380D02*
X42146023Y-104354380D01*
X41765071Y-104354380D01*
X41669833Y-104402000D01*
X41622214Y-104449619D01*
X41574595Y-104544857D01*
X41574595Y-104687714D01*
X41622214Y-104782952D01*
X41669833Y-104830571D01*
X41765071Y-104878190D01*
X42146023Y-104878190D01*
X40574595Y-105259142D02*
X40622214Y-105306761D01*
X40765071Y-105354380D01*
X40860309Y-105354380D01*
X41003166Y-105306761D01*
X41098404Y-105211523D01*
X41146023Y-105116285D01*
X41193642Y-104925809D01*
X41193642Y-104782952D01*
X41146023Y-104592476D01*
X41098404Y-104497238D01*
X41003166Y-104402000D01*
X40860309Y-104354380D01*
X40765071Y-104354380D01*
X40622214Y-104402000D01*
X40574595Y-104449619D01*
X39669833Y-105354380D02*
X40146023Y-105354380D01*
X40146023Y-104354380D01*
X39336500Y-105354380D02*
X39336500Y-104354380D01*
X38765071Y-105354380D02*
X39193642Y-104782952D01*
X38765071Y-104354380D02*
X39336500Y-104925809D01*
X42765071Y-106480571D02*
X42622214Y-106528190D01*
X42574595Y-106575809D01*
X42526976Y-106671047D01*
X42526976Y-106813904D01*
X42574595Y-106909142D01*
X42622214Y-106956761D01*
X42717452Y-107004380D01*
X43098404Y-107004380D01*
X43098404Y-106004380D01*
X42765071Y-106004380D01*
X42669833Y-106052000D01*
X42622214Y-106099619D01*
X42574595Y-106194857D01*
X42574595Y-106290095D01*
X42622214Y-106385333D01*
X42669833Y-106432952D01*
X42765071Y-106480571D01*
X43098404Y-106480571D01*
X42098404Y-107004380D02*
X42098404Y-106004380D01*
X42003166Y-106623428D02*
X41717452Y-107004380D01*
X41717452Y-106337714D02*
X42098404Y-106718666D01*
X41288880Y-106909142D02*
X41241261Y-106956761D01*
X41288880Y-107004380D01*
X41336500Y-106956761D01*
X41288880Y-106909142D01*
X41288880Y-107004380D01*
X40860309Y-106718666D02*
X40384119Y-106718666D01*
X40955547Y-107004380D02*
X40622214Y-106004380D01*
X40288880Y-107004380D01*
X42765071Y-108130571D02*
X42622214Y-108178190D01*
X42574595Y-108225809D01*
X42526976Y-108321047D01*
X42526976Y-108463904D01*
X42574595Y-108559142D01*
X42622214Y-108606761D01*
X42717452Y-108654380D01*
X43098404Y-108654380D01*
X43098404Y-107654380D01*
X42765071Y-107654380D01*
X42669833Y-107702000D01*
X42622214Y-107749619D01*
X42574595Y-107844857D01*
X42574595Y-107940095D01*
X42622214Y-108035333D01*
X42669833Y-108082952D01*
X42765071Y-108130571D01*
X43098404Y-108130571D01*
X42098404Y-108654380D02*
X42098404Y-107654380D01*
X42003166Y-108273428D02*
X41717452Y-108654380D01*
X41717452Y-107987714D02*
X42098404Y-108368666D01*
X41288880Y-108559142D02*
X41241261Y-108606761D01*
X41288880Y-108654380D01*
X41336500Y-108606761D01*
X41288880Y-108559142D01*
X41288880Y-108654380D01*
X40479357Y-108130571D02*
X40336500Y-108178190D01*
X40288880Y-108225809D01*
X40241261Y-108321047D01*
X40241261Y-108463904D01*
X40288880Y-108559142D01*
X40336500Y-108606761D01*
X40431738Y-108654380D01*
X40812690Y-108654380D01*
X40812690Y-107654380D01*
X40479357Y-107654380D01*
X40384119Y-107702000D01*
X40336500Y-107749619D01*
X40288880Y-107844857D01*
X40288880Y-107940095D01*
X40336500Y-108035333D01*
X40384119Y-108082952D01*
X40479357Y-108130571D01*
X40812690Y-108130571D01*
X47021428Y-98496380D02*
X47354761Y-98020190D01*
X47592857Y-98496380D02*
X47592857Y-97496380D01*
X47211904Y-97496380D01*
X47116666Y-97544000D01*
X47069047Y-97591619D01*
X47021428Y-97686857D01*
X47021428Y-97829714D01*
X47069047Y-97924952D01*
X47116666Y-97972571D01*
X47211904Y-98020190D01*
X47592857Y-98020190D01*
X46592857Y-98496380D02*
X46592857Y-97829714D01*
X46592857Y-97496380D02*
X46640476Y-97544000D01*
X46592857Y-97591619D01*
X46545238Y-97544000D01*
X46592857Y-97496380D01*
X46592857Y-97591619D01*
X46116666Y-97829714D02*
X46116666Y-98496380D01*
X46116666Y-97924952D02*
X46069047Y-97877333D01*
X45973809Y-97829714D01*
X45830952Y-97829714D01*
X45735714Y-97877333D01*
X45688095Y-97972571D01*
X45688095Y-98496380D01*
X44783333Y-97829714D02*
X44783333Y-98639238D01*
X44830952Y-98734476D01*
X44878571Y-98782095D01*
X44973809Y-98829714D01*
X45116666Y-98829714D01*
X45211904Y-98782095D01*
X44783333Y-98448761D02*
X44878571Y-98496380D01*
X45069047Y-98496380D01*
X45164285Y-98448761D01*
X45211904Y-98401142D01*
X45259523Y-98305904D01*
X45259523Y-98020190D01*
X45211904Y-97924952D01*
X45164285Y-97877333D01*
X45069047Y-97829714D01*
X44878571Y-97829714D01*
X44783333Y-97877333D01*
X43069047Y-98496380D02*
X43545238Y-98496380D01*
X43545238Y-97496380D01*
X42735714Y-97972571D02*
X42402380Y-97972571D01*
X42259523Y-98496380D02*
X42735714Y-98496380D01*
X42735714Y-97496380D01*
X42259523Y-97496380D01*
X41830952Y-98496380D02*
X41830952Y-97496380D01*
X41592857Y-97496380D01*
X41450000Y-97544000D01*
X41354761Y-97639238D01*
X41307142Y-97734476D01*
X41259523Y-97924952D01*
X41259523Y-98067809D01*
X41307142Y-98258285D01*
X41354761Y-98353523D01*
X41450000Y-98448761D01*
X41592857Y-98496380D01*
X41830952Y-98496380D01*
X43116380Y-100274380D02*
X43116380Y-99274380D01*
X42735428Y-99274380D01*
X42640190Y-99322000D01*
X42592571Y-99369619D01*
X42544952Y-99464857D01*
X42544952Y-99607714D01*
X42592571Y-99702952D01*
X42640190Y-99750571D01*
X42735428Y-99798190D01*
X43116380Y-99798190D01*
X42116380Y-100274380D02*
X42116380Y-99607714D01*
X42116380Y-99274380D02*
X42163999Y-99322000D01*
X42116380Y-99369619D01*
X42068761Y-99322000D01*
X42116380Y-99274380D01*
X42116380Y-99369619D01*
X41640190Y-99607714D02*
X41640190Y-100274380D01*
X41640190Y-99702952D02*
X41592571Y-99655333D01*
X41497333Y-99607714D01*
X41354476Y-99607714D01*
X41259238Y-99655333D01*
X41211619Y-99750571D01*
X41211619Y-100274380D01*
X48847142Y-100274380D02*
X48847142Y-99274380D01*
X48466190Y-99274380D01*
X48370952Y-99322000D01*
X48323333Y-99369619D01*
X48275714Y-99464857D01*
X48275714Y-99607714D01*
X48323333Y-99702952D01*
X48370952Y-99750571D01*
X48466190Y-99798190D01*
X48847142Y-99798190D01*
X47847142Y-100274380D02*
X47847142Y-99274380D01*
X47513809Y-99988666D01*
X47180476Y-99274380D01*
X47180476Y-100274380D01*
X46513809Y-99274380D02*
X46323333Y-99274380D01*
X46228095Y-99322000D01*
X46132857Y-99417238D01*
X46085238Y-99607714D01*
X46085238Y-99941047D01*
X46132857Y-100131523D01*
X46228095Y-100226761D01*
X46323333Y-100274380D01*
X46513809Y-100274380D01*
X46609047Y-100226761D01*
X46704285Y-100131523D01*
X46751904Y-99941047D01*
X46751904Y-99607714D01*
X46704285Y-99417238D01*
X46609047Y-99322000D01*
X46513809Y-99274380D01*
X45656666Y-100274380D02*
X45656666Y-99274380D01*
X45418571Y-99274380D01*
X45275714Y-99322000D01*
X45180476Y-99417238D01*
X45132857Y-99512476D01*
X45085238Y-99702952D01*
X45085238Y-99845809D01*
X45132857Y-100036285D01*
X45180476Y-100131523D01*
X45275714Y-100226761D01*
X45418571Y-100274380D01*
X45656666Y-100274380D01*
X47648761Y-101530571D02*
X47505904Y-101578190D01*
X47458285Y-101625809D01*
X47410666Y-101721047D01*
X47410666Y-101863904D01*
X47458285Y-101959142D01*
X47505904Y-102006761D01*
X47601142Y-102054380D01*
X47982095Y-102054380D01*
X47982095Y-101054380D01*
X47648761Y-101054380D01*
X47553523Y-101102000D01*
X47505904Y-101149619D01*
X47458285Y-101244857D01*
X47458285Y-101340095D01*
X47505904Y-101435333D01*
X47553523Y-101482952D01*
X47648761Y-101530571D01*
X47982095Y-101530571D01*
X46791619Y-101054380D02*
X46696380Y-101054380D01*
X46601142Y-101102000D01*
X46553523Y-101149619D01*
X46505904Y-101244857D01*
X46458285Y-101435333D01*
X46458285Y-101673428D01*
X46505904Y-101863904D01*
X46553523Y-101959142D01*
X46601142Y-102006761D01*
X46696380Y-102054380D01*
X46791619Y-102054380D01*
X46886857Y-102006761D01*
X46934476Y-101959142D01*
X46982095Y-101863904D01*
X47029714Y-101673428D01*
X47029714Y-101435333D01*
X46982095Y-101244857D01*
X46934476Y-101149619D01*
X46886857Y-101102000D01*
X46791619Y-101054380D01*
X47648761Y-103180571D02*
X47505904Y-103228190D01*
X47458285Y-103275809D01*
X47410666Y-103371047D01*
X47410666Y-103513904D01*
X47458285Y-103609142D01*
X47505904Y-103656761D01*
X47601142Y-103704380D01*
X47982095Y-103704380D01*
X47982095Y-102704380D01*
X47648761Y-102704380D01*
X47553523Y-102752000D01*
X47505904Y-102799619D01*
X47458285Y-102894857D01*
X47458285Y-102990095D01*
X47505904Y-103085333D01*
X47553523Y-103132952D01*
X47648761Y-103180571D01*
X47982095Y-103180571D01*
X46458285Y-103704380D02*
X47029714Y-103704380D01*
X46744000Y-103704380D02*
X46744000Y-102704380D01*
X46839238Y-102847238D01*
X46934476Y-102942476D01*
X47029714Y-102990095D01*
X47648761Y-104830571D02*
X47505904Y-104878190D01*
X47458285Y-104925809D01*
X47410666Y-105021047D01*
X47410666Y-105163904D01*
X47458285Y-105259142D01*
X47505904Y-105306761D01*
X47601142Y-105354380D01*
X47982095Y-105354380D01*
X47982095Y-104354380D01*
X47648761Y-104354380D01*
X47553523Y-104402000D01*
X47505904Y-104449619D01*
X47458285Y-104544857D01*
X47458285Y-104640095D01*
X47505904Y-104735333D01*
X47553523Y-104782952D01*
X47648761Y-104830571D01*
X47982095Y-104830571D01*
X47029714Y-104449619D02*
X46982095Y-104402000D01*
X46886857Y-104354380D01*
X46648761Y-104354380D01*
X46553523Y-104402000D01*
X46505904Y-104449619D01*
X46458285Y-104544857D01*
X46458285Y-104640095D01*
X46505904Y-104782952D01*
X47077333Y-105354380D01*
X46458285Y-105354380D01*
X47958285Y-106718666D02*
X47482095Y-106718666D01*
X48053523Y-107004380D02*
X47720190Y-106004380D01*
X47386857Y-107004380D01*
X47148761Y-106004380D02*
X46529714Y-106004380D01*
X46863047Y-106385333D01*
X46720190Y-106385333D01*
X46624952Y-106432952D01*
X46577333Y-106480571D01*
X46529714Y-106575809D01*
X46529714Y-106813904D01*
X46577333Y-106909142D01*
X46624952Y-106956761D01*
X46720190Y-107004380D01*
X47005904Y-107004380D01*
X47101142Y-106956761D01*
X47148761Y-106909142D01*
X47648761Y-108130571D02*
X47505904Y-108178190D01*
X47458285Y-108225809D01*
X47410666Y-108321047D01*
X47410666Y-108463904D01*
X47458285Y-108559142D01*
X47505904Y-108606761D01*
X47601142Y-108654380D01*
X47982095Y-108654380D01*
X47982095Y-107654380D01*
X47648761Y-107654380D01*
X47553523Y-107702000D01*
X47505904Y-107749619D01*
X47458285Y-107844857D01*
X47458285Y-107940095D01*
X47505904Y-108035333D01*
X47553523Y-108082952D01*
X47648761Y-108130571D01*
X47982095Y-108130571D01*
X47077333Y-107654380D02*
X46458285Y-107654380D01*
X46791619Y-108035333D01*
X46648761Y-108035333D01*
X46553523Y-108082952D01*
X46505904Y-108130571D01*
X46458285Y-108225809D01*
X46458285Y-108463904D01*
X46505904Y-108559142D01*
X46553523Y-108606761D01*
X46648761Y-108654380D01*
X46934476Y-108654380D01*
X47029714Y-108606761D01*
X47077333Y-108559142D01*
X36266095Y-97972571D02*
X35932761Y-97972571D01*
X35789904Y-98496380D02*
X36266095Y-98496380D01*
X36266095Y-97496380D01*
X35789904Y-97496380D01*
X35361333Y-97829714D02*
X35361333Y-98496380D01*
X35361333Y-97924952D02*
X35313714Y-97877333D01*
X35218476Y-97829714D01*
X35075619Y-97829714D01*
X34980380Y-97877333D01*
X34932761Y-97972571D01*
X34932761Y-98496380D01*
X34028000Y-98448761D02*
X34123238Y-98496380D01*
X34313714Y-98496380D01*
X34408952Y-98448761D01*
X34456571Y-98401142D01*
X34504190Y-98305904D01*
X34504190Y-98020190D01*
X34456571Y-97924952D01*
X34408952Y-97877333D01*
X34313714Y-97829714D01*
X34123238Y-97829714D01*
X34028000Y-97877333D01*
X33456571Y-98496380D02*
X33551809Y-98448761D01*
X33599428Y-98401142D01*
X33647047Y-98305904D01*
X33647047Y-98020190D01*
X33599428Y-97924952D01*
X33551809Y-97877333D01*
X33456571Y-97829714D01*
X33313714Y-97829714D01*
X33218476Y-97877333D01*
X33170857Y-97924952D01*
X33123238Y-98020190D01*
X33123238Y-98305904D01*
X33170857Y-98401142D01*
X33218476Y-98448761D01*
X33313714Y-98496380D01*
X33456571Y-98496380D01*
X32266095Y-98496380D02*
X32266095Y-97496380D01*
X32266095Y-98448761D02*
X32361333Y-98496380D01*
X32551809Y-98496380D01*
X32647047Y-98448761D01*
X32694666Y-98401142D01*
X32742285Y-98305904D01*
X32742285Y-98020190D01*
X32694666Y-97924952D01*
X32647047Y-97877333D01*
X32551809Y-97829714D01*
X32361333Y-97829714D01*
X32266095Y-97877333D01*
X31408952Y-98448761D02*
X31504190Y-98496380D01*
X31694666Y-98496380D01*
X31789904Y-98448761D01*
X31837523Y-98353523D01*
X31837523Y-97972571D01*
X31789904Y-97877333D01*
X31694666Y-97829714D01*
X31504190Y-97829714D01*
X31408952Y-97877333D01*
X31361333Y-97972571D01*
X31361333Y-98067809D01*
X31837523Y-98163047D01*
X30932761Y-98496380D02*
X30932761Y-97829714D01*
X30932761Y-98020190D02*
X30885142Y-97924952D01*
X30837523Y-97877333D01*
X30742285Y-97829714D01*
X30647047Y-97829714D01*
X31734095Y-101640666D02*
X31257904Y-101640666D01*
X31829333Y-101926380D02*
X31496000Y-100926380D01*
X31162666Y-101926380D01*
X31424571Y-103052571D02*
X31281714Y-103100190D01*
X31234095Y-103147809D01*
X31186476Y-103243047D01*
X31186476Y-103385904D01*
X31234095Y-103481142D01*
X31281714Y-103528761D01*
X31376952Y-103576380D01*
X31757904Y-103576380D01*
X31757904Y-102576380D01*
X31424571Y-102576380D01*
X31329333Y-102624000D01*
X31281714Y-102671619D01*
X31234095Y-102766857D01*
X31234095Y-102862095D01*
X31281714Y-102957333D01*
X31329333Y-103004952D01*
X31424571Y-103052571D01*
X31757904Y-103052571D01*
X32305523Y-105178761D02*
X32162666Y-105226380D01*
X31924571Y-105226380D01*
X31829333Y-105178761D01*
X31781714Y-105131142D01*
X31734095Y-105035904D01*
X31734095Y-104940666D01*
X31781714Y-104845428D01*
X31829333Y-104797809D01*
X31924571Y-104750190D01*
X32115047Y-104702571D01*
X32210285Y-104654952D01*
X32257904Y-104607333D01*
X32305523Y-104512095D01*
X32305523Y-104416857D01*
X32257904Y-104321619D01*
X32210285Y-104274000D01*
X32115047Y-104226380D01*
X31876952Y-104226380D01*
X31734095Y-104274000D01*
X31400761Y-104559714D02*
X31210285Y-105226380D01*
X31019809Y-104750190D01*
X30829333Y-105226380D01*
X30638857Y-104559714D01*
X36909142Y-100274380D02*
X36909142Y-99274380D01*
X36528190Y-99274380D01*
X36432952Y-99322000D01*
X36385333Y-99369619D01*
X36337714Y-99464857D01*
X36337714Y-99607714D01*
X36385333Y-99702952D01*
X36432952Y-99750571D01*
X36528190Y-99798190D01*
X36909142Y-99798190D01*
X35909142Y-100274380D02*
X35909142Y-99274380D01*
X35575809Y-99988666D01*
X35242476Y-99274380D01*
X35242476Y-100274380D01*
X34575809Y-99274380D02*
X34385333Y-99274380D01*
X34290095Y-99322000D01*
X34194857Y-99417238D01*
X34147238Y-99607714D01*
X34147238Y-99941047D01*
X34194857Y-100131523D01*
X34290095Y-100226761D01*
X34385333Y-100274380D01*
X34575809Y-100274380D01*
X34671047Y-100226761D01*
X34766285Y-100131523D01*
X34813904Y-99941047D01*
X34813904Y-99607714D01*
X34766285Y-99417238D01*
X34671047Y-99322000D01*
X34575809Y-99274380D01*
X33718666Y-100274380D02*
X33718666Y-99274380D01*
X33480571Y-99274380D01*
X33337714Y-99322000D01*
X33242476Y-99417238D01*
X33194857Y-99512476D01*
X33147238Y-99702952D01*
X33147238Y-99845809D01*
X33194857Y-100036285D01*
X33242476Y-100131523D01*
X33337714Y-100226761D01*
X33480571Y-100274380D01*
X33718666Y-100274380D01*
X32194380Y-100274380D02*
X32194380Y-99274380D01*
X31813428Y-99274380D01*
X31718190Y-99322000D01*
X31670571Y-99369619D01*
X31622952Y-99464857D01*
X31622952Y-99607714D01*
X31670571Y-99702952D01*
X31718190Y-99750571D01*
X31813428Y-99798190D01*
X32194380Y-99798190D01*
X31194380Y-100274380D02*
X31194380Y-99607714D01*
X31194380Y-99274380D02*
X31242000Y-99322000D01*
X31194380Y-99369619D01*
X31146761Y-99322000D01*
X31194380Y-99274380D01*
X31194380Y-99369619D01*
X30718190Y-99607714D02*
X30718190Y-100274380D01*
X30718190Y-99702952D02*
X30670571Y-99655333D01*
X30575333Y-99607714D01*
X30432476Y-99607714D01*
X30337238Y-99655333D01*
X30289619Y-99750571D01*
X30289619Y-100274380D01*
D11*
X37338000Y-100584000D02*
X29972000Y-100584000D01*
X32766000Y-99314000D02*
X32766000Y-105664000D01*
D10*
X35766285Y-101640666D02*
X35290095Y-101640666D01*
X35861523Y-101926380D02*
X35528190Y-100926380D01*
X35194857Y-101926380D01*
X34671047Y-100926380D02*
X34575809Y-100926380D01*
X34480571Y-100974000D01*
X34432952Y-101021619D01*
X34385333Y-101116857D01*
X34337714Y-101307333D01*
X34337714Y-101545428D01*
X34385333Y-101735904D01*
X34432952Y-101831142D01*
X34480571Y-101878761D01*
X34575809Y-101926380D01*
X34671047Y-101926380D01*
X34766285Y-101878761D01*
X34813904Y-101831142D01*
X34861523Y-101735904D01*
X34909142Y-101545428D01*
X34909142Y-101307333D01*
X34861523Y-101116857D01*
X34813904Y-101021619D01*
X34766285Y-100974000D01*
X34671047Y-100926380D01*
X35766285Y-103290666D02*
X35290095Y-103290666D01*
X35861523Y-103576380D02*
X35528190Y-102576380D01*
X35194857Y-103576380D01*
X34337714Y-103576380D02*
X34909142Y-103576380D01*
X34623428Y-103576380D02*
X34623428Y-102576380D01*
X34718666Y-102719238D01*
X34813904Y-102814476D01*
X34909142Y-102862095D01*
X35766285Y-104940666D02*
X35290095Y-104940666D01*
X35861523Y-105226380D02*
X35528190Y-104226380D01*
X35194857Y-105226380D01*
X34909142Y-104321619D02*
X34861523Y-104274000D01*
X34766285Y-104226380D01*
X34528190Y-104226380D01*
X34432952Y-104274000D01*
X34385333Y-104321619D01*
X34337714Y-104416857D01*
X34337714Y-104512095D01*
X34385333Y-104654952D01*
X34956761Y-105226380D01*
X34337714Y-105226380D01*
D12*
X84561428Y-96118571D02*
X84561428Y-94618571D01*
X83990000Y-94618571D01*
X83847142Y-94690000D01*
X83775714Y-94761428D01*
X83704285Y-94904285D01*
X83704285Y-95118571D01*
X83775714Y-95261428D01*
X83847142Y-95332857D01*
X83990000Y-95404285D01*
X84561428Y-95404285D01*
X83061428Y-96118571D02*
X83061428Y-94618571D01*
X82561428Y-95690000D01*
X82061428Y-94618571D01*
X82061428Y-96118571D01*
X81061428Y-94618571D02*
X80775714Y-94618571D01*
X80632857Y-94690000D01*
X80490000Y-94832857D01*
X80418571Y-95118571D01*
X80418571Y-95618571D01*
X80490000Y-95904285D01*
X80632857Y-96047142D01*
X80775714Y-96118571D01*
X81061428Y-96118571D01*
X81204285Y-96047142D01*
X81347142Y-95904285D01*
X81418571Y-95618571D01*
X81418571Y-95118571D01*
X81347142Y-94832857D01*
X81204285Y-94690000D01*
X81061428Y-94618571D01*
X79775714Y-96118571D02*
X79775714Y-94618571D01*
X79418571Y-94618571D01*
X79204285Y-94690000D01*
X79061428Y-94832857D01*
X78990000Y-94975714D01*
X78918571Y-95261428D01*
X78918571Y-95475714D01*
X78990000Y-95761428D01*
X79061428Y-95904285D01*
X79204285Y-96047142D01*
X79418571Y-96118571D01*
X79775714Y-96118571D01*
X77490000Y-96118571D02*
X78347142Y-96118571D01*
X77918571Y-96118571D02*
X77918571Y-94618571D01*
X78061428Y-94832857D01*
X78204285Y-94975714D01*
X78347142Y-95047142D01*
X75704285Y-95547142D02*
X74561428Y-95547142D01*
X71847142Y-96118571D02*
X72347142Y-95404285D01*
X72704285Y-96118571D02*
X72704285Y-94618571D01*
X72132857Y-94618571D01*
X71990000Y-94690000D01*
X71918571Y-94761428D01*
X71847142Y-94904285D01*
X71847142Y-95118571D01*
X71918571Y-95261428D01*
X71990000Y-95332857D01*
X72132857Y-95404285D01*
X72704285Y-95404285D01*
X70990000Y-96118571D02*
X71132857Y-96047142D01*
X71204285Y-95975714D01*
X71275714Y-95832857D01*
X71275714Y-95404285D01*
X71204285Y-95261428D01*
X71132857Y-95190000D01*
X70990000Y-95118571D01*
X70775714Y-95118571D01*
X70632857Y-95190000D01*
X70561428Y-95261428D01*
X70490000Y-95404285D01*
X70490000Y-95832857D01*
X70561428Y-95975714D01*
X70632857Y-96047142D01*
X70775714Y-96118571D01*
X70990000Y-96118571D01*
X70061428Y-95118571D02*
X69490000Y-95118571D01*
X69847142Y-94618571D02*
X69847142Y-95904285D01*
X69775714Y-96047142D01*
X69632857Y-96118571D01*
X69490000Y-96118571D01*
X68347142Y-96118571D02*
X68347142Y-95332857D01*
X68418571Y-95190000D01*
X68561428Y-95118571D01*
X68847142Y-95118571D01*
X68990000Y-95190000D01*
X68347142Y-96047142D02*
X68490000Y-96118571D01*
X68847142Y-96118571D01*
X68990000Y-96047142D01*
X69061428Y-95904285D01*
X69061428Y-95761428D01*
X68990000Y-95618571D01*
X68847142Y-95547142D01*
X68490000Y-95547142D01*
X68347142Y-95475714D01*
X67632857Y-96118571D02*
X67632857Y-95118571D01*
X67632857Y-95404285D02*
X67561428Y-95261428D01*
X67490000Y-95190000D01*
X67347142Y-95118571D01*
X67204285Y-95118571D01*
X66847142Y-95118571D02*
X66490000Y-96118571D01*
X66132857Y-95118571D02*
X66490000Y-96118571D01*
X66632857Y-96475714D01*
X66704285Y-96547142D01*
X66847142Y-96618571D01*
X65561428Y-95332857D02*
X65061428Y-95332857D01*
X64847142Y-96118571D02*
X65561428Y-96118571D01*
X65561428Y-94618571D01*
X64847142Y-94618571D01*
X64204285Y-95118571D02*
X64204285Y-96118571D01*
X64204285Y-95261428D02*
X64132857Y-95190000D01*
X63990000Y-95118571D01*
X63775714Y-95118571D01*
X63632857Y-95190000D01*
X63561428Y-95332857D01*
X63561428Y-96118571D01*
X62204285Y-96047142D02*
X62347142Y-96118571D01*
X62632857Y-96118571D01*
X62775714Y-96047142D01*
X62847142Y-95975714D01*
X62918571Y-95832857D01*
X62918571Y-95404285D01*
X62847142Y-95261428D01*
X62775714Y-95190000D01*
X62632857Y-95118571D01*
X62347142Y-95118571D01*
X62204285Y-95190000D01*
X61561428Y-95547142D02*
X60418571Y-95547142D01*
X60990000Y-96118571D02*
X60990000Y-94975714D01*
X58847142Y-96118571D02*
X59347142Y-95404285D01*
X59704285Y-96118571D02*
X59704285Y-94618571D01*
X59132857Y-94618571D01*
X58990000Y-94690000D01*
X58918571Y-94761428D01*
X58847142Y-94904285D01*
X58847142Y-95118571D01*
X58918571Y-95261428D01*
X58990000Y-95332857D01*
X59132857Y-95404285D01*
X59704285Y-95404285D01*
X58204285Y-96118571D02*
X58204285Y-95118571D01*
X58204285Y-94618571D02*
X58275714Y-94690000D01*
X58204285Y-94761428D01*
X58132857Y-94690000D01*
X58204285Y-94618571D01*
X58204285Y-94761428D01*
X57490000Y-95118571D02*
X57490000Y-96118571D01*
X57490000Y-95261428D02*
X57418571Y-95190000D01*
X57275714Y-95118571D01*
X57061428Y-95118571D01*
X56918571Y-95190000D01*
X56847142Y-95332857D01*
X56847142Y-96118571D01*
X55490000Y-95118571D02*
X55490000Y-96332857D01*
X55561428Y-96475714D01*
X55632857Y-96547142D01*
X55775714Y-96618571D01*
X55990000Y-96618571D01*
X56132857Y-96547142D01*
X55490000Y-96047142D02*
X55632857Y-96118571D01*
X55918571Y-96118571D01*
X56061428Y-96047142D01*
X56132857Y-95975714D01*
X56204285Y-95832857D01*
X56204285Y-95404285D01*
X56132857Y-95261428D01*
X56061428Y-95190000D01*
X55918571Y-95118571D01*
X55632857Y-95118571D01*
X55490000Y-95190000D01*
X54061428Y-96118571D02*
X54775714Y-96118571D01*
X54775714Y-94618571D01*
X53561428Y-95332857D02*
X53061428Y-95332857D01*
X52847142Y-96118571D02*
X53561428Y-96118571D01*
X53561428Y-94618571D01*
X52847142Y-94618571D01*
X52204285Y-96118571D02*
X52204285Y-94618571D01*
X51847142Y-94618571D01*
X51632857Y-94690000D01*
X51490000Y-94832857D01*
X51418571Y-94975714D01*
X51347142Y-95261428D01*
X51347142Y-95475714D01*
X51418571Y-95761428D01*
X51490000Y-95904285D01*
X51632857Y-96047142D01*
X51847142Y-96118571D01*
X52204285Y-96118571D01*
X84418571Y-112654285D02*
X84490000Y-112582857D01*
X84632857Y-112511428D01*
X84775714Y-112511428D01*
X84918571Y-112582857D01*
X84990000Y-112654285D01*
X85061428Y-112797142D01*
X85061428Y-112940000D01*
X84990000Y-113082857D01*
X84918571Y-113154285D01*
X84775714Y-113225714D01*
X84632857Y-113225714D01*
X84490000Y-113154285D01*
X84418571Y-113082857D01*
X84418571Y-112511428D02*
X84418571Y-113082857D01*
X84347142Y-113154285D01*
X84275714Y-113154285D01*
X84132857Y-113082857D01*
X84061428Y-112940000D01*
X84061428Y-112582857D01*
X84204285Y-112368571D01*
X84418571Y-112225714D01*
X84704285Y-112154285D01*
X84990000Y-112225714D01*
X85204285Y-112368571D01*
X85347142Y-112582857D01*
X85418571Y-112868571D01*
X85347142Y-113154285D01*
X85204285Y-113368571D01*
X84990000Y-113511428D01*
X84704285Y-113582857D01*
X84418571Y-113511428D01*
X84204285Y-113368571D01*
X82561428Y-113225714D02*
X82632857Y-113297142D01*
X82847142Y-113368571D01*
X82990000Y-113368571D01*
X83204285Y-113297142D01*
X83347142Y-113154285D01*
X83418571Y-113011428D01*
X83490000Y-112725714D01*
X83490000Y-112511428D01*
X83418571Y-112225714D01*
X83347142Y-112082857D01*
X83204285Y-111940000D01*
X82990000Y-111868571D01*
X82847142Y-111868571D01*
X82632857Y-111940000D01*
X82561428Y-112011428D01*
X81275714Y-113368571D02*
X81275714Y-112582857D01*
X81347142Y-112440000D01*
X81490000Y-112368571D01*
X81775714Y-112368571D01*
X81918571Y-112440000D01*
X81275714Y-113297142D02*
X81418571Y-113368571D01*
X81775714Y-113368571D01*
X81918571Y-113297142D01*
X81990000Y-113154285D01*
X81990000Y-113011428D01*
X81918571Y-112868571D01*
X81775714Y-112797142D01*
X81418571Y-112797142D01*
X81275714Y-112725714D01*
X80561428Y-113368571D02*
X80561428Y-112368571D01*
X80561428Y-112654285D02*
X80490000Y-112511428D01*
X80418571Y-112440000D01*
X80275714Y-112368571D01*
X80132857Y-112368571D01*
X79418571Y-113368571D02*
X79561428Y-113297142D01*
X79632857Y-113154285D01*
X79632857Y-111868571D01*
X78632857Y-113368571D02*
X78775714Y-113297142D01*
X78847142Y-113225714D01*
X78918571Y-113082857D01*
X78918571Y-112654285D01*
X78847142Y-112511428D01*
X78775714Y-112440000D01*
X78632857Y-112368571D01*
X78418571Y-112368571D01*
X78275714Y-112440000D01*
X78204285Y-112511428D01*
X78132857Y-112654285D01*
X78132857Y-113082857D01*
X78204285Y-113225714D01*
X78275714Y-113297142D01*
X78418571Y-113368571D01*
X78632857Y-113368571D01*
X77561428Y-113297142D02*
X77418571Y-113368571D01*
X77132857Y-113368571D01*
X76990000Y-113297142D01*
X76918571Y-113154285D01*
X76918571Y-113082857D01*
X76990000Y-112940000D01*
X77132857Y-112868571D01*
X77347142Y-112868571D01*
X77490000Y-112797142D01*
X77561428Y-112654285D01*
X77561428Y-112582857D01*
X77490000Y-112440000D01*
X77347142Y-112368571D01*
X77132857Y-112368571D01*
X76990000Y-112440000D01*
X76275714Y-112582857D02*
X75775714Y-112582857D01*
X75561428Y-113368571D02*
X76275714Y-113368571D01*
X76275714Y-111868571D01*
X75561428Y-111868571D01*
X74918571Y-113368571D02*
X74918571Y-111868571D01*
X74561428Y-111868571D01*
X74347142Y-111940000D01*
X74204285Y-112082857D01*
X74132857Y-112225714D01*
X74061428Y-112511428D01*
X74061428Y-112725714D01*
X74132857Y-113011428D01*
X74204285Y-113154285D01*
X74347142Y-113297142D01*
X74561428Y-113368571D01*
X74918571Y-113368571D01*
X73418571Y-113368571D02*
X73418571Y-111868571D01*
X72847142Y-111868571D01*
X72704285Y-111940000D01*
X72632857Y-112011428D01*
X72561428Y-112154285D01*
X72561428Y-112368571D01*
X72632857Y-112511428D01*
X72704285Y-112582857D01*
X72847142Y-112654285D01*
X73418571Y-112654285D01*
D13*
G36*
X55126640Y-96770544D02*
G01*
X50288544Y-96770544D01*
X50288544Y-100882925D01*
X51014259Y-100882925D01*
X51014259Y-97496258D01*
X54400925Y-97496258D01*
X54400925Y-100882925D01*
X51014259Y-100882925D01*
X50288544Y-100882925D01*
X50288544Y-101608639D01*
X55126640Y-101608639D01*
X55126640Y-96770544D01*
G37*
X55126640Y-96770544D02*
X50288544Y-96770544D01*
X50288544Y-100882925D01*
X51014259Y-100882925D01*
X51014259Y-97496258D01*
X54400925Y-97496258D01*
X54400925Y-100882925D01*
X51014259Y-100882925D01*
X50288544Y-100882925D01*
X50288544Y-101608639D01*
X55126640Y-101608639D01*
X55126640Y-96770544D01*
G36*
X61347048Y-107137891D02*
G01*
X60655891Y-107137891D01*
X60655891Y-107829047D01*
X57891266Y-107829047D01*
X57891266Y-108520204D01*
X60655891Y-108520204D01*
X60655891Y-109211360D01*
X61347048Y-109211360D01*
X61347048Y-108520204D01*
X62038204Y-108520204D01*
X62038204Y-107137891D01*
X63420517Y-107137891D01*
X63420517Y-107829047D01*
X64111674Y-107829047D01*
X64111674Y-106446734D01*
X62729361Y-106446734D01*
X62729361Y-105755578D01*
X63420517Y-105755578D01*
X63420517Y-105064422D01*
X64111674Y-105064422D01*
X64111674Y-105755578D01*
X64802830Y-105755578D01*
X64802830Y-102990952D01*
X66876300Y-102990952D01*
X66876300Y-103682109D01*
X65493987Y-103682109D01*
X65493987Y-104373265D01*
X66876300Y-104373265D01*
X66876300Y-105064422D01*
X65493987Y-105064422D01*
X65493987Y-105755578D01*
X64802830Y-105755578D01*
X64802830Y-106446734D01*
X66185143Y-106446734D01*
X66185143Y-105755578D01*
X67567456Y-105755578D01*
X67567456Y-104373265D01*
X66876300Y-104373265D01*
X66876300Y-103682109D01*
X67567456Y-103682109D01*
X67567456Y-100917483D01*
X66876300Y-100917483D01*
X66876300Y-99535170D01*
X67567456Y-99535170D01*
X67567456Y-98844013D01*
X66876300Y-98844013D01*
X66876300Y-98152857D01*
X66185143Y-98152857D01*
X66185143Y-97461700D01*
X67567456Y-97461700D01*
X67567456Y-96770544D01*
X63420517Y-96770544D01*
X63420517Y-97461700D01*
X62038204Y-97461700D01*
X62038204Y-98152857D01*
X61347048Y-98152857D01*
X61347048Y-98844013D01*
X62729361Y-98844013D01*
X62729361Y-99535170D01*
X63420517Y-99535170D01*
X63420517Y-97461700D01*
X64111674Y-97461700D01*
X64111674Y-98844013D01*
X64802830Y-98844013D01*
X64802830Y-97461700D01*
X65493987Y-97461700D01*
X65493987Y-98844013D01*
X64802830Y-98844013D01*
X64111674Y-98844013D01*
X64111674Y-99535170D01*
X63420517Y-99535170D01*
X62729361Y-99535170D01*
X61347048Y-99535170D01*
X61347048Y-100226326D01*
X60655891Y-100226326D01*
X60655891Y-100917483D01*
X61347048Y-100917483D01*
X61347048Y-102299796D01*
X62038204Y-102299796D01*
X62038204Y-100226326D01*
X64111674Y-100226326D01*
X64111674Y-102299796D01*
X64802830Y-102299796D01*
X64802830Y-100226326D01*
X65493987Y-100226326D01*
X65493987Y-99535170D01*
X66185143Y-99535170D01*
X66185143Y-100917483D01*
X65493987Y-100917483D01*
X65493987Y-102299796D01*
X66185143Y-102299796D01*
X66185143Y-101608639D01*
X66876300Y-101608639D01*
X66876300Y-102299796D01*
X66185143Y-102299796D01*
X65493987Y-102299796D01*
X64802830Y-102299796D01*
X64111674Y-102299796D01*
X62038204Y-102299796D01*
X61347048Y-102299796D01*
X60655891Y-102299796D01*
X60655891Y-102990952D01*
X61347048Y-102990952D01*
X61347048Y-103682109D01*
X62038204Y-103682109D01*
X62038204Y-102990952D01*
X62729361Y-102990952D01*
X62729361Y-103682109D01*
X62038204Y-103682109D01*
X62038204Y-104373265D01*
X62729361Y-104373265D01*
X62729361Y-103682109D01*
X64111674Y-103682109D01*
X64111674Y-104373265D01*
X62729361Y-104373265D01*
X62729361Y-105064422D01*
X62038204Y-105064422D01*
X62038204Y-106446734D01*
X61347048Y-106446734D01*
X61347048Y-107137891D01*
G37*
X61347048Y-107137891D02*
X60655891Y-107137891D01*
X60655891Y-107829047D01*
X57891266Y-107829047D01*
X57891266Y-108520204D01*
X60655891Y-108520204D01*
X60655891Y-109211360D01*
X61347048Y-109211360D01*
X61347048Y-108520204D01*
X62038204Y-108520204D01*
X62038204Y-107137891D01*
X63420517Y-107137891D01*
X63420517Y-107829047D01*
X64111674Y-107829047D01*
X64111674Y-106446734D01*
X62729361Y-106446734D01*
X62729361Y-105755578D01*
X63420517Y-105755578D01*
X63420517Y-105064422D01*
X64111674Y-105064422D01*
X64111674Y-105755578D01*
X64802830Y-105755578D01*
X64802830Y-102990952D01*
X66876300Y-102990952D01*
X66876300Y-103682109D01*
X65493987Y-103682109D01*
X65493987Y-104373265D01*
X66876300Y-104373265D01*
X66876300Y-105064422D01*
X65493987Y-105064422D01*
X65493987Y-105755578D01*
X64802830Y-105755578D01*
X64802830Y-106446734D01*
X66185143Y-106446734D01*
X66185143Y-105755578D01*
X67567456Y-105755578D01*
X67567456Y-104373265D01*
X66876300Y-104373265D01*
X66876300Y-103682109D01*
X67567456Y-103682109D01*
X67567456Y-100917483D01*
X66876300Y-100917483D01*
X66876300Y-99535170D01*
X67567456Y-99535170D01*
X67567456Y-98844013D01*
X66876300Y-98844013D01*
X66876300Y-98152857D01*
X66185143Y-98152857D01*
X66185143Y-97461700D01*
X67567456Y-97461700D01*
X67567456Y-96770544D01*
X63420517Y-96770544D01*
X63420517Y-97461700D01*
X62038204Y-97461700D01*
X62038204Y-98152857D01*
X61347048Y-98152857D01*
X61347048Y-98844013D01*
X62729361Y-98844013D01*
X62729361Y-99535170D01*
X63420517Y-99535170D01*
X63420517Y-97461700D01*
X64111674Y-97461700D01*
X64111674Y-98844013D01*
X64802830Y-98844013D01*
X64802830Y-97461700D01*
X65493987Y-97461700D01*
X65493987Y-98844013D01*
X64802830Y-98844013D01*
X64111674Y-98844013D01*
X64111674Y-99535170D01*
X63420517Y-99535170D01*
X62729361Y-99535170D01*
X61347048Y-99535170D01*
X61347048Y-100226326D01*
X60655891Y-100226326D01*
X60655891Y-100917483D01*
X61347048Y-100917483D01*
X61347048Y-102299796D01*
X62038204Y-102299796D01*
X62038204Y-100226326D01*
X64111674Y-100226326D01*
X64111674Y-102299796D01*
X64802830Y-102299796D01*
X64802830Y-100226326D01*
X65493987Y-100226326D01*
X65493987Y-99535170D01*
X66185143Y-99535170D01*
X66185143Y-100917483D01*
X65493987Y-100917483D01*
X65493987Y-102299796D01*
X66185143Y-102299796D01*
X66185143Y-101608639D01*
X66876300Y-101608639D01*
X66876300Y-102299796D01*
X66185143Y-102299796D01*
X65493987Y-102299796D01*
X64802830Y-102299796D01*
X64111674Y-102299796D01*
X62038204Y-102299796D01*
X61347048Y-102299796D01*
X60655891Y-102299796D01*
X60655891Y-102990952D01*
X61347048Y-102990952D01*
X61347048Y-103682109D01*
X62038204Y-103682109D01*
X62038204Y-102990952D01*
X62729361Y-102990952D01*
X62729361Y-103682109D01*
X62038204Y-103682109D01*
X62038204Y-104373265D01*
X62729361Y-104373265D01*
X62729361Y-103682109D01*
X64111674Y-103682109D01*
X64111674Y-104373265D01*
X62729361Y-104373265D01*
X62729361Y-105064422D01*
X62038204Y-105064422D01*
X62038204Y-106446734D01*
X61347048Y-106446734D01*
X61347048Y-107137891D01*
G36*
X56508953Y-98844013D02*
G01*
X57200109Y-98844013D01*
X57200109Y-96770544D01*
X55817796Y-96770544D01*
X55817796Y-97461700D01*
X56508953Y-97461700D01*
X56508953Y-98152857D01*
X55817796Y-98152857D01*
X55817796Y-99535170D01*
X56508953Y-99535170D01*
X56508953Y-98844013D01*
G37*
X56508953Y-98844013D02*
X57200109Y-98844013D01*
X57200109Y-96770544D01*
X55817796Y-96770544D01*
X55817796Y-97461700D01*
X56508953Y-97461700D01*
X56508953Y-98152857D01*
X55817796Y-98152857D01*
X55817796Y-99535170D01*
X56508953Y-99535170D01*
X56508953Y-98844013D01*
G36*
X59964735Y-101608639D02*
G01*
X59273578Y-101608639D01*
X59273578Y-100226326D01*
X59964735Y-100226326D01*
X59964735Y-99535170D01*
X60655891Y-99535170D01*
X60655891Y-98844013D01*
X59964735Y-98844013D01*
X59964735Y-98152857D01*
X57891266Y-98152857D01*
X57891266Y-98844013D01*
X57200109Y-98844013D01*
X57200109Y-99535170D01*
X57891266Y-99535170D01*
X57891266Y-98844013D01*
X58582422Y-98844013D01*
X58582422Y-99535170D01*
X57891266Y-99535170D01*
X57200109Y-99535170D01*
X57200109Y-100226326D01*
X58582422Y-100226326D01*
X58582422Y-100917483D01*
X57891266Y-100917483D01*
X57891266Y-101608639D01*
X58582422Y-101608639D01*
X58582422Y-102299796D01*
X59964735Y-102299796D01*
X59964735Y-101608639D01*
G37*
X59964735Y-101608639D02*
X59273578Y-101608639D01*
X59273578Y-100226326D01*
X59964735Y-100226326D01*
X59964735Y-99535170D01*
X60655891Y-99535170D01*
X60655891Y-98844013D01*
X59964735Y-98844013D01*
X59964735Y-98152857D01*
X57891266Y-98152857D01*
X57891266Y-98844013D01*
X57200109Y-98844013D01*
X57200109Y-99535170D01*
X57891266Y-99535170D01*
X57891266Y-98844013D01*
X58582422Y-98844013D01*
X58582422Y-99535170D01*
X57891266Y-99535170D01*
X57200109Y-99535170D01*
X57200109Y-100226326D01*
X58582422Y-100226326D01*
X58582422Y-100917483D01*
X57891266Y-100917483D01*
X57891266Y-101608639D01*
X58582422Y-101608639D01*
X58582422Y-102299796D01*
X59964735Y-102299796D01*
X59964735Y-101608639D01*
G36*
X56508953Y-102299796D02*
G01*
X57200109Y-102299796D01*
X57200109Y-100917483D01*
X56508953Y-100917483D01*
X56508953Y-100226326D01*
X55817796Y-100226326D01*
X55817796Y-102990952D01*
X56508953Y-102990952D01*
X56508953Y-102299796D01*
G37*
X56508953Y-102299796D02*
X57200109Y-102299796D01*
X57200109Y-100917483D01*
X56508953Y-100917483D01*
X56508953Y-100226326D01*
X55817796Y-100226326D01*
X55817796Y-102990952D01*
X56508953Y-102990952D01*
X56508953Y-102299796D01*
G36*
X58582422Y-102299796D02*
G01*
X57200109Y-102299796D01*
X57200109Y-102990952D01*
X58582422Y-102990952D01*
X58582422Y-102299796D01*
G37*
X58582422Y-102299796D02*
X57200109Y-102299796D01*
X57200109Y-102990952D01*
X58582422Y-102990952D01*
X58582422Y-102299796D01*
G36*
X55817796Y-105064422D02*
G01*
X56508953Y-105064422D01*
X56508953Y-103682109D01*
X55817796Y-103682109D01*
X55817796Y-102990952D01*
X55126640Y-102990952D01*
X55126640Y-102299796D01*
X54435483Y-102299796D01*
X54435483Y-102990952D01*
X53053170Y-102990952D01*
X53053170Y-103682109D01*
X54435483Y-103682109D01*
X54435483Y-102990952D01*
X55126640Y-102990952D01*
X55126640Y-103682109D01*
X54435483Y-103682109D01*
X54435483Y-104373265D01*
X53744327Y-104373265D01*
X53744327Y-105064422D01*
X54435483Y-105064422D01*
X54435483Y-104373265D01*
X55126640Y-104373265D01*
X55126640Y-103682109D01*
X55817796Y-103682109D01*
X55817796Y-104373265D01*
X55126640Y-104373265D01*
X55126640Y-105064422D01*
X54435483Y-105064422D01*
X54435483Y-105755578D01*
X55817796Y-105755578D01*
X55817796Y-105064422D01*
G37*
X55817796Y-105064422D02*
X56508953Y-105064422D01*
X56508953Y-103682109D01*
X55817796Y-103682109D01*
X55817796Y-102990952D01*
X55126640Y-102990952D01*
X55126640Y-102299796D01*
X54435483Y-102299796D01*
X54435483Y-102990952D01*
X53053170Y-102990952D01*
X53053170Y-103682109D01*
X54435483Y-103682109D01*
X54435483Y-102990952D01*
X55126640Y-102990952D01*
X55126640Y-103682109D01*
X54435483Y-103682109D01*
X54435483Y-104373265D01*
X53744327Y-104373265D01*
X53744327Y-105064422D01*
X54435483Y-105064422D01*
X54435483Y-104373265D01*
X55126640Y-104373265D01*
X55126640Y-103682109D01*
X55817796Y-103682109D01*
X55817796Y-104373265D01*
X55126640Y-104373265D01*
X55126640Y-105064422D01*
X54435483Y-105064422D01*
X54435483Y-105755578D01*
X55817796Y-105755578D01*
X55817796Y-105064422D01*
G36*
X61347048Y-104373265D02*
G01*
X60655891Y-104373265D01*
X60655891Y-103682109D01*
X59964735Y-103682109D01*
X59964735Y-102990952D01*
X58582422Y-102990952D01*
X58582422Y-104373265D01*
X59273578Y-104373265D01*
X59273578Y-103682109D01*
X59964735Y-103682109D01*
X59964735Y-104373265D01*
X59273578Y-104373265D01*
X59273578Y-105064422D01*
X61347048Y-105064422D01*
X61347048Y-104373265D01*
G37*
X61347048Y-104373265D02*
X60655891Y-104373265D01*
X60655891Y-103682109D01*
X59964735Y-103682109D01*
X59964735Y-102990952D01*
X58582422Y-102990952D01*
X58582422Y-104373265D01*
X59273578Y-104373265D01*
X59273578Y-103682109D01*
X59964735Y-103682109D01*
X59964735Y-104373265D01*
X59273578Y-104373265D01*
X59273578Y-105064422D01*
X61347048Y-105064422D01*
X61347048Y-104373265D01*
G36*
X58582422Y-104373265D02*
G01*
X57891266Y-104373265D01*
X57891266Y-103682109D01*
X57200109Y-103682109D01*
X57200109Y-105064422D01*
X58582422Y-105064422D01*
X58582422Y-104373265D01*
G37*
X58582422Y-104373265D02*
X57891266Y-104373265D01*
X57891266Y-103682109D01*
X57200109Y-103682109D01*
X57200109Y-105064422D01*
X58582422Y-105064422D01*
X58582422Y-104373265D01*
G36*
X50979701Y-107829047D02*
G01*
X50288544Y-107829047D01*
X50288544Y-108520204D01*
X50979701Y-108520204D01*
X50979701Y-107829047D01*
G37*
X50979701Y-107829047D02*
X50288544Y-107829047D01*
X50288544Y-108520204D01*
X50979701Y-108520204D01*
X50979701Y-107829047D01*
G36*
X63420517Y-107829047D02*
G01*
X62729361Y-107829047D01*
X62729361Y-108520204D01*
X63420517Y-108520204D01*
X63420517Y-107829047D01*
G37*
X63420517Y-107829047D02*
X62729361Y-107829047D01*
X62729361Y-108520204D01*
X63420517Y-108520204D01*
X63420517Y-107829047D01*
G36*
X57891266Y-108520204D02*
G01*
X57200109Y-108520204D01*
X57200109Y-109902517D01*
X57891266Y-109902517D01*
X57891266Y-108520204D01*
G37*
X57891266Y-108520204D02*
X57200109Y-108520204D01*
X57200109Y-109902517D01*
X57891266Y-109902517D01*
X57891266Y-108520204D01*
G36*
X62038204Y-109211360D02*
G01*
X61347048Y-109211360D01*
X61347048Y-111284830D01*
X62038204Y-111284830D01*
X62038204Y-109211360D01*
G37*
X62038204Y-109211360D02*
X61347048Y-109211360D01*
X61347048Y-111284830D01*
X62038204Y-111284830D01*
X62038204Y-109211360D01*
G36*
X60655891Y-109211360D02*
G01*
X59964735Y-109211360D01*
X59964735Y-109902517D01*
X60655891Y-109902517D01*
X60655891Y-109211360D01*
G37*
X60655891Y-109211360D02*
X59964735Y-109211360D01*
X59964735Y-109902517D01*
X60655891Y-109902517D01*
X60655891Y-109211360D01*
G36*
X61347048Y-105755578D02*
G01*
X60655891Y-105755578D01*
X60655891Y-106446734D01*
X61347048Y-106446734D01*
X61347048Y-105755578D01*
G37*
X61347048Y-105755578D02*
X60655891Y-105755578D01*
X60655891Y-106446734D01*
X61347048Y-106446734D01*
X61347048Y-105755578D01*
G36*
X50979701Y-102990952D02*
G01*
X50288544Y-102990952D01*
X50288544Y-103682109D01*
X50979701Y-103682109D01*
X50979701Y-102990952D01*
G37*
X50979701Y-102990952D02*
X50288544Y-102990952D01*
X50288544Y-103682109D01*
X50979701Y-103682109D01*
X50979701Y-102990952D01*
G36*
X50979701Y-104373265D02*
G01*
X51670857Y-104373265D01*
X51670857Y-105755578D01*
X50979701Y-105755578D01*
X50979701Y-105064422D01*
X50288544Y-105064422D01*
X50288544Y-107137891D01*
X50979701Y-107137891D01*
X51670857Y-107137891D01*
X51670857Y-106446734D01*
X53053170Y-106446734D01*
X53053170Y-107137891D01*
X51670857Y-107137891D01*
X50979701Y-107137891D01*
X50979701Y-107829047D01*
X51670857Y-107829047D01*
X51670857Y-108520204D01*
X53053170Y-108520204D01*
X53053170Y-107137891D01*
X53744327Y-107137891D01*
X53744327Y-106446734D01*
X54435483Y-106446734D01*
X54435483Y-107137891D01*
X53744327Y-107137891D01*
X53744327Y-107829047D01*
X54435483Y-107829047D01*
X54435483Y-107137891D01*
X55817796Y-107137891D01*
X55817796Y-107829047D01*
X54435483Y-107829047D01*
X53744327Y-107829047D01*
X53744327Y-108520204D01*
X55817796Y-108520204D01*
X55817796Y-107829047D01*
X56508953Y-107829047D01*
X56508953Y-108520204D01*
X55817796Y-108520204D01*
X55817796Y-109902517D01*
X56508953Y-109902517D01*
X56508953Y-108520204D01*
X57200109Y-108520204D01*
X57200109Y-107829047D01*
X56508953Y-107829047D01*
X56508953Y-107137891D01*
X58582422Y-107137891D01*
X58582422Y-105755578D01*
X56508953Y-105755578D01*
X56508953Y-106446734D01*
X54435483Y-106446734D01*
X54435483Y-105755578D01*
X53053170Y-105755578D01*
X53053170Y-105064422D01*
X52362014Y-105064422D01*
X52362014Y-102299796D01*
X51670857Y-102299796D01*
X51670857Y-103682109D01*
X50979701Y-103682109D01*
X50979701Y-104373265D01*
G37*
X50979701Y-104373265D02*
X51670857Y-104373265D01*
X51670857Y-105755578D01*
X50979701Y-105755578D01*
X50979701Y-105064422D01*
X50288544Y-105064422D01*
X50288544Y-107137891D01*
X50979701Y-107137891D01*
X51670857Y-107137891D01*
X51670857Y-106446734D01*
X53053170Y-106446734D01*
X53053170Y-107137891D01*
X51670857Y-107137891D01*
X50979701Y-107137891D01*
X50979701Y-107829047D01*
X51670857Y-107829047D01*
X51670857Y-108520204D01*
X53053170Y-108520204D01*
X53053170Y-107137891D01*
X53744327Y-107137891D01*
X53744327Y-106446734D01*
X54435483Y-106446734D01*
X54435483Y-107137891D01*
X53744327Y-107137891D01*
X53744327Y-107829047D01*
X54435483Y-107829047D01*
X54435483Y-107137891D01*
X55817796Y-107137891D01*
X55817796Y-107829047D01*
X54435483Y-107829047D01*
X53744327Y-107829047D01*
X53744327Y-108520204D01*
X55817796Y-108520204D01*
X55817796Y-107829047D01*
X56508953Y-107829047D01*
X56508953Y-108520204D01*
X55817796Y-108520204D01*
X55817796Y-109902517D01*
X56508953Y-109902517D01*
X56508953Y-108520204D01*
X57200109Y-108520204D01*
X57200109Y-107829047D01*
X56508953Y-107829047D01*
X56508953Y-107137891D01*
X58582422Y-107137891D01*
X58582422Y-105755578D01*
X56508953Y-105755578D01*
X56508953Y-106446734D01*
X54435483Y-106446734D01*
X54435483Y-105755578D01*
X53053170Y-105755578D01*
X53053170Y-105064422D01*
X52362014Y-105064422D01*
X52362014Y-102299796D01*
X51670857Y-102299796D01*
X51670857Y-103682109D01*
X50979701Y-103682109D01*
X50979701Y-104373265D01*
G36*
X59273578Y-96770544D02*
G01*
X58582422Y-96770544D01*
X58582422Y-97461700D01*
X59273578Y-97461700D01*
X59273578Y-96770544D01*
G37*
X59273578Y-96770544D02*
X58582422Y-96770544D01*
X58582422Y-97461700D01*
X59273578Y-97461700D01*
X59273578Y-96770544D01*
G36*
X60655891Y-96770544D02*
G01*
X59964735Y-96770544D01*
X59964735Y-97461700D01*
X60655891Y-97461700D01*
X60655891Y-96770544D01*
G37*
X60655891Y-96770544D02*
X59964735Y-96770544D01*
X59964735Y-97461700D01*
X60655891Y-97461700D01*
X60655891Y-96770544D01*
G36*
X59964735Y-105755578D02*
G01*
X59273578Y-105755578D01*
X59273578Y-107137891D01*
X59964735Y-107137891D01*
X59964735Y-105755578D01*
G37*
X59964735Y-105755578D02*
X59273578Y-105755578D01*
X59273578Y-107137891D01*
X59964735Y-107137891D01*
X59964735Y-105755578D01*
G36*
X67567456Y-107829047D02*
G01*
X66876300Y-107829047D01*
X66876300Y-107137891D01*
X66185143Y-107137891D01*
X66185143Y-108520204D01*
X67567456Y-108520204D01*
X67567456Y-107829047D01*
G37*
X67567456Y-107829047D02*
X66876300Y-107829047D01*
X66876300Y-107137891D01*
X66185143Y-107137891D01*
X66185143Y-108520204D01*
X67567456Y-108520204D01*
X67567456Y-107829047D01*
G36*
X65493987Y-107829047D02*
G01*
X64802830Y-107829047D01*
X64802830Y-108520204D01*
X65493987Y-108520204D01*
X65493987Y-107829047D01*
G37*
X65493987Y-107829047D02*
X64802830Y-107829047D01*
X64802830Y-108520204D01*
X65493987Y-108520204D01*
X65493987Y-107829047D01*
G36*
X55126640Y-109211360D02*
G01*
X50288544Y-109211360D01*
X50288544Y-113323741D01*
X51014259Y-113323741D01*
X51014259Y-109937075D01*
X54400925Y-109937075D01*
X54400925Y-113323741D01*
X51014259Y-113323741D01*
X50288544Y-113323741D01*
X50288544Y-114049456D01*
X55126640Y-114049456D01*
X55126640Y-109211360D01*
G37*
X55126640Y-109211360D02*
X50288544Y-109211360D01*
X50288544Y-113323741D01*
X51014259Y-113323741D01*
X51014259Y-109937075D01*
X54400925Y-109937075D01*
X54400925Y-113323741D01*
X51014259Y-113323741D01*
X50288544Y-113323741D01*
X50288544Y-114049456D01*
X55126640Y-114049456D01*
X55126640Y-109211360D01*
G36*
X59273578Y-109211360D02*
G01*
X58582422Y-109211360D01*
X58582422Y-109902517D01*
X59273578Y-109902517D01*
X59273578Y-109211360D01*
G37*
X59273578Y-109211360D02*
X58582422Y-109211360D01*
X58582422Y-109902517D01*
X59273578Y-109902517D01*
X59273578Y-109211360D01*
G36*
X67567456Y-109211360D02*
G01*
X62729361Y-109211360D01*
X62729361Y-113323741D01*
X63455075Y-113323741D01*
X63455075Y-109937075D01*
X66841742Y-109937075D01*
X66841742Y-113323741D01*
X63455075Y-113323741D01*
X62729361Y-113323741D01*
X62729361Y-114049456D01*
X67567456Y-114049456D01*
X67567456Y-109211360D01*
G37*
X67567456Y-109211360D02*
X62729361Y-109211360D01*
X62729361Y-113323741D01*
X63455075Y-113323741D01*
X63455075Y-109937075D01*
X66841742Y-109937075D01*
X66841742Y-113323741D01*
X63455075Y-113323741D01*
X62729361Y-113323741D01*
X62729361Y-114049456D01*
X67567456Y-114049456D01*
X67567456Y-109211360D01*
G36*
X59273578Y-113358299D02*
G01*
X59964735Y-113358299D01*
X60655891Y-113358299D01*
X60655891Y-112667143D01*
X61347048Y-112667143D01*
X61347048Y-113358299D01*
X60655891Y-113358299D01*
X59964735Y-113358299D01*
X59964735Y-114049456D01*
X62038204Y-114049456D01*
X62038204Y-112667143D01*
X61347048Y-112667143D01*
X61347048Y-111975986D01*
X60655891Y-111975986D01*
X60655891Y-111284830D01*
X59273578Y-111284830D01*
X59273578Y-110593673D01*
X56508953Y-110593673D01*
X56508953Y-111284830D01*
X55817796Y-111284830D01*
X55817796Y-111975986D01*
X57200109Y-111975986D01*
X57200109Y-111284830D01*
X57891266Y-111284830D01*
X57891266Y-111975986D01*
X58582422Y-111975986D01*
X58582422Y-111284830D01*
X59273578Y-111284830D01*
X59273578Y-111975986D01*
X58582422Y-111975986D01*
X57891266Y-111975986D01*
X57891266Y-112667143D01*
X59964735Y-112667143D01*
X59964735Y-111975986D01*
X60655891Y-111975986D01*
X60655891Y-112667143D01*
X59964735Y-112667143D01*
X57891266Y-112667143D01*
X57200109Y-112667143D01*
X57200109Y-113358299D01*
X58582422Y-113358299D01*
X58582422Y-114049456D01*
X59273578Y-114049456D01*
X59273578Y-113358299D01*
G37*
X59273578Y-113358299D02*
X59964735Y-113358299D01*
X60655891Y-113358299D01*
X60655891Y-112667143D01*
X61347048Y-112667143D01*
X61347048Y-113358299D01*
X60655891Y-113358299D01*
X59964735Y-113358299D01*
X59964735Y-114049456D01*
X62038204Y-114049456D01*
X62038204Y-112667143D01*
X61347048Y-112667143D01*
X61347048Y-111975986D01*
X60655891Y-111975986D01*
X60655891Y-111284830D01*
X59273578Y-111284830D01*
X59273578Y-110593673D01*
X56508953Y-110593673D01*
X56508953Y-111284830D01*
X55817796Y-111284830D01*
X55817796Y-111975986D01*
X57200109Y-111975986D01*
X57200109Y-111284830D01*
X57891266Y-111284830D01*
X57891266Y-111975986D01*
X58582422Y-111975986D01*
X58582422Y-111284830D01*
X59273578Y-111284830D01*
X59273578Y-111975986D01*
X58582422Y-111975986D01*
X57891266Y-111975986D01*
X57891266Y-112667143D01*
X59964735Y-112667143D01*
X59964735Y-111975986D01*
X60655891Y-111975986D01*
X60655891Y-112667143D01*
X59964735Y-112667143D01*
X57891266Y-112667143D01*
X57200109Y-112667143D01*
X57200109Y-113358299D01*
X58582422Y-113358299D01*
X58582422Y-114049456D01*
X59273578Y-114049456D01*
X59273578Y-113358299D01*
G36*
X56508953Y-112667143D02*
G01*
X55817796Y-112667143D01*
X55817796Y-114049456D01*
X56508953Y-114049456D01*
X56508953Y-112667143D01*
G37*
X56508953Y-112667143D02*
X55817796Y-112667143D01*
X55817796Y-114049456D01*
X56508953Y-114049456D01*
X56508953Y-112667143D01*
G36*
X53744327Y-98152857D02*
G01*
X51670857Y-98152857D01*
X51670857Y-100226326D01*
X53744327Y-100226326D01*
X53744327Y-98152857D01*
G37*
X53744327Y-98152857D02*
X51670857Y-98152857D01*
X51670857Y-100226326D01*
X53744327Y-100226326D01*
X53744327Y-98152857D01*
G36*
X63420517Y-100917483D02*
G01*
X62729361Y-100917483D01*
X62729361Y-101608639D01*
X63420517Y-101608639D01*
X63420517Y-100917483D01*
G37*
X63420517Y-100917483D02*
X62729361Y-100917483D01*
X62729361Y-101608639D01*
X63420517Y-101608639D01*
X63420517Y-100917483D01*
G36*
X53744327Y-110593673D02*
G01*
X51670857Y-110593673D01*
X51670857Y-112667143D01*
X53744327Y-112667143D01*
X53744327Y-110593673D01*
G37*
X53744327Y-110593673D02*
X51670857Y-110593673D01*
X51670857Y-112667143D01*
X53744327Y-112667143D01*
X53744327Y-110593673D01*
G36*
X66185143Y-110593673D02*
G01*
X64111674Y-110593673D01*
X64111674Y-112667143D01*
X66185143Y-112667143D01*
X66185143Y-110593673D01*
G37*
X66185143Y-110593673D02*
X64111674Y-110593673D01*
X64111674Y-112667143D01*
X66185143Y-112667143D01*
X66185143Y-110593673D01*
D14*
X18288000Y-96520000D02*
X20320000Y-96520000D01*
X25400000Y-96520000D02*
X27432000Y-96520000D01*
X25400000Y-106680000D02*
X27432000Y-106680000D01*
X18288000Y-106680000D02*
X20320000Y-106680000D01*
X18288000Y-101600000D02*
X20320000Y-101600000D01*
D15*
X20320000Y-96520000D02*
X20320000Y-111760000D01*
X20320000Y-111760000D02*
X25400000Y-111760000D01*
X25400000Y-111760000D02*
X25400000Y-96520000D01*
X25400000Y-96520000D02*
X20320000Y-96520000D01*
X25400000Y-106680000D02*
X20320000Y-106680000D01*
X25400000Y-101600000D02*
X20320000Y-101600000D01*
X22860000Y-101600000D02*
X22860000Y-96520000D01*
X22860000Y-101600000D02*
X22860000Y-106680000D01*
D14*
X25400000Y-101600000D02*
X27432000Y-101600000D01*
D13*
G36*
X79124759Y-105990184D02*
G01*
X79098247Y-106003282D01*
X79065553Y-106026106D01*
X79041725Y-106050996D01*
X79025406Y-106082249D01*
X79015240Y-106124166D01*
X79009872Y-106181044D01*
X79007944Y-106257184D01*
X79007831Y-106289917D01*
X79008161Y-106361656D01*
X79009527Y-106412927D01*
X79012500Y-106448404D01*
X79017649Y-106472763D01*
X79025543Y-106490680D01*
X79033757Y-106502902D01*
X79086187Y-106554905D01*
X79147930Y-106586184D01*
X79214536Y-106595592D01*
X79281558Y-106581980D01*
X79302792Y-106572354D01*
X79353624Y-106545859D01*
X79353624Y-106961052D01*
X79316525Y-106941868D01*
X79267643Y-106927025D01*
X79207561Y-106923222D01*
X79147564Y-106930243D01*
X79102256Y-106946013D01*
X79064675Y-106976047D01*
X79032564Y-107019024D01*
X79030150Y-107023436D01*
X79019967Y-107044221D01*
X79012530Y-107065170D01*
X79007411Y-107090548D01*
X79004181Y-107124618D01*
X79002413Y-107171641D01*
X79001677Y-107235882D01*
X79001544Y-107308176D01*
X79001544Y-107538822D01*
X79139861Y-107538822D01*
X79139861Y-107113533D01*
X79178549Y-107080979D01*
X79218738Y-107054940D01*
X79256797Y-107050205D01*
X79295066Y-107062389D01*
X79315462Y-107074320D01*
X79330642Y-107091313D01*
X79341438Y-107116995D01*
X79348683Y-107154991D01*
X79353208Y-107208926D01*
X79355844Y-107282425D01*
X79356772Y-107331347D01*
X79359911Y-107532535D01*
X79425926Y-107536336D01*
X79491940Y-107540136D01*
X79491940Y-106291650D01*
X79353624Y-106291650D01*
X79350097Y-106361254D01*
X79338215Y-106409569D01*
X79316020Y-106439631D01*
X79281559Y-106454471D01*
X79246742Y-106457436D01*
X79207329Y-106454028D01*
X79181171Y-106440617D01*
X79164814Y-106422896D01*
X79151937Y-106403835D01*
X79144272Y-106382601D01*
X79140861Y-106352849D01*
X79140749Y-106308236D01*
X79141897Y-106270880D01*
X79144532Y-106214604D01*
X79148456Y-106177658D01*
X79155063Y-106154223D01*
X79165749Y-106138480D01*
X79175833Y-106129380D01*
X79217970Y-106109537D01*
X79267840Y-106106332D01*
X79296476Y-106113168D01*
X79324828Y-106137464D01*
X79343609Y-106184728D01*
X79352712Y-106254624D01*
X79353624Y-106291650D01*
X79491940Y-106291650D01*
X79491940Y-105979614D01*
X79422782Y-105979614D01*
X79381260Y-105981256D01*
X79359838Y-105987087D01*
X79353626Y-105998461D01*
X79353624Y-105998798D01*
X79350742Y-106009938D01*
X79338030Y-106008673D01*
X79312757Y-105996433D01*
X79253869Y-105977707D01*
X79187615Y-105975739D01*
X79124759Y-105990184D01*
G37*
X79124759Y-105990184D02*
X79098247Y-106003282D01*
X79065553Y-106026106D01*
X79041725Y-106050996D01*
X79025406Y-106082249D01*
X79015240Y-106124166D01*
X79009872Y-106181044D01*
X79007944Y-106257184D01*
X79007831Y-106289917D01*
X79008161Y-106361656D01*
X79009527Y-106412927D01*
X79012500Y-106448404D01*
X79017649Y-106472763D01*
X79025543Y-106490680D01*
X79033757Y-106502902D01*
X79086187Y-106554905D01*
X79147930Y-106586184D01*
X79214536Y-106595592D01*
X79281558Y-106581980D01*
X79302792Y-106572354D01*
X79353624Y-106545859D01*
X79353624Y-106961052D01*
X79316525Y-106941868D01*
X79267643Y-106927025D01*
X79207561Y-106923222D01*
X79147564Y-106930243D01*
X79102256Y-106946013D01*
X79064675Y-106976047D01*
X79032564Y-107019024D01*
X79030150Y-107023436D01*
X79019967Y-107044221D01*
X79012530Y-107065170D01*
X79007411Y-107090548D01*
X79004181Y-107124618D01*
X79002413Y-107171641D01*
X79001677Y-107235882D01*
X79001544Y-107308176D01*
X79001544Y-107538822D01*
X79139861Y-107538822D01*
X79139861Y-107113533D01*
X79178549Y-107080979D01*
X79218738Y-107054940D01*
X79256797Y-107050205D01*
X79295066Y-107062389D01*
X79315462Y-107074320D01*
X79330642Y-107091313D01*
X79341438Y-107116995D01*
X79348683Y-107154991D01*
X79353208Y-107208926D01*
X79355844Y-107282425D01*
X79356772Y-107331347D01*
X79359911Y-107532535D01*
X79425926Y-107536336D01*
X79491940Y-107540136D01*
X79491940Y-106291650D01*
X79353624Y-106291650D01*
X79350097Y-106361254D01*
X79338215Y-106409569D01*
X79316020Y-106439631D01*
X79281559Y-106454471D01*
X79246742Y-106457436D01*
X79207329Y-106454028D01*
X79181171Y-106440617D01*
X79164814Y-106422896D01*
X79151937Y-106403835D01*
X79144272Y-106382601D01*
X79140861Y-106352849D01*
X79140749Y-106308236D01*
X79141897Y-106270880D01*
X79144532Y-106214604D01*
X79148456Y-106177658D01*
X79155063Y-106154223D01*
X79165749Y-106138480D01*
X79175833Y-106129380D01*
X79217970Y-106109537D01*
X79267840Y-106106332D01*
X79296476Y-106113168D01*
X79324828Y-106137464D01*
X79343609Y-106184728D01*
X79352712Y-106254624D01*
X79353624Y-106291650D01*
X79491940Y-106291650D01*
X79491940Y-105979614D01*
X79422782Y-105979614D01*
X79381260Y-105981256D01*
X79359838Y-105987087D01*
X79353626Y-105998461D01*
X79353624Y-105998798D01*
X79350742Y-106009938D01*
X79338030Y-106008673D01*
X79312757Y-105996433D01*
X79253869Y-105977707D01*
X79187615Y-105975739D01*
X79124759Y-105990184D01*
G36*
X75580745Y-106922486D02*
G01*
X75532405Y-106932015D01*
X75504886Y-106946125D01*
X75475936Y-106969568D01*
X75517124Y-107021571D01*
X75542518Y-107053064D01*
X75559762Y-107068428D01*
X75576898Y-107070776D01*
X75601973Y-107063217D01*
X75613743Y-107058941D01*
X75661730Y-107052631D01*
X75705676Y-107066156D01*
X75737940Y-107096710D01*
X75743181Y-107106452D01*
X75748888Y-107132258D01*
X75753294Y-107179817D01*
X75756189Y-107245758D01*
X75757369Y-107326710D01*
X75757386Y-107338226D01*
X75757386Y-107538822D01*
X75895703Y-107538822D01*
X75895703Y-106922683D01*
X75826544Y-106922683D01*
X75786667Y-106923725D01*
X75765893Y-106928358D01*
X75758211Y-106938849D01*
X75757386Y-106948745D01*
X75757386Y-106974806D01*
X75724255Y-106948745D01*
X75686265Y-106930965D01*
X75635230Y-106922174D01*
X75580745Y-106922486D01*
G37*
X75580745Y-106922486D02*
X75532405Y-106932015D01*
X75504886Y-106946125D01*
X75475936Y-106969568D01*
X75517124Y-107021571D01*
X75542518Y-107053064D01*
X75559762Y-107068428D01*
X75576898Y-107070776D01*
X75601973Y-107063217D01*
X75613743Y-107058941D01*
X75661730Y-107052631D01*
X75705676Y-107066156D01*
X75737940Y-107096710D01*
X75743181Y-107106452D01*
X75748888Y-107132258D01*
X75753294Y-107179817D01*
X75756189Y-107245758D01*
X75757369Y-107326710D01*
X75757386Y-107338226D01*
X75757386Y-107538822D01*
X75895703Y-107538822D01*
X75895703Y-106922683D01*
X75826544Y-106922683D01*
X75786667Y-106923725D01*
X75765893Y-106928358D01*
X75758211Y-106938849D01*
X75757386Y-106948745D01*
X75757386Y-106974806D01*
X75724255Y-106948745D01*
X75686265Y-106930965D01*
X75635230Y-106922174D01*
X75580745Y-106922486D01*
G36*
X75183419Y-106925970D02*
G01*
X75123315Y-106941597D01*
X75072979Y-106973848D01*
X75048607Y-106997940D01*
X75008655Y-107054895D01*
X74985758Y-107120965D01*
X74977892Y-107202182D01*
X74977852Y-107208748D01*
X74977782Y-107274763D01*
X75357736Y-107274763D01*
X75349637Y-107309342D01*
X75335013Y-107340659D01*
X75309419Y-107373291D01*
X75304065Y-107378500D01*
X75258057Y-107406694D01*
X75205590Y-107411475D01*
X75145197Y-107392926D01*
X75134960Y-107387931D01*
X75103561Y-107372745D01*
X75082530Y-107364094D01*
X75078861Y-107363293D01*
X75066052Y-107371063D01*
X75041622Y-107390072D01*
X75029221Y-107400460D01*
X75003524Y-107424321D01*
X74995085Y-107440077D01*
X75000942Y-107454571D01*
X75004072Y-107458534D01*
X75025275Y-107475879D01*
X75060262Y-107496959D01*
X75084663Y-107509265D01*
X75153928Y-107530946D01*
X75230612Y-107537971D01*
X75303235Y-107529647D01*
X75323574Y-107523686D01*
X75386524Y-107489952D01*
X75433185Y-107438045D01*
X75463827Y-107367459D01*
X75478718Y-107277692D01*
X75480353Y-107230753D01*
X75475579Y-107162413D01*
X75355010Y-107162413D01*
X75343348Y-107167465D01*
X75312002Y-107171429D01*
X75266429Y-107173768D01*
X75235554Y-107174169D01*
X75180019Y-107173783D01*
X75144967Y-107171975D01*
X75125738Y-107167773D01*
X75117670Y-107160203D01*
X75116099Y-107149218D01*
X75126879Y-107115381D01*
X75154020Y-107081940D01*
X75189723Y-107056272D01*
X75225440Y-107045772D01*
X75273952Y-107055086D01*
X75315947Y-107082013D01*
X75345064Y-107120827D01*
X75355010Y-107162413D01*
X75475579Y-107162413D01*
X75473401Y-107131236D01*
X75451945Y-107051949D01*
X75415530Y-106992263D01*
X75363703Y-106951549D01*
X75296010Y-106929179D01*
X75259338Y-106924871D01*
X75183419Y-106925970D01*
G37*
X75183419Y-106925970D02*
X75123315Y-106941597D01*
X75072979Y-106973848D01*
X75048607Y-106997940D01*
X75008655Y-107054895D01*
X74985758Y-107120965D01*
X74977892Y-107202182D01*
X74977852Y-107208748D01*
X74977782Y-107274763D01*
X75357736Y-107274763D01*
X75349637Y-107309342D01*
X75335013Y-107340659D01*
X75309419Y-107373291D01*
X75304065Y-107378500D01*
X75258057Y-107406694D01*
X75205590Y-107411475D01*
X75145197Y-107392926D01*
X75134960Y-107387931D01*
X75103561Y-107372745D01*
X75082530Y-107364094D01*
X75078861Y-107363293D01*
X75066052Y-107371063D01*
X75041622Y-107390072D01*
X75029221Y-107400460D01*
X75003524Y-107424321D01*
X74995085Y-107440077D01*
X75000942Y-107454571D01*
X75004072Y-107458534D01*
X75025275Y-107475879D01*
X75060262Y-107496959D01*
X75084663Y-107509265D01*
X75153928Y-107530946D01*
X75230612Y-107537971D01*
X75303235Y-107529647D01*
X75323574Y-107523686D01*
X75386524Y-107489952D01*
X75433185Y-107438045D01*
X75463827Y-107367459D01*
X75478718Y-107277692D01*
X75480353Y-107230753D01*
X75475579Y-107162413D01*
X75355010Y-107162413D01*
X75343348Y-107167465D01*
X75312002Y-107171429D01*
X75266429Y-107173768D01*
X75235554Y-107174169D01*
X75180019Y-107173783D01*
X75144967Y-107171975D01*
X75125738Y-107167773D01*
X75117670Y-107160203D01*
X75116099Y-107149218D01*
X75126879Y-107115381D01*
X75154020Y-107081940D01*
X75189723Y-107056272D01*
X75225440Y-107045772D01*
X75273952Y-107055086D01*
X75315947Y-107082013D01*
X75345064Y-107120827D01*
X75355010Y-107162413D01*
X75475579Y-107162413D01*
X75473401Y-107131236D01*
X75451945Y-107051949D01*
X75415530Y-106992263D01*
X75363703Y-106951549D01*
X75296010Y-106929179D01*
X75259338Y-106924871D01*
X75183419Y-106925970D01*
G36*
X77201983Y-105977452D02*
G01*
X77154366Y-105986482D01*
X77104966Y-106005370D01*
X77099688Y-106007777D01*
X77062226Y-106027476D01*
X77036283Y-106045781D01*
X77027897Y-106057508D01*
X77035883Y-106076632D01*
X77055280Y-106104850D01*
X77063890Y-106115384D01*
X77099372Y-106156847D01*
X77145115Y-106129858D01*
X77188650Y-106111878D01*
X77238950Y-106102267D01*
X77287188Y-106101660D01*
X77324533Y-106110691D01*
X77333495Y-106116327D01*
X77350563Y-106142171D01*
X77352637Y-106171941D01*
X77339866Y-106195197D01*
X77332312Y-106199708D01*
X77309675Y-106205309D01*
X77269885Y-106211892D01*
X77220834Y-106218183D01*
X77211785Y-106219170D01*
X77133004Y-106232798D01*
X77075864Y-106255946D01*
X77037970Y-106290752D01*
X77016921Y-106339354D01*
X77010365Y-106398718D01*
X77019423Y-106466198D01*
X77048836Y-106519188D01*
X77098722Y-106557783D01*
X77169200Y-106582081D01*
X77247435Y-106591667D01*
X77311234Y-106591552D01*
X77362984Y-106582845D01*
X77398327Y-106570825D01*
X77442983Y-106549880D01*
X77484253Y-106525574D01*
X77498921Y-106514876D01*
X77536643Y-106484084D01*
X77491148Y-106438049D01*
X77445653Y-106392013D01*
X77393928Y-106426243D01*
X77342048Y-106451952D01*
X77286649Y-106465399D01*
X77233395Y-106466818D01*
X77187951Y-106456443D01*
X77155984Y-106434507D01*
X77145662Y-106415998D01*
X77147211Y-106386314D01*
X77172860Y-106363615D01*
X77222540Y-106347940D01*
X77276969Y-106340695D01*
X77360736Y-106326873D01*
X77422967Y-106300796D01*
X77464493Y-106261699D01*
X77486147Y-106208820D01*
X77489147Y-106146126D01*
X77474329Y-106080642D01*
X77440546Y-106031144D01*
X77387495Y-105997408D01*
X77314874Y-105979207D01*
X77261072Y-105975639D01*
X77201983Y-105977452D01*
G37*
X77201983Y-105977452D02*
X77154366Y-105986482D01*
X77104966Y-106005370D01*
X77099688Y-106007777D01*
X77062226Y-106027476D01*
X77036283Y-106045781D01*
X77027897Y-106057508D01*
X77035883Y-106076632D01*
X77055280Y-106104850D01*
X77063890Y-106115384D01*
X77099372Y-106156847D01*
X77145115Y-106129858D01*
X77188650Y-106111878D01*
X77238950Y-106102267D01*
X77287188Y-106101660D01*
X77324533Y-106110691D01*
X77333495Y-106116327D01*
X77350563Y-106142171D01*
X77352637Y-106171941D01*
X77339866Y-106195197D01*
X77332312Y-106199708D01*
X77309675Y-106205309D01*
X77269885Y-106211892D01*
X77220834Y-106218183D01*
X77211785Y-106219170D01*
X77133004Y-106232798D01*
X77075864Y-106255946D01*
X77037970Y-106290752D01*
X77016921Y-106339354D01*
X77010365Y-106398718D01*
X77019423Y-106466198D01*
X77048836Y-106519188D01*
X77098722Y-106557783D01*
X77169200Y-106582081D01*
X77247435Y-106591667D01*
X77311234Y-106591552D01*
X77362984Y-106582845D01*
X77398327Y-106570825D01*
X77442983Y-106549880D01*
X77484253Y-106525574D01*
X77498921Y-106514876D01*
X77536643Y-106484084D01*
X77491148Y-106438049D01*
X77445653Y-106392013D01*
X77393928Y-106426243D01*
X77342048Y-106451952D01*
X77286649Y-106465399D01*
X77233395Y-106466818D01*
X77187951Y-106456443D01*
X77155984Y-106434507D01*
X77145662Y-106415998D01*
X77147211Y-106386314D01*
X77172860Y-106363615D01*
X77222540Y-106347940D01*
X77276969Y-106340695D01*
X77360736Y-106326873D01*
X77422967Y-106300796D01*
X77464493Y-106261699D01*
X77486147Y-106208820D01*
X77489147Y-106146126D01*
X77474329Y-106080642D01*
X77440546Y-106031144D01*
X77387495Y-105997408D01*
X77314874Y-105979207D01*
X77261072Y-105975639D01*
X77201983Y-105977452D01*
G36*
X76934476Y-106925237D02*
G01*
X76884745Y-106928971D01*
X76754709Y-107318773D01*
X76734322Y-107249614D01*
X76722054Y-107206874D01*
X76705915Y-107149115D01*
X76688488Y-107085625D01*
X76679274Y-107051570D01*
X76644612Y-106922683D01*
X76501609Y-106922683D01*
X76544354Y-107057857D01*
X76565404Y-107124342D01*
X76590833Y-107204539D01*
X76617390Y-107288193D01*
X76641098Y-107362782D01*
X76695098Y-107532535D01*
X76753402Y-107536328D01*
X76811705Y-107540122D01*
X76843321Y-107435734D01*
X76862818Y-107370889D01*
X76884096Y-107299400D01*
X76902692Y-107236263D01*
X76903426Y-107233750D01*
X76917316Y-107190969D01*
X76929571Y-107161779D01*
X76938154Y-107150741D01*
X76939918Y-107152018D01*
X76946109Y-107169130D01*
X76957872Y-107205787D01*
X76973775Y-107257378D01*
X76992386Y-107319294D01*
X77002457Y-107353352D01*
X77056993Y-107538822D01*
X77172736Y-107538822D01*
X77265263Y-107246471D01*
X77291256Y-107164462D01*
X77314934Y-107089987D01*
X77335180Y-107026544D01*
X77350874Y-106977632D01*
X77360898Y-106946749D01*
X77363945Y-106937726D01*
X77361533Y-106928487D01*
X77342592Y-106924441D01*
X77303177Y-106924846D01*
X77297007Y-106925152D01*
X77223914Y-106928971D01*
X77176043Y-107105010D01*
X77158447Y-107169211D01*
X77142723Y-107225649D01*
X77130254Y-107269422D01*
X77122426Y-107295630D01*
X77120980Y-107299903D01*
X77114986Y-107294990D01*
X77102899Y-107269532D01*
X77086107Y-107226997D01*
X77065997Y-107170850D01*
X77048997Y-107120130D01*
X76984206Y-106921504D01*
X76934476Y-106925237D01*
G37*
X76934476Y-106925237D02*
X76884745Y-106928971D01*
X76754709Y-107318773D01*
X76734322Y-107249614D01*
X76722054Y-107206874D01*
X76705915Y-107149115D01*
X76688488Y-107085625D01*
X76679274Y-107051570D01*
X76644612Y-106922683D01*
X76501609Y-106922683D01*
X76544354Y-107057857D01*
X76565404Y-107124342D01*
X76590833Y-107204539D01*
X76617390Y-107288193D01*
X76641098Y-107362782D01*
X76695098Y-107532535D01*
X76753402Y-107536328D01*
X76811705Y-107540122D01*
X76843321Y-107435734D01*
X76862818Y-107370889D01*
X76884096Y-107299400D01*
X76902692Y-107236263D01*
X76903426Y-107233750D01*
X76917316Y-107190969D01*
X76929571Y-107161779D01*
X76938154Y-107150741D01*
X76939918Y-107152018D01*
X76946109Y-107169130D01*
X76957872Y-107205787D01*
X76973775Y-107257378D01*
X76992386Y-107319294D01*
X77002457Y-107353352D01*
X77056993Y-107538822D01*
X77172736Y-107538822D01*
X77265263Y-107246471D01*
X77291256Y-107164462D01*
X77314934Y-107089987D01*
X77335180Y-107026544D01*
X77350874Y-106977632D01*
X77360898Y-106946749D01*
X77363945Y-106937726D01*
X77361533Y-106928487D01*
X77342592Y-106924441D01*
X77303177Y-106924846D01*
X77297007Y-106925152D01*
X77223914Y-106928971D01*
X77176043Y-107105010D01*
X77158447Y-107169211D01*
X77142723Y-107225649D01*
X77130254Y-107269422D01*
X77122426Y-107295630D01*
X77120980Y-107299903D01*
X77114986Y-107294990D01*
X77102899Y-107269532D01*
X77086107Y-107226997D01*
X77065997Y-107170850D01*
X77048997Y-107120130D01*
X76984206Y-106921504D01*
X76934476Y-106925237D01*
G36*
X76177589Y-106926417D02*
G01*
X76124589Y-106939290D01*
X76109269Y-106946110D01*
X76079572Y-106963974D01*
X76056780Y-106984093D01*
X76039917Y-107009962D01*
X76028002Y-107045073D01*
X76020058Y-107092920D01*
X76015106Y-107156996D01*
X76012169Y-107240794D01*
X76011053Y-107296768D01*
X76006948Y-107538822D01*
X76077068Y-107538822D01*
X76119607Y-107537038D01*
X76141524Y-107530942D01*
X76147188Y-107520706D01*
X76150179Y-107509637D01*
X76163549Y-107511754D01*
X76181767Y-107520629D01*
X76227376Y-107534233D01*
X76285993Y-107537899D01*
X76347646Y-107531903D01*
X76402362Y-107516521D01*
X76407270Y-107514386D01*
X76457277Y-107479255D01*
X76490244Y-107430419D01*
X76505413Y-107373333D01*
X76504254Y-107352824D01*
X76380492Y-107352824D01*
X76369587Y-107380425D01*
X76337255Y-107400204D01*
X76285090Y-107410819D01*
X76257213Y-107412228D01*
X76210753Y-107408620D01*
X76179871Y-107394597D01*
X76172336Y-107387931D01*
X76151924Y-107351666D01*
X76147188Y-107318773D01*
X76147188Y-107274763D01*
X76208487Y-107274763D01*
X76279744Y-107278395D01*
X76329724Y-107289818D01*
X76361304Y-107309824D01*
X76368374Y-107318743D01*
X76380492Y-107352824D01*
X76504254Y-107352824D01*
X76502029Y-107313456D01*
X76479337Y-107256244D01*
X76448376Y-107217580D01*
X76429624Y-107200864D01*
X76411267Y-107189878D01*
X76387381Y-107183180D01*
X76352043Y-107179326D01*
X76299331Y-107176873D01*
X76278423Y-107176168D01*
X76147188Y-107171879D01*
X76147380Y-107132158D01*
X76152463Y-107090405D01*
X76170838Y-107065158D01*
X76207961Y-107049030D01*
X76208957Y-107048742D01*
X76261590Y-107042400D01*
X76313094Y-107050684D01*
X76351370Y-107070827D01*
X76366728Y-107080773D01*
X76383270Y-107079397D01*
X76408725Y-107064987D01*
X76423672Y-107054817D01*
X76452909Y-107033088D01*
X76471020Y-107016800D01*
X76473926Y-107012137D01*
X76461960Y-106988005D01*
X76426604Y-106959185D01*
X76411247Y-106949461D01*
X76367099Y-106932714D01*
X76307602Y-106923227D01*
X76241513Y-106921095D01*
X76177589Y-106926417D01*
G37*
X76177589Y-106926417D02*
X76124589Y-106939290D01*
X76109269Y-106946110D01*
X76079572Y-106963974D01*
X76056780Y-106984093D01*
X76039917Y-107009962D01*
X76028002Y-107045073D01*
X76020058Y-107092920D01*
X76015106Y-107156996D01*
X76012169Y-107240794D01*
X76011053Y-107296768D01*
X76006948Y-107538822D01*
X76077068Y-107538822D01*
X76119607Y-107537038D01*
X76141524Y-107530942D01*
X76147188Y-107520706D01*
X76150179Y-107509637D01*
X76163549Y-107511754D01*
X76181767Y-107520629D01*
X76227376Y-107534233D01*
X76285993Y-107537899D01*
X76347646Y-107531903D01*
X76402362Y-107516521D01*
X76407270Y-107514386D01*
X76457277Y-107479255D01*
X76490244Y-107430419D01*
X76505413Y-107373333D01*
X76504254Y-107352824D01*
X76380492Y-107352824D01*
X76369587Y-107380425D01*
X76337255Y-107400204D01*
X76285090Y-107410819D01*
X76257213Y-107412228D01*
X76210753Y-107408620D01*
X76179871Y-107394597D01*
X76172336Y-107387931D01*
X76151924Y-107351666D01*
X76147188Y-107318773D01*
X76147188Y-107274763D01*
X76208487Y-107274763D01*
X76279744Y-107278395D01*
X76329724Y-107289818D01*
X76361304Y-107309824D01*
X76368374Y-107318743D01*
X76380492Y-107352824D01*
X76504254Y-107352824D01*
X76502029Y-107313456D01*
X76479337Y-107256244D01*
X76448376Y-107217580D01*
X76429624Y-107200864D01*
X76411267Y-107189878D01*
X76387381Y-107183180D01*
X76352043Y-107179326D01*
X76299331Y-107176873D01*
X76278423Y-107176168D01*
X76147188Y-107171879D01*
X76147380Y-107132158D01*
X76152463Y-107090405D01*
X76170838Y-107065158D01*
X76207961Y-107049030D01*
X76208957Y-107048742D01*
X76261590Y-107042400D01*
X76313094Y-107050684D01*
X76351370Y-107070827D01*
X76366728Y-107080773D01*
X76383270Y-107079397D01*
X76408725Y-107064987D01*
X76423672Y-107054817D01*
X76452909Y-107033088D01*
X76471020Y-107016800D01*
X76473926Y-107012137D01*
X76461960Y-106988005D01*
X76426604Y-106959185D01*
X76411247Y-106949461D01*
X76367099Y-106932714D01*
X76307602Y-106923227D01*
X76241513Y-106921095D01*
X76177589Y-106926417D01*
G36*
X76839036Y-101811018D02*
G01*
X76782188Y-102112570D01*
X76362662Y-102285512D01*
X76111016Y-102114395D01*
X76040542Y-102066750D01*
X75976837Y-102024210D01*
X75922874Y-101988715D01*
X75881627Y-101962210D01*
X75856066Y-101946636D01*
X75849105Y-101943278D01*
X75836565Y-101951914D01*
X75809769Y-101975792D01*
X75771720Y-102011859D01*
X75725421Y-102057067D01*
X75673877Y-102108364D01*
X75620091Y-102162701D01*
X75567065Y-102217028D01*
X75517805Y-102268295D01*
X75475313Y-102313451D01*
X75442593Y-102349446D01*
X75422649Y-102373230D01*
X75417881Y-102381190D01*
X75424743Y-102395865D01*
X75443980Y-102428014D01*
X75473570Y-102474492D01*
X75511490Y-102532156D01*
X75555718Y-102597860D01*
X75581346Y-102635336D01*
X75628059Y-102703768D01*
X75669568Y-102765520D01*
X75703860Y-102817519D01*
X75728920Y-102856692D01*
X75742736Y-102879965D01*
X75744812Y-102884855D01*
X75740105Y-102898755D01*
X75727277Y-102931150D01*
X75708262Y-102977485D01*
X75684997Y-103033206D01*
X75659416Y-103093758D01*
X75633455Y-103154586D01*
X75609050Y-103211136D01*
X75588137Y-103258852D01*
X75572651Y-103293181D01*
X75564528Y-103309568D01*
X75564048Y-103310212D01*
X75551293Y-103313341D01*
X75517323Y-103320321D01*
X75465660Y-103330467D01*
X75399824Y-103343092D01*
X75323336Y-103357509D01*
X75278710Y-103365823D01*
X75196979Y-103381384D01*
X75123157Y-103396192D01*
X75060979Y-103409436D01*
X75014178Y-103420305D01*
X74986491Y-103427989D01*
X74980926Y-103430427D01*
X74975474Y-103446930D01*
X74971076Y-103484200D01*
X74967728Y-103537880D01*
X74965426Y-103603612D01*
X74964168Y-103677037D01*
X74963952Y-103753796D01*
X74964773Y-103829532D01*
X74966629Y-103899886D01*
X74969518Y-103960500D01*
X74973435Y-104007016D01*
X74978378Y-104035075D01*
X74981343Y-104040916D01*
X74999066Y-104047917D01*
X75036619Y-104057927D01*
X75089036Y-104069769D01*
X75151348Y-104082267D01*
X75173100Y-104086310D01*
X75277976Y-104105520D01*
X75360820Y-104120991D01*
X75424370Y-104133337D01*
X75471363Y-104143173D01*
X75504537Y-104151114D01*
X75526629Y-104157776D01*
X75540376Y-104163773D01*
X75548516Y-104169719D01*
X75549655Y-104170894D01*
X75561023Y-104189826D01*
X75578365Y-104226669D01*
X75599950Y-104276913D01*
X75624046Y-104336046D01*
X75648921Y-104399556D01*
X75672843Y-104462932D01*
X75694081Y-104521662D01*
X75710903Y-104571235D01*
X75721578Y-104607139D01*
X75724373Y-104624862D01*
X75724140Y-104625483D01*
X75714669Y-104639970D01*
X75693182Y-104671844D01*
X75661937Y-104717789D01*
X75623193Y-104774485D01*
X75579207Y-104838617D01*
X75566681Y-104856842D01*
X75522016Y-104922914D01*
X75482712Y-104983200D01*
X75450912Y-105034235D01*
X75428755Y-105072560D01*
X75418383Y-105094711D01*
X75417881Y-105097432D01*
X75426595Y-105111736D01*
X75450675Y-105140072D01*
X75487024Y-105179396D01*
X75532547Y-105226661D01*
X75584148Y-105278823D01*
X75638733Y-105332835D01*
X75693206Y-105385653D01*
X75744471Y-105434231D01*
X75789433Y-105475523D01*
X75824996Y-105506485D01*
X75848065Y-105524070D01*
X75854446Y-105526941D01*
X75869301Y-105520178D01*
X75899714Y-105501939D01*
X75940732Y-105475297D01*
X75972291Y-105453852D01*
X76029475Y-105414503D01*
X76097194Y-105368171D01*
X76165120Y-105321913D01*
X76201639Y-105297155D01*
X76325248Y-105213547D01*
X76429009Y-105269650D01*
X76476280Y-105294228D01*
X76516477Y-105313331D01*
X76543674Y-105324227D01*
X76550598Y-105325743D01*
X76558923Y-105314549D01*
X76575346Y-105282917D01*
X76598643Y-105233765D01*
X76627586Y-105170010D01*
X76660950Y-105094571D01*
X76697509Y-105010364D01*
X76736036Y-104920308D01*
X76775306Y-104827321D01*
X76814092Y-104734320D01*
X76851170Y-104644223D01*
X76885311Y-104559948D01*
X76915292Y-104484413D01*
X76939884Y-104420534D01*
X76957864Y-104371231D01*
X76968003Y-104339421D01*
X76969634Y-104328496D01*
X76956709Y-104314561D01*
X76928411Y-104291940D01*
X76890654Y-104265333D01*
X76887485Y-104263228D01*
X76789900Y-104185114D01*
X76711214Y-104093982D01*
X76652109Y-103992745D01*
X76613268Y-103884318D01*
X76595372Y-103771614D01*
X76599103Y-103657548D01*
X76625143Y-103545034D01*
X76674175Y-103436985D01*
X76688600Y-103413345D01*
X76763631Y-103317887D01*
X76852270Y-103241232D01*
X76951451Y-103183780D01*
X77058105Y-103145929D01*
X77169164Y-103128078D01*
X77281561Y-103130625D01*
X77392227Y-103153970D01*
X77498094Y-103198510D01*
X77596095Y-103264645D01*
X77626410Y-103291487D01*
X77703562Y-103375512D01*
X77759782Y-103463966D01*
X77798347Y-103563115D01*
X77819826Y-103661303D01*
X77825128Y-103771697D01*
X77807448Y-103882640D01*
X77768581Y-103990381D01*
X77710323Y-104091169D01*
X77634469Y-104181256D01*
X77542817Y-104256892D01*
X77530772Y-104264864D01*
X77492611Y-104290974D01*
X77463601Y-104313595D01*
X77449732Y-104328039D01*
X77449531Y-104328496D01*
X77452508Y-104344121D01*
X77464311Y-104379582D01*
X77483714Y-104431962D01*
X77509488Y-104498345D01*
X77540409Y-104575814D01*
X77575249Y-104661450D01*
X77612783Y-104752337D01*
X77651783Y-104845559D01*
X77691023Y-104938197D01*
X77729276Y-105027335D01*
X77765317Y-105110055D01*
X77797917Y-105183441D01*
X77825852Y-105244575D01*
X77847895Y-105290541D01*
X77862818Y-105318421D01*
X77868828Y-105325743D01*
X77887191Y-105320041D01*
X77921552Y-105304749D01*
X77965984Y-105282599D01*
X77990417Y-105269650D01*
X78094178Y-105213547D01*
X78217787Y-105297155D01*
X78280886Y-105339987D01*
X78349970Y-105387122D01*
X78414707Y-105431503D01*
X78447134Y-105453852D01*
X78492741Y-105484477D01*
X78531360Y-105508747D01*
X78557952Y-105523587D01*
X78566590Y-105526724D01*
X78579161Y-105518261D01*
X78606984Y-105494636D01*
X78647361Y-105458302D01*
X78697595Y-105411711D01*
X78754988Y-105357317D01*
X78791286Y-105322392D01*
X78854790Y-105259996D01*
X78909673Y-105204188D01*
X78953714Y-105157354D01*
X78984695Y-105121882D01*
X79000398Y-105100161D01*
X79001905Y-105095752D01*
X78994914Y-105078985D01*
X78975594Y-105045082D01*
X78946091Y-104997476D01*
X78908545Y-104939599D01*
X78865100Y-104874884D01*
X78852745Y-104856842D01*
X78807727Y-104791267D01*
X78767340Y-104732228D01*
X78733840Y-104683042D01*
X78709486Y-104647028D01*
X78696536Y-104627502D01*
X78695285Y-104625483D01*
X78697156Y-104609922D01*
X78707087Y-104575709D01*
X78723347Y-104527355D01*
X78744205Y-104469371D01*
X78767927Y-104406270D01*
X78792784Y-104342563D01*
X78817042Y-104282761D01*
X78838971Y-104231376D01*
X78856838Y-104192919D01*
X78868913Y-104171902D01*
X78869771Y-104170894D01*
X78877154Y-104164888D01*
X78889625Y-104158948D01*
X78909920Y-104152460D01*
X78940778Y-104144809D01*
X78984934Y-104135380D01*
X79045126Y-104123559D01*
X79124093Y-104108729D01*
X79224570Y-104090277D01*
X79246325Y-104086310D01*
X79310802Y-104073853D01*
X79367011Y-104061666D01*
X79409987Y-104050926D01*
X79434760Y-104042809D01*
X79438082Y-104040916D01*
X79443556Y-104024138D01*
X79448006Y-103986645D01*
X79451428Y-103932794D01*
X79453819Y-103866944D01*
X79455177Y-103793453D01*
X79455499Y-103716680D01*
X79454781Y-103640983D01*
X79453021Y-103570720D01*
X79450216Y-103510250D01*
X79446362Y-103463930D01*
X79441457Y-103436119D01*
X79438500Y-103430427D01*
X79422037Y-103424686D01*
X79384551Y-103415345D01*
X79329775Y-103403215D01*
X79261445Y-103389107D01*
X79183294Y-103373830D01*
X79140716Y-103365823D01*
X79059929Y-103350721D01*
X78987887Y-103337040D01*
X78928111Y-103325467D01*
X78884121Y-103316687D01*
X78859439Y-103311387D01*
X78855377Y-103310212D01*
X78848511Y-103296965D01*
X78833998Y-103265057D01*
X78813771Y-103219047D01*
X78789766Y-103163492D01*
X78763918Y-103102953D01*
X78738160Y-103041986D01*
X78714427Y-102985151D01*
X78694654Y-102937006D01*
X78680776Y-102902110D01*
X78674726Y-102885021D01*
X78674614Y-102884274D01*
X78681472Y-102870793D01*
X78700698Y-102839770D01*
X78730272Y-102794289D01*
X78768173Y-102737432D01*
X78812380Y-102672283D01*
X78838079Y-102634862D01*
X78884907Y-102566247D01*
X78926499Y-102503952D01*
X78960825Y-102451129D01*
X78985857Y-102410927D01*
X78999565Y-102386500D01*
X79001544Y-102381024D01*
X78993034Y-102368278D01*
X78969507Y-102341063D01*
X78933968Y-102302428D01*
X78889423Y-102255423D01*
X78838877Y-102203095D01*
X78785336Y-102148495D01*
X78731805Y-102094670D01*
X78681289Y-102044670D01*
X78636794Y-102001543D01*
X78601325Y-101968339D01*
X78577887Y-101948106D01*
X78570046Y-101943278D01*
X78557280Y-101950067D01*
X78526744Y-101969142D01*
X78481410Y-101998561D01*
X78424244Y-102036381D01*
X78358216Y-102080661D01*
X78308410Y-102114395D01*
X78056764Y-102285512D01*
X77847001Y-102199041D01*
X77637237Y-102112570D01*
X77580389Y-101811018D01*
X77523540Y-101509466D01*
X76895885Y-101509466D01*
X76839036Y-101811018D01*
G37*
X76839036Y-101811018D02*
X76782188Y-102112570D01*
X76362662Y-102285512D01*
X76111016Y-102114395D01*
X76040542Y-102066750D01*
X75976837Y-102024210D01*
X75922874Y-101988715D01*
X75881627Y-101962210D01*
X75856066Y-101946636D01*
X75849105Y-101943278D01*
X75836565Y-101951914D01*
X75809769Y-101975792D01*
X75771720Y-102011859D01*
X75725421Y-102057067D01*
X75673877Y-102108364D01*
X75620091Y-102162701D01*
X75567065Y-102217028D01*
X75517805Y-102268295D01*
X75475313Y-102313451D01*
X75442593Y-102349446D01*
X75422649Y-102373230D01*
X75417881Y-102381190D01*
X75424743Y-102395865D01*
X75443980Y-102428014D01*
X75473570Y-102474492D01*
X75511490Y-102532156D01*
X75555718Y-102597860D01*
X75581346Y-102635336D01*
X75628059Y-102703768D01*
X75669568Y-102765520D01*
X75703860Y-102817519D01*
X75728920Y-102856692D01*
X75742736Y-102879965D01*
X75744812Y-102884855D01*
X75740105Y-102898755D01*
X75727277Y-102931150D01*
X75708262Y-102977485D01*
X75684997Y-103033206D01*
X75659416Y-103093758D01*
X75633455Y-103154586D01*
X75609050Y-103211136D01*
X75588137Y-103258852D01*
X75572651Y-103293181D01*
X75564528Y-103309568D01*
X75564048Y-103310212D01*
X75551293Y-103313341D01*
X75517323Y-103320321D01*
X75465660Y-103330467D01*
X75399824Y-103343092D01*
X75323336Y-103357509D01*
X75278710Y-103365823D01*
X75196979Y-103381384D01*
X75123157Y-103396192D01*
X75060979Y-103409436D01*
X75014178Y-103420305D01*
X74986491Y-103427989D01*
X74980926Y-103430427D01*
X74975474Y-103446930D01*
X74971076Y-103484200D01*
X74967728Y-103537880D01*
X74965426Y-103603612D01*
X74964168Y-103677037D01*
X74963952Y-103753796D01*
X74964773Y-103829532D01*
X74966629Y-103899886D01*
X74969518Y-103960500D01*
X74973435Y-104007016D01*
X74978378Y-104035075D01*
X74981343Y-104040916D01*
X74999066Y-104047917D01*
X75036619Y-104057927D01*
X75089036Y-104069769D01*
X75151348Y-104082267D01*
X75173100Y-104086310D01*
X75277976Y-104105520D01*
X75360820Y-104120991D01*
X75424370Y-104133337D01*
X75471363Y-104143173D01*
X75504537Y-104151114D01*
X75526629Y-104157776D01*
X75540376Y-104163773D01*
X75548516Y-104169719D01*
X75549655Y-104170894D01*
X75561023Y-104189826D01*
X75578365Y-104226669D01*
X75599950Y-104276913D01*
X75624046Y-104336046D01*
X75648921Y-104399556D01*
X75672843Y-104462932D01*
X75694081Y-104521662D01*
X75710903Y-104571235D01*
X75721578Y-104607139D01*
X75724373Y-104624862D01*
X75724140Y-104625483D01*
X75714669Y-104639970D01*
X75693182Y-104671844D01*
X75661937Y-104717789D01*
X75623193Y-104774485D01*
X75579207Y-104838617D01*
X75566681Y-104856842D01*
X75522016Y-104922914D01*
X75482712Y-104983200D01*
X75450912Y-105034235D01*
X75428755Y-105072560D01*
X75418383Y-105094711D01*
X75417881Y-105097432D01*
X75426595Y-105111736D01*
X75450675Y-105140072D01*
X75487024Y-105179396D01*
X75532547Y-105226661D01*
X75584148Y-105278823D01*
X75638733Y-105332835D01*
X75693206Y-105385653D01*
X75744471Y-105434231D01*
X75789433Y-105475523D01*
X75824996Y-105506485D01*
X75848065Y-105524070D01*
X75854446Y-105526941D01*
X75869301Y-105520178D01*
X75899714Y-105501939D01*
X75940732Y-105475297D01*
X75972291Y-105453852D01*
X76029475Y-105414503D01*
X76097194Y-105368171D01*
X76165120Y-105321913D01*
X76201639Y-105297155D01*
X76325248Y-105213547D01*
X76429009Y-105269650D01*
X76476280Y-105294228D01*
X76516477Y-105313331D01*
X76543674Y-105324227D01*
X76550598Y-105325743D01*
X76558923Y-105314549D01*
X76575346Y-105282917D01*
X76598643Y-105233765D01*
X76627586Y-105170010D01*
X76660950Y-105094571D01*
X76697509Y-105010364D01*
X76736036Y-104920308D01*
X76775306Y-104827321D01*
X76814092Y-104734320D01*
X76851170Y-104644223D01*
X76885311Y-104559948D01*
X76915292Y-104484413D01*
X76939884Y-104420534D01*
X76957864Y-104371231D01*
X76968003Y-104339421D01*
X76969634Y-104328496D01*
X76956709Y-104314561D01*
X76928411Y-104291940D01*
X76890654Y-104265333D01*
X76887485Y-104263228D01*
X76789900Y-104185114D01*
X76711214Y-104093982D01*
X76652109Y-103992745D01*
X76613268Y-103884318D01*
X76595372Y-103771614D01*
X76599103Y-103657548D01*
X76625143Y-103545034D01*
X76674175Y-103436985D01*
X76688600Y-103413345D01*
X76763631Y-103317887D01*
X76852270Y-103241232D01*
X76951451Y-103183780D01*
X77058105Y-103145929D01*
X77169164Y-103128078D01*
X77281561Y-103130625D01*
X77392227Y-103153970D01*
X77498094Y-103198510D01*
X77596095Y-103264645D01*
X77626410Y-103291487D01*
X77703562Y-103375512D01*
X77759782Y-103463966D01*
X77798347Y-103563115D01*
X77819826Y-103661303D01*
X77825128Y-103771697D01*
X77807448Y-103882640D01*
X77768581Y-103990381D01*
X77710323Y-104091169D01*
X77634469Y-104181256D01*
X77542817Y-104256892D01*
X77530772Y-104264864D01*
X77492611Y-104290974D01*
X77463601Y-104313595D01*
X77449732Y-104328039D01*
X77449531Y-104328496D01*
X77452508Y-104344121D01*
X77464311Y-104379582D01*
X77483714Y-104431962D01*
X77509488Y-104498345D01*
X77540409Y-104575814D01*
X77575249Y-104661450D01*
X77612783Y-104752337D01*
X77651783Y-104845559D01*
X77691023Y-104938197D01*
X77729276Y-105027335D01*
X77765317Y-105110055D01*
X77797917Y-105183441D01*
X77825852Y-105244575D01*
X77847895Y-105290541D01*
X77862818Y-105318421D01*
X77868828Y-105325743D01*
X77887191Y-105320041D01*
X77921552Y-105304749D01*
X77965984Y-105282599D01*
X77990417Y-105269650D01*
X78094178Y-105213547D01*
X78217787Y-105297155D01*
X78280886Y-105339987D01*
X78349970Y-105387122D01*
X78414707Y-105431503D01*
X78447134Y-105453852D01*
X78492741Y-105484477D01*
X78531360Y-105508747D01*
X78557952Y-105523587D01*
X78566590Y-105526724D01*
X78579161Y-105518261D01*
X78606984Y-105494636D01*
X78647361Y-105458302D01*
X78697595Y-105411711D01*
X78754988Y-105357317D01*
X78791286Y-105322392D01*
X78854790Y-105259996D01*
X78909673Y-105204188D01*
X78953714Y-105157354D01*
X78984695Y-105121882D01*
X79000398Y-105100161D01*
X79001905Y-105095752D01*
X78994914Y-105078985D01*
X78975594Y-105045082D01*
X78946091Y-104997476D01*
X78908545Y-104939599D01*
X78865100Y-104874884D01*
X78852745Y-104856842D01*
X78807727Y-104791267D01*
X78767340Y-104732228D01*
X78733840Y-104683042D01*
X78709486Y-104647028D01*
X78696536Y-104627502D01*
X78695285Y-104625483D01*
X78697156Y-104609922D01*
X78707087Y-104575709D01*
X78723347Y-104527355D01*
X78744205Y-104469371D01*
X78767927Y-104406270D01*
X78792784Y-104342563D01*
X78817042Y-104282761D01*
X78838971Y-104231376D01*
X78856838Y-104192919D01*
X78868913Y-104171902D01*
X78869771Y-104170894D01*
X78877154Y-104164888D01*
X78889625Y-104158948D01*
X78909920Y-104152460D01*
X78940778Y-104144809D01*
X78984934Y-104135380D01*
X79045126Y-104123559D01*
X79124093Y-104108729D01*
X79224570Y-104090277D01*
X79246325Y-104086310D01*
X79310802Y-104073853D01*
X79367011Y-104061666D01*
X79409987Y-104050926D01*
X79434760Y-104042809D01*
X79438082Y-104040916D01*
X79443556Y-104024138D01*
X79448006Y-103986645D01*
X79451428Y-103932794D01*
X79453819Y-103866944D01*
X79455177Y-103793453D01*
X79455499Y-103716680D01*
X79454781Y-103640983D01*
X79453021Y-103570720D01*
X79450216Y-103510250D01*
X79446362Y-103463930D01*
X79441457Y-103436119D01*
X79438500Y-103430427D01*
X79422037Y-103424686D01*
X79384551Y-103415345D01*
X79329775Y-103403215D01*
X79261445Y-103389107D01*
X79183294Y-103373830D01*
X79140716Y-103365823D01*
X79059929Y-103350721D01*
X78987887Y-103337040D01*
X78928111Y-103325467D01*
X78884121Y-103316687D01*
X78859439Y-103311387D01*
X78855377Y-103310212D01*
X78848511Y-103296965D01*
X78833998Y-103265057D01*
X78813771Y-103219047D01*
X78789766Y-103163492D01*
X78763918Y-103102953D01*
X78738160Y-103041986D01*
X78714427Y-102985151D01*
X78694654Y-102937006D01*
X78680776Y-102902110D01*
X78674726Y-102885021D01*
X78674614Y-102884274D01*
X78681472Y-102870793D01*
X78700698Y-102839770D01*
X78730272Y-102794289D01*
X78768173Y-102737432D01*
X78812380Y-102672283D01*
X78838079Y-102634862D01*
X78884907Y-102566247D01*
X78926499Y-102503952D01*
X78960825Y-102451129D01*
X78985857Y-102410927D01*
X78999565Y-102386500D01*
X79001544Y-102381024D01*
X78993034Y-102368278D01*
X78969507Y-102341063D01*
X78933968Y-102302428D01*
X78889423Y-102255423D01*
X78838877Y-102203095D01*
X78785336Y-102148495D01*
X78731805Y-102094670D01*
X78681289Y-102044670D01*
X78636794Y-102001543D01*
X78601325Y-101968339D01*
X78577887Y-101948106D01*
X78570046Y-101943278D01*
X78557280Y-101950067D01*
X78526744Y-101969142D01*
X78481410Y-101998561D01*
X78424244Y-102036381D01*
X78358216Y-102080661D01*
X78308410Y-102114395D01*
X78056764Y-102285512D01*
X77847001Y-102199041D01*
X77637237Y-102112570D01*
X77580389Y-101811018D01*
X77523540Y-101509466D01*
X76895885Y-101509466D01*
X76839036Y-101811018D01*
G36*
X78572699Y-105993614D02*
G01*
X78560168Y-105999514D01*
X78516799Y-106031283D01*
X78475790Y-106077646D01*
X78445168Y-106128696D01*
X78436459Y-106152166D01*
X78428512Y-106194091D01*
X78423774Y-106244757D01*
X78423199Y-106265679D01*
X78423129Y-106331693D01*
X78803083Y-106331693D01*
X78794983Y-106366273D01*
X78775104Y-106407170D01*
X78740347Y-106442514D01*
X78698998Y-106465282D01*
X78672649Y-106470010D01*
X78636916Y-106464273D01*
X78594282Y-106449882D01*
X78579799Y-106443262D01*
X78526240Y-106416513D01*
X78480533Y-106451376D01*
X78454158Y-106474955D01*
X78440124Y-106494417D01*
X78439414Y-106500129D01*
X78451951Y-106513973D01*
X78479428Y-106535012D01*
X78504366Y-106551425D01*
X78571664Y-106580930D01*
X78647110Y-106594284D01*
X78721888Y-106590812D01*
X78781495Y-106572663D01*
X78842941Y-106533784D01*
X78886608Y-106482595D01*
X78913926Y-106416367D01*
X78926322Y-106332371D01*
X78927421Y-106293936D01*
X78923022Y-106205861D01*
X78922482Y-106203299D01*
X78796582Y-106203299D01*
X78793115Y-106211558D01*
X78778863Y-106216113D01*
X78749470Y-106218065D01*
X78700575Y-106218517D01*
X78681748Y-106218525D01*
X78624467Y-106217843D01*
X78588141Y-106215364D01*
X78568604Y-106210443D01*
X78561690Y-106202434D01*
X78561445Y-106199862D01*
X78569336Y-106179423D01*
X78589085Y-106150789D01*
X78597575Y-106140763D01*
X78629094Y-106112408D01*
X78661949Y-106101259D01*
X78679651Y-106100327D01*
X78727539Y-106111981D01*
X78767699Y-106143285D01*
X78793173Y-106188752D01*
X78793625Y-106190233D01*
X78796582Y-106203299D01*
X78922482Y-106203299D01*
X78908392Y-106136510D01*
X78882038Y-106081025D01*
X78849807Y-106041639D01*
X78790217Y-105998931D01*
X78720168Y-105976109D01*
X78645661Y-105974046D01*
X78572699Y-105993614D01*
G37*
X78572699Y-105993614D02*
X78560168Y-105999514D01*
X78516799Y-106031283D01*
X78475790Y-106077646D01*
X78445168Y-106128696D01*
X78436459Y-106152166D01*
X78428512Y-106194091D01*
X78423774Y-106244757D01*
X78423199Y-106265679D01*
X78423129Y-106331693D01*
X78803083Y-106331693D01*
X78794983Y-106366273D01*
X78775104Y-106407170D01*
X78740347Y-106442514D01*
X78698998Y-106465282D01*
X78672649Y-106470010D01*
X78636916Y-106464273D01*
X78594282Y-106449882D01*
X78579799Y-106443262D01*
X78526240Y-106416513D01*
X78480533Y-106451376D01*
X78454158Y-106474955D01*
X78440124Y-106494417D01*
X78439414Y-106500129D01*
X78451951Y-106513973D01*
X78479428Y-106535012D01*
X78504366Y-106551425D01*
X78571664Y-106580930D01*
X78647110Y-106594284D01*
X78721888Y-106590812D01*
X78781495Y-106572663D01*
X78842941Y-106533784D01*
X78886608Y-106482595D01*
X78913926Y-106416367D01*
X78926322Y-106332371D01*
X78927421Y-106293936D01*
X78923022Y-106205861D01*
X78922482Y-106203299D01*
X78796582Y-106203299D01*
X78793115Y-106211558D01*
X78778863Y-106216113D01*
X78749470Y-106218065D01*
X78700575Y-106218517D01*
X78681748Y-106218525D01*
X78624467Y-106217843D01*
X78588141Y-106215364D01*
X78568604Y-106210443D01*
X78561690Y-106202434D01*
X78561445Y-106199862D01*
X78569336Y-106179423D01*
X78589085Y-106150789D01*
X78597575Y-106140763D01*
X78629094Y-106112408D01*
X78661949Y-106101259D01*
X78679651Y-106100327D01*
X78727539Y-106111981D01*
X78767699Y-106143285D01*
X78793173Y-106188752D01*
X78793625Y-106190233D01*
X78796582Y-106203299D01*
X78922482Y-106203299D01*
X78908392Y-106136510D01*
X78882038Y-106081025D01*
X78849807Y-106041639D01*
X78790217Y-105998931D01*
X78720168Y-105976109D01*
X78645661Y-105974046D01*
X78572699Y-105993614D01*
G36*
X77417188Y-107538822D02*
G01*
X77486346Y-107538822D01*
X77526488Y-107537645D01*
X77547394Y-107532772D01*
X77554922Y-107522186D01*
X77555505Y-107515029D01*
X77556774Y-107500676D01*
X77564779Y-107497923D01*
X77585815Y-107506771D01*
X77602173Y-107515029D01*
X77664977Y-107534597D01*
X77733248Y-107535729D01*
X77788752Y-107521135D01*
X77840438Y-107485877D01*
X77879838Y-107433835D01*
X77901413Y-107372450D01*
X77901962Y-107369018D01*
X77905167Y-107331571D01*
X77906761Y-107277813D01*
X77906633Y-107237155D01*
X77769279Y-107237155D01*
X77766097Y-107291194D01*
X77758859Y-107335735D01*
X77749060Y-107360888D01*
X77711989Y-107395260D01*
X77667974Y-107407582D01*
X77622584Y-107397618D01*
X77583797Y-107367895D01*
X77569108Y-107347905D01*
X77560519Y-107324050D01*
X77556496Y-107289230D01*
X77555505Y-107236930D01*
X77557278Y-107185139D01*
X77561963Y-107139634D01*
X77568603Y-107109181D01*
X77569710Y-107106452D01*
X77596491Y-107074000D01*
X77635579Y-107056183D01*
X77679315Y-107053306D01*
X77720038Y-107065674D01*
X77750087Y-107093593D01*
X77753204Y-107099148D01*
X77762961Y-107133022D01*
X77768277Y-107181728D01*
X77769279Y-107237155D01*
X77906633Y-107237155D01*
X77906568Y-107216540D01*
X77905664Y-107183563D01*
X77899514Y-107101981D01*
X77886733Y-107040730D01*
X77865471Y-106995449D01*
X77833878Y-106961779D01*
X77803207Y-106942014D01*
X77760354Y-106928120D01*
X77707056Y-106923354D01*
X77652480Y-106927236D01*
X77605792Y-106939282D01*
X77581124Y-106953693D01*
X77555505Y-106976878D01*
X77555505Y-106683773D01*
X77417188Y-106683773D01*
X77417188Y-107538822D01*
G37*
X77417188Y-107538822D02*
X77486346Y-107538822D01*
X77526488Y-107537645D01*
X77547394Y-107532772D01*
X77554922Y-107522186D01*
X77555505Y-107515029D01*
X77556774Y-107500676D01*
X77564779Y-107497923D01*
X77585815Y-107506771D01*
X77602173Y-107515029D01*
X77664977Y-107534597D01*
X77733248Y-107535729D01*
X77788752Y-107521135D01*
X77840438Y-107485877D01*
X77879838Y-107433835D01*
X77901413Y-107372450D01*
X77901962Y-107369018D01*
X77905167Y-107331571D01*
X77906761Y-107277813D01*
X77906633Y-107237155D01*
X77769279Y-107237155D01*
X77766097Y-107291194D01*
X77758859Y-107335735D01*
X77749060Y-107360888D01*
X77711989Y-107395260D01*
X77667974Y-107407582D01*
X77622584Y-107397618D01*
X77583797Y-107367895D01*
X77569108Y-107347905D01*
X77560519Y-107324050D01*
X77556496Y-107289230D01*
X77555505Y-107236930D01*
X77557278Y-107185139D01*
X77561963Y-107139634D01*
X77568603Y-107109181D01*
X77569710Y-107106452D01*
X77596491Y-107074000D01*
X77635579Y-107056183D01*
X77679315Y-107053306D01*
X77720038Y-107065674D01*
X77750087Y-107093593D01*
X77753204Y-107099148D01*
X77762961Y-107133022D01*
X77768277Y-107181728D01*
X77769279Y-107237155D01*
X77906633Y-107237155D01*
X77906568Y-107216540D01*
X77905664Y-107183563D01*
X77899514Y-107101981D01*
X77886733Y-107040730D01*
X77865471Y-106995449D01*
X77833878Y-106961779D01*
X77803207Y-106942014D01*
X77760354Y-106928120D01*
X77707056Y-106923354D01*
X77652480Y-106927236D01*
X77605792Y-106939282D01*
X77581124Y-106953693D01*
X77555505Y-106976878D01*
X77555505Y-106683773D01*
X77417188Y-106683773D01*
X77417188Y-107538822D01*
G36*
X78600210Y-106927555D02*
G01*
X78541055Y-106943339D01*
X78496023Y-106971948D01*
X78464246Y-107009419D01*
X78454366Y-107025411D01*
X78447073Y-107042163D01*
X78441974Y-107063592D01*
X78438679Y-107093616D01*
X78436797Y-107136154D01*
X78435937Y-107195122D01*
X78435707Y-107274440D01*
X78435703Y-107295484D01*
X78435703Y-107538822D01*
X78496059Y-107538822D01*
X78534557Y-107536126D01*
X78563023Y-107529295D01*
X78570155Y-107525083D01*
X78589652Y-107517813D01*
X78609566Y-107525083D01*
X78642353Y-107534160D01*
X78689978Y-107537813D01*
X78742764Y-107536228D01*
X78791036Y-107529589D01*
X78819218Y-107521072D01*
X78873753Y-107486063D01*
X78907835Y-107437479D01*
X78923157Y-107372882D01*
X78923299Y-107371223D01*
X78921955Y-107342566D01*
X78800356Y-107342566D01*
X78789726Y-107375161D01*
X78772410Y-107393505D01*
X78737652Y-107407379D01*
X78691773Y-107412917D01*
X78644988Y-107410191D01*
X78607514Y-107399274D01*
X78597015Y-107392269D01*
X78578668Y-107359904D01*
X78574020Y-107323111D01*
X78574020Y-107274763D01*
X78643582Y-107274763D01*
X78709667Y-107279850D01*
X78759764Y-107294263D01*
X78790929Y-107316729D01*
X78800356Y-107342566D01*
X78921955Y-107342566D01*
X78919987Y-107300647D01*
X78896710Y-107244845D01*
X78852948Y-107202647D01*
X78846899Y-107198808D01*
X78820907Y-107186309D01*
X78788735Y-107178740D01*
X78743760Y-107175061D01*
X78690331Y-107174216D01*
X78574020Y-107174169D01*
X78574020Y-107125411D01*
X78578953Y-107087581D01*
X78591543Y-107062236D01*
X78593017Y-107060887D01*
X78621034Y-107049800D01*
X78663326Y-107045503D01*
X78710064Y-107047615D01*
X78751418Y-107055756D01*
X78775957Y-107067965D01*
X78789253Y-107077746D01*
X78803294Y-107079613D01*
X78822671Y-107071600D01*
X78851976Y-107051739D01*
X78895803Y-107018063D01*
X78899825Y-107014909D01*
X78897764Y-107003236D01*
X78880568Y-106983822D01*
X78854433Y-106962248D01*
X78825552Y-106944096D01*
X78816478Y-106939809D01*
X78783380Y-106931256D01*
X78734880Y-106925155D01*
X78680695Y-106922708D01*
X78678161Y-106922703D01*
X78600210Y-106927555D01*
G37*
X78600210Y-106927555D02*
X78541055Y-106943339D01*
X78496023Y-106971948D01*
X78464246Y-107009419D01*
X78454366Y-107025411D01*
X78447073Y-107042163D01*
X78441974Y-107063592D01*
X78438679Y-107093616D01*
X78436797Y-107136154D01*
X78435937Y-107195122D01*
X78435707Y-107274440D01*
X78435703Y-107295484D01*
X78435703Y-107538822D01*
X78496059Y-107538822D01*
X78534557Y-107536126D01*
X78563023Y-107529295D01*
X78570155Y-107525083D01*
X78589652Y-107517813D01*
X78609566Y-107525083D01*
X78642353Y-107534160D01*
X78689978Y-107537813D01*
X78742764Y-107536228D01*
X78791036Y-107529589D01*
X78819218Y-107521072D01*
X78873753Y-107486063D01*
X78907835Y-107437479D01*
X78923157Y-107372882D01*
X78923299Y-107371223D01*
X78921955Y-107342566D01*
X78800356Y-107342566D01*
X78789726Y-107375161D01*
X78772410Y-107393505D01*
X78737652Y-107407379D01*
X78691773Y-107412917D01*
X78644988Y-107410191D01*
X78607514Y-107399274D01*
X78597015Y-107392269D01*
X78578668Y-107359904D01*
X78574020Y-107323111D01*
X78574020Y-107274763D01*
X78643582Y-107274763D01*
X78709667Y-107279850D01*
X78759764Y-107294263D01*
X78790929Y-107316729D01*
X78800356Y-107342566D01*
X78921955Y-107342566D01*
X78919987Y-107300647D01*
X78896710Y-107244845D01*
X78852948Y-107202647D01*
X78846899Y-107198808D01*
X78820907Y-107186309D01*
X78788735Y-107178740D01*
X78743760Y-107175061D01*
X78690331Y-107174216D01*
X78574020Y-107174169D01*
X78574020Y-107125411D01*
X78578953Y-107087581D01*
X78591543Y-107062236D01*
X78593017Y-107060887D01*
X78621034Y-107049800D01*
X78663326Y-107045503D01*
X78710064Y-107047615D01*
X78751418Y-107055756D01*
X78775957Y-107067965D01*
X78789253Y-107077746D01*
X78803294Y-107079613D01*
X78822671Y-107071600D01*
X78851976Y-107051739D01*
X78895803Y-107018063D01*
X78899825Y-107014909D01*
X78897764Y-107003236D01*
X78880568Y-106983822D01*
X78854433Y-106962248D01*
X78825552Y-106944096D01*
X78816478Y-106939809D01*
X78783380Y-106931256D01*
X78734880Y-106925155D01*
X78680695Y-106922708D01*
X78678161Y-106922703D01*
X78600210Y-106927555D01*
G36*
X78209356Y-106924020D02*
G01*
X78190539Y-106929660D01*
X78184473Y-106942053D01*
X78184218Y-106947647D01*
X78183129Y-106963230D01*
X78175632Y-106965676D01*
X78155381Y-106954993D01*
X78143351Y-106947694D01*
X78105400Y-106932063D01*
X78060072Y-106924334D01*
X78012544Y-106923740D01*
X77967995Y-106929513D01*
X77931602Y-106940884D01*
X77908543Y-106957088D01*
X77903996Y-106977355D01*
X77906291Y-106982843D01*
X77923020Y-107005626D01*
X77948963Y-107033647D01*
X77953655Y-107038177D01*
X77978383Y-107059005D01*
X77999718Y-107065735D01*
X78029555Y-107061038D01*
X78041508Y-107057917D01*
X78078705Y-107050421D01*
X78104859Y-107053792D01*
X78126946Y-107065681D01*
X78147178Y-107081635D01*
X78162079Y-107101700D01*
X78172434Y-107129702D01*
X78179029Y-107169467D01*
X78182649Y-107224823D01*
X78184078Y-107299594D01*
X78184218Y-107344740D01*
X78184218Y-107538822D01*
X78309960Y-107538822D01*
X78309960Y-106922683D01*
X78247089Y-106922683D01*
X78209356Y-106924020D01*
G37*
X78209356Y-106924020D02*
X78190539Y-106929660D01*
X78184473Y-106942053D01*
X78184218Y-106947647D01*
X78183129Y-106963230D01*
X78175632Y-106965676D01*
X78155381Y-106954993D01*
X78143351Y-106947694D01*
X78105400Y-106932063D01*
X78060072Y-106924334D01*
X78012544Y-106923740D01*
X77967995Y-106929513D01*
X77931602Y-106940884D01*
X77908543Y-106957088D01*
X77903996Y-106977355D01*
X77906291Y-106982843D01*
X77923020Y-107005626D01*
X77948963Y-107033647D01*
X77953655Y-107038177D01*
X77978383Y-107059005D01*
X77999718Y-107065735D01*
X78029555Y-107061038D01*
X78041508Y-107057917D01*
X78078705Y-107050421D01*
X78104859Y-107053792D01*
X78126946Y-107065681D01*
X78147178Y-107081635D01*
X78162079Y-107101700D01*
X78172434Y-107129702D01*
X78179029Y-107169467D01*
X78182649Y-107224823D01*
X78184078Y-107299594D01*
X78184218Y-107344740D01*
X78184218Y-107538822D01*
X78309960Y-107538822D01*
X78309960Y-106922683D01*
X78247089Y-106922683D01*
X78209356Y-106924020D01*
G36*
X76605238Y-105987055D02*
G01*
X76541637Y-106021692D01*
X76491877Y-106076372D01*
X76468432Y-106120842D01*
X76458366Y-106160121D01*
X76451844Y-106216116D01*
X76449049Y-106280621D01*
X76450164Y-106345429D01*
X76455374Y-106402334D01*
X76461459Y-106432727D01*
X76481986Y-106474306D01*
X76517537Y-106518468D01*
X76560381Y-106557087D01*
X76602789Y-106582034D01*
X76603823Y-106582430D01*
X76656447Y-106593331D01*
X76718812Y-106593601D01*
X76778076Y-106583676D01*
X76800960Y-106575722D01*
X76859898Y-106542300D01*
X76902110Y-106498511D01*
X76929844Y-106440538D01*
X76945349Y-106364565D01*
X76948857Y-106324771D01*
X76948410Y-106274766D01*
X76813624Y-106274766D01*
X76809083Y-106347732D01*
X76796014Y-106403334D01*
X76775244Y-106438861D01*
X76760448Y-106449020D01*
X76722536Y-106456104D01*
X76677473Y-106454007D01*
X76638513Y-106443812D01*
X76628296Y-106438204D01*
X76601341Y-106405538D01*
X76583549Y-106355545D01*
X76575976Y-106294705D01*
X76579675Y-106229497D01*
X76587943Y-106190253D01*
X76611680Y-106144805D01*
X76649151Y-106116396D01*
X76694280Y-106106573D01*
X76740989Y-106116887D01*
X76776868Y-106142112D01*
X76795723Y-106162925D01*
X76806728Y-106183439D01*
X76811974Y-106211203D01*
X76813551Y-106253762D01*
X76813624Y-106274766D01*
X76948410Y-106274766D01*
X76947906Y-106218580D01*
X76930612Y-106131501D01*
X76896971Y-106063530D01*
X76846982Y-106014664D01*
X76780644Y-105984899D01*
X76766399Y-105981448D01*
X76680790Y-105973345D01*
X76605238Y-105987055D01*
G37*
X76605238Y-105987055D02*
X76541637Y-106021692D01*
X76491877Y-106076372D01*
X76468432Y-106120842D01*
X76458366Y-106160121D01*
X76451844Y-106216116D01*
X76449049Y-106280621D01*
X76450164Y-106345429D01*
X76455374Y-106402334D01*
X76461459Y-106432727D01*
X76481986Y-106474306D01*
X76517537Y-106518468D01*
X76560381Y-106557087D01*
X76602789Y-106582034D01*
X76603823Y-106582430D01*
X76656447Y-106593331D01*
X76718812Y-106593601D01*
X76778076Y-106583676D01*
X76800960Y-106575722D01*
X76859898Y-106542300D01*
X76902110Y-106498511D01*
X76929844Y-106440538D01*
X76945349Y-106364565D01*
X76948857Y-106324771D01*
X76948410Y-106274766D01*
X76813624Y-106274766D01*
X76809083Y-106347732D01*
X76796014Y-106403334D01*
X76775244Y-106438861D01*
X76760448Y-106449020D01*
X76722536Y-106456104D01*
X76677473Y-106454007D01*
X76638513Y-106443812D01*
X76628296Y-106438204D01*
X76601341Y-106405538D01*
X76583549Y-106355545D01*
X76575976Y-106294705D01*
X76579675Y-106229497D01*
X76587943Y-106190253D01*
X76611680Y-106144805D01*
X76649151Y-106116396D01*
X76694280Y-106106573D01*
X76740989Y-106116887D01*
X76776868Y-106142112D01*
X76795723Y-106162925D01*
X76806728Y-106183439D01*
X76811974Y-106211203D01*
X76813551Y-106253762D01*
X76813624Y-106274766D01*
X76948410Y-106274766D01*
X76947906Y-106218580D01*
X76930612Y-106131501D01*
X76896971Y-106063530D01*
X76846982Y-106014664D01*
X76780644Y-105984899D01*
X76766399Y-105981448D01*
X76680790Y-105973345D01*
X76605238Y-105987055D01*
G36*
X76222633Y-106175342D02*
G01*
X76221445Y-106267563D01*
X76217103Y-106337610D01*
X76208442Y-106388381D01*
X76194296Y-106422772D01*
X76173500Y-106443679D01*
X76144890Y-106454000D01*
X76109465Y-106456636D01*
X76072364Y-106453682D01*
X76044182Y-106442889D01*
X76023757Y-106421360D01*
X76009921Y-106386199D01*
X76001509Y-106334510D01*
X75997357Y-106263394D01*
X75996297Y-106175342D01*
X75996297Y-105979614D01*
X75857980Y-105979614D01*
X75857980Y-106583179D01*
X75927138Y-106583179D01*
X75968830Y-106581489D01*
X75990299Y-106575556D01*
X75996297Y-106564293D01*
X75999909Y-106554261D01*
X76014286Y-106556383D01*
X76043264Y-106570580D01*
X76109681Y-106592480D01*
X76180125Y-106590928D01*
X76247623Y-106567147D01*
X76279767Y-106548362D01*
X76304285Y-106528022D01*
X76322196Y-106502573D01*
X76334521Y-106468458D01*
X76342277Y-106422121D01*
X76346484Y-106360007D01*
X76348160Y-106278561D01*
X76348376Y-106215578D01*
X76348376Y-105979614D01*
X76222633Y-105979614D01*
X76222633Y-106175342D01*
G37*
X76222633Y-106175342D02*
X76221445Y-106267563D01*
X76217103Y-106337610D01*
X76208442Y-106388381D01*
X76194296Y-106422772D01*
X76173500Y-106443679D01*
X76144890Y-106454000D01*
X76109465Y-106456636D01*
X76072364Y-106453682D01*
X76044182Y-106442889D01*
X76023757Y-106421360D01*
X76009921Y-106386199D01*
X76001509Y-106334510D01*
X75997357Y-106263394D01*
X75996297Y-106175342D01*
X75996297Y-105979614D01*
X75857980Y-105979614D01*
X75857980Y-106583179D01*
X75927138Y-106583179D01*
X75968830Y-106581489D01*
X75990299Y-106575556D01*
X75996297Y-106564293D01*
X75999909Y-106554261D01*
X76014286Y-106556383D01*
X76043264Y-106570580D01*
X76109681Y-106592480D01*
X76180125Y-106590928D01*
X76247623Y-106567147D01*
X76279767Y-106548362D01*
X76304285Y-106528022D01*
X76322196Y-106502573D01*
X76334521Y-106468458D01*
X76342277Y-106422121D01*
X76346484Y-106360007D01*
X76348160Y-106278561D01*
X76348376Y-106215578D01*
X76348376Y-105979614D01*
X76222633Y-105979614D01*
X76222633Y-106175342D01*
G36*
X74538102Y-105977457D02*
G01*
X74505904Y-105985279D01*
X74444175Y-106013921D01*
X74391390Y-106057667D01*
X74354859Y-106110117D01*
X74349840Y-106121893D01*
X74342955Y-106152740D01*
X74338136Y-106198371D01*
X74336495Y-106244492D01*
X74336495Y-106331693D01*
X74518822Y-106331693D01*
X74594021Y-106331978D01*
X74646997Y-106333704D01*
X74680675Y-106338181D01*
X74697980Y-106346720D01*
X74701837Y-106360630D01*
X74695171Y-106381222D01*
X74683230Y-106405315D01*
X74649920Y-106445525D01*
X74603632Y-106465558D01*
X74547056Y-106464905D01*
X74482969Y-106443101D01*
X74427583Y-106416193D01*
X74381625Y-106452532D01*
X74335667Y-106488872D01*
X74378904Y-106528819D01*
X74436626Y-106566563D01*
X74507614Y-106589320D01*
X74583971Y-106595688D01*
X74657801Y-106584268D01*
X74669713Y-106580393D01*
X74734601Y-106546506D01*
X74782870Y-106495986D01*
X74815535Y-106427325D01*
X74833615Y-106339014D01*
X74833825Y-106337121D01*
X74835444Y-106240878D01*
X74828900Y-106206542D01*
X74701148Y-106206542D01*
X74689416Y-106211822D01*
X74657562Y-106215867D01*
X74610603Y-106218176D01*
X74580846Y-106218525D01*
X74525352Y-106218306D01*
X74490654Y-106216916D01*
X74472399Y-106213251D01*
X74466234Y-106206210D01*
X74467805Y-106194690D01*
X74469122Y-106190233D01*
X74491618Y-106148355D01*
X74526997Y-106114604D01*
X74558220Y-106099773D01*
X74599699Y-106100668D01*
X74641731Y-106119164D01*
X74676988Y-106149786D01*
X74698146Y-106187062D01*
X74701148Y-106206542D01*
X74828900Y-106206542D01*
X74819310Y-106156229D01*
X74787302Y-106085191D01*
X74741299Y-106029779D01*
X74683179Y-105992009D01*
X74614820Y-105973896D01*
X74538102Y-105977457D01*
G37*
X74538102Y-105977457D02*
X74505904Y-105985279D01*
X74444175Y-106013921D01*
X74391390Y-106057667D01*
X74354859Y-106110117D01*
X74349840Y-106121893D01*
X74342955Y-106152740D01*
X74338136Y-106198371D01*
X74336495Y-106244492D01*
X74336495Y-106331693D01*
X74518822Y-106331693D01*
X74594021Y-106331978D01*
X74646997Y-106333704D01*
X74680675Y-106338181D01*
X74697980Y-106346720D01*
X74701837Y-106360630D01*
X74695171Y-106381222D01*
X74683230Y-106405315D01*
X74649920Y-106445525D01*
X74603632Y-106465558D01*
X74547056Y-106464905D01*
X74482969Y-106443101D01*
X74427583Y-106416193D01*
X74381625Y-106452532D01*
X74335667Y-106488872D01*
X74378904Y-106528819D01*
X74436626Y-106566563D01*
X74507614Y-106589320D01*
X74583971Y-106595688D01*
X74657801Y-106584268D01*
X74669713Y-106580393D01*
X74734601Y-106546506D01*
X74782870Y-106495986D01*
X74815535Y-106427325D01*
X74833615Y-106339014D01*
X74833825Y-106337121D01*
X74835444Y-106240878D01*
X74828900Y-106206542D01*
X74701148Y-106206542D01*
X74689416Y-106211822D01*
X74657562Y-106215867D01*
X74610603Y-106218176D01*
X74580846Y-106218525D01*
X74525352Y-106218306D01*
X74490654Y-106216916D01*
X74472399Y-106213251D01*
X74466234Y-106206210D01*
X74467805Y-106194690D01*
X74469122Y-106190233D01*
X74491618Y-106148355D01*
X74526997Y-106114604D01*
X74558220Y-106099773D01*
X74599699Y-106100668D01*
X74641731Y-106119164D01*
X74676988Y-106149786D01*
X74698146Y-106187062D01*
X74701148Y-106206542D01*
X74828900Y-106206542D01*
X74819310Y-106156229D01*
X74787302Y-106085191D01*
X74741299Y-106029779D01*
X74683179Y-105992009D01*
X74614820Y-105973896D01*
X74538102Y-105977457D01*
G36*
X74998774Y-105984880D02*
G01*
X74925920Y-106015830D01*
X74902973Y-106030895D01*
X74873646Y-106054048D01*
X74855236Y-106072253D01*
X74852039Y-106078183D01*
X74861065Y-106091340D01*
X74884163Y-106113667D01*
X74902656Y-106129250D01*
X74953272Y-106169926D01*
X74993240Y-106136295D01*
X75024126Y-106114584D01*
X75054241Y-106107090D01*
X75088708Y-106108920D01*
X75143439Y-106122528D01*
X75181114Y-106150772D01*
X75204009Y-106196433D01*
X75214403Y-106262289D01*
X75214405Y-106262331D01*
X75213506Y-106335939D01*
X75199537Y-106389946D01*
X75171672Y-106426716D01*
X75152675Y-106439168D01*
X75102224Y-106454673D01*
X75048337Y-106454683D01*
X75001454Y-106439638D01*
X74990356Y-106432287D01*
X74962524Y-106413511D01*
X74940764Y-106410434D01*
X74917296Y-106424409D01*
X74891351Y-106449510D01*
X74850284Y-106491880D01*
X74895879Y-106529464D01*
X74966326Y-106571882D01*
X75045767Y-106592785D01*
X75128785Y-106591272D01*
X75183306Y-106577411D01*
X75247030Y-106543135D01*
X75297995Y-106489212D01*
X75321149Y-106451149D01*
X75339901Y-106396536D01*
X75349285Y-106327369D01*
X75349357Y-106252407D01*
X75340176Y-106180409D01*
X75321801Y-106120137D01*
X75318907Y-106113958D01*
X75276048Y-106053351D01*
X75218021Y-106009224D01*
X75149409Y-105982493D01*
X75074799Y-105974073D01*
X74998774Y-105984880D01*
G37*
X74998774Y-105984880D02*
X74925920Y-106015830D01*
X74902973Y-106030895D01*
X74873646Y-106054048D01*
X74855236Y-106072253D01*
X74852039Y-106078183D01*
X74861065Y-106091340D01*
X74884163Y-106113667D01*
X74902656Y-106129250D01*
X74953272Y-106169926D01*
X74993240Y-106136295D01*
X75024126Y-106114584D01*
X75054241Y-106107090D01*
X75088708Y-106108920D01*
X75143439Y-106122528D01*
X75181114Y-106150772D01*
X75204009Y-106196433D01*
X75214403Y-106262289D01*
X75214405Y-106262331D01*
X75213506Y-106335939D01*
X75199537Y-106389946D01*
X75171672Y-106426716D01*
X75152675Y-106439168D01*
X75102224Y-106454673D01*
X75048337Y-106454683D01*
X75001454Y-106439638D01*
X74990356Y-106432287D01*
X74962524Y-106413511D01*
X74940764Y-106410434D01*
X74917296Y-106424409D01*
X74891351Y-106449510D01*
X74850284Y-106491880D01*
X74895879Y-106529464D01*
X74966326Y-106571882D01*
X75045767Y-106592785D01*
X75128785Y-106591272D01*
X75183306Y-106577411D01*
X75247030Y-106543135D01*
X75297995Y-106489212D01*
X75321149Y-106451149D01*
X75339901Y-106396536D01*
X75349285Y-106327369D01*
X75349357Y-106252407D01*
X75340176Y-106180409D01*
X75321801Y-106120137D01*
X75318907Y-106113958D01*
X75276048Y-106053351D01*
X75218021Y-106009224D01*
X75149409Y-105982493D01*
X75074799Y-105974073D01*
X74998774Y-105984880D01*
G36*
X77970012Y-105990002D02*
G01*
X77938717Y-106004950D01*
X77908409Y-106026541D01*
X77885318Y-106051391D01*
X77868500Y-106083087D01*
X77857006Y-106125214D01*
X77849891Y-106181358D01*
X77846207Y-106255106D01*
X77845008Y-106350044D01*
X77844989Y-106359985D01*
X77844713Y-106583179D01*
X77983030Y-106583179D01*
X77983030Y-106377418D01*
X77983128Y-106301189D01*
X77983809Y-106245939D01*
X77985651Y-106207501D01*
X77989233Y-106181706D01*
X77995132Y-106164384D01*
X78003927Y-106151368D01*
X78016180Y-106138507D01*
X78059047Y-106110873D01*
X78105843Y-106105745D01*
X78150424Y-106123217D01*
X78165928Y-106136221D01*
X78177310Y-106148447D01*
X78185481Y-106161540D01*
X78190974Y-106179615D01*
X78194320Y-106206787D01*
X78196051Y-106247170D01*
X78196697Y-106304879D01*
X78196792Y-106375132D01*
X78196792Y-106583179D01*
X78335109Y-106583179D01*
X78335109Y-105979614D01*
X78265950Y-105979614D01*
X78224428Y-105981256D01*
X78203006Y-105987087D01*
X78196795Y-105998461D01*
X78196792Y-105998798D01*
X78193910Y-106009938D01*
X78181199Y-106008674D01*
X78155926Y-105996434D01*
X78098605Y-105978424D01*
X78033037Y-105976421D01*
X77970012Y-105990002D01*
G37*
X77970012Y-105990002D02*
X77938717Y-106004950D01*
X77908409Y-106026541D01*
X77885318Y-106051391D01*
X77868500Y-106083087D01*
X77857006Y-106125214D01*
X77849891Y-106181358D01*
X77846207Y-106255106D01*
X77845008Y-106350044D01*
X77844989Y-106359985D01*
X77844713Y-106583179D01*
X77983030Y-106583179D01*
X77983030Y-106377418D01*
X77983128Y-106301189D01*
X77983809Y-106245939D01*
X77985651Y-106207501D01*
X77989233Y-106181706D01*
X77995132Y-106164384D01*
X78003927Y-106151368D01*
X78016180Y-106138507D01*
X78059047Y-106110873D01*
X78105843Y-106105745D01*
X78150424Y-106123217D01*
X78165928Y-106136221D01*
X78177310Y-106148447D01*
X78185481Y-106161540D01*
X78190974Y-106179615D01*
X78194320Y-106206787D01*
X78196051Y-106247170D01*
X78196697Y-106304879D01*
X78196792Y-106375132D01*
X78196792Y-106583179D01*
X78335109Y-106583179D01*
X78335109Y-105979614D01*
X78265950Y-105979614D01*
X78224428Y-105981256D01*
X78203006Y-105987087D01*
X78196795Y-105998461D01*
X78196792Y-105998798D01*
X78193910Y-106009938D01*
X78181199Y-106008674D01*
X78155926Y-105996434D01*
X78098605Y-105978424D01*
X78033037Y-105976421D01*
X77970012Y-105990002D01*
G36*
X75416540Y-105979030D02*
G01*
X75373289Y-105992245D01*
X75345442Y-106008941D01*
X75336371Y-106022145D01*
X75338868Y-106037797D01*
X75355069Y-106062385D01*
X75368768Y-106079800D01*
X75397008Y-106111283D01*
X75418225Y-106124529D01*
X75436312Y-106123664D01*
X75489965Y-106110010D01*
X75529370Y-106110630D01*
X75561368Y-106126104D01*
X75572110Y-106135161D01*
X75606495Y-106167027D01*
X75606495Y-106583179D01*
X75744812Y-106583179D01*
X75744812Y-105979614D01*
X75675653Y-105979614D01*
X75634131Y-105981256D01*
X75612709Y-105987087D01*
X75606498Y-105998461D01*
X75606495Y-105998798D01*
X75603561Y-106010713D01*
X75590296Y-106009159D01*
X75571916Y-106000563D01*
X75533954Y-105984568D01*
X75503128Y-105974945D01*
X75463464Y-105972478D01*
X75416540Y-105979030D01*
G37*
X75416540Y-105979030D02*
X75373289Y-105992245D01*
X75345442Y-106008941D01*
X75336371Y-106022145D01*
X75338868Y-106037797D01*
X75355069Y-106062385D01*
X75368768Y-106079800D01*
X75397008Y-106111283D01*
X75418225Y-106124529D01*
X75436312Y-106123664D01*
X75489965Y-106110010D01*
X75529370Y-106110630D01*
X75561368Y-106126104D01*
X75572110Y-106135161D01*
X75606495Y-106167027D01*
X75606495Y-106583179D01*
X75744812Y-106583179D01*
X75744812Y-105979614D01*
X75675653Y-105979614D01*
X75634131Y-105981256D01*
X75612709Y-105987087D01*
X75606498Y-105998461D01*
X75606495Y-105998798D01*
X75603561Y-106010713D01*
X75590296Y-106009159D01*
X75571916Y-106000563D01*
X75533954Y-105984568D01*
X75503128Y-105974945D01*
X75463464Y-105972478D01*
X75416540Y-105979030D01*
G36*
X79754261Y-105986148D02*
G01*
X79688479Y-106015231D01*
X79638540Y-106063793D01*
X79604374Y-106131908D01*
X79585907Y-106219651D01*
X79584583Y-106233351D01*
X79583546Y-106329939D01*
X79596993Y-106414602D01*
X79624108Y-106483221D01*
X79638627Y-106505294D01*
X79689201Y-106552011D01*
X79753609Y-106582268D01*
X79825666Y-106594824D01*
X79899185Y-106588439D01*
X79955072Y-106568772D01*
X80003132Y-106535629D01*
X80042412Y-106492175D01*
X80043092Y-106491158D01*
X80059044Y-106464338D01*
X80069410Y-106437368D01*
X80075688Y-106403332D01*
X80079373Y-106355310D01*
X80080997Y-106315931D01*
X80081672Y-106280219D01*
X79955955Y-106280219D01*
X79954726Y-106315770D01*
X79950266Y-106363094D01*
X79942397Y-106393465D01*
X79928207Y-106415072D01*
X79914917Y-106427694D01*
X79867802Y-106454122D01*
X79818505Y-106457653D01*
X79772593Y-106438639D01*
X79749638Y-106417331D01*
X79733096Y-106395859D01*
X79723421Y-106375313D01*
X79719174Y-106348574D01*
X79718920Y-106308523D01*
X79720228Y-106271638D01*
X79723043Y-106218947D01*
X79727505Y-106184772D01*
X79735548Y-106162480D01*
X79749103Y-106145442D01*
X79759845Y-106135703D01*
X79804777Y-106110123D01*
X79853249Y-106108847D01*
X79893894Y-106123999D01*
X79928567Y-106155642D01*
X79949224Y-106207620D01*
X79955955Y-106280219D01*
X80081672Y-106280219D01*
X80082479Y-106237621D01*
X80079948Y-106179056D01*
X80072362Y-106135007D01*
X80058681Y-106100248D01*
X80037865Y-106069551D01*
X80030147Y-106060436D01*
X79981889Y-106015021D01*
X79930128Y-105988493D01*
X79866828Y-105977379D01*
X79835961Y-105976471D01*
X79754261Y-105986148D01*
G37*
X79754261Y-105986148D02*
X79688479Y-106015231D01*
X79638540Y-106063793D01*
X79604374Y-106131908D01*
X79585907Y-106219651D01*
X79584583Y-106233351D01*
X79583546Y-106329939D01*
X79596993Y-106414602D01*
X79624108Y-106483221D01*
X79638627Y-106505294D01*
X79689201Y-106552011D01*
X79753609Y-106582268D01*
X79825666Y-106594824D01*
X79899185Y-106588439D01*
X79955072Y-106568772D01*
X80003132Y-106535629D01*
X80042412Y-106492175D01*
X80043092Y-106491158D01*
X80059044Y-106464338D01*
X80069410Y-106437368D01*
X80075688Y-106403332D01*
X80079373Y-106355310D01*
X80080997Y-106315931D01*
X80081672Y-106280219D01*
X79955955Y-106280219D01*
X79954726Y-106315770D01*
X79950266Y-106363094D01*
X79942397Y-106393465D01*
X79928207Y-106415072D01*
X79914917Y-106427694D01*
X79867802Y-106454122D01*
X79818505Y-106457653D01*
X79772593Y-106438639D01*
X79749638Y-106417331D01*
X79733096Y-106395859D01*
X79723421Y-106375313D01*
X79719174Y-106348574D01*
X79718920Y-106308523D01*
X79720228Y-106271638D01*
X79723043Y-106218947D01*
X79727505Y-106184772D01*
X79735548Y-106162480D01*
X79749103Y-106145442D01*
X79759845Y-106135703D01*
X79804777Y-106110123D01*
X79853249Y-106108847D01*
X79893894Y-106123999D01*
X79928567Y-106155642D01*
X79949224Y-106207620D01*
X79955955Y-106280219D01*
X80081672Y-106280219D01*
X80082479Y-106237621D01*
X80079948Y-106179056D01*
X80072362Y-106135007D01*
X80058681Y-106100248D01*
X80037865Y-106069551D01*
X80030147Y-106060436D01*
X79981889Y-106015021D01*
X79930128Y-105988493D01*
X79866828Y-105977379D01*
X79835961Y-105976471D01*
X79754261Y-105986148D01*
D10*
X28511333Y-109942380D02*
X28178000Y-110942380D01*
X27844666Y-109942380D01*
X26939904Y-110847142D02*
X26987523Y-110894761D01*
X27130380Y-110942380D01*
X27225619Y-110942380D01*
X27368476Y-110894761D01*
X27463714Y-110799523D01*
X27511333Y-110704285D01*
X27558952Y-110513809D01*
X27558952Y-110370952D01*
X27511333Y-110180476D01*
X27463714Y-110085238D01*
X27368476Y-109990000D01*
X27225619Y-109942380D01*
X27130380Y-109942380D01*
X26987523Y-109990000D01*
X26939904Y-110037619D01*
X25939904Y-110847142D02*
X25987523Y-110894761D01*
X26130380Y-110942380D01*
X26225619Y-110942380D01*
X26368476Y-110894761D01*
X26463714Y-110799523D01*
X26511333Y-110704285D01*
X26558952Y-110513809D01*
X26558952Y-110370952D01*
X26511333Y-110180476D01*
X26463714Y-110085238D01*
X26368476Y-109990000D01*
X26225619Y-109942380D01*
X26130380Y-109942380D01*
X25987523Y-109990000D01*
X25939904Y-110037619D01*
X27939904Y-107450000D02*
X28035142Y-107402380D01*
X28178000Y-107402380D01*
X28320857Y-107450000D01*
X28416095Y-107545238D01*
X28463714Y-107640476D01*
X28511333Y-107830952D01*
X28511333Y-107973809D01*
X28463714Y-108164285D01*
X28416095Y-108259523D01*
X28320857Y-108354761D01*
X28178000Y-108402380D01*
X28082761Y-108402380D01*
X27939904Y-108354761D01*
X27892285Y-108307142D01*
X27892285Y-107973809D01*
X28082761Y-107973809D01*
X27463714Y-108402380D02*
X27463714Y-107402380D01*
X26892285Y-108402380D01*
X26892285Y-107402380D01*
X26416095Y-108402380D02*
X26416095Y-107402380D01*
X26178000Y-107402380D01*
X26035142Y-107450000D01*
X25939904Y-107545238D01*
X25892285Y-107640476D01*
X25844666Y-107830952D01*
X25844666Y-107973809D01*
X25892285Y-108164285D01*
X25939904Y-108259523D01*
X26035142Y-108354761D01*
X26178000Y-108402380D01*
X26416095Y-108402380D01*
X19454761Y-97718571D02*
X19311904Y-97766190D01*
X19264285Y-97813809D01*
X19216666Y-97909047D01*
X19216666Y-98051904D01*
X19264285Y-98147142D01*
X19311904Y-98194761D01*
X19407142Y-98242380D01*
X19788095Y-98242380D01*
X19788095Y-97242380D01*
X19454761Y-97242380D01*
X19359523Y-97290000D01*
X19311904Y-97337619D01*
X19264285Y-97432857D01*
X19264285Y-97528095D01*
X19311904Y-97623333D01*
X19359523Y-97670952D01*
X19454761Y-97718571D01*
X19788095Y-97718571D01*
X18597619Y-97242380D02*
X18502380Y-97242380D01*
X18407142Y-97290000D01*
X18359523Y-97337619D01*
X18311904Y-97432857D01*
X18264285Y-97623333D01*
X18264285Y-97861428D01*
X18311904Y-98051904D01*
X18359523Y-98147142D01*
X18407142Y-98194761D01*
X18502380Y-98242380D01*
X18597619Y-98242380D01*
X18692857Y-98194761D01*
X18740476Y-98147142D01*
X18788095Y-98051904D01*
X18835714Y-97861428D01*
X18835714Y-97623333D01*
X18788095Y-97432857D01*
X18740476Y-97337619D01*
X18692857Y-97290000D01*
X18597619Y-97242380D01*
X19454761Y-100258571D02*
X19311904Y-100306190D01*
X19264285Y-100353809D01*
X19216666Y-100449047D01*
X19216666Y-100591904D01*
X19264285Y-100687142D01*
X19311904Y-100734761D01*
X19407142Y-100782380D01*
X19788095Y-100782380D01*
X19788095Y-99782380D01*
X19454761Y-99782380D01*
X19359523Y-99830000D01*
X19311904Y-99877619D01*
X19264285Y-99972857D01*
X19264285Y-100068095D01*
X19311904Y-100163333D01*
X19359523Y-100210952D01*
X19454761Y-100258571D01*
X19788095Y-100258571D01*
X18264285Y-100782380D02*
X18835714Y-100782380D01*
X18550000Y-100782380D02*
X18550000Y-99782380D01*
X18645238Y-99925238D01*
X18740476Y-100020476D01*
X18835714Y-100068095D01*
X19454761Y-102798571D02*
X19311904Y-102846190D01*
X19264285Y-102893809D01*
X19216666Y-102989047D01*
X19216666Y-103131904D01*
X19264285Y-103227142D01*
X19311904Y-103274761D01*
X19407142Y-103322380D01*
X19788095Y-103322380D01*
X19788095Y-102322380D01*
X19454761Y-102322380D01*
X19359523Y-102370000D01*
X19311904Y-102417619D01*
X19264285Y-102512857D01*
X19264285Y-102608095D01*
X19311904Y-102703333D01*
X19359523Y-102750952D01*
X19454761Y-102798571D01*
X19788095Y-102798571D01*
X18835714Y-102417619D02*
X18788095Y-102370000D01*
X18692857Y-102322380D01*
X18454761Y-102322380D01*
X18359523Y-102370000D01*
X18311904Y-102417619D01*
X18264285Y-102512857D01*
X18264285Y-102608095D01*
X18311904Y-102750952D01*
X18883333Y-103322380D01*
X18264285Y-103322380D01*
X19454761Y-105338571D02*
X19311904Y-105386190D01*
X19264285Y-105433809D01*
X19216666Y-105529047D01*
X19216666Y-105671904D01*
X19264285Y-105767142D01*
X19311904Y-105814761D01*
X19407142Y-105862380D01*
X19788095Y-105862380D01*
X19788095Y-104862380D01*
X19454761Y-104862380D01*
X19359523Y-104910000D01*
X19311904Y-104957619D01*
X19264285Y-105052857D01*
X19264285Y-105148095D01*
X19311904Y-105243333D01*
X19359523Y-105290952D01*
X19454761Y-105338571D01*
X19788095Y-105338571D01*
X18883333Y-104862380D02*
X18264285Y-104862380D01*
X18597619Y-105243333D01*
X18454761Y-105243333D01*
X18359523Y-105290952D01*
X18311904Y-105338571D01*
X18264285Y-105433809D01*
X18264285Y-105671904D01*
X18311904Y-105767142D01*
X18359523Y-105814761D01*
X18454761Y-105862380D01*
X18740476Y-105862380D01*
X18835714Y-105814761D01*
X18883333Y-105767142D01*
X27384285Y-97956666D02*
X26908095Y-97956666D01*
X27479523Y-98242380D02*
X27146190Y-97242380D01*
X26812857Y-98242380D01*
X26289047Y-97242380D02*
X26193809Y-97242380D01*
X26098571Y-97290000D01*
X26050952Y-97337619D01*
X26003333Y-97432857D01*
X25955714Y-97623333D01*
X25955714Y-97861428D01*
X26003333Y-98051904D01*
X26050952Y-98147142D01*
X26098571Y-98194761D01*
X26193809Y-98242380D01*
X26289047Y-98242380D01*
X26384285Y-98194761D01*
X26431904Y-98147142D01*
X26479523Y-98051904D01*
X26527142Y-97861428D01*
X26527142Y-97623333D01*
X26479523Y-97432857D01*
X26431904Y-97337619D01*
X26384285Y-97290000D01*
X26289047Y-97242380D01*
X27384285Y-100496666D02*
X26908095Y-100496666D01*
X27479523Y-100782380D02*
X27146190Y-99782380D01*
X26812857Y-100782380D01*
X25955714Y-100782380D02*
X26527142Y-100782380D01*
X26241428Y-100782380D02*
X26241428Y-99782380D01*
X26336666Y-99925238D01*
X26431904Y-100020476D01*
X26527142Y-100068095D01*
X27384285Y-103036666D02*
X26908095Y-103036666D01*
X27479523Y-103322380D02*
X27146190Y-102322380D01*
X26812857Y-103322380D01*
X26527142Y-102417619D02*
X26479523Y-102370000D01*
X26384285Y-102322380D01*
X26146190Y-102322380D01*
X26050952Y-102370000D01*
X26003333Y-102417619D01*
X25955714Y-102512857D01*
X25955714Y-102608095D01*
X26003333Y-102750952D01*
X26574761Y-103322380D01*
X25955714Y-103322380D01*
X27384285Y-105576666D02*
X26908095Y-105576666D01*
X27479523Y-105862380D02*
X27146190Y-104862380D01*
X26812857Y-105862380D01*
X26574761Y-104862380D02*
X25955714Y-104862380D01*
X26289047Y-105243333D01*
X26146190Y-105243333D01*
X26050952Y-105290952D01*
X26003333Y-105338571D01*
X25955714Y-105433809D01*
X25955714Y-105671904D01*
X26003333Y-105767142D01*
X26050952Y-105814761D01*
X26146190Y-105862380D01*
X26431904Y-105862380D01*
X26527142Y-105814761D01*
X26574761Y-105767142D01*
%LPC*%
G36*
G01*
X68601700Y-102501000D02*
X68601700Y-100501000D01*
G75*
G02*
X68652500Y-100450200I50800J0D01*
G01*
X70652500Y-100450200D01*
G75*
G02*
X70703300Y-100501000I0J-50800D01*
G01*
X70703300Y-102501000D01*
G75*
G02*
X70652500Y-102551800I-50800J0D01*
G01*
X68652500Y-102551800D01*
G75*
G02*
X68601700Y-102501000I0J50800D01*
G01*
G37*
D16*
X69652500Y-104001000D03*
X69652500Y-106501000D03*
G36*
G01*
X75501700Y-99401000D02*
X75501700Y-97401000D01*
G75*
G02*
X75552500Y-97350200I50800J0D01*
G01*
X78752500Y-97350200D01*
G75*
G02*
X78803300Y-97401000I0J-50800D01*
G01*
X78803300Y-99401000D01*
G75*
G02*
X78752500Y-99451800I-50800J0D01*
G01*
X75552500Y-99451800D01*
G75*
G02*
X75501700Y-99401000I0J50800D01*
G01*
G37*
G36*
G01*
X75501700Y-110601000D02*
X75501700Y-108601000D01*
G75*
G02*
X75552500Y-108550200I50800J0D01*
G01*
X78752500Y-108550200D01*
G75*
G02*
X78803300Y-108601000I0J-50800D01*
G01*
X78803300Y-110601000D01*
G75*
G02*
X78752500Y-110651800I-50800J0D01*
G01*
X75552500Y-110651800D01*
G75*
G02*
X75501700Y-110601000I0J50800D01*
G01*
G37*
X84152500Y-101501000D03*
X84152500Y-106501000D03*
D17*
X21590000Y-110490000D03*
X24130000Y-110490000D03*
X21590000Y-107950000D03*
X24130000Y-107950000D03*
X21590000Y-105410000D03*
X24130000Y-105410000D03*
X21590000Y-102870000D03*
X24130000Y-102870000D03*
X21590000Y-100330000D03*
X24130000Y-100330000D03*
X21590000Y-97790000D03*
G36*
G01*
X23317200Y-98552000D02*
X23317200Y-97028000D01*
G75*
G02*
X23368000Y-96977200I50800J0D01*
G01*
X24892000Y-96977200D01*
G75*
G02*
X24942800Y-97028000I0J-50800D01*
G01*
X24942800Y-98552000D01*
G75*
G02*
X24892000Y-98602800I-50800J0D01*
G01*
X23368000Y-98602800D01*
G75*
G02*
X23317200Y-98552000I0J50800D01*
G01*
G37*
M02*
