G04 #@! TF.GenerationSoftware,KiCad,Pcbnew,(5.1.9-0-10_14)*
G04 #@! TF.CreationDate,2021-05-04T13:02:15-03:00*
G04 #@! TF.ProjectId,RingPush-PMOD,52696e67-5075-4736-982d-504d4f442e6b,rev?*
G04 #@! TF.SameCoordinates,Original*
G04 #@! TF.FileFunction,Soldermask,Top*
G04 #@! TF.FilePolarity,Negative*
%FSLAX46Y46*%
G04 Gerber Fmt 4.6, Leading zero omitted, Abs format (unit mm)*
G04 Created by KiCad (PCBNEW (5.1.9-0-10_14)) date 2021-05-04 13:02:15*
%MOMM*%
%LPD*%
G01*
G04 APERTURE LIST*
%ADD10C,2.101600*%
%ADD11C,1.625600*%
%ADD12C,0.100000*%
G04 APERTURE END LIST*
G36*
G01*
X68601700Y-102501000D02*
X68601700Y-100501000D01*
G75*
G02*
X68652500Y-100450200I50800J0D01*
G01*
X70652500Y-100450200D01*
G75*
G02*
X70703300Y-100501000I0J-50800D01*
G01*
X70703300Y-102501000D01*
G75*
G02*
X70652500Y-102551800I-50800J0D01*
G01*
X68652500Y-102551800D01*
G75*
G02*
X68601700Y-102501000I0J50800D01*
G01*
G37*
D10*
X69652500Y-104001000D03*
X69652500Y-106501000D03*
G36*
G01*
X75501700Y-99401000D02*
X75501700Y-97401000D01*
G75*
G02*
X75552500Y-97350200I50800J0D01*
G01*
X78752500Y-97350200D01*
G75*
G02*
X78803300Y-97401000I0J-50800D01*
G01*
X78803300Y-99401000D01*
G75*
G02*
X78752500Y-99451800I-50800J0D01*
G01*
X75552500Y-99451800D01*
G75*
G02*
X75501700Y-99401000I0J50800D01*
G01*
G37*
G36*
G01*
X75501700Y-110601000D02*
X75501700Y-108601000D01*
G75*
G02*
X75552500Y-108550200I50800J0D01*
G01*
X78752500Y-108550200D01*
G75*
G02*
X78803300Y-108601000I0J-50800D01*
G01*
X78803300Y-110601000D01*
G75*
G02*
X78752500Y-110651800I-50800J0D01*
G01*
X75552500Y-110651800D01*
G75*
G02*
X75501700Y-110601000I0J50800D01*
G01*
G37*
X84152500Y-101501000D03*
X84152500Y-106501000D03*
G36*
G01*
X40863850Y-96640200D02*
X41464650Y-96640200D01*
G75*
G02*
X41690050Y-96865600I0J-225400D01*
G01*
X41690050Y-97316400D01*
G75*
G02*
X41464650Y-97541800I-225400J0D01*
G01*
X40863850Y-97541800D01*
G75*
G02*
X40638450Y-97316400I0J225400D01*
G01*
X40638450Y-96865600D01*
G75*
G02*
X40863850Y-96640200I225400J0D01*
G01*
G37*
G36*
G01*
X40863850Y-94990200D02*
X41464650Y-94990200D01*
G75*
G02*
X41690050Y-95215600I0J-225400D01*
G01*
X41690050Y-95666400D01*
G75*
G02*
X41464650Y-95891800I-225400J0D01*
G01*
X40863850Y-95891800D01*
G75*
G02*
X40638450Y-95666400I0J225400D01*
G01*
X40638450Y-95215600D01*
G75*
G02*
X40863850Y-94990200I225400J0D01*
G01*
G37*
G36*
G01*
X31570800Y-108409600D02*
X31570800Y-108760400D01*
G75*
G02*
X31395400Y-108935800I-175400J0D01*
G01*
X29694600Y-108935800D01*
G75*
G02*
X29519200Y-108760400I0J175400D01*
G01*
X29519200Y-108409600D01*
G75*
G02*
X29694600Y-108234200I175400J0D01*
G01*
X31395400Y-108234200D01*
G75*
G02*
X31570800Y-108409600I0J-175400D01*
G01*
G37*
G36*
G01*
X31570800Y-107139600D02*
X31570800Y-107490400D01*
G75*
G02*
X31395400Y-107665800I-175400J0D01*
G01*
X29694600Y-107665800D01*
G75*
G02*
X29519200Y-107490400I0J175400D01*
G01*
X29519200Y-107139600D01*
G75*
G02*
X29694600Y-106964200I175400J0D01*
G01*
X31395400Y-106964200D01*
G75*
G02*
X31570800Y-107139600I0J-175400D01*
G01*
G37*
G36*
G01*
X31570800Y-105869600D02*
X31570800Y-106220400D01*
G75*
G02*
X31395400Y-106395800I-175400J0D01*
G01*
X29694600Y-106395800D01*
G75*
G02*
X29519200Y-106220400I0J175400D01*
G01*
X29519200Y-105869600D01*
G75*
G02*
X29694600Y-105694200I175400J0D01*
G01*
X31395400Y-105694200D01*
G75*
G02*
X31570800Y-105869600I0J-175400D01*
G01*
G37*
G36*
G01*
X31570800Y-104599600D02*
X31570800Y-104950400D01*
G75*
G02*
X31395400Y-105125800I-175400J0D01*
G01*
X29694600Y-105125800D01*
G75*
G02*
X29519200Y-104950400I0J175400D01*
G01*
X29519200Y-104599600D01*
G75*
G02*
X29694600Y-104424200I175400J0D01*
G01*
X31395400Y-104424200D01*
G75*
G02*
X31570800Y-104599600I0J-175400D01*
G01*
G37*
G36*
G01*
X31570800Y-103329600D02*
X31570800Y-103680400D01*
G75*
G02*
X31395400Y-103855800I-175400J0D01*
G01*
X29694600Y-103855800D01*
G75*
G02*
X29519200Y-103680400I0J175400D01*
G01*
X29519200Y-103329600D01*
G75*
G02*
X29694600Y-103154200I175400J0D01*
G01*
X31395400Y-103154200D01*
G75*
G02*
X31570800Y-103329600I0J-175400D01*
G01*
G37*
G36*
G01*
X31570800Y-102059600D02*
X31570800Y-102410400D01*
G75*
G02*
X31395400Y-102585800I-175400J0D01*
G01*
X29694600Y-102585800D01*
G75*
G02*
X29519200Y-102410400I0J175400D01*
G01*
X29519200Y-102059600D01*
G75*
G02*
X29694600Y-101884200I175400J0D01*
G01*
X31395400Y-101884200D01*
G75*
G02*
X31570800Y-102059600I0J-175400D01*
G01*
G37*
G36*
G01*
X31570800Y-100789600D02*
X31570800Y-101140400D01*
G75*
G02*
X31395400Y-101315800I-175400J0D01*
G01*
X29694600Y-101315800D01*
G75*
G02*
X29519200Y-101140400I0J175400D01*
G01*
X29519200Y-100789600D01*
G75*
G02*
X29694600Y-100614200I175400J0D01*
G01*
X31395400Y-100614200D01*
G75*
G02*
X31570800Y-100789600I0J-175400D01*
G01*
G37*
G36*
G01*
X31570800Y-99519600D02*
X31570800Y-99870400D01*
G75*
G02*
X31395400Y-100045800I-175400J0D01*
G01*
X29694600Y-100045800D01*
G75*
G02*
X29519200Y-99870400I0J175400D01*
G01*
X29519200Y-99519600D01*
G75*
G02*
X29694600Y-99344200I175400J0D01*
G01*
X31395400Y-99344200D01*
G75*
G02*
X31570800Y-99519600I0J-175400D01*
G01*
G37*
G36*
G01*
X36520800Y-99519600D02*
X36520800Y-99870400D01*
G75*
G02*
X36345400Y-100045800I-175400J0D01*
G01*
X34644600Y-100045800D01*
G75*
G02*
X34469200Y-99870400I0J175400D01*
G01*
X34469200Y-99519600D01*
G75*
G02*
X34644600Y-99344200I175400J0D01*
G01*
X36345400Y-99344200D01*
G75*
G02*
X36520800Y-99519600I0J-175400D01*
G01*
G37*
G36*
G01*
X36520800Y-100789600D02*
X36520800Y-101140400D01*
G75*
G02*
X36345400Y-101315800I-175400J0D01*
G01*
X34644600Y-101315800D01*
G75*
G02*
X34469200Y-101140400I0J175400D01*
G01*
X34469200Y-100789600D01*
G75*
G02*
X34644600Y-100614200I175400J0D01*
G01*
X36345400Y-100614200D01*
G75*
G02*
X36520800Y-100789600I0J-175400D01*
G01*
G37*
G36*
G01*
X36520800Y-102059600D02*
X36520800Y-102410400D01*
G75*
G02*
X36345400Y-102585800I-175400J0D01*
G01*
X34644600Y-102585800D01*
G75*
G02*
X34469200Y-102410400I0J175400D01*
G01*
X34469200Y-102059600D01*
G75*
G02*
X34644600Y-101884200I175400J0D01*
G01*
X36345400Y-101884200D01*
G75*
G02*
X36520800Y-102059600I0J-175400D01*
G01*
G37*
G36*
G01*
X36520800Y-103329600D02*
X36520800Y-103680400D01*
G75*
G02*
X36345400Y-103855800I-175400J0D01*
G01*
X34644600Y-103855800D01*
G75*
G02*
X34469200Y-103680400I0J175400D01*
G01*
X34469200Y-103329600D01*
G75*
G02*
X34644600Y-103154200I175400J0D01*
G01*
X36345400Y-103154200D01*
G75*
G02*
X36520800Y-103329600I0J-175400D01*
G01*
G37*
G36*
G01*
X36520800Y-104599600D02*
X36520800Y-104950400D01*
G75*
G02*
X36345400Y-105125800I-175400J0D01*
G01*
X34644600Y-105125800D01*
G75*
G02*
X34469200Y-104950400I0J175400D01*
G01*
X34469200Y-104599600D01*
G75*
G02*
X34644600Y-104424200I175400J0D01*
G01*
X36345400Y-104424200D01*
G75*
G02*
X36520800Y-104599600I0J-175400D01*
G01*
G37*
G36*
G01*
X36520800Y-105869600D02*
X36520800Y-106220400D01*
G75*
G02*
X36345400Y-106395800I-175400J0D01*
G01*
X34644600Y-106395800D01*
G75*
G02*
X34469200Y-106220400I0J175400D01*
G01*
X34469200Y-105869600D01*
G75*
G02*
X34644600Y-105694200I175400J0D01*
G01*
X36345400Y-105694200D01*
G75*
G02*
X36520800Y-105869600I0J-175400D01*
G01*
G37*
G36*
G01*
X36520800Y-107139600D02*
X36520800Y-107490400D01*
G75*
G02*
X36345400Y-107665800I-175400J0D01*
G01*
X34644600Y-107665800D01*
G75*
G02*
X34469200Y-107490400I0J175400D01*
G01*
X34469200Y-107139600D01*
G75*
G02*
X34644600Y-106964200I175400J0D01*
G01*
X36345400Y-106964200D01*
G75*
G02*
X36520800Y-107139600I0J-175400D01*
G01*
G37*
G36*
G01*
X36520800Y-108409600D02*
X36520800Y-108760400D01*
G75*
G02*
X36345400Y-108935800I-175400J0D01*
G01*
X34644600Y-108935800D01*
G75*
G02*
X34469200Y-108760400I0J175400D01*
G01*
X34469200Y-108409600D01*
G75*
G02*
X34644600Y-108234200I175400J0D01*
G01*
X36345400Y-108234200D01*
G75*
G02*
X36520800Y-108409600I0J-175400D01*
G01*
G37*
D11*
X21590000Y-110490000D03*
X24130000Y-110490000D03*
X21590000Y-107950000D03*
X24130000Y-107950000D03*
X21590000Y-105410000D03*
X24130000Y-105410000D03*
X21590000Y-102870000D03*
X24130000Y-102870000D03*
X21590000Y-100330000D03*
X24130000Y-100330000D03*
X21590000Y-97790000D03*
G36*
G01*
X23317200Y-98552000D02*
X23317200Y-97028000D01*
G75*
G02*
X23368000Y-96977200I50800J0D01*
G01*
X24892000Y-96977200D01*
G75*
G02*
X24942800Y-97028000I0J-50800D01*
G01*
X24942800Y-98552000D01*
G75*
G02*
X24892000Y-98602800I-50800J0D01*
G01*
X23368000Y-98602800D01*
G75*
G02*
X23317200Y-98552000I0J50800D01*
G01*
G37*
G36*
G01*
X52417888Y-98663232D02*
X51736732Y-99344388D01*
G75*
G02*
X51356096Y-99344388I-190318J190318D01*
G01*
X50975460Y-98963752D01*
G75*
G02*
X50975460Y-98583116I190318J190318D01*
G01*
X51656616Y-97901960D01*
G75*
G02*
X52037252Y-97901960I190318J-190318D01*
G01*
X52417888Y-98282596D01*
G75*
G02*
X52417888Y-98663232I-190318J-190318D01*
G01*
G37*
G36*
G01*
X53743714Y-99989058D02*
X53062558Y-100670214D01*
G75*
G02*
X52681922Y-100670214I-190318J190318D01*
G01*
X52301286Y-100289578D01*
G75*
G02*
X52301286Y-99908942I190318J190318D01*
G01*
X52982442Y-99227786D01*
G75*
G02*
X53363078Y-99227786I190318J-190318D01*
G01*
X53743714Y-99608422D01*
G75*
G02*
X53743714Y-99989058I-190318J-190318D01*
G01*
G37*
G36*
G01*
X49907800Y-103658350D02*
X49907800Y-104621650D01*
G75*
G02*
X49638650Y-104890800I-269150J0D01*
G01*
X49100350Y-104890800D01*
G75*
G02*
X48831200Y-104621650I0J269150D01*
G01*
X48831200Y-103658350D01*
G75*
G02*
X49100350Y-103389200I269150J0D01*
G01*
X49638650Y-103389200D01*
G75*
G02*
X49907800Y-103658350I0J-269150D01*
G01*
G37*
G36*
G01*
X51782800Y-103658350D02*
X51782800Y-104621650D01*
G75*
G02*
X51513650Y-104890800I-269150J0D01*
G01*
X50975350Y-104890800D01*
G75*
G02*
X50706200Y-104621650I0J269150D01*
G01*
X50706200Y-103658350D01*
G75*
G02*
X50975350Y-103389200I269150J0D01*
G01*
X51513650Y-103389200D01*
G75*
G02*
X51782800Y-103658350I0J-269150D01*
G01*
G37*
G36*
G01*
X52434144Y-101615012D02*
X52065505Y-102504985D01*
G75*
G02*
X51713844Y-102650648I-248662J102999D01*
G01*
X51216519Y-102444649D01*
G75*
G02*
X51070856Y-102092988I102999J248662D01*
G01*
X51439495Y-101203015D01*
G75*
G02*
X51791156Y-101057352I248662J-102999D01*
G01*
X52288481Y-101263351D01*
G75*
G02*
X52434144Y-101615012I-102999J-248662D01*
G01*
G37*
G36*
G01*
X50701870Y-100897480D02*
X50333231Y-101787453D01*
G75*
G02*
X49981570Y-101933116I-248662J102999D01*
G01*
X49484245Y-101727117D01*
G75*
G02*
X49338582Y-101375456I102999J248662D01*
G01*
X49707221Y-100485483D01*
G75*
G02*
X50058882Y-100339820I248662J-102999D01*
G01*
X50556207Y-100545819D01*
G75*
G02*
X50701870Y-100897480I-102999J-248662D01*
G01*
G37*
G36*
G01*
X55578485Y-98992005D02*
X54688512Y-99360644D01*
G75*
G02*
X54336851Y-99214981I-102999J248662D01*
G01*
X54130852Y-98717656D01*
G75*
G02*
X54276515Y-98365995I248662J102999D01*
G01*
X55166488Y-97997356D01*
G75*
G02*
X55518149Y-98143019I102999J-248662D01*
G01*
X55724148Y-98640344D01*
G75*
G02*
X55578485Y-98992005I-248662J-102999D01*
G01*
G37*
G36*
G01*
X54860953Y-97259731D02*
X53970980Y-97628370D01*
G75*
G02*
X53619319Y-97482707I-102999J248662D01*
G01*
X53413320Y-96985382D01*
G75*
G02*
X53558983Y-96633721I248662J102999D01*
G01*
X54448956Y-96265082D01*
G75*
G02*
X54800617Y-96410745I102999J-248662D01*
G01*
X55006616Y-96908070D01*
G75*
G02*
X54860953Y-97259731I-248662J-102999D01*
G01*
G37*
G36*
G01*
X57568150Y-96961300D02*
X56604850Y-96961300D01*
G75*
G02*
X56335700Y-96692150I0J269150D01*
G01*
X56335700Y-96153850D01*
G75*
G02*
X56604850Y-95884700I269150J0D01*
G01*
X57568150Y-95884700D01*
G75*
G02*
X57837300Y-96153850I0J-269150D01*
G01*
X57837300Y-96692150D01*
G75*
G02*
X57568150Y-96961300I-269150J0D01*
G01*
G37*
G36*
G01*
X57568150Y-98836300D02*
X56604850Y-98836300D01*
G75*
G02*
X56335700Y-98567150I0J269150D01*
G01*
X56335700Y-98028850D01*
G75*
G02*
X56604850Y-97759700I269150J0D01*
G01*
X57568150Y-97759700D01*
G75*
G02*
X57837300Y-98028850I0J-269150D01*
G01*
X57837300Y-98567150D01*
G75*
G02*
X57568150Y-98836300I-269150J0D01*
G01*
G37*
G36*
G01*
X59484488Y-99360644D02*
X58594515Y-98992005D01*
G75*
G02*
X58448852Y-98640344I102999J248662D01*
G01*
X58654851Y-98143019D01*
G75*
G02*
X59006512Y-97997356I248662J-102999D01*
G01*
X59896485Y-98365995D01*
G75*
G02*
X60042148Y-98717656I-102999J-248662D01*
G01*
X59836149Y-99214981D01*
G75*
G02*
X59484488Y-99360644I-248662J102999D01*
G01*
G37*
G36*
G01*
X60202020Y-97628370D02*
X59312047Y-97259731D01*
G75*
G02*
X59166384Y-96908070I102999J248662D01*
G01*
X59372383Y-96410745D01*
G75*
G02*
X59724044Y-96265082I248662J-102999D01*
G01*
X60614017Y-96633721D01*
G75*
G02*
X60759680Y-96985382I-102999J-248662D01*
G01*
X60553681Y-97482707D01*
G75*
G02*
X60202020Y-97628370I-248662J102999D01*
G01*
G37*
G36*
G01*
X62380442Y-99273214D02*
X61699286Y-98592058D01*
G75*
G02*
X61699286Y-98211422I190318J190318D01*
G01*
X62079922Y-97830786D01*
G75*
G02*
X62460558Y-97830786I190318J-190318D01*
G01*
X63141714Y-98511942D01*
G75*
G02*
X63141714Y-98892578I-190318J-190318D01*
G01*
X62761078Y-99273214D01*
G75*
G02*
X62380442Y-99273214I-190318J190318D01*
G01*
G37*
G36*
G01*
X61054616Y-100599040D02*
X60373460Y-99917884D01*
G75*
G02*
X60373460Y-99537248I190318J190318D01*
G01*
X60754096Y-99156612D01*
G75*
G02*
X61134732Y-99156612I190318J-190318D01*
G01*
X61815888Y-99837768D01*
G75*
G02*
X61815888Y-100218404I-190318J-190318D01*
G01*
X61435252Y-100599040D01*
G75*
G02*
X61054616Y-100599040I-190318J190318D01*
G01*
G37*
G36*
G01*
X62107495Y-102377985D02*
X61738856Y-101488012D01*
G75*
G02*
X61884519Y-101136351I248662J102999D01*
G01*
X62381844Y-100930352D01*
G75*
G02*
X62733505Y-101076015I102999J-248662D01*
G01*
X63102144Y-101965988D01*
G75*
G02*
X62956481Y-102317649I-248662J-102999D01*
G01*
X62459156Y-102523648D01*
G75*
G02*
X62107495Y-102377985I-102999J248662D01*
G01*
G37*
G36*
G01*
X63839769Y-101660453D02*
X63471130Y-100770480D01*
G75*
G02*
X63616793Y-100418819I248662J102999D01*
G01*
X64114118Y-100212820D01*
G75*
G02*
X64465779Y-100358483I102999J-248662D01*
G01*
X64834418Y-101248456D01*
G75*
G02*
X64688755Y-101600117I-248662J-102999D01*
G01*
X64191430Y-101806116D01*
G75*
G02*
X63839769Y-101660453I-102999J248662D01*
G01*
G37*
G36*
G01*
X43884800Y-109046597D02*
X43884800Y-109647397D01*
G75*
G02*
X43659400Y-109872797I-225400J0D01*
G01*
X43208600Y-109872797D01*
G75*
G02*
X42983200Y-109647397I0J225400D01*
G01*
X42983200Y-109046597D01*
G75*
G02*
X43208600Y-108821197I225400J0D01*
G01*
X43659400Y-108821197D01*
G75*
G02*
X43884800Y-109046597I0J-225400D01*
G01*
G37*
G36*
G01*
X42234800Y-109046597D02*
X42234800Y-109647397D01*
G75*
G02*
X42009400Y-109872797I-225400J0D01*
G01*
X41558600Y-109872797D01*
G75*
G02*
X41333200Y-109647397I0J225400D01*
G01*
X41333200Y-109046597D01*
G75*
G02*
X41558600Y-108821197I225400J0D01*
G01*
X42009400Y-108821197D01*
G75*
G02*
X42234800Y-109046597I0J-225400D01*
G01*
G37*
G36*
G01*
X43884800Y-107577026D02*
X43884800Y-108177826D01*
G75*
G02*
X43659400Y-108403226I-225400J0D01*
G01*
X43208600Y-108403226D01*
G75*
G02*
X42983200Y-108177826I0J225400D01*
G01*
X42983200Y-107577026D01*
G75*
G02*
X43208600Y-107351626I225400J0D01*
G01*
X43659400Y-107351626D01*
G75*
G02*
X43884800Y-107577026I0J-225400D01*
G01*
G37*
G36*
G01*
X42234800Y-107577026D02*
X42234800Y-108177826D01*
G75*
G02*
X42009400Y-108403226I-225400J0D01*
G01*
X41558600Y-108403226D01*
G75*
G02*
X41333200Y-108177826I0J225400D01*
G01*
X41333200Y-107577026D01*
G75*
G02*
X41558600Y-107351626I225400J0D01*
G01*
X42009400Y-107351626D01*
G75*
G02*
X42234800Y-107577026I0J-225400D01*
G01*
G37*
G36*
G01*
X42234800Y-106107455D02*
X42234800Y-106708255D01*
G75*
G02*
X42009400Y-106933655I-225400J0D01*
G01*
X41558600Y-106933655D01*
G75*
G02*
X41333200Y-106708255I0J225400D01*
G01*
X41333200Y-106107455D01*
G75*
G02*
X41558600Y-105882055I225400J0D01*
G01*
X42009400Y-105882055D01*
G75*
G02*
X42234800Y-106107455I0J-225400D01*
G01*
G37*
G36*
G01*
X43884800Y-106107455D02*
X43884800Y-106708255D01*
G75*
G02*
X43659400Y-106933655I-225400J0D01*
G01*
X43208600Y-106933655D01*
G75*
G02*
X42983200Y-106708255I0J225400D01*
G01*
X42983200Y-106107455D01*
G75*
G02*
X43208600Y-105882055I225400J0D01*
G01*
X43659400Y-105882055D01*
G75*
G02*
X43884800Y-106107455I0J-225400D01*
G01*
G37*
G36*
G01*
X43884800Y-104637884D02*
X43884800Y-105238684D01*
G75*
G02*
X43659400Y-105464084I-225400J0D01*
G01*
X43208600Y-105464084D01*
G75*
G02*
X42983200Y-105238684I0J225400D01*
G01*
X42983200Y-104637884D01*
G75*
G02*
X43208600Y-104412484I225400J0D01*
G01*
X43659400Y-104412484D01*
G75*
G02*
X43884800Y-104637884I0J-225400D01*
G01*
G37*
G36*
G01*
X42234800Y-104637884D02*
X42234800Y-105238684D01*
G75*
G02*
X42009400Y-105464084I-225400J0D01*
G01*
X41558600Y-105464084D01*
G75*
G02*
X41333200Y-105238684I0J225400D01*
G01*
X41333200Y-104637884D01*
G75*
G02*
X41558600Y-104412484I225400J0D01*
G01*
X42009400Y-104412484D01*
G75*
G02*
X42234800Y-104637884I0J-225400D01*
G01*
G37*
G36*
G01*
X42234800Y-103168313D02*
X42234800Y-103769113D01*
G75*
G02*
X42009400Y-103994513I-225400J0D01*
G01*
X41558600Y-103994513D01*
G75*
G02*
X41333200Y-103769113I0J225400D01*
G01*
X41333200Y-103168313D01*
G75*
G02*
X41558600Y-102942913I225400J0D01*
G01*
X42009400Y-102942913D01*
G75*
G02*
X42234800Y-103168313I0J-225400D01*
G01*
G37*
G36*
G01*
X43884800Y-103168313D02*
X43884800Y-103769113D01*
G75*
G02*
X43659400Y-103994513I-225400J0D01*
G01*
X43208600Y-103994513D01*
G75*
G02*
X42983200Y-103769113I0J225400D01*
G01*
X42983200Y-103168313D01*
G75*
G02*
X43208600Y-102942913I225400J0D01*
G01*
X43659400Y-102942913D01*
G75*
G02*
X43884800Y-103168313I0J-225400D01*
G01*
G37*
G36*
G01*
X43884800Y-101698742D02*
X43884800Y-102299542D01*
G75*
G02*
X43659400Y-102524942I-225400J0D01*
G01*
X43208600Y-102524942D01*
G75*
G02*
X42983200Y-102299542I0J225400D01*
G01*
X42983200Y-101698742D01*
G75*
G02*
X43208600Y-101473342I225400J0D01*
G01*
X43659400Y-101473342D01*
G75*
G02*
X43884800Y-101698742I0J-225400D01*
G01*
G37*
G36*
G01*
X42234800Y-101698742D02*
X42234800Y-102299542D01*
G75*
G02*
X42009400Y-102524942I-225400J0D01*
G01*
X41558600Y-102524942D01*
G75*
G02*
X41333200Y-102299542I0J225400D01*
G01*
X41333200Y-101698742D01*
G75*
G02*
X41558600Y-101473342I225400J0D01*
G01*
X42009400Y-101473342D01*
G75*
G02*
X42234800Y-101698742I0J-225400D01*
G01*
G37*
G36*
G01*
X42234800Y-100229171D02*
X42234800Y-100829971D01*
G75*
G02*
X42009400Y-101055371I-225400J0D01*
G01*
X41558600Y-101055371D01*
G75*
G02*
X41333200Y-100829971I0J225400D01*
G01*
X41333200Y-100229171D01*
G75*
G02*
X41558600Y-100003771I225400J0D01*
G01*
X42009400Y-100003771D01*
G75*
G02*
X42234800Y-100229171I0J-225400D01*
G01*
G37*
G36*
G01*
X43884800Y-100229171D02*
X43884800Y-100829971D01*
G75*
G02*
X43659400Y-101055371I-225400J0D01*
G01*
X43208600Y-101055371D01*
G75*
G02*
X42983200Y-100829971I0J225400D01*
G01*
X42983200Y-100229171D01*
G75*
G02*
X43208600Y-100003771I225400J0D01*
G01*
X43659400Y-100003771D01*
G75*
G02*
X43884800Y-100229171I0J-225400D01*
G01*
G37*
G36*
G01*
X42234800Y-98759600D02*
X42234800Y-99360400D01*
G75*
G02*
X42009400Y-99585800I-225400J0D01*
G01*
X41558600Y-99585800D01*
G75*
G02*
X41333200Y-99360400I0J225400D01*
G01*
X41333200Y-98759600D01*
G75*
G02*
X41558600Y-98534200I225400J0D01*
G01*
X42009400Y-98534200D01*
G75*
G02*
X42234800Y-98759600I0J-225400D01*
G01*
G37*
G36*
G01*
X43884800Y-98759600D02*
X43884800Y-99360400D01*
G75*
G02*
X43659400Y-99585800I-225400J0D01*
G01*
X43208600Y-99585800D01*
G75*
G02*
X42983200Y-99360400I0J225400D01*
G01*
X42983200Y-98759600D01*
G75*
G02*
X43208600Y-98534200I225400J0D01*
G01*
X43659400Y-98534200D01*
G75*
G02*
X43884800Y-98759600I0J-225400D01*
G01*
G37*
G36*
G01*
X32894350Y-94990200D02*
X33495150Y-94990200D01*
G75*
G02*
X33720550Y-95215600I0J-225400D01*
G01*
X33720550Y-95666400D01*
G75*
G02*
X33495150Y-95891800I-225400J0D01*
G01*
X32894350Y-95891800D01*
G75*
G02*
X32668950Y-95666400I0J225400D01*
G01*
X32668950Y-95215600D01*
G75*
G02*
X32894350Y-94990200I225400J0D01*
G01*
G37*
G36*
G01*
X32894350Y-96640200D02*
X33495150Y-96640200D01*
G75*
G02*
X33720550Y-96865600I0J-225400D01*
G01*
X33720550Y-97316400D01*
G75*
G02*
X33495150Y-97541800I-225400J0D01*
G01*
X32894350Y-97541800D01*
G75*
G02*
X32668950Y-97316400I0J225400D01*
G01*
X32668950Y-96865600D01*
G75*
G02*
X32894350Y-96640200I225400J0D01*
G01*
G37*
G36*
G01*
X45449400Y-97541800D02*
X44848600Y-97541800D01*
G75*
G02*
X44623200Y-97316400I0J225400D01*
G01*
X44623200Y-96865600D01*
G75*
G02*
X44848600Y-96640200I225400J0D01*
G01*
X45449400Y-96640200D01*
G75*
G02*
X45674800Y-96865600I0J-225400D01*
G01*
X45674800Y-97316400D01*
G75*
G02*
X45449400Y-97541800I-225400J0D01*
G01*
G37*
G36*
G01*
X45449400Y-95891800D02*
X44848600Y-95891800D01*
G75*
G02*
X44623200Y-95666400I0J225400D01*
G01*
X44623200Y-95215600D01*
G75*
G02*
X44848600Y-94990200I225400J0D01*
G01*
X45449400Y-94990200D01*
G75*
G02*
X45674800Y-95215600I0J-225400D01*
G01*
X45674800Y-95666400D01*
G75*
G02*
X45449400Y-95891800I-225400J0D01*
G01*
G37*
G36*
G01*
X33396600Y-111385800D02*
X32795800Y-111385800D01*
G75*
G02*
X32570400Y-111160400I0J225400D01*
G01*
X32570400Y-110709600D01*
G75*
G02*
X32795800Y-110484200I225400J0D01*
G01*
X33396600Y-110484200D01*
G75*
G02*
X33622000Y-110709600I0J-225400D01*
G01*
X33622000Y-111160400D01*
G75*
G02*
X33396600Y-111385800I-225400J0D01*
G01*
G37*
G36*
G01*
X33396600Y-113035800D02*
X32795800Y-113035800D01*
G75*
G02*
X32570400Y-112810400I0J225400D01*
G01*
X32570400Y-112359600D01*
G75*
G02*
X32795800Y-112134200I225400J0D01*
G01*
X33396600Y-112134200D01*
G75*
G02*
X33622000Y-112359600I0J-225400D01*
G01*
X33622000Y-112810400D01*
G75*
G02*
X33396600Y-113035800I-225400J0D01*
G01*
G37*
G36*
G01*
X37409800Y-113035800D02*
X36809000Y-113035800D01*
G75*
G02*
X36583600Y-112810400I0J225400D01*
G01*
X36583600Y-112359600D01*
G75*
G02*
X36809000Y-112134200I225400J0D01*
G01*
X37409800Y-112134200D01*
G75*
G02*
X37635200Y-112359600I0J-225400D01*
G01*
X37635200Y-112810400D01*
G75*
G02*
X37409800Y-113035800I-225400J0D01*
G01*
G37*
G36*
G01*
X37409800Y-111385800D02*
X36809000Y-111385800D01*
G75*
G02*
X36583600Y-111160400I0J225400D01*
G01*
X36583600Y-110709600D01*
G75*
G02*
X36809000Y-110484200I225400J0D01*
G01*
X37409800Y-110484200D01*
G75*
G02*
X37635200Y-110709600I0J-225400D01*
G01*
X37635200Y-111160400D01*
G75*
G02*
X37409800Y-111385800I-225400J0D01*
G01*
G37*
G36*
G01*
X37479900Y-97541800D02*
X36879100Y-97541800D01*
G75*
G02*
X36653700Y-97316400I0J225400D01*
G01*
X36653700Y-96865600D01*
G75*
G02*
X36879100Y-96640200I225400J0D01*
G01*
X37479900Y-96640200D01*
G75*
G02*
X37705300Y-96865600I0J-225400D01*
G01*
X37705300Y-97316400D01*
G75*
G02*
X37479900Y-97541800I-225400J0D01*
G01*
G37*
G36*
G01*
X37479900Y-95891800D02*
X36879100Y-95891800D01*
G75*
G02*
X36653700Y-95666400I0J225400D01*
G01*
X36653700Y-95215600D01*
G75*
G02*
X36879100Y-94990200I225400J0D01*
G01*
X37479900Y-94990200D01*
G75*
G02*
X37705300Y-95215600I0J-225400D01*
G01*
X37705300Y-95666400D01*
G75*
G02*
X37479900Y-95891800I-225400J0D01*
G01*
G37*
G36*
G01*
X30315400Y-95965800D02*
X29764600Y-95965800D01*
G75*
G02*
X29514200Y-95715400I0J250400D01*
G01*
X29514200Y-95214600D01*
G75*
G02*
X29764600Y-94964200I250400J0D01*
G01*
X30315400Y-94964200D01*
G75*
G02*
X30565800Y-95214600I0J-250400D01*
G01*
X30565800Y-95715400D01*
G75*
G02*
X30315400Y-95965800I-250400J0D01*
G01*
G37*
G36*
G01*
X30315400Y-97515800D02*
X29764600Y-97515800D01*
G75*
G02*
X29514200Y-97265400I0J250400D01*
G01*
X29514200Y-96764600D01*
G75*
G02*
X29764600Y-96514200I250400J0D01*
G01*
X30315400Y-96514200D01*
G75*
G02*
X30565800Y-96764600I0J-250400D01*
G01*
X30565800Y-97265400D01*
G75*
G02*
X30315400Y-97515800I-250400J0D01*
G01*
G37*
G36*
G01*
X64265200Y-104621650D02*
X64265200Y-103658350D01*
G75*
G02*
X64534350Y-103389200I269150J0D01*
G01*
X65072650Y-103389200D01*
G75*
G02*
X65341800Y-103658350I0J-269150D01*
G01*
X65341800Y-104621650D01*
G75*
G02*
X65072650Y-104890800I-269150J0D01*
G01*
X64534350Y-104890800D01*
G75*
G02*
X64265200Y-104621650I0J269150D01*
G01*
G37*
G36*
G01*
X62390200Y-104621650D02*
X62390200Y-103658350D01*
G75*
G02*
X62659350Y-103389200I269150J0D01*
G01*
X63197650Y-103389200D01*
G75*
G02*
X63466800Y-103658350I0J-269150D01*
G01*
X63466800Y-104621650D01*
G75*
G02*
X63197650Y-104890800I-269150J0D01*
G01*
X62659350Y-104890800D01*
G75*
G02*
X62390200Y-104621650I0J269150D01*
G01*
G37*
G36*
G01*
X61825219Y-106560222D02*
X62193858Y-105670249D01*
G75*
G02*
X62545519Y-105524586I248662J-102999D01*
G01*
X63042844Y-105730585D01*
G75*
G02*
X63188507Y-106082246I-102999J-248662D01*
G01*
X62819868Y-106972219D01*
G75*
G02*
X62468207Y-107117882I-248662J102999D01*
G01*
X61970882Y-106911883D01*
G75*
G02*
X61825219Y-106560222I102999J248662D01*
G01*
G37*
G36*
G01*
X63557493Y-107277754D02*
X63926132Y-106387781D01*
G75*
G02*
X64277793Y-106242118I248662J-102999D01*
G01*
X64775118Y-106448117D01*
G75*
G02*
X64920781Y-106799778I-102999J-248662D01*
G01*
X64552142Y-107689751D01*
G75*
G02*
X64200481Y-107835414I-248662J102999D01*
G01*
X63703156Y-107629415D01*
G75*
G02*
X63557493Y-107277754I102999J248662D01*
G01*
G37*
G36*
G01*
X61882112Y-109553268D02*
X62563268Y-108872112D01*
G75*
G02*
X62943904Y-108872112I190318J-190318D01*
G01*
X63324540Y-109252748D01*
G75*
G02*
X63324540Y-109633384I-190318J-190318D01*
G01*
X62643384Y-110314540D01*
G75*
G02*
X62262748Y-110314540I-190318J190318D01*
G01*
X61882112Y-109933904D01*
G75*
G02*
X61882112Y-109553268I190318J190318D01*
G01*
G37*
G36*
G01*
X60556286Y-108227442D02*
X61237442Y-107546286D01*
G75*
G02*
X61618078Y-107546286I190318J-190318D01*
G01*
X61998714Y-107926922D01*
G75*
G02*
X61998714Y-108307558I-190318J-190318D01*
G01*
X61317558Y-108988714D01*
G75*
G02*
X60936922Y-108988714I-190318J190318D01*
G01*
X60556286Y-108608078D01*
G75*
G02*
X60556286Y-108227442I190318J190318D01*
G01*
G37*
G36*
G01*
X58721515Y-109224495D02*
X59611488Y-108855856D01*
G75*
G02*
X59963149Y-109001519I102999J-248662D01*
G01*
X60169148Y-109498844D01*
G75*
G02*
X60023485Y-109850505I-248662J-102999D01*
G01*
X59133512Y-110219144D01*
G75*
G02*
X58781851Y-110073481I-102999J248662D01*
G01*
X58575852Y-109576156D01*
G75*
G02*
X58721515Y-109224495I248662J102999D01*
G01*
G37*
G36*
G01*
X59439047Y-110956769D02*
X60329020Y-110588130D01*
G75*
G02*
X60680681Y-110733793I102999J-248662D01*
G01*
X60886680Y-111231118D01*
G75*
G02*
X60741017Y-111582779I-248662J-102999D01*
G01*
X59851044Y-111951418D01*
G75*
G02*
X59499383Y-111805755I-102999J248662D01*
G01*
X59293384Y-111308430D01*
G75*
G02*
X59439047Y-110956769I248662J102999D01*
G01*
G37*
G36*
G01*
X56604850Y-111318700D02*
X57568150Y-111318700D01*
G75*
G02*
X57837300Y-111587850I0J-269150D01*
G01*
X57837300Y-112126150D01*
G75*
G02*
X57568150Y-112395300I-269150J0D01*
G01*
X56604850Y-112395300D01*
G75*
G02*
X56335700Y-112126150I0J269150D01*
G01*
X56335700Y-111587850D01*
G75*
G02*
X56604850Y-111318700I269150J0D01*
G01*
G37*
G36*
G01*
X56604850Y-109443700D02*
X57568150Y-109443700D01*
G75*
G02*
X57837300Y-109712850I0J-269150D01*
G01*
X57837300Y-110251150D01*
G75*
G02*
X57568150Y-110520300I-269150J0D01*
G01*
X56604850Y-110520300D01*
G75*
G02*
X56335700Y-110251150I0J269150D01*
G01*
X56335700Y-109712850D01*
G75*
G02*
X56604850Y-109443700I269150J0D01*
G01*
G37*
G36*
G01*
X54625012Y-108855856D02*
X55514985Y-109224495D01*
G75*
G02*
X55660648Y-109576156I-102999J-248662D01*
G01*
X55454649Y-110073481D01*
G75*
G02*
X55102988Y-110219144I-248662J102999D01*
G01*
X54213015Y-109850505D01*
G75*
G02*
X54067352Y-109498844I102999J248662D01*
G01*
X54273351Y-109001519D01*
G75*
G02*
X54625012Y-108855856I248662J-102999D01*
G01*
G37*
G36*
G01*
X53907480Y-110588130D02*
X54797453Y-110956769D01*
G75*
G02*
X54943116Y-111308430I-102999J-248662D01*
G01*
X54737117Y-111805755D01*
G75*
G02*
X54385456Y-111951418I-248662J102999D01*
G01*
X53495483Y-111582779D01*
G75*
G02*
X53349820Y-111231118I102999J248662D01*
G01*
X53555819Y-110733793D01*
G75*
G02*
X53907480Y-110588130I248662J-102999D01*
G01*
G37*
G36*
G01*
X51736732Y-108907699D02*
X52417888Y-109588855D01*
G75*
G02*
X52417888Y-109969491I-190318J-190318D01*
G01*
X52037252Y-110350127D01*
G75*
G02*
X51656616Y-110350127I-190318J190318D01*
G01*
X50975460Y-109668971D01*
G75*
G02*
X50975460Y-109288335I190318J190318D01*
G01*
X51356096Y-108907699D01*
G75*
G02*
X51736732Y-108907699I190318J-190318D01*
G01*
G37*
G36*
G01*
X53062558Y-107581873D02*
X53743714Y-108263029D01*
G75*
G02*
X53743714Y-108643665I-190318J-190318D01*
G01*
X53363078Y-109024301D01*
G75*
G02*
X52982442Y-109024301I-190318J190318D01*
G01*
X52301286Y-108343145D01*
G75*
G02*
X52301286Y-107962509I190318J190318D01*
G01*
X52681922Y-107581873D01*
G75*
G02*
X53062558Y-107581873I190318J-190318D01*
G01*
G37*
G36*
G01*
X52065505Y-105775015D02*
X52434144Y-106664988D01*
G75*
G02*
X52288481Y-107016649I-248662J-102999D01*
G01*
X51791156Y-107222648D01*
G75*
G02*
X51439495Y-107076985I-102999J248662D01*
G01*
X51070856Y-106187012D01*
G75*
G02*
X51216519Y-105835351I248662J102999D01*
G01*
X51713844Y-105629352D01*
G75*
G02*
X52065505Y-105775015I102999J-248662D01*
G01*
G37*
G36*
G01*
X50333231Y-106492547D02*
X50701870Y-107382520D01*
G75*
G02*
X50556207Y-107734181I-248662J-102999D01*
G01*
X50058882Y-107940180D01*
G75*
G02*
X49707221Y-107794517I-102999J248662D01*
G01*
X49338582Y-106904544D01*
G75*
G02*
X49484245Y-106552883I248662J102999D01*
G01*
X49981570Y-106346884D01*
G75*
G02*
X50333231Y-106492547I102999J-248662D01*
G01*
G37*
G36*
G01*
X57871700Y-103590000D02*
X57871700Y-102790000D01*
G75*
G02*
X57922500Y-102739200I50800J0D01*
G01*
X58822500Y-102739200D01*
G75*
G02*
X58873300Y-102790000I0J-50800D01*
G01*
X58873300Y-103590000D01*
G75*
G02*
X58822500Y-103640800I-50800J0D01*
G01*
X57922500Y-103640800D01*
G75*
G02*
X57871700Y-103590000I0J50800D01*
G01*
G37*
G36*
G01*
X57871700Y-105490000D02*
X57871700Y-104690000D01*
G75*
G02*
X57922500Y-104639200I50800J0D01*
G01*
X58822500Y-104639200D01*
G75*
G02*
X58873300Y-104690000I0J-50800D01*
G01*
X58873300Y-105490000D01*
G75*
G02*
X58822500Y-105540800I-50800J0D01*
G01*
X57922500Y-105540800D01*
G75*
G02*
X57871700Y-105490000I0J50800D01*
G01*
G37*
G36*
G01*
X59871700Y-104540000D02*
X59871700Y-103740000D01*
G75*
G02*
X59922500Y-103689200I50800J0D01*
G01*
X60822500Y-103689200D01*
G75*
G02*
X60873300Y-103740000I0J-50800D01*
G01*
X60873300Y-104540000D01*
G75*
G02*
X60822500Y-104590800I-50800J0D01*
G01*
X59922500Y-104590800D01*
G75*
G02*
X59871700Y-104540000I0J50800D01*
G01*
G37*
G36*
G01*
X54502301Y-103715001D02*
X54502301Y-104515001D01*
G75*
G02*
X54451501Y-104565801I-50800J0D01*
G01*
X53551501Y-104565801D01*
G75*
G02*
X53500701Y-104515001I0J50800D01*
G01*
X53500701Y-103715001D01*
G75*
G02*
X53551501Y-103664201I50800J0D01*
G01*
X54451501Y-103664201D01*
G75*
G02*
X54502301Y-103715001I0J-50800D01*
G01*
G37*
G36*
G01*
X56502301Y-102765001D02*
X56502301Y-103565001D01*
G75*
G02*
X56451501Y-103615801I-50800J0D01*
G01*
X55551501Y-103615801D01*
G75*
G02*
X55500701Y-103565001I0J50800D01*
G01*
X55500701Y-102765001D01*
G75*
G02*
X55551501Y-102714201I50800J0D01*
G01*
X56451501Y-102714201D01*
G75*
G02*
X56502301Y-102765001I0J-50800D01*
G01*
G37*
G36*
G01*
X56502301Y-104665001D02*
X56502301Y-105465001D01*
G75*
G02*
X56451501Y-105515801I-50800J0D01*
G01*
X55551501Y-105515801D01*
G75*
G02*
X55500701Y-105465001I0J50800D01*
G01*
X55500701Y-104665001D01*
G75*
G02*
X55551501Y-104614201I50800J0D01*
G01*
X56451501Y-104614201D01*
G75*
G02*
X56502301Y-104665001I0J-50800D01*
G01*
G37*
G36*
G01*
X85019300Y-95482600D02*
X85019300Y-96033400D01*
G75*
G02*
X84768900Y-96283800I-250400J0D01*
G01*
X84268100Y-96283800D01*
G75*
G02*
X84017700Y-96033400I0J250400D01*
G01*
X84017700Y-95482600D01*
G75*
G02*
X84268100Y-95232200I250400J0D01*
G01*
X84768900Y-95232200D01*
G75*
G02*
X85019300Y-95482600I0J-250400D01*
G01*
G37*
G36*
G01*
X83469300Y-95482600D02*
X83469300Y-96033400D01*
G75*
G02*
X83218900Y-96283800I-250400J0D01*
G01*
X82718100Y-96283800D01*
G75*
G02*
X82467700Y-96033400I0J250400D01*
G01*
X82467700Y-95482600D01*
G75*
G02*
X82718100Y-95232200I250400J0D01*
G01*
X83218900Y-95232200D01*
G75*
G02*
X83469300Y-95482600I0J-250400D01*
G01*
G37*
D12*
G36*
X51594143Y-108821344D02*
G01*
X51594528Y-108821420D01*
X51640241Y-108835287D01*
X51640603Y-108835437D01*
X51682722Y-108857950D01*
X51683048Y-108858168D01*
X51721906Y-108890057D01*
X51722051Y-108890189D01*
X52435398Y-109603536D01*
X52435530Y-109603681D01*
X52467419Y-109642539D01*
X52467637Y-109642865D01*
X52490150Y-109684984D01*
X52490300Y-109685346D01*
X52504167Y-109731059D01*
X52504243Y-109731444D01*
X52508924Y-109778977D01*
X52508924Y-109779369D01*
X52504243Y-109826902D01*
X52504167Y-109827287D01*
X52490300Y-109873000D01*
X52490150Y-109873362D01*
X52467637Y-109915481D01*
X52467419Y-109915807D01*
X52435530Y-109954665D01*
X52435398Y-109954810D01*
X52022571Y-110367637D01*
X52022426Y-110367769D01*
X51983568Y-110399658D01*
X51983242Y-110399876D01*
X51941123Y-110422389D01*
X51940761Y-110422539D01*
X51895048Y-110436406D01*
X51894663Y-110436482D01*
X51847130Y-110441163D01*
X51846738Y-110441163D01*
X51799205Y-110436482D01*
X51798820Y-110436406D01*
X51753107Y-110422539D01*
X51752745Y-110422389D01*
X51710626Y-110399876D01*
X51710300Y-110399658D01*
X51671442Y-110367769D01*
X51671297Y-110367637D01*
X50957950Y-109654290D01*
X50957818Y-109654145D01*
X50925929Y-109615287D01*
X50925711Y-109614961D01*
X50903198Y-109572842D01*
X50903048Y-109572480D01*
X50889181Y-109526767D01*
X50889105Y-109526382D01*
X50884424Y-109478849D01*
X50884424Y-109478653D01*
X50898637Y-109478653D01*
X50903770Y-109530767D01*
X50918973Y-109580883D01*
X50943659Y-109627069D01*
X50976947Y-109667630D01*
X51657957Y-110348640D01*
X51698518Y-110381928D01*
X51744704Y-110406614D01*
X51794820Y-110421817D01*
X51846934Y-110426950D01*
X51899048Y-110421817D01*
X51949164Y-110406614D01*
X51995350Y-110381928D01*
X52035911Y-110348640D01*
X52416401Y-109968150D01*
X52449689Y-109927589D01*
X52474375Y-109881403D01*
X52489578Y-109831287D01*
X52494711Y-109779173D01*
X52489578Y-109727059D01*
X52474375Y-109676943D01*
X52449689Y-109630757D01*
X52416401Y-109590196D01*
X51735391Y-108909186D01*
X51694830Y-108875898D01*
X51648644Y-108851212D01*
X51598528Y-108836009D01*
X51546414Y-108830876D01*
X51494300Y-108836009D01*
X51444184Y-108851212D01*
X51397998Y-108875898D01*
X51357437Y-108909186D01*
X50976947Y-109289676D01*
X50943659Y-109330237D01*
X50918973Y-109376423D01*
X50903770Y-109426539D01*
X50898637Y-109478653D01*
X50884424Y-109478653D01*
X50884424Y-109478457D01*
X50889105Y-109430924D01*
X50889181Y-109430539D01*
X50903048Y-109384826D01*
X50903198Y-109384464D01*
X50925711Y-109342345D01*
X50925929Y-109342019D01*
X50957818Y-109303161D01*
X50957950Y-109303016D01*
X51370777Y-108890189D01*
X51370922Y-108890057D01*
X51409780Y-108858168D01*
X51410106Y-108857950D01*
X51452225Y-108835437D01*
X51452587Y-108835287D01*
X51498300Y-108821420D01*
X51498685Y-108821344D01*
X51546218Y-108816663D01*
X51546610Y-108816663D01*
X51594143Y-108821344D01*
G37*
G36*
X62801315Y-108785757D02*
G01*
X62801700Y-108785833D01*
X62847413Y-108799700D01*
X62847775Y-108799850D01*
X62889894Y-108822363D01*
X62890220Y-108822581D01*
X62929078Y-108854470D01*
X62929223Y-108854602D01*
X63342050Y-109267429D01*
X63342182Y-109267574D01*
X63374071Y-109306432D01*
X63374289Y-109306758D01*
X63396802Y-109348877D01*
X63396952Y-109349239D01*
X63410819Y-109394952D01*
X63410895Y-109395337D01*
X63415576Y-109442870D01*
X63415576Y-109443262D01*
X63410895Y-109490795D01*
X63410819Y-109491180D01*
X63396952Y-109536893D01*
X63396802Y-109537255D01*
X63374289Y-109579374D01*
X63374071Y-109579700D01*
X63342182Y-109618558D01*
X63342050Y-109618703D01*
X62628703Y-110332050D01*
X62628558Y-110332182D01*
X62589700Y-110364071D01*
X62589374Y-110364289D01*
X62547255Y-110386802D01*
X62546893Y-110386952D01*
X62501180Y-110400819D01*
X62500795Y-110400895D01*
X62453262Y-110405576D01*
X62452870Y-110405576D01*
X62405337Y-110400895D01*
X62404952Y-110400819D01*
X62359239Y-110386952D01*
X62358877Y-110386802D01*
X62316758Y-110364289D01*
X62316432Y-110364071D01*
X62277574Y-110332182D01*
X62277429Y-110332050D01*
X61864602Y-109919223D01*
X61864470Y-109919078D01*
X61832581Y-109880220D01*
X61832363Y-109879894D01*
X61809850Y-109837775D01*
X61809700Y-109837413D01*
X61795833Y-109791700D01*
X61795757Y-109791315D01*
X61791076Y-109743782D01*
X61791076Y-109743586D01*
X61805289Y-109743586D01*
X61810422Y-109795700D01*
X61825625Y-109845816D01*
X61850311Y-109892002D01*
X61883599Y-109932563D01*
X62264089Y-110313053D01*
X62304650Y-110346341D01*
X62350836Y-110371027D01*
X62400952Y-110386230D01*
X62453066Y-110391363D01*
X62505180Y-110386230D01*
X62555296Y-110371027D01*
X62601482Y-110346341D01*
X62642043Y-110313053D01*
X63323053Y-109632043D01*
X63356341Y-109591482D01*
X63381027Y-109545296D01*
X63396230Y-109495180D01*
X63401363Y-109443066D01*
X63396230Y-109390952D01*
X63381027Y-109340836D01*
X63356341Y-109294650D01*
X63323053Y-109254089D01*
X62942563Y-108873599D01*
X62902002Y-108840311D01*
X62855816Y-108815625D01*
X62805700Y-108800422D01*
X62753586Y-108795289D01*
X62701472Y-108800422D01*
X62651356Y-108815625D01*
X62605170Y-108840311D01*
X62564609Y-108873599D01*
X61883599Y-109554609D01*
X61850311Y-109595170D01*
X61825625Y-109641356D01*
X61810422Y-109691472D01*
X61805289Y-109743586D01*
X61791076Y-109743586D01*
X61791076Y-109743390D01*
X61795757Y-109695857D01*
X61795833Y-109695472D01*
X61809700Y-109649759D01*
X61809850Y-109649397D01*
X61832363Y-109607278D01*
X61832581Y-109606952D01*
X61864470Y-109568094D01*
X61864602Y-109567949D01*
X62577949Y-108854602D01*
X62578094Y-108854470D01*
X62616952Y-108822581D01*
X62617278Y-108822363D01*
X62659397Y-108799850D01*
X62659759Y-108799700D01*
X62705472Y-108785833D01*
X62705857Y-108785757D01*
X62753390Y-108781076D01*
X62753782Y-108781076D01*
X62801315Y-108785757D01*
G37*
G36*
X52919969Y-107495518D02*
G01*
X52920354Y-107495594D01*
X52966067Y-107509461D01*
X52966429Y-107509611D01*
X53008548Y-107532124D01*
X53008874Y-107532342D01*
X53047732Y-107564231D01*
X53047877Y-107564363D01*
X53761224Y-108277710D01*
X53761356Y-108277855D01*
X53793245Y-108316713D01*
X53793463Y-108317039D01*
X53815976Y-108359158D01*
X53816126Y-108359520D01*
X53829993Y-108405233D01*
X53830069Y-108405618D01*
X53834750Y-108453151D01*
X53834750Y-108453543D01*
X53830069Y-108501076D01*
X53829993Y-108501461D01*
X53816126Y-108547174D01*
X53815976Y-108547536D01*
X53793463Y-108589655D01*
X53793245Y-108589981D01*
X53761356Y-108628839D01*
X53761224Y-108628984D01*
X53348397Y-109041811D01*
X53348252Y-109041943D01*
X53309394Y-109073832D01*
X53309068Y-109074050D01*
X53266949Y-109096563D01*
X53266587Y-109096713D01*
X53220874Y-109110580D01*
X53220489Y-109110656D01*
X53172956Y-109115337D01*
X53172564Y-109115337D01*
X53125031Y-109110656D01*
X53124646Y-109110580D01*
X53078933Y-109096713D01*
X53078571Y-109096563D01*
X53036452Y-109074050D01*
X53036126Y-109073832D01*
X52997268Y-109041943D01*
X52997123Y-109041811D01*
X52283776Y-108328464D01*
X52283644Y-108328319D01*
X52251755Y-108289461D01*
X52251537Y-108289135D01*
X52229024Y-108247016D01*
X52228874Y-108246654D01*
X52215007Y-108200941D01*
X52214931Y-108200556D01*
X52210250Y-108153023D01*
X52210250Y-108152827D01*
X52224463Y-108152827D01*
X52229596Y-108204941D01*
X52244799Y-108255057D01*
X52269485Y-108301243D01*
X52302773Y-108341804D01*
X52983783Y-109022814D01*
X53024344Y-109056102D01*
X53070530Y-109080788D01*
X53120646Y-109095991D01*
X53172760Y-109101124D01*
X53224874Y-109095991D01*
X53274990Y-109080788D01*
X53321176Y-109056102D01*
X53361737Y-109022814D01*
X53742227Y-108642324D01*
X53775515Y-108601763D01*
X53800201Y-108555577D01*
X53815404Y-108505461D01*
X53820537Y-108453347D01*
X53815404Y-108401233D01*
X53800201Y-108351117D01*
X53775515Y-108304931D01*
X53742227Y-108264370D01*
X53061217Y-107583360D01*
X53020656Y-107550072D01*
X52974470Y-107525386D01*
X52924354Y-107510183D01*
X52872240Y-107505050D01*
X52820126Y-107510183D01*
X52770010Y-107525386D01*
X52723824Y-107550072D01*
X52683263Y-107583360D01*
X52302773Y-107963850D01*
X52269485Y-108004411D01*
X52244799Y-108050597D01*
X52229596Y-108100713D01*
X52224463Y-108152827D01*
X52210250Y-108152827D01*
X52210250Y-108152631D01*
X52214931Y-108105098D01*
X52215007Y-108104713D01*
X52228874Y-108059000D01*
X52229024Y-108058638D01*
X52251537Y-108016519D01*
X52251755Y-108016193D01*
X52283644Y-107977335D01*
X52283776Y-107977190D01*
X52696603Y-107564363D01*
X52696748Y-107564231D01*
X52735606Y-107532342D01*
X52735932Y-107532124D01*
X52778051Y-107509611D01*
X52778413Y-107509461D01*
X52824126Y-107495594D01*
X52824511Y-107495518D01*
X52872044Y-107490837D01*
X52872436Y-107490837D01*
X52919969Y-107495518D01*
G37*
G36*
X61475489Y-107459931D02*
G01*
X61475874Y-107460007D01*
X61521587Y-107473874D01*
X61521949Y-107474024D01*
X61564068Y-107496537D01*
X61564394Y-107496755D01*
X61603252Y-107528644D01*
X61603397Y-107528776D01*
X62016224Y-107941603D01*
X62016356Y-107941748D01*
X62048245Y-107980606D01*
X62048463Y-107980932D01*
X62070976Y-108023051D01*
X62071126Y-108023413D01*
X62084993Y-108069126D01*
X62085069Y-108069511D01*
X62089750Y-108117044D01*
X62089750Y-108117436D01*
X62085069Y-108164969D01*
X62084993Y-108165354D01*
X62071126Y-108211067D01*
X62070976Y-108211429D01*
X62048463Y-108253548D01*
X62048245Y-108253874D01*
X62016356Y-108292732D01*
X62016224Y-108292877D01*
X61302877Y-109006224D01*
X61302732Y-109006356D01*
X61263874Y-109038245D01*
X61263548Y-109038463D01*
X61221429Y-109060976D01*
X61221067Y-109061126D01*
X61175354Y-109074993D01*
X61174969Y-109075069D01*
X61127436Y-109079750D01*
X61127044Y-109079750D01*
X61079511Y-109075069D01*
X61079126Y-109074993D01*
X61033413Y-109061126D01*
X61033051Y-109060976D01*
X60990932Y-109038463D01*
X60990606Y-109038245D01*
X60951748Y-109006356D01*
X60951603Y-109006224D01*
X60538776Y-108593397D01*
X60538644Y-108593252D01*
X60506755Y-108554394D01*
X60506537Y-108554068D01*
X60484024Y-108511949D01*
X60483874Y-108511587D01*
X60470007Y-108465874D01*
X60469931Y-108465489D01*
X60465250Y-108417956D01*
X60465250Y-108417760D01*
X60479463Y-108417760D01*
X60484596Y-108469874D01*
X60499799Y-108519990D01*
X60524485Y-108566176D01*
X60557773Y-108606737D01*
X60938263Y-108987227D01*
X60978824Y-109020515D01*
X61025010Y-109045201D01*
X61075126Y-109060404D01*
X61127240Y-109065537D01*
X61179354Y-109060404D01*
X61229470Y-109045201D01*
X61275656Y-109020515D01*
X61316217Y-108987227D01*
X61997227Y-108306217D01*
X62030515Y-108265656D01*
X62055201Y-108219470D01*
X62070404Y-108169354D01*
X62075537Y-108117240D01*
X62070404Y-108065126D01*
X62055201Y-108015010D01*
X62030515Y-107968824D01*
X61997227Y-107928263D01*
X61616737Y-107547773D01*
X61576176Y-107514485D01*
X61529990Y-107489799D01*
X61479874Y-107474596D01*
X61427760Y-107469463D01*
X61375646Y-107474596D01*
X61325530Y-107489799D01*
X61279344Y-107514485D01*
X61238783Y-107547773D01*
X60557773Y-108228783D01*
X60524485Y-108269344D01*
X60499799Y-108315530D01*
X60484596Y-108365646D01*
X60479463Y-108417760D01*
X60465250Y-108417760D01*
X60465250Y-108417564D01*
X60469931Y-108370031D01*
X60470007Y-108369646D01*
X60483874Y-108323933D01*
X60484024Y-108323571D01*
X60506537Y-108281452D01*
X60506755Y-108281126D01*
X60538644Y-108242268D01*
X60538776Y-108242123D01*
X61252123Y-107528776D01*
X61252268Y-107528644D01*
X61291126Y-107496755D01*
X61291452Y-107496537D01*
X61333571Y-107474024D01*
X61333933Y-107473874D01*
X61379646Y-107460007D01*
X61380031Y-107459931D01*
X61427564Y-107455250D01*
X61427956Y-107455250D01*
X61475489Y-107459931D01*
G37*
G36*
X50703721Y-107381765D02*
G01*
X50712429Y-107402788D01*
X50712495Y-107402972D01*
X50727086Y-107451071D01*
X50727162Y-107451456D01*
X50731843Y-107498989D01*
X50731843Y-107499381D01*
X50727162Y-107546915D01*
X50727086Y-107547300D01*
X50713219Y-107593012D01*
X50713069Y-107593374D01*
X50690556Y-107635494D01*
X50690338Y-107635820D01*
X50660032Y-107672747D01*
X50659755Y-107673024D01*
X50622835Y-107703323D01*
X50622509Y-107703541D01*
X50578187Y-107727232D01*
X50578009Y-107727316D01*
X50038616Y-107950740D01*
X50038432Y-107950806D01*
X49990332Y-107965397D01*
X49989947Y-107965473D01*
X49942414Y-107970154D01*
X49942022Y-107970154D01*
X49894489Y-107965473D01*
X49894104Y-107965397D01*
X49848391Y-107951530D01*
X49848029Y-107951380D01*
X49805907Y-107928865D01*
X49805581Y-107928647D01*
X49768659Y-107898346D01*
X49768382Y-107898069D01*
X49738080Y-107861147D01*
X49737862Y-107860821D01*
X49714171Y-107816497D01*
X49714087Y-107816319D01*
X49705373Y-107795282D01*
X49705634Y-107793299D01*
X49707482Y-107792534D01*
X49708985Y-107793574D01*
X49733764Y-107839934D01*
X49766986Y-107880415D01*
X49807467Y-107913637D01*
X49853653Y-107938323D01*
X49903770Y-107953526D01*
X49955883Y-107958659D01*
X50007997Y-107953526D01*
X50058209Y-107938294D01*
X50555349Y-107732371D01*
X50601624Y-107707638D01*
X50642105Y-107674416D01*
X50675327Y-107633935D01*
X50700013Y-107587749D01*
X50715216Y-107537633D01*
X50720349Y-107485519D01*
X50715216Y-107433405D01*
X50699959Y-107383111D01*
X50700413Y-107381163D01*
X50702327Y-107380582D01*
X50703721Y-107381765D01*
G37*
G36*
X63559077Y-107276546D02*
G01*
X63559404Y-107278345D01*
X63544147Y-107328639D01*
X63539014Y-107380753D01*
X63544147Y-107432866D01*
X63559350Y-107482983D01*
X63584036Y-107529169D01*
X63617258Y-107569650D01*
X63657739Y-107602872D01*
X63704014Y-107627605D01*
X64201154Y-107833528D01*
X64251366Y-107848760D01*
X64303480Y-107853893D01*
X64355594Y-107848760D01*
X64405710Y-107833557D01*
X64451896Y-107808871D01*
X64492377Y-107775649D01*
X64525599Y-107735168D01*
X64550378Y-107688808D01*
X64552077Y-107687752D01*
X64553840Y-107688695D01*
X64553990Y-107690516D01*
X64545276Y-107711553D01*
X64545192Y-107711731D01*
X64521501Y-107756055D01*
X64521283Y-107756381D01*
X64490984Y-107793300D01*
X64490707Y-107793577D01*
X64453780Y-107823883D01*
X64453454Y-107824101D01*
X64411334Y-107846614D01*
X64410972Y-107846764D01*
X64365260Y-107860631D01*
X64364875Y-107860707D01*
X64317341Y-107865388D01*
X64316949Y-107865388D01*
X64269416Y-107860707D01*
X64269031Y-107860631D01*
X64220931Y-107846040D01*
X64220747Y-107845974D01*
X63681354Y-107622550D01*
X63681176Y-107622466D01*
X63636854Y-107598775D01*
X63636528Y-107598557D01*
X63599605Y-107568255D01*
X63599328Y-107567978D01*
X63569027Y-107531056D01*
X63568809Y-107530730D01*
X63546294Y-107488608D01*
X63546144Y-107488246D01*
X63532277Y-107442533D01*
X63532201Y-107442148D01*
X63527520Y-107394615D01*
X63527520Y-107394223D01*
X63532201Y-107346690D01*
X63532277Y-107346305D01*
X63546868Y-107298206D01*
X63546934Y-107298022D01*
X63555642Y-107276999D01*
X63557229Y-107275781D01*
X63559077Y-107276546D01*
G37*
G36*
X52435995Y-106664233D02*
G01*
X52444703Y-106685256D01*
X52444769Y-106685440D01*
X52459360Y-106733539D01*
X52459436Y-106733924D01*
X52464117Y-106781457D01*
X52464117Y-106781849D01*
X52459436Y-106829383D01*
X52459360Y-106829768D01*
X52445493Y-106875480D01*
X52445343Y-106875842D01*
X52422830Y-106917962D01*
X52422612Y-106918288D01*
X52392306Y-106955215D01*
X52392029Y-106955492D01*
X52355109Y-106985791D01*
X52354783Y-106986009D01*
X52310461Y-107009700D01*
X52310283Y-107009784D01*
X51770890Y-107233208D01*
X51770706Y-107233274D01*
X51722606Y-107247865D01*
X51722221Y-107247941D01*
X51674688Y-107252622D01*
X51674296Y-107252622D01*
X51626763Y-107247941D01*
X51626378Y-107247865D01*
X51580665Y-107233998D01*
X51580303Y-107233848D01*
X51538181Y-107211333D01*
X51537855Y-107211115D01*
X51500933Y-107180814D01*
X51500656Y-107180537D01*
X51470354Y-107143615D01*
X51470136Y-107143289D01*
X51446445Y-107098965D01*
X51446361Y-107098787D01*
X51437647Y-107077750D01*
X51437908Y-107075767D01*
X51439756Y-107075002D01*
X51441259Y-107076042D01*
X51466038Y-107122402D01*
X51499260Y-107162883D01*
X51539741Y-107196105D01*
X51585927Y-107220791D01*
X51636044Y-107235994D01*
X51688157Y-107241127D01*
X51740271Y-107235994D01*
X51790483Y-107220762D01*
X52287623Y-107014839D01*
X52333898Y-106990106D01*
X52374379Y-106956884D01*
X52407601Y-106916403D01*
X52432287Y-106870217D01*
X52447490Y-106820101D01*
X52452623Y-106767987D01*
X52447490Y-106715873D01*
X52432233Y-106665579D01*
X52432687Y-106663631D01*
X52434601Y-106663050D01*
X52435995Y-106664233D01*
G37*
G36*
X61826803Y-106559014D02*
G01*
X61827130Y-106560813D01*
X61811873Y-106611107D01*
X61806740Y-106663221D01*
X61811873Y-106715334D01*
X61827076Y-106765451D01*
X61851762Y-106811637D01*
X61884984Y-106852118D01*
X61925465Y-106885340D01*
X61971740Y-106910073D01*
X62468880Y-107115996D01*
X62519092Y-107131228D01*
X62571206Y-107136361D01*
X62623320Y-107131228D01*
X62673436Y-107116025D01*
X62719622Y-107091339D01*
X62760103Y-107058117D01*
X62793325Y-107017636D01*
X62818104Y-106971276D01*
X62819803Y-106970220D01*
X62821566Y-106971163D01*
X62821716Y-106972984D01*
X62813002Y-106994021D01*
X62812918Y-106994199D01*
X62789227Y-107038523D01*
X62789009Y-107038849D01*
X62758710Y-107075768D01*
X62758433Y-107076045D01*
X62721506Y-107106351D01*
X62721180Y-107106569D01*
X62679060Y-107129082D01*
X62678698Y-107129232D01*
X62632986Y-107143099D01*
X62632601Y-107143175D01*
X62585067Y-107147856D01*
X62584675Y-107147856D01*
X62537142Y-107143175D01*
X62536757Y-107143099D01*
X62488657Y-107128508D01*
X62488473Y-107128442D01*
X61949080Y-106905018D01*
X61948902Y-106904934D01*
X61904580Y-106881243D01*
X61904254Y-106881025D01*
X61867331Y-106850723D01*
X61867054Y-106850446D01*
X61836753Y-106813524D01*
X61836535Y-106813198D01*
X61814020Y-106771076D01*
X61813870Y-106770714D01*
X61800003Y-106725001D01*
X61799927Y-106724616D01*
X61795246Y-106677083D01*
X61795246Y-106676691D01*
X61799927Y-106629158D01*
X61800003Y-106628773D01*
X61814594Y-106580674D01*
X61814660Y-106580490D01*
X61823368Y-106559467D01*
X61824955Y-106558249D01*
X61826803Y-106559014D01*
G37*
G36*
X50145963Y-106321591D02*
G01*
X50146348Y-106321667D01*
X50192061Y-106335534D01*
X50192423Y-106335684D01*
X50234545Y-106358199D01*
X50234871Y-106358417D01*
X50271793Y-106388718D01*
X50272070Y-106388995D01*
X50302372Y-106425917D01*
X50302590Y-106426243D01*
X50326281Y-106470567D01*
X50326365Y-106470745D01*
X50335078Y-106491780D01*
X50334817Y-106493763D01*
X50332969Y-106494528D01*
X50331466Y-106493488D01*
X50306688Y-106447130D01*
X50273466Y-106406649D01*
X50232985Y-106373427D01*
X50186799Y-106348741D01*
X50136682Y-106333538D01*
X50084569Y-106328405D01*
X50032455Y-106333538D01*
X49982243Y-106348770D01*
X49485103Y-106554693D01*
X49438828Y-106579426D01*
X49398347Y-106612648D01*
X49365125Y-106653129D01*
X49340439Y-106699315D01*
X49325236Y-106749431D01*
X49320103Y-106801545D01*
X49325236Y-106853659D01*
X49340493Y-106903953D01*
X49340039Y-106905901D01*
X49338125Y-106906482D01*
X49336731Y-106905299D01*
X49328023Y-106884276D01*
X49327957Y-106884092D01*
X49313366Y-106835993D01*
X49313290Y-106835608D01*
X49308609Y-106788075D01*
X49308609Y-106787683D01*
X49313290Y-106740149D01*
X49313366Y-106739764D01*
X49327233Y-106694052D01*
X49327383Y-106693690D01*
X49349896Y-106651570D01*
X49350114Y-106651244D01*
X49380420Y-106614317D01*
X49380697Y-106614040D01*
X49417617Y-106583741D01*
X49417943Y-106583523D01*
X49462265Y-106559832D01*
X49462443Y-106559748D01*
X50001836Y-106336324D01*
X50002020Y-106336258D01*
X50050120Y-106321667D01*
X50050505Y-106321591D01*
X50098038Y-106316910D01*
X50098430Y-106316910D01*
X50145963Y-106321591D01*
G37*
G36*
X64208858Y-106216825D02*
G01*
X64209243Y-106216901D01*
X64257343Y-106231492D01*
X64257527Y-106231558D01*
X64796920Y-106454982D01*
X64797098Y-106455066D01*
X64841420Y-106478757D01*
X64841746Y-106478975D01*
X64878669Y-106509277D01*
X64878946Y-106509554D01*
X64909247Y-106546476D01*
X64909465Y-106546802D01*
X64931980Y-106588924D01*
X64932130Y-106589286D01*
X64945997Y-106634999D01*
X64946073Y-106635384D01*
X64950754Y-106682917D01*
X64950754Y-106683309D01*
X64946073Y-106730842D01*
X64945997Y-106731227D01*
X64931406Y-106779326D01*
X64931340Y-106779510D01*
X64922632Y-106800533D01*
X64921045Y-106801751D01*
X64919197Y-106800986D01*
X64918870Y-106799187D01*
X64934127Y-106748893D01*
X64939260Y-106696779D01*
X64934127Y-106644666D01*
X64918924Y-106594549D01*
X64894238Y-106548363D01*
X64861016Y-106507882D01*
X64820535Y-106474660D01*
X64774260Y-106449927D01*
X64277120Y-106244004D01*
X64226908Y-106228772D01*
X64174794Y-106223639D01*
X64122680Y-106228772D01*
X64072564Y-106243975D01*
X64026378Y-106268661D01*
X63985897Y-106301883D01*
X63952675Y-106342364D01*
X63927897Y-106388722D01*
X63926198Y-106389778D01*
X63924435Y-106388835D01*
X63924285Y-106387014D01*
X63932998Y-106365979D01*
X63933082Y-106365801D01*
X63956773Y-106321477D01*
X63956991Y-106321151D01*
X63987290Y-106284232D01*
X63987567Y-106283955D01*
X64024494Y-106253649D01*
X64024820Y-106253431D01*
X64066940Y-106230918D01*
X64067302Y-106230768D01*
X64113014Y-106216901D01*
X64113399Y-106216825D01*
X64160933Y-106212144D01*
X64161325Y-106212144D01*
X64208858Y-106216825D01*
G37*
G36*
X51878237Y-105604059D02*
G01*
X51878622Y-105604135D01*
X51924335Y-105618002D01*
X51924697Y-105618152D01*
X51966819Y-105640667D01*
X51967145Y-105640885D01*
X52004067Y-105671186D01*
X52004344Y-105671463D01*
X52034646Y-105708385D01*
X52034864Y-105708711D01*
X52058555Y-105753035D01*
X52058639Y-105753213D01*
X52067352Y-105774248D01*
X52067091Y-105776231D01*
X52065243Y-105776996D01*
X52063740Y-105775956D01*
X52038962Y-105729598D01*
X52005740Y-105689117D01*
X51965259Y-105655895D01*
X51919073Y-105631209D01*
X51868956Y-105616006D01*
X51816843Y-105610873D01*
X51764729Y-105616006D01*
X51714517Y-105631238D01*
X51217377Y-105837161D01*
X51171102Y-105861894D01*
X51130621Y-105895116D01*
X51097399Y-105935597D01*
X51072713Y-105981783D01*
X51057510Y-106031899D01*
X51052377Y-106084013D01*
X51057510Y-106136127D01*
X51072767Y-106186421D01*
X51072313Y-106188369D01*
X51070399Y-106188950D01*
X51069005Y-106187767D01*
X51060297Y-106166744D01*
X51060231Y-106166560D01*
X51045640Y-106118461D01*
X51045564Y-106118076D01*
X51040883Y-106070543D01*
X51040883Y-106070151D01*
X51045564Y-106022617D01*
X51045640Y-106022232D01*
X51059507Y-105976520D01*
X51059657Y-105976158D01*
X51082170Y-105934038D01*
X51082388Y-105933712D01*
X51112694Y-105896785D01*
X51112971Y-105896508D01*
X51149891Y-105866209D01*
X51150217Y-105865991D01*
X51194539Y-105842300D01*
X51194717Y-105842216D01*
X51734110Y-105618792D01*
X51734294Y-105618726D01*
X51782394Y-105604135D01*
X51782779Y-105604059D01*
X51830312Y-105599378D01*
X51830704Y-105599378D01*
X51878237Y-105604059D01*
G37*
G36*
X62476584Y-105499293D02*
G01*
X62476969Y-105499369D01*
X62525069Y-105513960D01*
X62525253Y-105514026D01*
X63064646Y-105737450D01*
X63064824Y-105737534D01*
X63109146Y-105761225D01*
X63109472Y-105761443D01*
X63146395Y-105791745D01*
X63146672Y-105792022D01*
X63176973Y-105828944D01*
X63177191Y-105829270D01*
X63199706Y-105871392D01*
X63199856Y-105871754D01*
X63213723Y-105917467D01*
X63213799Y-105917852D01*
X63218480Y-105965385D01*
X63218480Y-105965777D01*
X63213799Y-106013310D01*
X63213723Y-106013695D01*
X63199132Y-106061794D01*
X63199066Y-106061978D01*
X63190358Y-106083001D01*
X63188771Y-106084219D01*
X63186923Y-106083454D01*
X63186596Y-106081655D01*
X63201853Y-106031361D01*
X63206986Y-105979247D01*
X63201853Y-105927134D01*
X63186650Y-105877017D01*
X63161964Y-105830831D01*
X63128742Y-105790350D01*
X63088261Y-105757128D01*
X63041986Y-105732395D01*
X62544846Y-105526472D01*
X62494634Y-105511240D01*
X62442520Y-105506107D01*
X62390406Y-105511240D01*
X62340290Y-105526443D01*
X62294104Y-105551129D01*
X62253623Y-105584351D01*
X62220401Y-105624832D01*
X62195623Y-105671190D01*
X62193924Y-105672246D01*
X62192161Y-105671303D01*
X62192011Y-105669482D01*
X62200724Y-105648447D01*
X62200808Y-105648269D01*
X62224499Y-105603945D01*
X62224717Y-105603619D01*
X62255016Y-105566700D01*
X62255293Y-105566423D01*
X62292220Y-105536117D01*
X62292546Y-105535899D01*
X62334666Y-105513386D01*
X62335028Y-105513236D01*
X62380740Y-105499369D01*
X62381125Y-105499293D01*
X62428659Y-105494612D01*
X62429051Y-105494612D01*
X62476584Y-105499293D01*
G37*
G36*
X51072440Y-102091780D02*
G01*
X51072767Y-102093579D01*
X51057510Y-102143873D01*
X51052377Y-102195987D01*
X51057510Y-102248100D01*
X51072713Y-102298217D01*
X51097399Y-102344403D01*
X51130621Y-102384884D01*
X51171102Y-102418106D01*
X51217377Y-102442839D01*
X51714517Y-102648762D01*
X51764729Y-102663994D01*
X51816843Y-102669127D01*
X51868957Y-102663994D01*
X51919073Y-102648791D01*
X51965259Y-102624105D01*
X52005740Y-102590883D01*
X52038962Y-102550402D01*
X52063741Y-102504042D01*
X52065440Y-102502986D01*
X52067203Y-102503929D01*
X52067353Y-102505750D01*
X52058639Y-102526787D01*
X52058555Y-102526965D01*
X52034864Y-102571289D01*
X52034646Y-102571615D01*
X52004347Y-102608534D01*
X52004070Y-102608811D01*
X51967143Y-102639117D01*
X51966817Y-102639335D01*
X51924697Y-102661848D01*
X51924335Y-102661998D01*
X51878623Y-102675865D01*
X51878238Y-102675941D01*
X51830704Y-102680622D01*
X51830312Y-102680622D01*
X51782779Y-102675941D01*
X51782394Y-102675865D01*
X51734294Y-102661274D01*
X51734110Y-102661208D01*
X51194717Y-102437784D01*
X51194539Y-102437700D01*
X51150217Y-102414009D01*
X51149891Y-102413791D01*
X51112968Y-102383489D01*
X51112691Y-102383212D01*
X51082390Y-102346290D01*
X51082172Y-102345964D01*
X51059657Y-102303842D01*
X51059507Y-102303480D01*
X51045640Y-102257767D01*
X51045564Y-102257382D01*
X51040883Y-102209849D01*
X51040883Y-102209457D01*
X51045564Y-102161924D01*
X51045640Y-102161539D01*
X51060231Y-102113440D01*
X51060297Y-102113256D01*
X51069005Y-102092233D01*
X51070592Y-102091015D01*
X51072440Y-102091780D01*
G37*
G36*
X63103995Y-101965233D02*
G01*
X63112703Y-101986256D01*
X63112769Y-101986440D01*
X63127360Y-102034539D01*
X63127436Y-102034924D01*
X63132117Y-102082457D01*
X63132117Y-102082849D01*
X63127436Y-102130383D01*
X63127360Y-102130768D01*
X63113493Y-102176480D01*
X63113343Y-102176842D01*
X63090830Y-102218962D01*
X63090612Y-102219288D01*
X63060306Y-102256215D01*
X63060029Y-102256492D01*
X63023109Y-102286791D01*
X63022783Y-102287009D01*
X62978461Y-102310700D01*
X62978283Y-102310784D01*
X62438890Y-102534208D01*
X62438706Y-102534274D01*
X62390606Y-102548865D01*
X62390221Y-102548941D01*
X62342688Y-102553622D01*
X62342296Y-102553622D01*
X62294763Y-102548941D01*
X62294378Y-102548865D01*
X62248665Y-102534998D01*
X62248303Y-102534848D01*
X62206181Y-102512333D01*
X62205855Y-102512115D01*
X62168933Y-102481814D01*
X62168656Y-102481537D01*
X62138354Y-102444615D01*
X62138136Y-102444289D01*
X62114445Y-102399965D01*
X62114361Y-102399787D01*
X62105647Y-102378750D01*
X62105908Y-102376767D01*
X62107756Y-102376002D01*
X62109259Y-102377042D01*
X62134038Y-102423402D01*
X62167260Y-102463883D01*
X62207741Y-102497105D01*
X62253927Y-102521791D01*
X62304044Y-102536994D01*
X62356157Y-102542127D01*
X62408271Y-102536994D01*
X62458483Y-102521762D01*
X62955623Y-102315839D01*
X63001898Y-102291106D01*
X63042379Y-102257884D01*
X63075601Y-102217403D01*
X63100287Y-102171217D01*
X63115490Y-102121101D01*
X63120623Y-102068987D01*
X63115490Y-102016873D01*
X63100233Y-101966579D01*
X63100687Y-101964631D01*
X63102601Y-101964050D01*
X63103995Y-101965233D01*
G37*
G36*
X49340166Y-101374248D02*
G01*
X49340493Y-101376047D01*
X49325236Y-101426341D01*
X49320103Y-101478455D01*
X49325236Y-101530568D01*
X49340439Y-101580685D01*
X49365125Y-101626871D01*
X49398347Y-101667352D01*
X49438828Y-101700574D01*
X49485103Y-101725307D01*
X49982243Y-101931230D01*
X50032455Y-101946462D01*
X50084569Y-101951595D01*
X50136683Y-101946462D01*
X50186799Y-101931259D01*
X50232985Y-101906573D01*
X50273466Y-101873351D01*
X50306688Y-101832870D01*
X50331467Y-101786510D01*
X50333166Y-101785454D01*
X50334929Y-101786397D01*
X50335079Y-101788218D01*
X50326365Y-101809255D01*
X50326281Y-101809433D01*
X50302590Y-101853757D01*
X50302372Y-101854083D01*
X50272073Y-101891002D01*
X50271796Y-101891279D01*
X50234869Y-101921585D01*
X50234543Y-101921803D01*
X50192423Y-101944316D01*
X50192061Y-101944466D01*
X50146349Y-101958333D01*
X50145964Y-101958409D01*
X50098430Y-101963090D01*
X50098038Y-101963090D01*
X50050505Y-101958409D01*
X50050120Y-101958333D01*
X50002020Y-101943742D01*
X50001836Y-101943676D01*
X49462443Y-101720252D01*
X49462265Y-101720168D01*
X49417943Y-101696477D01*
X49417617Y-101696259D01*
X49380694Y-101665957D01*
X49380417Y-101665680D01*
X49350116Y-101628758D01*
X49349898Y-101628432D01*
X49327383Y-101586310D01*
X49327233Y-101585948D01*
X49313366Y-101540235D01*
X49313290Y-101539850D01*
X49308609Y-101492317D01*
X49308609Y-101491925D01*
X49313290Y-101444392D01*
X49313366Y-101444007D01*
X49327957Y-101395908D01*
X49328023Y-101395724D01*
X49336731Y-101374701D01*
X49338318Y-101373483D01*
X49340166Y-101374248D01*
G37*
G36*
X64836269Y-101247701D02*
G01*
X64844977Y-101268724D01*
X64845043Y-101268908D01*
X64859634Y-101317007D01*
X64859710Y-101317392D01*
X64864391Y-101364925D01*
X64864391Y-101365317D01*
X64859710Y-101412851D01*
X64859634Y-101413236D01*
X64845767Y-101458948D01*
X64845617Y-101459310D01*
X64823104Y-101501430D01*
X64822886Y-101501756D01*
X64792580Y-101538683D01*
X64792303Y-101538960D01*
X64755383Y-101569259D01*
X64755057Y-101569477D01*
X64710735Y-101593168D01*
X64710557Y-101593252D01*
X64171164Y-101816676D01*
X64170980Y-101816742D01*
X64122880Y-101831333D01*
X64122495Y-101831409D01*
X64074962Y-101836090D01*
X64074570Y-101836090D01*
X64027037Y-101831409D01*
X64026652Y-101831333D01*
X63980939Y-101817466D01*
X63980577Y-101817316D01*
X63938455Y-101794801D01*
X63938129Y-101794583D01*
X63901207Y-101764282D01*
X63900930Y-101764005D01*
X63870628Y-101727083D01*
X63870410Y-101726757D01*
X63846719Y-101682433D01*
X63846635Y-101682255D01*
X63837921Y-101661218D01*
X63838182Y-101659235D01*
X63840030Y-101658470D01*
X63841533Y-101659510D01*
X63866312Y-101705870D01*
X63899534Y-101746351D01*
X63940015Y-101779573D01*
X63986201Y-101804259D01*
X64036318Y-101819462D01*
X64088431Y-101824595D01*
X64140545Y-101819462D01*
X64190757Y-101804230D01*
X64687897Y-101598307D01*
X64734172Y-101573574D01*
X64774653Y-101540352D01*
X64807875Y-101499871D01*
X64832561Y-101453685D01*
X64847764Y-101403569D01*
X64852897Y-101351455D01*
X64847764Y-101299341D01*
X64832507Y-101249047D01*
X64832961Y-101247099D01*
X64834875Y-101246518D01*
X64836269Y-101247701D01*
G37*
G36*
X51722221Y-101032059D02*
G01*
X51722606Y-101032135D01*
X51770706Y-101046726D01*
X51770890Y-101046792D01*
X52310283Y-101270216D01*
X52310461Y-101270300D01*
X52354783Y-101293991D01*
X52355109Y-101294209D01*
X52392032Y-101324511D01*
X52392309Y-101324788D01*
X52422610Y-101361710D01*
X52422828Y-101362036D01*
X52445343Y-101404158D01*
X52445493Y-101404520D01*
X52459360Y-101450233D01*
X52459436Y-101450618D01*
X52464117Y-101498151D01*
X52464117Y-101498543D01*
X52459436Y-101546076D01*
X52459360Y-101546461D01*
X52444769Y-101594560D01*
X52444703Y-101594744D01*
X52435995Y-101615767D01*
X52434408Y-101616985D01*
X52432560Y-101616220D01*
X52432233Y-101614421D01*
X52447490Y-101564127D01*
X52452623Y-101512013D01*
X52447490Y-101459900D01*
X52432287Y-101409783D01*
X52407601Y-101363597D01*
X52374379Y-101323116D01*
X52333898Y-101289894D01*
X52287623Y-101265161D01*
X51790483Y-101059238D01*
X51740271Y-101044006D01*
X51688157Y-101038873D01*
X51636043Y-101044006D01*
X51585927Y-101059209D01*
X51539741Y-101083895D01*
X51499260Y-101117117D01*
X51466038Y-101157598D01*
X51441260Y-101203956D01*
X51439561Y-101205012D01*
X51437798Y-101204069D01*
X51437648Y-101202248D01*
X51446361Y-101181213D01*
X51446445Y-101181035D01*
X51470136Y-101136711D01*
X51470354Y-101136385D01*
X51500653Y-101099466D01*
X51500930Y-101099189D01*
X51537857Y-101068883D01*
X51538183Y-101068665D01*
X51580303Y-101046152D01*
X51580665Y-101046002D01*
X51626377Y-101032135D01*
X51626762Y-101032059D01*
X51674296Y-101027378D01*
X51674688Y-101027378D01*
X51722221Y-101032059D01*
G37*
G36*
X62546237Y-100905059D02*
G01*
X62546622Y-100905135D01*
X62592335Y-100919002D01*
X62592697Y-100919152D01*
X62634819Y-100941667D01*
X62635145Y-100941885D01*
X62672067Y-100972186D01*
X62672344Y-100972463D01*
X62702646Y-101009385D01*
X62702864Y-101009711D01*
X62726555Y-101054035D01*
X62726639Y-101054213D01*
X62735352Y-101075248D01*
X62735091Y-101077231D01*
X62733243Y-101077996D01*
X62731740Y-101076956D01*
X62706962Y-101030598D01*
X62673740Y-100990117D01*
X62633259Y-100956895D01*
X62587073Y-100932209D01*
X62536956Y-100917006D01*
X62484843Y-100911873D01*
X62432729Y-100917006D01*
X62382517Y-100932238D01*
X61885377Y-101138161D01*
X61839102Y-101162894D01*
X61798621Y-101196116D01*
X61765399Y-101236597D01*
X61740713Y-101282783D01*
X61725510Y-101332899D01*
X61720377Y-101385013D01*
X61725510Y-101437127D01*
X61740767Y-101487421D01*
X61740313Y-101489369D01*
X61738399Y-101489950D01*
X61737005Y-101488767D01*
X61728297Y-101467744D01*
X61728231Y-101467560D01*
X61713640Y-101419461D01*
X61713564Y-101419076D01*
X61708883Y-101371543D01*
X61708883Y-101371151D01*
X61713564Y-101323617D01*
X61713640Y-101323232D01*
X61727507Y-101277520D01*
X61727657Y-101277158D01*
X61750170Y-101235038D01*
X61750388Y-101234712D01*
X61780694Y-101197785D01*
X61780971Y-101197508D01*
X61817891Y-101167209D01*
X61818217Y-101166991D01*
X61862539Y-101143300D01*
X61862717Y-101143216D01*
X62402110Y-100919792D01*
X62402294Y-100919726D01*
X62450394Y-100905135D01*
X62450779Y-100905059D01*
X62498312Y-100900378D01*
X62498704Y-100900378D01*
X62546237Y-100905059D01*
G37*
G36*
X49989947Y-100314527D02*
G01*
X49990332Y-100314603D01*
X50038432Y-100329194D01*
X50038616Y-100329260D01*
X50578009Y-100552684D01*
X50578187Y-100552768D01*
X50622509Y-100576459D01*
X50622835Y-100576677D01*
X50659758Y-100606979D01*
X50660035Y-100607256D01*
X50690336Y-100644178D01*
X50690554Y-100644504D01*
X50713069Y-100686626D01*
X50713219Y-100686988D01*
X50727086Y-100732701D01*
X50727162Y-100733086D01*
X50731843Y-100780619D01*
X50731843Y-100781011D01*
X50727162Y-100828544D01*
X50727086Y-100828929D01*
X50712495Y-100877028D01*
X50712429Y-100877212D01*
X50703721Y-100898235D01*
X50702134Y-100899453D01*
X50700286Y-100898688D01*
X50699959Y-100896889D01*
X50715216Y-100846595D01*
X50720349Y-100794481D01*
X50715216Y-100742368D01*
X50700013Y-100692251D01*
X50675327Y-100646065D01*
X50642105Y-100605584D01*
X50601624Y-100572362D01*
X50555349Y-100547629D01*
X50058209Y-100341706D01*
X50007997Y-100326474D01*
X49955883Y-100321341D01*
X49903769Y-100326474D01*
X49853653Y-100341677D01*
X49807467Y-100366363D01*
X49766986Y-100399585D01*
X49733764Y-100440066D01*
X49708986Y-100486424D01*
X49707287Y-100487480D01*
X49705524Y-100486537D01*
X49705374Y-100484716D01*
X49714087Y-100463681D01*
X49714171Y-100463503D01*
X49737862Y-100419179D01*
X49738080Y-100418853D01*
X49768379Y-100381934D01*
X49768656Y-100381657D01*
X49805583Y-100351351D01*
X49805909Y-100351133D01*
X49848029Y-100328620D01*
X49848391Y-100328470D01*
X49894103Y-100314603D01*
X49894488Y-100314527D01*
X49942022Y-100309846D01*
X49942414Y-100309846D01*
X49989947Y-100314527D01*
G37*
G36*
X64278511Y-100187527D02*
G01*
X64278896Y-100187603D01*
X64324609Y-100201470D01*
X64324971Y-100201620D01*
X64367093Y-100224135D01*
X64367419Y-100224353D01*
X64404341Y-100254654D01*
X64404618Y-100254931D01*
X64434920Y-100291853D01*
X64435138Y-100292179D01*
X64458829Y-100336503D01*
X64458913Y-100336681D01*
X64467626Y-100357716D01*
X64467365Y-100359699D01*
X64465517Y-100360464D01*
X64464014Y-100359424D01*
X64439236Y-100313066D01*
X64406014Y-100272585D01*
X64365533Y-100239363D01*
X64319347Y-100214677D01*
X64269230Y-100199474D01*
X64217117Y-100194341D01*
X64165003Y-100199474D01*
X64114791Y-100214706D01*
X63617651Y-100420629D01*
X63571376Y-100445362D01*
X63530895Y-100478584D01*
X63497673Y-100519065D01*
X63472987Y-100565251D01*
X63457784Y-100615367D01*
X63452651Y-100667481D01*
X63457784Y-100719595D01*
X63473041Y-100769889D01*
X63472587Y-100771837D01*
X63470673Y-100772418D01*
X63469279Y-100771235D01*
X63460571Y-100750212D01*
X63460505Y-100750028D01*
X63445914Y-100701929D01*
X63445838Y-100701544D01*
X63441157Y-100654011D01*
X63441157Y-100653619D01*
X63445838Y-100606085D01*
X63445914Y-100605700D01*
X63459781Y-100559988D01*
X63459931Y-100559626D01*
X63482444Y-100517506D01*
X63482662Y-100517180D01*
X63512968Y-100480253D01*
X63513245Y-100479976D01*
X63550165Y-100449677D01*
X63550491Y-100449459D01*
X63594813Y-100425768D01*
X63594991Y-100425684D01*
X64134384Y-100202260D01*
X64134568Y-100202194D01*
X64182668Y-100187603D01*
X64183053Y-100187527D01*
X64230586Y-100182846D01*
X64230978Y-100182846D01*
X64278511Y-100187527D01*
G37*
G36*
X53220489Y-99141431D02*
G01*
X53220874Y-99141507D01*
X53266587Y-99155374D01*
X53266949Y-99155524D01*
X53309068Y-99178037D01*
X53309394Y-99178255D01*
X53348252Y-99210144D01*
X53348397Y-99210276D01*
X53761224Y-99623103D01*
X53761356Y-99623248D01*
X53793245Y-99662106D01*
X53793463Y-99662432D01*
X53815976Y-99704551D01*
X53816126Y-99704913D01*
X53829993Y-99750626D01*
X53830069Y-99751011D01*
X53834750Y-99798544D01*
X53834750Y-99798936D01*
X53830069Y-99846469D01*
X53829993Y-99846854D01*
X53816126Y-99892567D01*
X53815976Y-99892929D01*
X53793463Y-99935048D01*
X53793245Y-99935374D01*
X53761356Y-99974232D01*
X53761224Y-99974377D01*
X53047877Y-100687724D01*
X53047732Y-100687856D01*
X53008874Y-100719745D01*
X53008548Y-100719963D01*
X52966429Y-100742476D01*
X52966067Y-100742626D01*
X52920354Y-100756493D01*
X52919969Y-100756569D01*
X52872436Y-100761250D01*
X52872044Y-100761250D01*
X52824511Y-100756569D01*
X52824126Y-100756493D01*
X52778413Y-100742626D01*
X52778051Y-100742476D01*
X52735932Y-100719963D01*
X52735606Y-100719745D01*
X52696748Y-100687856D01*
X52696603Y-100687724D01*
X52283776Y-100274897D01*
X52283644Y-100274752D01*
X52251755Y-100235894D01*
X52251537Y-100235568D01*
X52229024Y-100193449D01*
X52228874Y-100193087D01*
X52215007Y-100147374D01*
X52214931Y-100146989D01*
X52210250Y-100099456D01*
X52210250Y-100099260D01*
X52224463Y-100099260D01*
X52229596Y-100151374D01*
X52244799Y-100201490D01*
X52269485Y-100247676D01*
X52302773Y-100288237D01*
X52683263Y-100668727D01*
X52723824Y-100702015D01*
X52770010Y-100726701D01*
X52820126Y-100741904D01*
X52872240Y-100747037D01*
X52924354Y-100741904D01*
X52974470Y-100726701D01*
X53020656Y-100702015D01*
X53061217Y-100668727D01*
X53742227Y-99987717D01*
X53775515Y-99947156D01*
X53800201Y-99900970D01*
X53815404Y-99850854D01*
X53820537Y-99798740D01*
X53815404Y-99746626D01*
X53800201Y-99696510D01*
X53775515Y-99650324D01*
X53742227Y-99609763D01*
X53361737Y-99229273D01*
X53321176Y-99195985D01*
X53274990Y-99171299D01*
X53224874Y-99156096D01*
X53172760Y-99150963D01*
X53120646Y-99156096D01*
X53070530Y-99171299D01*
X53024344Y-99195985D01*
X52983783Y-99229273D01*
X52302773Y-99910283D01*
X52269485Y-99950844D01*
X52244799Y-99997030D01*
X52229596Y-100047146D01*
X52224463Y-100099260D01*
X52210250Y-100099260D01*
X52210250Y-100099064D01*
X52214931Y-100051531D01*
X52215007Y-100051146D01*
X52228874Y-100005433D01*
X52229024Y-100005071D01*
X52251537Y-99962952D01*
X52251755Y-99962626D01*
X52283644Y-99923768D01*
X52283776Y-99923623D01*
X52997123Y-99210276D01*
X52997268Y-99210144D01*
X53036126Y-99178255D01*
X53036452Y-99178037D01*
X53078571Y-99155524D01*
X53078933Y-99155374D01*
X53124646Y-99141507D01*
X53125031Y-99141431D01*
X53172564Y-99136750D01*
X53172956Y-99136750D01*
X53220489Y-99141431D01*
G37*
G36*
X60992143Y-99070257D02*
G01*
X60992528Y-99070333D01*
X61038241Y-99084200D01*
X61038603Y-99084350D01*
X61080722Y-99106863D01*
X61081048Y-99107081D01*
X61119906Y-99138970D01*
X61120051Y-99139102D01*
X61833398Y-99852449D01*
X61833530Y-99852594D01*
X61865419Y-99891452D01*
X61865637Y-99891778D01*
X61888150Y-99933897D01*
X61888300Y-99934259D01*
X61902167Y-99979972D01*
X61902243Y-99980357D01*
X61906924Y-100027890D01*
X61906924Y-100028282D01*
X61902243Y-100075815D01*
X61902167Y-100076200D01*
X61888300Y-100121913D01*
X61888150Y-100122275D01*
X61865637Y-100164394D01*
X61865419Y-100164720D01*
X61833530Y-100203578D01*
X61833398Y-100203723D01*
X61420571Y-100616550D01*
X61420426Y-100616682D01*
X61381568Y-100648571D01*
X61381242Y-100648789D01*
X61339123Y-100671302D01*
X61338761Y-100671452D01*
X61293048Y-100685319D01*
X61292663Y-100685395D01*
X61245130Y-100690076D01*
X61244738Y-100690076D01*
X61197205Y-100685395D01*
X61196820Y-100685319D01*
X61151107Y-100671452D01*
X61150745Y-100671302D01*
X61108626Y-100648789D01*
X61108300Y-100648571D01*
X61069442Y-100616682D01*
X61069297Y-100616550D01*
X60355950Y-99903203D01*
X60355818Y-99903058D01*
X60323929Y-99864200D01*
X60323711Y-99863874D01*
X60301198Y-99821755D01*
X60301048Y-99821393D01*
X60287181Y-99775680D01*
X60287105Y-99775295D01*
X60282424Y-99727762D01*
X60282424Y-99727566D01*
X60296637Y-99727566D01*
X60301770Y-99779680D01*
X60316973Y-99829796D01*
X60341659Y-99875982D01*
X60374947Y-99916543D01*
X61055957Y-100597553D01*
X61096518Y-100630841D01*
X61142704Y-100655527D01*
X61192820Y-100670730D01*
X61244934Y-100675863D01*
X61297048Y-100670730D01*
X61347164Y-100655527D01*
X61393350Y-100630841D01*
X61433911Y-100597553D01*
X61814401Y-100217063D01*
X61847689Y-100176502D01*
X61872375Y-100130316D01*
X61887578Y-100080200D01*
X61892711Y-100028086D01*
X61887578Y-99975972D01*
X61872375Y-99925856D01*
X61847689Y-99879670D01*
X61814401Y-99839109D01*
X61133391Y-99158099D01*
X61092830Y-99124811D01*
X61046644Y-99100125D01*
X60996528Y-99084922D01*
X60944414Y-99079789D01*
X60892300Y-99084922D01*
X60842184Y-99100125D01*
X60795998Y-99124811D01*
X60755437Y-99158099D01*
X60374947Y-99538589D01*
X60341659Y-99579150D01*
X60316973Y-99625336D01*
X60301770Y-99675452D01*
X60296637Y-99727566D01*
X60282424Y-99727566D01*
X60282424Y-99727370D01*
X60287105Y-99679837D01*
X60287181Y-99679452D01*
X60301048Y-99633739D01*
X60301198Y-99633377D01*
X60323711Y-99591258D01*
X60323929Y-99590932D01*
X60355818Y-99552074D01*
X60355950Y-99551929D01*
X60768777Y-99139102D01*
X60768922Y-99138970D01*
X60807780Y-99107081D01*
X60808106Y-99106863D01*
X60850225Y-99084350D01*
X60850587Y-99084200D01*
X60896300Y-99070333D01*
X60896685Y-99070257D01*
X60944218Y-99065576D01*
X60944610Y-99065576D01*
X60992143Y-99070257D01*
G37*
G36*
X51894663Y-97815605D02*
G01*
X51895048Y-97815681D01*
X51940761Y-97829548D01*
X51941123Y-97829698D01*
X51983242Y-97852211D01*
X51983568Y-97852429D01*
X52022426Y-97884318D01*
X52022571Y-97884450D01*
X52435398Y-98297277D01*
X52435530Y-98297422D01*
X52467419Y-98336280D01*
X52467637Y-98336606D01*
X52490150Y-98378725D01*
X52490300Y-98379087D01*
X52504167Y-98424800D01*
X52504243Y-98425185D01*
X52508924Y-98472718D01*
X52508924Y-98473110D01*
X52504243Y-98520643D01*
X52504167Y-98521028D01*
X52490300Y-98566741D01*
X52490150Y-98567103D01*
X52467637Y-98609222D01*
X52467419Y-98609548D01*
X52435530Y-98648406D01*
X52435398Y-98648551D01*
X51722051Y-99361898D01*
X51721906Y-99362030D01*
X51683048Y-99393919D01*
X51682722Y-99394137D01*
X51640603Y-99416650D01*
X51640241Y-99416800D01*
X51594528Y-99430667D01*
X51594143Y-99430743D01*
X51546610Y-99435424D01*
X51546218Y-99435424D01*
X51498685Y-99430743D01*
X51498300Y-99430667D01*
X51452587Y-99416800D01*
X51452225Y-99416650D01*
X51410106Y-99394137D01*
X51409780Y-99393919D01*
X51370922Y-99362030D01*
X51370777Y-99361898D01*
X50957950Y-98949071D01*
X50957818Y-98948926D01*
X50925929Y-98910068D01*
X50925711Y-98909742D01*
X50903198Y-98867623D01*
X50903048Y-98867261D01*
X50889181Y-98821548D01*
X50889105Y-98821163D01*
X50884424Y-98773630D01*
X50884424Y-98773434D01*
X50898637Y-98773434D01*
X50903770Y-98825548D01*
X50918973Y-98875664D01*
X50943659Y-98921850D01*
X50976947Y-98962411D01*
X51357437Y-99342901D01*
X51397998Y-99376189D01*
X51444184Y-99400875D01*
X51494300Y-99416078D01*
X51546414Y-99421211D01*
X51598528Y-99416078D01*
X51648644Y-99400875D01*
X51694830Y-99376189D01*
X51735391Y-99342901D01*
X52416401Y-98661891D01*
X52449689Y-98621330D01*
X52474375Y-98575144D01*
X52489578Y-98525028D01*
X52494711Y-98472914D01*
X52489578Y-98420800D01*
X52474375Y-98370684D01*
X52449689Y-98324498D01*
X52416401Y-98283937D01*
X52035911Y-97903447D01*
X51995350Y-97870159D01*
X51949164Y-97845473D01*
X51899048Y-97830270D01*
X51846934Y-97825137D01*
X51794820Y-97830270D01*
X51744704Y-97845473D01*
X51698518Y-97870159D01*
X51657957Y-97903447D01*
X50976947Y-98584457D01*
X50943659Y-98625018D01*
X50918973Y-98671204D01*
X50903770Y-98721320D01*
X50898637Y-98773434D01*
X50884424Y-98773434D01*
X50884424Y-98773238D01*
X50889105Y-98725705D01*
X50889181Y-98725320D01*
X50903048Y-98679607D01*
X50903198Y-98679245D01*
X50925711Y-98637126D01*
X50925929Y-98636800D01*
X50957818Y-98597942D01*
X50957950Y-98597797D01*
X51671297Y-97884450D01*
X51671442Y-97884318D01*
X51710300Y-97852429D01*
X51710626Y-97852211D01*
X51752745Y-97829698D01*
X51753107Y-97829548D01*
X51798820Y-97815681D01*
X51799205Y-97815605D01*
X51846738Y-97810924D01*
X51847130Y-97810924D01*
X51894663Y-97815605D01*
G37*
G36*
X62317969Y-97744431D02*
G01*
X62318354Y-97744507D01*
X62364067Y-97758374D01*
X62364429Y-97758524D01*
X62406548Y-97781037D01*
X62406874Y-97781255D01*
X62445732Y-97813144D01*
X62445877Y-97813276D01*
X63159224Y-98526623D01*
X63159356Y-98526768D01*
X63191245Y-98565626D01*
X63191463Y-98565952D01*
X63213976Y-98608071D01*
X63214126Y-98608433D01*
X63227993Y-98654146D01*
X63228069Y-98654531D01*
X63232750Y-98702064D01*
X63232750Y-98702456D01*
X63228069Y-98749989D01*
X63227993Y-98750374D01*
X63214126Y-98796087D01*
X63213976Y-98796449D01*
X63191463Y-98838568D01*
X63191245Y-98838894D01*
X63159356Y-98877752D01*
X63159224Y-98877897D01*
X62746397Y-99290724D01*
X62746252Y-99290856D01*
X62707394Y-99322745D01*
X62707068Y-99322963D01*
X62664949Y-99345476D01*
X62664587Y-99345626D01*
X62618874Y-99359493D01*
X62618489Y-99359569D01*
X62570956Y-99364250D01*
X62570564Y-99364250D01*
X62523031Y-99359569D01*
X62522646Y-99359493D01*
X62476933Y-99345626D01*
X62476571Y-99345476D01*
X62434452Y-99322963D01*
X62434126Y-99322745D01*
X62395268Y-99290856D01*
X62395123Y-99290724D01*
X61681776Y-98577377D01*
X61681644Y-98577232D01*
X61649755Y-98538374D01*
X61649537Y-98538048D01*
X61627024Y-98495929D01*
X61626874Y-98495567D01*
X61613007Y-98449854D01*
X61612931Y-98449469D01*
X61608250Y-98401936D01*
X61608250Y-98401740D01*
X61622463Y-98401740D01*
X61627596Y-98453854D01*
X61642799Y-98503970D01*
X61667485Y-98550156D01*
X61700773Y-98590717D01*
X62381783Y-99271727D01*
X62422344Y-99305015D01*
X62468530Y-99329701D01*
X62518646Y-99344904D01*
X62570760Y-99350037D01*
X62622874Y-99344904D01*
X62672990Y-99329701D01*
X62719176Y-99305015D01*
X62759737Y-99271727D01*
X63140227Y-98891237D01*
X63173515Y-98850676D01*
X63198201Y-98804490D01*
X63213404Y-98754374D01*
X63218537Y-98702260D01*
X63213404Y-98650146D01*
X63198201Y-98600030D01*
X63173515Y-98553844D01*
X63140227Y-98513283D01*
X62459217Y-97832273D01*
X62418656Y-97798985D01*
X62372470Y-97774299D01*
X62322354Y-97759096D01*
X62270240Y-97753963D01*
X62218126Y-97759096D01*
X62168010Y-97774299D01*
X62121824Y-97798985D01*
X62081263Y-97832273D01*
X61700773Y-98212763D01*
X61667485Y-98253324D01*
X61642799Y-98299510D01*
X61627596Y-98349626D01*
X61622463Y-98401740D01*
X61608250Y-98401740D01*
X61608250Y-98401544D01*
X61612931Y-98354011D01*
X61613007Y-98353626D01*
X61626874Y-98307913D01*
X61627024Y-98307551D01*
X61649537Y-98265432D01*
X61649755Y-98265106D01*
X61681644Y-98226248D01*
X61681776Y-98226103D01*
X62094603Y-97813276D01*
X62094748Y-97813144D01*
X62133606Y-97781255D01*
X62133932Y-97781037D01*
X62176051Y-97758524D01*
X62176413Y-97758374D01*
X62222126Y-97744507D01*
X62222511Y-97744431D01*
X62270044Y-97739750D01*
X62270436Y-97739750D01*
X62317969Y-97744431D01*
G37*
M02*
