G04 #@! TF.GenerationSoftware,KiCad,Pcbnew,(5.1.9-0-10_14)*
G04 #@! TF.CreationDate,2021-05-04T13:02:15-03:00*
G04 #@! TF.ProjectId,RingPush-PMOD,52696e67-5075-4736-982d-504d4f442e6b,rev?*
G04 #@! TF.SameCoordinates,Original*
G04 #@! TF.FileFunction,Soldermask,Bot*
G04 #@! TF.FilePolarity,Negative*
%FSLAX46Y46*%
G04 Gerber Fmt 4.6, Leading zero omitted, Abs format (unit mm)*
G04 Created by KiCad (PCBNEW (5.1.9-0-10_14)) date 2021-05-04 13:02:15*
%MOMM*%
%LPD*%
G01*
G04 APERTURE LIST*
%ADD10C,2.101600*%
%ADD11C,1.625600*%
G04 APERTURE END LIST*
G36*
G01*
X68601700Y-102501000D02*
X68601700Y-100501000D01*
G75*
G02*
X68652500Y-100450200I50800J0D01*
G01*
X70652500Y-100450200D01*
G75*
G02*
X70703300Y-100501000I0J-50800D01*
G01*
X70703300Y-102501000D01*
G75*
G02*
X70652500Y-102551800I-50800J0D01*
G01*
X68652500Y-102551800D01*
G75*
G02*
X68601700Y-102501000I0J50800D01*
G01*
G37*
D10*
X69652500Y-104001000D03*
X69652500Y-106501000D03*
G36*
G01*
X75501700Y-99401000D02*
X75501700Y-97401000D01*
G75*
G02*
X75552500Y-97350200I50800J0D01*
G01*
X78752500Y-97350200D01*
G75*
G02*
X78803300Y-97401000I0J-50800D01*
G01*
X78803300Y-99401000D01*
G75*
G02*
X78752500Y-99451800I-50800J0D01*
G01*
X75552500Y-99451800D01*
G75*
G02*
X75501700Y-99401000I0J50800D01*
G01*
G37*
G36*
G01*
X75501700Y-110601000D02*
X75501700Y-108601000D01*
G75*
G02*
X75552500Y-108550200I50800J0D01*
G01*
X78752500Y-108550200D01*
G75*
G02*
X78803300Y-108601000I0J-50800D01*
G01*
X78803300Y-110601000D01*
G75*
G02*
X78752500Y-110651800I-50800J0D01*
G01*
X75552500Y-110651800D01*
G75*
G02*
X75501700Y-110601000I0J50800D01*
G01*
G37*
X84152500Y-101501000D03*
X84152500Y-106501000D03*
D11*
X21590000Y-110490000D03*
X24130000Y-110490000D03*
X21590000Y-107950000D03*
X24130000Y-107950000D03*
X21590000Y-105410000D03*
X24130000Y-105410000D03*
X21590000Y-102870000D03*
X24130000Y-102870000D03*
X21590000Y-100330000D03*
X24130000Y-100330000D03*
X21590000Y-97790000D03*
G36*
G01*
X23317200Y-98552000D02*
X23317200Y-97028000D01*
G75*
G02*
X23368000Y-96977200I50800J0D01*
G01*
X24892000Y-96977200D01*
G75*
G02*
X24942800Y-97028000I0J-50800D01*
G01*
X24942800Y-98552000D01*
G75*
G02*
X24892000Y-98602800I-50800J0D01*
G01*
X23368000Y-98602800D01*
G75*
G02*
X23317200Y-98552000I0J50800D01*
G01*
G37*
M02*
