%FSLAX45Y45*%
G04 Gerber Fmt 4.5, Leading zero omitted, Abs format (unit mm)*
G04 Created by KiCad (PCBNEW (5.1.9-0-10_14)) date 2021-05-04 13:02:18*
%MOMM*%
%LPD*%
G01*
G04 APERTURE LIST*
%TA.AperFunction,Profile*%
%ADD10C,0.120000*%
%TD*%
%ADD11C,0.200000*%
%ADD12C,0.300000*%
G04 APERTURE END LIST*
D10*
X8693150Y-11176000D02*
G75*
G02*
X8439150Y-11430000I-254000J0D01*
G01*
X8439150Y-9398000D02*
G75*
G02*
X8693150Y-9652000I0J-254000D01*
G01*
X1778000Y-11430000D02*
X1778000Y-9398000D01*
X8439150Y-11430000D02*
X1778000Y-11430000D01*
X8693150Y-9652000D02*
X8693150Y-11176000D01*
X1778000Y-9398000D02*
X8439150Y-9398000D01*
D11*
D12*
X2058428Y-11901714D02*
X2058428Y-11601714D01*
X2129857Y-11601714D01*
X2172714Y-11616000D01*
X2201286Y-11644571D01*
X2215571Y-11673143D01*
X2229857Y-11730286D01*
X2229857Y-11773143D01*
X2215571Y-11830286D01*
X2201286Y-11858857D01*
X2172714Y-11887429D01*
X2129857Y-11901714D01*
X2058428Y-11901714D01*
X2358428Y-11901714D02*
X2358428Y-11701714D01*
X2358428Y-11758857D02*
X2372714Y-11730286D01*
X2387000Y-11716000D01*
X2415571Y-11701714D01*
X2444143Y-11701714D01*
X2544143Y-11901714D02*
X2544143Y-11701714D01*
X2544143Y-11601714D02*
X2529857Y-11616000D01*
X2544143Y-11630286D01*
X2558428Y-11616000D01*
X2544143Y-11601714D01*
X2544143Y-11630286D01*
X2729857Y-11901714D02*
X2701286Y-11887429D01*
X2687000Y-11858857D01*
X2687000Y-11601714D01*
X2887000Y-11901714D02*
X2858428Y-11887429D01*
X2844143Y-11858857D01*
X2844143Y-11601714D01*
X3229857Y-11901714D02*
X3229857Y-11601714D01*
X3329857Y-11816000D01*
X3429857Y-11601714D01*
X3429857Y-11901714D01*
X3701286Y-11901714D02*
X3701286Y-11744571D01*
X3687000Y-11716000D01*
X3658428Y-11701714D01*
X3601286Y-11701714D01*
X3572714Y-11716000D01*
X3701286Y-11887429D02*
X3672714Y-11901714D01*
X3601286Y-11901714D01*
X3572714Y-11887429D01*
X3558428Y-11858857D01*
X3558428Y-11830286D01*
X3572714Y-11801714D01*
X3601286Y-11787429D01*
X3672714Y-11787429D01*
X3701286Y-11773143D01*
X3844143Y-11701714D02*
X3844143Y-12001714D01*
X3844143Y-11716000D02*
X3872714Y-11701714D01*
X3929857Y-11701714D01*
X3958428Y-11716000D01*
X3972714Y-11730286D01*
X3987000Y-11758857D01*
X3987000Y-11844571D01*
X3972714Y-11873143D01*
X3958428Y-11887429D01*
X3929857Y-11901714D01*
X3872714Y-11901714D01*
X3844143Y-11887429D01*
X4115571Y-11873143D02*
X4129857Y-11887429D01*
X4115571Y-11901714D01*
X4101286Y-11887429D01*
X4115571Y-11873143D01*
X4115571Y-11901714D01*
X4115571Y-11716000D02*
X4129857Y-11730286D01*
X4115571Y-11744571D01*
X4101286Y-11730286D01*
X4115571Y-11716000D01*
X4115571Y-11744571D01*
M02*
