G04 #@! TF.GenerationSoftware,KiCad,Pcbnew,(5.1.9-0-10_14)*
G04 #@! TF.CreationDate,2021-05-04T13:02:15-03:00*
G04 #@! TF.ProjectId,RingPush-PMOD,52696e67-5075-4736-982d-504d4f442e6b,rev?*
G04 #@! TF.SameCoordinates,Original*
G04 #@! TF.FileFunction,Copper,L1,Top*
G04 #@! TF.FilePolarity,Positive*
%FSLAX46Y46*%
G04 Gerber Fmt 4.6, Leading zero omitted, Abs format (unit mm)*
G04 Created by KiCad (PCBNEW (5.1.9-0-10_14)) date 2021-05-04 13:02:15*
%MOMM*%
%LPD*%
G01*
G04 APERTURE LIST*
G04 #@! TA.AperFunction,ComponentPad*
%ADD10R,2.000000X2.000000*%
G04 #@! TD*
G04 #@! TA.AperFunction,ComponentPad*
%ADD11C,2.000000*%
G04 #@! TD*
G04 #@! TA.AperFunction,ComponentPad*
%ADD12R,3.200000X2.000000*%
G04 #@! TD*
G04 #@! TA.AperFunction,ComponentPad*
%ADD13C,1.524000*%
G04 #@! TD*
G04 #@! TA.AperFunction,ComponentPad*
%ADD14R,1.524000X1.524000*%
G04 #@! TD*
G04 #@! TA.AperFunction,SMDPad,CuDef*
%ADD15R,0.900000X0.800000*%
G04 #@! TD*
G04 #@! TA.AperFunction,ViaPad*
%ADD16C,0.800000*%
G04 #@! TD*
G04 #@! TA.AperFunction,Conductor*
%ADD17C,0.250000*%
G04 #@! TD*
G04 #@! TA.AperFunction,Conductor*
%ADD18C,0.100000*%
G04 #@! TD*
G04 APERTURE END LIST*
D10*
X69652500Y-101501000D03*
D11*
X69652500Y-104001000D03*
X69652500Y-106501000D03*
D12*
X77152500Y-98401000D03*
X77152500Y-109601000D03*
D11*
X84152500Y-101501000D03*
X84152500Y-106501000D03*
G04 #@! TA.AperFunction,SMDPad,CuDef*
G36*
G01*
X40889250Y-96691000D02*
X41439250Y-96691000D01*
G75*
G02*
X41639250Y-96891000I0J-200000D01*
G01*
X41639250Y-97291000D01*
G75*
G02*
X41439250Y-97491000I-200000J0D01*
G01*
X40889250Y-97491000D01*
G75*
G02*
X40689250Y-97291000I0J200000D01*
G01*
X40689250Y-96891000D01*
G75*
G02*
X40889250Y-96691000I200000J0D01*
G01*
G37*
G04 #@! TD.AperFunction*
G04 #@! TA.AperFunction,SMDPad,CuDef*
G36*
G01*
X40889250Y-95041000D02*
X41439250Y-95041000D01*
G75*
G02*
X41639250Y-95241000I0J-200000D01*
G01*
X41639250Y-95641000D01*
G75*
G02*
X41439250Y-95841000I-200000J0D01*
G01*
X40889250Y-95841000D01*
G75*
G02*
X40689250Y-95641000I0J200000D01*
G01*
X40689250Y-95241000D01*
G75*
G02*
X40889250Y-95041000I200000J0D01*
G01*
G37*
G04 #@! TD.AperFunction*
G04 #@! TA.AperFunction,SMDPad,CuDef*
G36*
G01*
X31520000Y-108435000D02*
X31520000Y-108735000D01*
G75*
G02*
X31370000Y-108885000I-150000J0D01*
G01*
X29720000Y-108885000D01*
G75*
G02*
X29570000Y-108735000I0J150000D01*
G01*
X29570000Y-108435000D01*
G75*
G02*
X29720000Y-108285000I150000J0D01*
G01*
X31370000Y-108285000D01*
G75*
G02*
X31520000Y-108435000I0J-150000D01*
G01*
G37*
G04 #@! TD.AperFunction*
G04 #@! TA.AperFunction,SMDPad,CuDef*
G36*
G01*
X31520000Y-107165000D02*
X31520000Y-107465000D01*
G75*
G02*
X31370000Y-107615000I-150000J0D01*
G01*
X29720000Y-107615000D01*
G75*
G02*
X29570000Y-107465000I0J150000D01*
G01*
X29570000Y-107165000D01*
G75*
G02*
X29720000Y-107015000I150000J0D01*
G01*
X31370000Y-107015000D01*
G75*
G02*
X31520000Y-107165000I0J-150000D01*
G01*
G37*
G04 #@! TD.AperFunction*
G04 #@! TA.AperFunction,SMDPad,CuDef*
G36*
G01*
X31520000Y-105895000D02*
X31520000Y-106195000D01*
G75*
G02*
X31370000Y-106345000I-150000J0D01*
G01*
X29720000Y-106345000D01*
G75*
G02*
X29570000Y-106195000I0J150000D01*
G01*
X29570000Y-105895000D01*
G75*
G02*
X29720000Y-105745000I150000J0D01*
G01*
X31370000Y-105745000D01*
G75*
G02*
X31520000Y-105895000I0J-150000D01*
G01*
G37*
G04 #@! TD.AperFunction*
G04 #@! TA.AperFunction,SMDPad,CuDef*
G36*
G01*
X31520000Y-104625000D02*
X31520000Y-104925000D01*
G75*
G02*
X31370000Y-105075000I-150000J0D01*
G01*
X29720000Y-105075000D01*
G75*
G02*
X29570000Y-104925000I0J150000D01*
G01*
X29570000Y-104625000D01*
G75*
G02*
X29720000Y-104475000I150000J0D01*
G01*
X31370000Y-104475000D01*
G75*
G02*
X31520000Y-104625000I0J-150000D01*
G01*
G37*
G04 #@! TD.AperFunction*
G04 #@! TA.AperFunction,SMDPad,CuDef*
G36*
G01*
X31520000Y-103355000D02*
X31520000Y-103655000D01*
G75*
G02*
X31370000Y-103805000I-150000J0D01*
G01*
X29720000Y-103805000D01*
G75*
G02*
X29570000Y-103655000I0J150000D01*
G01*
X29570000Y-103355000D01*
G75*
G02*
X29720000Y-103205000I150000J0D01*
G01*
X31370000Y-103205000D01*
G75*
G02*
X31520000Y-103355000I0J-150000D01*
G01*
G37*
G04 #@! TD.AperFunction*
G04 #@! TA.AperFunction,SMDPad,CuDef*
G36*
G01*
X31520000Y-102085000D02*
X31520000Y-102385000D01*
G75*
G02*
X31370000Y-102535000I-150000J0D01*
G01*
X29720000Y-102535000D01*
G75*
G02*
X29570000Y-102385000I0J150000D01*
G01*
X29570000Y-102085000D01*
G75*
G02*
X29720000Y-101935000I150000J0D01*
G01*
X31370000Y-101935000D01*
G75*
G02*
X31520000Y-102085000I0J-150000D01*
G01*
G37*
G04 #@! TD.AperFunction*
G04 #@! TA.AperFunction,SMDPad,CuDef*
G36*
G01*
X31520000Y-100815000D02*
X31520000Y-101115000D01*
G75*
G02*
X31370000Y-101265000I-150000J0D01*
G01*
X29720000Y-101265000D01*
G75*
G02*
X29570000Y-101115000I0J150000D01*
G01*
X29570000Y-100815000D01*
G75*
G02*
X29720000Y-100665000I150000J0D01*
G01*
X31370000Y-100665000D01*
G75*
G02*
X31520000Y-100815000I0J-150000D01*
G01*
G37*
G04 #@! TD.AperFunction*
G04 #@! TA.AperFunction,SMDPad,CuDef*
G36*
G01*
X31520000Y-99545000D02*
X31520000Y-99845000D01*
G75*
G02*
X31370000Y-99995000I-150000J0D01*
G01*
X29720000Y-99995000D01*
G75*
G02*
X29570000Y-99845000I0J150000D01*
G01*
X29570000Y-99545000D01*
G75*
G02*
X29720000Y-99395000I150000J0D01*
G01*
X31370000Y-99395000D01*
G75*
G02*
X31520000Y-99545000I0J-150000D01*
G01*
G37*
G04 #@! TD.AperFunction*
G04 #@! TA.AperFunction,SMDPad,CuDef*
G36*
G01*
X36470000Y-99545000D02*
X36470000Y-99845000D01*
G75*
G02*
X36320000Y-99995000I-150000J0D01*
G01*
X34670000Y-99995000D01*
G75*
G02*
X34520000Y-99845000I0J150000D01*
G01*
X34520000Y-99545000D01*
G75*
G02*
X34670000Y-99395000I150000J0D01*
G01*
X36320000Y-99395000D01*
G75*
G02*
X36470000Y-99545000I0J-150000D01*
G01*
G37*
G04 #@! TD.AperFunction*
G04 #@! TA.AperFunction,SMDPad,CuDef*
G36*
G01*
X36470000Y-100815000D02*
X36470000Y-101115000D01*
G75*
G02*
X36320000Y-101265000I-150000J0D01*
G01*
X34670000Y-101265000D01*
G75*
G02*
X34520000Y-101115000I0J150000D01*
G01*
X34520000Y-100815000D01*
G75*
G02*
X34670000Y-100665000I150000J0D01*
G01*
X36320000Y-100665000D01*
G75*
G02*
X36470000Y-100815000I0J-150000D01*
G01*
G37*
G04 #@! TD.AperFunction*
G04 #@! TA.AperFunction,SMDPad,CuDef*
G36*
G01*
X36470000Y-102085000D02*
X36470000Y-102385000D01*
G75*
G02*
X36320000Y-102535000I-150000J0D01*
G01*
X34670000Y-102535000D01*
G75*
G02*
X34520000Y-102385000I0J150000D01*
G01*
X34520000Y-102085000D01*
G75*
G02*
X34670000Y-101935000I150000J0D01*
G01*
X36320000Y-101935000D01*
G75*
G02*
X36470000Y-102085000I0J-150000D01*
G01*
G37*
G04 #@! TD.AperFunction*
G04 #@! TA.AperFunction,SMDPad,CuDef*
G36*
G01*
X36470000Y-103355000D02*
X36470000Y-103655000D01*
G75*
G02*
X36320000Y-103805000I-150000J0D01*
G01*
X34670000Y-103805000D01*
G75*
G02*
X34520000Y-103655000I0J150000D01*
G01*
X34520000Y-103355000D01*
G75*
G02*
X34670000Y-103205000I150000J0D01*
G01*
X36320000Y-103205000D01*
G75*
G02*
X36470000Y-103355000I0J-150000D01*
G01*
G37*
G04 #@! TD.AperFunction*
G04 #@! TA.AperFunction,SMDPad,CuDef*
G36*
G01*
X36470000Y-104625000D02*
X36470000Y-104925000D01*
G75*
G02*
X36320000Y-105075000I-150000J0D01*
G01*
X34670000Y-105075000D01*
G75*
G02*
X34520000Y-104925000I0J150000D01*
G01*
X34520000Y-104625000D01*
G75*
G02*
X34670000Y-104475000I150000J0D01*
G01*
X36320000Y-104475000D01*
G75*
G02*
X36470000Y-104625000I0J-150000D01*
G01*
G37*
G04 #@! TD.AperFunction*
G04 #@! TA.AperFunction,SMDPad,CuDef*
G36*
G01*
X36470000Y-105895000D02*
X36470000Y-106195000D01*
G75*
G02*
X36320000Y-106345000I-150000J0D01*
G01*
X34670000Y-106345000D01*
G75*
G02*
X34520000Y-106195000I0J150000D01*
G01*
X34520000Y-105895000D01*
G75*
G02*
X34670000Y-105745000I150000J0D01*
G01*
X36320000Y-105745000D01*
G75*
G02*
X36470000Y-105895000I0J-150000D01*
G01*
G37*
G04 #@! TD.AperFunction*
G04 #@! TA.AperFunction,SMDPad,CuDef*
G36*
G01*
X36470000Y-107165000D02*
X36470000Y-107465000D01*
G75*
G02*
X36320000Y-107615000I-150000J0D01*
G01*
X34670000Y-107615000D01*
G75*
G02*
X34520000Y-107465000I0J150000D01*
G01*
X34520000Y-107165000D01*
G75*
G02*
X34670000Y-107015000I150000J0D01*
G01*
X36320000Y-107015000D01*
G75*
G02*
X36470000Y-107165000I0J-150000D01*
G01*
G37*
G04 #@! TD.AperFunction*
G04 #@! TA.AperFunction,SMDPad,CuDef*
G36*
G01*
X36470000Y-108435000D02*
X36470000Y-108735000D01*
G75*
G02*
X36320000Y-108885000I-150000J0D01*
G01*
X34670000Y-108885000D01*
G75*
G02*
X34520000Y-108735000I0J150000D01*
G01*
X34520000Y-108435000D01*
G75*
G02*
X34670000Y-108285000I150000J0D01*
G01*
X36320000Y-108285000D01*
G75*
G02*
X36470000Y-108435000I0J-150000D01*
G01*
G37*
G04 #@! TD.AperFunction*
D13*
X21590000Y-110490000D03*
X24130000Y-110490000D03*
X21590000Y-107950000D03*
X24130000Y-107950000D03*
X21590000Y-105410000D03*
X24130000Y-105410000D03*
X21590000Y-102870000D03*
X24130000Y-102870000D03*
X21590000Y-100330000D03*
X24130000Y-100330000D03*
X21590000Y-97790000D03*
D14*
X24130000Y-97790000D03*
G04 #@! TA.AperFunction,SMDPad,CuDef*
G36*
G01*
X52364006Y-98645271D02*
X51718771Y-99290506D01*
G75*
G02*
X51374057Y-99290506I-172357J172357D01*
G01*
X51029342Y-98945791D01*
G75*
G02*
X51029342Y-98601077I172357J172357D01*
G01*
X51674577Y-97955842D01*
G75*
G02*
X52019291Y-97955842I172357J-172357D01*
G01*
X52364006Y-98300557D01*
G75*
G02*
X52364006Y-98645271I-172357J-172357D01*
G01*
G37*
G04 #@! TD.AperFunction*
G04 #@! TA.AperFunction,SMDPad,CuDef*
G36*
G01*
X53689832Y-99971097D02*
X53044597Y-100616332D01*
G75*
G02*
X52699883Y-100616332I-172357J172357D01*
G01*
X52355168Y-100271617D01*
G75*
G02*
X52355168Y-99926903I172357J172357D01*
G01*
X53000403Y-99281668D01*
G75*
G02*
X53345117Y-99281668I172357J-172357D01*
G01*
X53689832Y-99626383D01*
G75*
G02*
X53689832Y-99971097I-172357J-172357D01*
G01*
G37*
G04 #@! TD.AperFunction*
G04 #@! TA.AperFunction,SMDPad,CuDef*
G36*
G01*
X49857000Y-103683750D02*
X49857000Y-104596250D01*
G75*
G02*
X49613250Y-104840000I-243750J0D01*
G01*
X49125750Y-104840000D01*
G75*
G02*
X48882000Y-104596250I0J243750D01*
G01*
X48882000Y-103683750D01*
G75*
G02*
X49125750Y-103440000I243750J0D01*
G01*
X49613250Y-103440000D01*
G75*
G02*
X49857000Y-103683750I0J-243750D01*
G01*
G37*
G04 #@! TD.AperFunction*
G04 #@! TA.AperFunction,SMDPad,CuDef*
G36*
G01*
X51732000Y-103683750D02*
X51732000Y-104596250D01*
G75*
G02*
X51488250Y-104840000I-243750J0D01*
G01*
X51000750Y-104840000D01*
G75*
G02*
X50757000Y-104596250I0J243750D01*
G01*
X50757000Y-103683750D01*
G75*
G02*
X51000750Y-103440000I243750J0D01*
G01*
X51488250Y-103440000D01*
G75*
G02*
X51732000Y-103683750I0J-243750D01*
G01*
G37*
G04 #@! TD.AperFunction*
G04 #@! TA.AperFunction,SMDPad,CuDef*
G36*
G01*
X52377491Y-101619038D02*
X52028292Y-102462078D01*
G75*
G02*
X51709817Y-102593995I-225196J93279D01*
G01*
X51259426Y-102407437D01*
G75*
G02*
X51127509Y-102088962I93279J225196D01*
G01*
X51476708Y-101245922D01*
G75*
G02*
X51795183Y-101114005I225196J-93279D01*
G01*
X52245574Y-101300563D01*
G75*
G02*
X52377491Y-101619038I-93279J-225196D01*
G01*
G37*
G04 #@! TD.AperFunction*
G04 #@! TA.AperFunction,SMDPad,CuDef*
G36*
G01*
X50645217Y-100901506D02*
X50296018Y-101744546D01*
G75*
G02*
X49977543Y-101876463I-225196J93279D01*
G01*
X49527152Y-101689905D01*
G75*
G02*
X49395235Y-101371430I93279J225196D01*
G01*
X49744434Y-100528390D01*
G75*
G02*
X50062909Y-100396473I225196J-93279D01*
G01*
X50513300Y-100583031D01*
G75*
G02*
X50645217Y-100901506I-93279J-225196D01*
G01*
G37*
G04 #@! TD.AperFunction*
G04 #@! TA.AperFunction,SMDPad,CuDef*
G36*
G01*
X55535578Y-98954792D02*
X54692538Y-99303991D01*
G75*
G02*
X54374063Y-99172074I-93279J225196D01*
G01*
X54187505Y-98721683D01*
G75*
G02*
X54319422Y-98403208I225196J93279D01*
G01*
X55162462Y-98054009D01*
G75*
G02*
X55480937Y-98185926I93279J-225196D01*
G01*
X55667495Y-98636317D01*
G75*
G02*
X55535578Y-98954792I-225196J-93279D01*
G01*
G37*
G04 #@! TD.AperFunction*
G04 #@! TA.AperFunction,SMDPad,CuDef*
G36*
G01*
X54818046Y-97222518D02*
X53975006Y-97571717D01*
G75*
G02*
X53656531Y-97439800I-93279J225196D01*
G01*
X53469973Y-96989409D01*
G75*
G02*
X53601890Y-96670934I225196J93279D01*
G01*
X54444930Y-96321735D01*
G75*
G02*
X54763405Y-96453652I93279J-225196D01*
G01*
X54949963Y-96904043D01*
G75*
G02*
X54818046Y-97222518I-225196J-93279D01*
G01*
G37*
G04 #@! TD.AperFunction*
G04 #@! TA.AperFunction,SMDPad,CuDef*
G36*
G01*
X57542750Y-96910500D02*
X56630250Y-96910500D01*
G75*
G02*
X56386500Y-96666750I0J243750D01*
G01*
X56386500Y-96179250D01*
G75*
G02*
X56630250Y-95935500I243750J0D01*
G01*
X57542750Y-95935500D01*
G75*
G02*
X57786500Y-96179250I0J-243750D01*
G01*
X57786500Y-96666750D01*
G75*
G02*
X57542750Y-96910500I-243750J0D01*
G01*
G37*
G04 #@! TD.AperFunction*
G04 #@! TA.AperFunction,SMDPad,CuDef*
G36*
G01*
X57542750Y-98785500D02*
X56630250Y-98785500D01*
G75*
G02*
X56386500Y-98541750I0J243750D01*
G01*
X56386500Y-98054250D01*
G75*
G02*
X56630250Y-97810500I243750J0D01*
G01*
X57542750Y-97810500D01*
G75*
G02*
X57786500Y-98054250I0J-243750D01*
G01*
X57786500Y-98541750D01*
G75*
G02*
X57542750Y-98785500I-243750J0D01*
G01*
G37*
G04 #@! TD.AperFunction*
G04 #@! TA.AperFunction,SMDPad,CuDef*
G36*
G01*
X59480462Y-99303991D02*
X58637422Y-98954792D01*
G75*
G02*
X58505505Y-98636317I93279J225196D01*
G01*
X58692063Y-98185926D01*
G75*
G02*
X59010538Y-98054009I225196J-93279D01*
G01*
X59853578Y-98403208D01*
G75*
G02*
X59985495Y-98721683I-93279J-225196D01*
G01*
X59798937Y-99172074D01*
G75*
G02*
X59480462Y-99303991I-225196J93279D01*
G01*
G37*
G04 #@! TD.AperFunction*
G04 #@! TA.AperFunction,SMDPad,CuDef*
G36*
G01*
X60197994Y-97571717D02*
X59354954Y-97222518D01*
G75*
G02*
X59223037Y-96904043I93279J225196D01*
G01*
X59409595Y-96453652D01*
G75*
G02*
X59728070Y-96321735I225196J-93279D01*
G01*
X60571110Y-96670934D01*
G75*
G02*
X60703027Y-96989409I-93279J-225196D01*
G01*
X60516469Y-97439800D01*
G75*
G02*
X60197994Y-97571717I-225196J93279D01*
G01*
G37*
G04 #@! TD.AperFunction*
G04 #@! TA.AperFunction,SMDPad,CuDef*
G36*
G01*
X62398403Y-99219332D02*
X61753168Y-98574097D01*
G75*
G02*
X61753168Y-98229383I172357J172357D01*
G01*
X62097883Y-97884668D01*
G75*
G02*
X62442597Y-97884668I172357J-172357D01*
G01*
X63087832Y-98529903D01*
G75*
G02*
X63087832Y-98874617I-172357J-172357D01*
G01*
X62743117Y-99219332D01*
G75*
G02*
X62398403Y-99219332I-172357J172357D01*
G01*
G37*
G04 #@! TD.AperFunction*
G04 #@! TA.AperFunction,SMDPad,CuDef*
G36*
G01*
X61072577Y-100545158D02*
X60427342Y-99899923D01*
G75*
G02*
X60427342Y-99555209I172357J172357D01*
G01*
X60772057Y-99210494D01*
G75*
G02*
X61116771Y-99210494I172357J-172357D01*
G01*
X61762006Y-99855729D01*
G75*
G02*
X61762006Y-100200443I-172357J-172357D01*
G01*
X61417291Y-100545158D01*
G75*
G02*
X61072577Y-100545158I-172357J172357D01*
G01*
G37*
G04 #@! TD.AperFunction*
G04 #@! TA.AperFunction,SMDPad,CuDef*
G36*
G01*
X62144708Y-102335078D02*
X61795509Y-101492038D01*
G75*
G02*
X61927426Y-101173563I225196J93279D01*
G01*
X62377817Y-100987005D01*
G75*
G02*
X62696292Y-101118922I93279J-225196D01*
G01*
X63045491Y-101961962D01*
G75*
G02*
X62913574Y-102280437I-225196J-93279D01*
G01*
X62463183Y-102466995D01*
G75*
G02*
X62144708Y-102335078I-93279J225196D01*
G01*
G37*
G04 #@! TD.AperFunction*
G04 #@! TA.AperFunction,SMDPad,CuDef*
G36*
G01*
X63876982Y-101617546D02*
X63527783Y-100774506D01*
G75*
G02*
X63659700Y-100456031I225196J93279D01*
G01*
X64110091Y-100269473D01*
G75*
G02*
X64428566Y-100401390I93279J-225196D01*
G01*
X64777765Y-101244430D01*
G75*
G02*
X64645848Y-101562905I-225196J-93279D01*
G01*
X64195457Y-101749463D01*
G75*
G02*
X63876982Y-101617546I-93279J225196D01*
G01*
G37*
G04 #@! TD.AperFunction*
G04 #@! TA.AperFunction,SMDPad,CuDef*
G36*
G01*
X43834000Y-109071997D02*
X43834000Y-109621997D01*
G75*
G02*
X43634000Y-109821997I-200000J0D01*
G01*
X43234000Y-109821997D01*
G75*
G02*
X43034000Y-109621997I0J200000D01*
G01*
X43034000Y-109071997D01*
G75*
G02*
X43234000Y-108871997I200000J0D01*
G01*
X43634000Y-108871997D01*
G75*
G02*
X43834000Y-109071997I0J-200000D01*
G01*
G37*
G04 #@! TD.AperFunction*
G04 #@! TA.AperFunction,SMDPad,CuDef*
G36*
G01*
X42184000Y-109071997D02*
X42184000Y-109621997D01*
G75*
G02*
X41984000Y-109821997I-200000J0D01*
G01*
X41584000Y-109821997D01*
G75*
G02*
X41384000Y-109621997I0J200000D01*
G01*
X41384000Y-109071997D01*
G75*
G02*
X41584000Y-108871997I200000J0D01*
G01*
X41984000Y-108871997D01*
G75*
G02*
X42184000Y-109071997I0J-200000D01*
G01*
G37*
G04 #@! TD.AperFunction*
G04 #@! TA.AperFunction,SMDPad,CuDef*
G36*
G01*
X43834000Y-107602426D02*
X43834000Y-108152426D01*
G75*
G02*
X43634000Y-108352426I-200000J0D01*
G01*
X43234000Y-108352426D01*
G75*
G02*
X43034000Y-108152426I0J200000D01*
G01*
X43034000Y-107602426D01*
G75*
G02*
X43234000Y-107402426I200000J0D01*
G01*
X43634000Y-107402426D01*
G75*
G02*
X43834000Y-107602426I0J-200000D01*
G01*
G37*
G04 #@! TD.AperFunction*
G04 #@! TA.AperFunction,SMDPad,CuDef*
G36*
G01*
X42184000Y-107602426D02*
X42184000Y-108152426D01*
G75*
G02*
X41984000Y-108352426I-200000J0D01*
G01*
X41584000Y-108352426D01*
G75*
G02*
X41384000Y-108152426I0J200000D01*
G01*
X41384000Y-107602426D01*
G75*
G02*
X41584000Y-107402426I200000J0D01*
G01*
X41984000Y-107402426D01*
G75*
G02*
X42184000Y-107602426I0J-200000D01*
G01*
G37*
G04 #@! TD.AperFunction*
G04 #@! TA.AperFunction,SMDPad,CuDef*
G36*
G01*
X42184000Y-106132855D02*
X42184000Y-106682855D01*
G75*
G02*
X41984000Y-106882855I-200000J0D01*
G01*
X41584000Y-106882855D01*
G75*
G02*
X41384000Y-106682855I0J200000D01*
G01*
X41384000Y-106132855D01*
G75*
G02*
X41584000Y-105932855I200000J0D01*
G01*
X41984000Y-105932855D01*
G75*
G02*
X42184000Y-106132855I0J-200000D01*
G01*
G37*
G04 #@! TD.AperFunction*
G04 #@! TA.AperFunction,SMDPad,CuDef*
G36*
G01*
X43834000Y-106132855D02*
X43834000Y-106682855D01*
G75*
G02*
X43634000Y-106882855I-200000J0D01*
G01*
X43234000Y-106882855D01*
G75*
G02*
X43034000Y-106682855I0J200000D01*
G01*
X43034000Y-106132855D01*
G75*
G02*
X43234000Y-105932855I200000J0D01*
G01*
X43634000Y-105932855D01*
G75*
G02*
X43834000Y-106132855I0J-200000D01*
G01*
G37*
G04 #@! TD.AperFunction*
G04 #@! TA.AperFunction,SMDPad,CuDef*
G36*
G01*
X43834000Y-104663284D02*
X43834000Y-105213284D01*
G75*
G02*
X43634000Y-105413284I-200000J0D01*
G01*
X43234000Y-105413284D01*
G75*
G02*
X43034000Y-105213284I0J200000D01*
G01*
X43034000Y-104663284D01*
G75*
G02*
X43234000Y-104463284I200000J0D01*
G01*
X43634000Y-104463284D01*
G75*
G02*
X43834000Y-104663284I0J-200000D01*
G01*
G37*
G04 #@! TD.AperFunction*
G04 #@! TA.AperFunction,SMDPad,CuDef*
G36*
G01*
X42184000Y-104663284D02*
X42184000Y-105213284D01*
G75*
G02*
X41984000Y-105413284I-200000J0D01*
G01*
X41584000Y-105413284D01*
G75*
G02*
X41384000Y-105213284I0J200000D01*
G01*
X41384000Y-104663284D01*
G75*
G02*
X41584000Y-104463284I200000J0D01*
G01*
X41984000Y-104463284D01*
G75*
G02*
X42184000Y-104663284I0J-200000D01*
G01*
G37*
G04 #@! TD.AperFunction*
G04 #@! TA.AperFunction,SMDPad,CuDef*
G36*
G01*
X42184000Y-103193713D02*
X42184000Y-103743713D01*
G75*
G02*
X41984000Y-103943713I-200000J0D01*
G01*
X41584000Y-103943713D01*
G75*
G02*
X41384000Y-103743713I0J200000D01*
G01*
X41384000Y-103193713D01*
G75*
G02*
X41584000Y-102993713I200000J0D01*
G01*
X41984000Y-102993713D01*
G75*
G02*
X42184000Y-103193713I0J-200000D01*
G01*
G37*
G04 #@! TD.AperFunction*
G04 #@! TA.AperFunction,SMDPad,CuDef*
G36*
G01*
X43834000Y-103193713D02*
X43834000Y-103743713D01*
G75*
G02*
X43634000Y-103943713I-200000J0D01*
G01*
X43234000Y-103943713D01*
G75*
G02*
X43034000Y-103743713I0J200000D01*
G01*
X43034000Y-103193713D01*
G75*
G02*
X43234000Y-102993713I200000J0D01*
G01*
X43634000Y-102993713D01*
G75*
G02*
X43834000Y-103193713I0J-200000D01*
G01*
G37*
G04 #@! TD.AperFunction*
G04 #@! TA.AperFunction,SMDPad,CuDef*
G36*
G01*
X43834000Y-101724142D02*
X43834000Y-102274142D01*
G75*
G02*
X43634000Y-102474142I-200000J0D01*
G01*
X43234000Y-102474142D01*
G75*
G02*
X43034000Y-102274142I0J200000D01*
G01*
X43034000Y-101724142D01*
G75*
G02*
X43234000Y-101524142I200000J0D01*
G01*
X43634000Y-101524142D01*
G75*
G02*
X43834000Y-101724142I0J-200000D01*
G01*
G37*
G04 #@! TD.AperFunction*
G04 #@! TA.AperFunction,SMDPad,CuDef*
G36*
G01*
X42184000Y-101724142D02*
X42184000Y-102274142D01*
G75*
G02*
X41984000Y-102474142I-200000J0D01*
G01*
X41584000Y-102474142D01*
G75*
G02*
X41384000Y-102274142I0J200000D01*
G01*
X41384000Y-101724142D01*
G75*
G02*
X41584000Y-101524142I200000J0D01*
G01*
X41984000Y-101524142D01*
G75*
G02*
X42184000Y-101724142I0J-200000D01*
G01*
G37*
G04 #@! TD.AperFunction*
G04 #@! TA.AperFunction,SMDPad,CuDef*
G36*
G01*
X42184000Y-100254571D02*
X42184000Y-100804571D01*
G75*
G02*
X41984000Y-101004571I-200000J0D01*
G01*
X41584000Y-101004571D01*
G75*
G02*
X41384000Y-100804571I0J200000D01*
G01*
X41384000Y-100254571D01*
G75*
G02*
X41584000Y-100054571I200000J0D01*
G01*
X41984000Y-100054571D01*
G75*
G02*
X42184000Y-100254571I0J-200000D01*
G01*
G37*
G04 #@! TD.AperFunction*
G04 #@! TA.AperFunction,SMDPad,CuDef*
G36*
G01*
X43834000Y-100254571D02*
X43834000Y-100804571D01*
G75*
G02*
X43634000Y-101004571I-200000J0D01*
G01*
X43234000Y-101004571D01*
G75*
G02*
X43034000Y-100804571I0J200000D01*
G01*
X43034000Y-100254571D01*
G75*
G02*
X43234000Y-100054571I200000J0D01*
G01*
X43634000Y-100054571D01*
G75*
G02*
X43834000Y-100254571I0J-200000D01*
G01*
G37*
G04 #@! TD.AperFunction*
G04 #@! TA.AperFunction,SMDPad,CuDef*
G36*
G01*
X42184000Y-98785000D02*
X42184000Y-99335000D01*
G75*
G02*
X41984000Y-99535000I-200000J0D01*
G01*
X41584000Y-99535000D01*
G75*
G02*
X41384000Y-99335000I0J200000D01*
G01*
X41384000Y-98785000D01*
G75*
G02*
X41584000Y-98585000I200000J0D01*
G01*
X41984000Y-98585000D01*
G75*
G02*
X42184000Y-98785000I0J-200000D01*
G01*
G37*
G04 #@! TD.AperFunction*
G04 #@! TA.AperFunction,SMDPad,CuDef*
G36*
G01*
X43834000Y-98785000D02*
X43834000Y-99335000D01*
G75*
G02*
X43634000Y-99535000I-200000J0D01*
G01*
X43234000Y-99535000D01*
G75*
G02*
X43034000Y-99335000I0J200000D01*
G01*
X43034000Y-98785000D01*
G75*
G02*
X43234000Y-98585000I200000J0D01*
G01*
X43634000Y-98585000D01*
G75*
G02*
X43834000Y-98785000I0J-200000D01*
G01*
G37*
G04 #@! TD.AperFunction*
G04 #@! TA.AperFunction,SMDPad,CuDef*
G36*
G01*
X32919750Y-95041000D02*
X33469750Y-95041000D01*
G75*
G02*
X33669750Y-95241000I0J-200000D01*
G01*
X33669750Y-95641000D01*
G75*
G02*
X33469750Y-95841000I-200000J0D01*
G01*
X32919750Y-95841000D01*
G75*
G02*
X32719750Y-95641000I0J200000D01*
G01*
X32719750Y-95241000D01*
G75*
G02*
X32919750Y-95041000I200000J0D01*
G01*
G37*
G04 #@! TD.AperFunction*
G04 #@! TA.AperFunction,SMDPad,CuDef*
G36*
G01*
X32919750Y-96691000D02*
X33469750Y-96691000D01*
G75*
G02*
X33669750Y-96891000I0J-200000D01*
G01*
X33669750Y-97291000D01*
G75*
G02*
X33469750Y-97491000I-200000J0D01*
G01*
X32919750Y-97491000D01*
G75*
G02*
X32719750Y-97291000I0J200000D01*
G01*
X32719750Y-96891000D01*
G75*
G02*
X32919750Y-96691000I200000J0D01*
G01*
G37*
G04 #@! TD.AperFunction*
G04 #@! TA.AperFunction,SMDPad,CuDef*
G36*
G01*
X45424000Y-97491000D02*
X44874000Y-97491000D01*
G75*
G02*
X44674000Y-97291000I0J200000D01*
G01*
X44674000Y-96891000D01*
G75*
G02*
X44874000Y-96691000I200000J0D01*
G01*
X45424000Y-96691000D01*
G75*
G02*
X45624000Y-96891000I0J-200000D01*
G01*
X45624000Y-97291000D01*
G75*
G02*
X45424000Y-97491000I-200000J0D01*
G01*
G37*
G04 #@! TD.AperFunction*
G04 #@! TA.AperFunction,SMDPad,CuDef*
G36*
G01*
X45424000Y-95841000D02*
X44874000Y-95841000D01*
G75*
G02*
X44674000Y-95641000I0J200000D01*
G01*
X44674000Y-95241000D01*
G75*
G02*
X44874000Y-95041000I200000J0D01*
G01*
X45424000Y-95041000D01*
G75*
G02*
X45624000Y-95241000I0J-200000D01*
G01*
X45624000Y-95641000D01*
G75*
G02*
X45424000Y-95841000I-200000J0D01*
G01*
G37*
G04 #@! TD.AperFunction*
G04 #@! TA.AperFunction,SMDPad,CuDef*
G36*
G01*
X33371200Y-111335000D02*
X32821200Y-111335000D01*
G75*
G02*
X32621200Y-111135000I0J200000D01*
G01*
X32621200Y-110735000D01*
G75*
G02*
X32821200Y-110535000I200000J0D01*
G01*
X33371200Y-110535000D01*
G75*
G02*
X33571200Y-110735000I0J-200000D01*
G01*
X33571200Y-111135000D01*
G75*
G02*
X33371200Y-111335000I-200000J0D01*
G01*
G37*
G04 #@! TD.AperFunction*
G04 #@! TA.AperFunction,SMDPad,CuDef*
G36*
G01*
X33371200Y-112985000D02*
X32821200Y-112985000D01*
G75*
G02*
X32621200Y-112785000I0J200000D01*
G01*
X32621200Y-112385000D01*
G75*
G02*
X32821200Y-112185000I200000J0D01*
G01*
X33371200Y-112185000D01*
G75*
G02*
X33571200Y-112385000I0J-200000D01*
G01*
X33571200Y-112785000D01*
G75*
G02*
X33371200Y-112985000I-200000J0D01*
G01*
G37*
G04 #@! TD.AperFunction*
G04 #@! TA.AperFunction,SMDPad,CuDef*
G36*
G01*
X37384400Y-112985000D02*
X36834400Y-112985000D01*
G75*
G02*
X36634400Y-112785000I0J200000D01*
G01*
X36634400Y-112385000D01*
G75*
G02*
X36834400Y-112185000I200000J0D01*
G01*
X37384400Y-112185000D01*
G75*
G02*
X37584400Y-112385000I0J-200000D01*
G01*
X37584400Y-112785000D01*
G75*
G02*
X37384400Y-112985000I-200000J0D01*
G01*
G37*
G04 #@! TD.AperFunction*
G04 #@! TA.AperFunction,SMDPad,CuDef*
G36*
G01*
X37384400Y-111335000D02*
X36834400Y-111335000D01*
G75*
G02*
X36634400Y-111135000I0J200000D01*
G01*
X36634400Y-110735000D01*
G75*
G02*
X36834400Y-110535000I200000J0D01*
G01*
X37384400Y-110535000D01*
G75*
G02*
X37584400Y-110735000I0J-200000D01*
G01*
X37584400Y-111135000D01*
G75*
G02*
X37384400Y-111335000I-200000J0D01*
G01*
G37*
G04 #@! TD.AperFunction*
G04 #@! TA.AperFunction,SMDPad,CuDef*
G36*
G01*
X37454500Y-97491000D02*
X36904500Y-97491000D01*
G75*
G02*
X36704500Y-97291000I0J200000D01*
G01*
X36704500Y-96891000D01*
G75*
G02*
X36904500Y-96691000I200000J0D01*
G01*
X37454500Y-96691000D01*
G75*
G02*
X37654500Y-96891000I0J-200000D01*
G01*
X37654500Y-97291000D01*
G75*
G02*
X37454500Y-97491000I-200000J0D01*
G01*
G37*
G04 #@! TD.AperFunction*
G04 #@! TA.AperFunction,SMDPad,CuDef*
G36*
G01*
X37454500Y-95841000D02*
X36904500Y-95841000D01*
G75*
G02*
X36704500Y-95641000I0J200000D01*
G01*
X36704500Y-95241000D01*
G75*
G02*
X36904500Y-95041000I200000J0D01*
G01*
X37454500Y-95041000D01*
G75*
G02*
X37654500Y-95241000I0J-200000D01*
G01*
X37654500Y-95641000D01*
G75*
G02*
X37454500Y-95841000I-200000J0D01*
G01*
G37*
G04 #@! TD.AperFunction*
G04 #@! TA.AperFunction,SMDPad,CuDef*
G36*
G01*
X30290000Y-95915000D02*
X29790000Y-95915000D01*
G75*
G02*
X29565000Y-95690000I0J225000D01*
G01*
X29565000Y-95240000D01*
G75*
G02*
X29790000Y-95015000I225000J0D01*
G01*
X30290000Y-95015000D01*
G75*
G02*
X30515000Y-95240000I0J-225000D01*
G01*
X30515000Y-95690000D01*
G75*
G02*
X30290000Y-95915000I-225000J0D01*
G01*
G37*
G04 #@! TD.AperFunction*
G04 #@! TA.AperFunction,SMDPad,CuDef*
G36*
G01*
X30290000Y-97465000D02*
X29790000Y-97465000D01*
G75*
G02*
X29565000Y-97240000I0J225000D01*
G01*
X29565000Y-96790000D01*
G75*
G02*
X29790000Y-96565000I225000J0D01*
G01*
X30290000Y-96565000D01*
G75*
G02*
X30515000Y-96790000I0J-225000D01*
G01*
X30515000Y-97240000D01*
G75*
G02*
X30290000Y-97465000I-225000J0D01*
G01*
G37*
G04 #@! TD.AperFunction*
G04 #@! TA.AperFunction,SMDPad,CuDef*
G36*
G01*
X64316000Y-104596250D02*
X64316000Y-103683750D01*
G75*
G02*
X64559750Y-103440000I243750J0D01*
G01*
X65047250Y-103440000D01*
G75*
G02*
X65291000Y-103683750I0J-243750D01*
G01*
X65291000Y-104596250D01*
G75*
G02*
X65047250Y-104840000I-243750J0D01*
G01*
X64559750Y-104840000D01*
G75*
G02*
X64316000Y-104596250I0J243750D01*
G01*
G37*
G04 #@! TD.AperFunction*
G04 #@! TA.AperFunction,SMDPad,CuDef*
G36*
G01*
X62441000Y-104596250D02*
X62441000Y-103683750D01*
G75*
G02*
X62684750Y-103440000I243750J0D01*
G01*
X63172250Y-103440000D01*
G75*
G02*
X63416000Y-103683750I0J-243750D01*
G01*
X63416000Y-104596250D01*
G75*
G02*
X63172250Y-104840000I-243750J0D01*
G01*
X62684750Y-104840000D01*
G75*
G02*
X62441000Y-104596250I0J243750D01*
G01*
G37*
G04 #@! TD.AperFunction*
G04 #@! TA.AperFunction,SMDPad,CuDef*
G36*
G01*
X61881872Y-106556196D02*
X62231071Y-105713156D01*
G75*
G02*
X62549546Y-105581239I225196J-93279D01*
G01*
X62999937Y-105767797D01*
G75*
G02*
X63131854Y-106086272I-93279J-225196D01*
G01*
X62782655Y-106929312D01*
G75*
G02*
X62464180Y-107061229I-225196J93279D01*
G01*
X62013789Y-106874671D01*
G75*
G02*
X61881872Y-106556196I93279J225196D01*
G01*
G37*
G04 #@! TD.AperFunction*
G04 #@! TA.AperFunction,SMDPad,CuDef*
G36*
G01*
X63614146Y-107273728D02*
X63963345Y-106430688D01*
G75*
G02*
X64281820Y-106298771I225196J-93279D01*
G01*
X64732211Y-106485329D01*
G75*
G02*
X64864128Y-106803804I-93279J-225196D01*
G01*
X64514929Y-107646844D01*
G75*
G02*
X64196454Y-107778761I-225196J93279D01*
G01*
X63746063Y-107592203D01*
G75*
G02*
X63614146Y-107273728I93279J225196D01*
G01*
G37*
G04 #@! TD.AperFunction*
G04 #@! TA.AperFunction,SMDPad,CuDef*
G36*
G01*
X61935994Y-109571229D02*
X62581229Y-108925994D01*
G75*
G02*
X62925943Y-108925994I172357J-172357D01*
G01*
X63270658Y-109270709D01*
G75*
G02*
X63270658Y-109615423I-172357J-172357D01*
G01*
X62625423Y-110260658D01*
G75*
G02*
X62280709Y-110260658I-172357J172357D01*
G01*
X61935994Y-109915943D01*
G75*
G02*
X61935994Y-109571229I172357J172357D01*
G01*
G37*
G04 #@! TD.AperFunction*
G04 #@! TA.AperFunction,SMDPad,CuDef*
G36*
G01*
X60610168Y-108245403D02*
X61255403Y-107600168D01*
G75*
G02*
X61600117Y-107600168I172357J-172357D01*
G01*
X61944832Y-107944883D01*
G75*
G02*
X61944832Y-108289597I-172357J-172357D01*
G01*
X61299597Y-108934832D01*
G75*
G02*
X60954883Y-108934832I-172357J172357D01*
G01*
X60610168Y-108590117D01*
G75*
G02*
X60610168Y-108245403I172357J172357D01*
G01*
G37*
G04 #@! TD.AperFunction*
G04 #@! TA.AperFunction,SMDPad,CuDef*
G36*
G01*
X58764422Y-109261708D02*
X59607462Y-108912509D01*
G75*
G02*
X59925937Y-109044426I93279J-225196D01*
G01*
X60112495Y-109494817D01*
G75*
G02*
X59980578Y-109813292I-225196J-93279D01*
G01*
X59137538Y-110162491D01*
G75*
G02*
X58819063Y-110030574I-93279J225196D01*
G01*
X58632505Y-109580183D01*
G75*
G02*
X58764422Y-109261708I225196J93279D01*
G01*
G37*
G04 #@! TD.AperFunction*
G04 #@! TA.AperFunction,SMDPad,CuDef*
G36*
G01*
X59481954Y-110993982D02*
X60324994Y-110644783D01*
G75*
G02*
X60643469Y-110776700I93279J-225196D01*
G01*
X60830027Y-111227091D01*
G75*
G02*
X60698110Y-111545566I-225196J-93279D01*
G01*
X59855070Y-111894765D01*
G75*
G02*
X59536595Y-111762848I-93279J225196D01*
G01*
X59350037Y-111312457D01*
G75*
G02*
X59481954Y-110993982I225196J93279D01*
G01*
G37*
G04 #@! TD.AperFunction*
G04 #@! TA.AperFunction,SMDPad,CuDef*
G36*
G01*
X56630250Y-111369500D02*
X57542750Y-111369500D01*
G75*
G02*
X57786500Y-111613250I0J-243750D01*
G01*
X57786500Y-112100750D01*
G75*
G02*
X57542750Y-112344500I-243750J0D01*
G01*
X56630250Y-112344500D01*
G75*
G02*
X56386500Y-112100750I0J243750D01*
G01*
X56386500Y-111613250D01*
G75*
G02*
X56630250Y-111369500I243750J0D01*
G01*
G37*
G04 #@! TD.AperFunction*
G04 #@! TA.AperFunction,SMDPad,CuDef*
G36*
G01*
X56630250Y-109494500D02*
X57542750Y-109494500D01*
G75*
G02*
X57786500Y-109738250I0J-243750D01*
G01*
X57786500Y-110225750D01*
G75*
G02*
X57542750Y-110469500I-243750J0D01*
G01*
X56630250Y-110469500D01*
G75*
G02*
X56386500Y-110225750I0J243750D01*
G01*
X56386500Y-109738250D01*
G75*
G02*
X56630250Y-109494500I243750J0D01*
G01*
G37*
G04 #@! TD.AperFunction*
G04 #@! TA.AperFunction,SMDPad,CuDef*
G36*
G01*
X54629038Y-108912509D02*
X55472078Y-109261708D01*
G75*
G02*
X55603995Y-109580183I-93279J-225196D01*
G01*
X55417437Y-110030574D01*
G75*
G02*
X55098962Y-110162491I-225196J93279D01*
G01*
X54255922Y-109813292D01*
G75*
G02*
X54124005Y-109494817I93279J225196D01*
G01*
X54310563Y-109044426D01*
G75*
G02*
X54629038Y-108912509I225196J-93279D01*
G01*
G37*
G04 #@! TD.AperFunction*
G04 #@! TA.AperFunction,SMDPad,CuDef*
G36*
G01*
X53911506Y-110644783D02*
X54754546Y-110993982D01*
G75*
G02*
X54886463Y-111312457I-93279J-225196D01*
G01*
X54699905Y-111762848D01*
G75*
G02*
X54381430Y-111894765I-225196J93279D01*
G01*
X53538390Y-111545566D01*
G75*
G02*
X53406473Y-111227091I93279J225196D01*
G01*
X53593031Y-110776700D01*
G75*
G02*
X53911506Y-110644783I225196J-93279D01*
G01*
G37*
G04 #@! TD.AperFunction*
G04 #@! TA.AperFunction,SMDPad,CuDef*
G36*
G01*
X51718771Y-108961581D02*
X52364006Y-109606816D01*
G75*
G02*
X52364006Y-109951530I-172357J-172357D01*
G01*
X52019291Y-110296245D01*
G75*
G02*
X51674577Y-110296245I-172357J172357D01*
G01*
X51029342Y-109651010D01*
G75*
G02*
X51029342Y-109306296I172357J172357D01*
G01*
X51374057Y-108961581D01*
G75*
G02*
X51718771Y-108961581I172357J-172357D01*
G01*
G37*
G04 #@! TD.AperFunction*
G04 #@! TA.AperFunction,SMDPad,CuDef*
G36*
G01*
X53044597Y-107635755D02*
X53689832Y-108280990D01*
G75*
G02*
X53689832Y-108625704I-172357J-172357D01*
G01*
X53345117Y-108970419D01*
G75*
G02*
X53000403Y-108970419I-172357J172357D01*
G01*
X52355168Y-108325184D01*
G75*
G02*
X52355168Y-107980470I172357J172357D01*
G01*
X52699883Y-107635755D01*
G75*
G02*
X53044597Y-107635755I172357J-172357D01*
G01*
G37*
G04 #@! TD.AperFunction*
G04 #@! TA.AperFunction,SMDPad,CuDef*
G36*
G01*
X52028292Y-105817922D02*
X52377491Y-106660962D01*
G75*
G02*
X52245574Y-106979437I-225196J-93279D01*
G01*
X51795183Y-107165995D01*
G75*
G02*
X51476708Y-107034078I-93279J225196D01*
G01*
X51127509Y-106191038D01*
G75*
G02*
X51259426Y-105872563I225196J93279D01*
G01*
X51709817Y-105686005D01*
G75*
G02*
X52028292Y-105817922I93279J-225196D01*
G01*
G37*
G04 #@! TD.AperFunction*
G04 #@! TA.AperFunction,SMDPad,CuDef*
G36*
G01*
X50296018Y-106535454D02*
X50645217Y-107378494D01*
G75*
G02*
X50513300Y-107696969I-225196J-93279D01*
G01*
X50062909Y-107883527D01*
G75*
G02*
X49744434Y-107751610I-93279J225196D01*
G01*
X49395235Y-106908570D01*
G75*
G02*
X49527152Y-106590095I225196J93279D01*
G01*
X49977543Y-106403537D01*
G75*
G02*
X50296018Y-106535454I93279J-225196D01*
G01*
G37*
G04 #@! TD.AperFunction*
D15*
X58372500Y-103190000D03*
X58372500Y-105090000D03*
X60372500Y-104140000D03*
X54001501Y-104115001D03*
X56001501Y-103165001D03*
X56001501Y-105065001D03*
G04 #@! TA.AperFunction,SMDPad,CuDef*
G36*
G01*
X84968500Y-95508000D02*
X84968500Y-96008000D01*
G75*
G02*
X84743500Y-96233000I-225000J0D01*
G01*
X84293500Y-96233000D01*
G75*
G02*
X84068500Y-96008000I0J225000D01*
G01*
X84068500Y-95508000D01*
G75*
G02*
X84293500Y-95283000I225000J0D01*
G01*
X84743500Y-95283000D01*
G75*
G02*
X84968500Y-95508000I0J-225000D01*
G01*
G37*
G04 #@! TD.AperFunction*
G04 #@! TA.AperFunction,SMDPad,CuDef*
G36*
G01*
X83418500Y-95508000D02*
X83418500Y-96008000D01*
G75*
G02*
X83193500Y-96233000I-225000J0D01*
G01*
X82743500Y-96233000D01*
G75*
G02*
X82518500Y-96008000I0J225000D01*
G01*
X82518500Y-95508000D01*
G75*
G02*
X82743500Y-95283000I225000J0D01*
G01*
X83193500Y-95283000D01*
G75*
G02*
X83418500Y-95508000I0J-225000D01*
G01*
G37*
G04 #@! TD.AperFunction*
D16*
X55308500Y-100411750D03*
X58420000Y-107061000D03*
X47879000Y-108966000D03*
X52578000Y-103378000D03*
X32385000Y-104902000D03*
X26924000Y-106553000D03*
X39116000Y-96139000D03*
X46482000Y-98679000D03*
X66040000Y-106362500D03*
X49693403Y-102652403D03*
X28702000Y-105918000D03*
X43180000Y-95441010D03*
X31496000Y-110744000D03*
X26098500Y-101536500D03*
X62801500Y-94996000D03*
X35514750Y-97073250D03*
X32512000Y-107442000D03*
X39624000Y-108712000D03*
X67564000Y-98933000D03*
X43180000Y-97028000D03*
X37592000Y-108712000D03*
X65151000Y-105727500D03*
X50347250Y-99686750D03*
X63754000Y-108458000D03*
X49403000Y-105664000D03*
X67627500Y-103839990D03*
X55562500Y-96703171D03*
X44958000Y-110871000D03*
X67564000Y-112522000D03*
X42545000Y-111125000D03*
X64452500Y-98933000D03*
X44767500Y-99377500D03*
X48514000Y-106680000D03*
X41351055Y-111125000D03*
X38608000Y-110236000D03*
X66240000Y-100940000D03*
X57785000Y-101727000D03*
X56007000Y-107950000D03*
X63754000Y-95758000D03*
X43820439Y-96209022D03*
D17*
X24130000Y-107950000D02*
X27178000Y-104902000D01*
X21590000Y-107950000D02*
X20502999Y-106862999D01*
X27178000Y-104902000D02*
X30226000Y-104902000D01*
X41164250Y-97091000D02*
X41085000Y-97091000D01*
X58372500Y-105090000D02*
X57909500Y-105090000D01*
X69205990Y-103114990D02*
X69596000Y-103505000D01*
X56001501Y-101104751D02*
X55308500Y-100411750D01*
X56001501Y-103165001D02*
X56001501Y-101104751D01*
X30545000Y-104775000D02*
X31520000Y-104775000D01*
X23417998Y-99187000D02*
X25527000Y-99187000D01*
X22733000Y-98502002D02*
X23417998Y-99187000D01*
X22733000Y-97028000D02*
X22733000Y-98502002D01*
X35495000Y-99695000D02*
X33972500Y-99695000D01*
X58372500Y-105090000D02*
X60857502Y-105090000D01*
X24701500Y-104140000D02*
X20891500Y-104140000D01*
X69205990Y-103114990D02*
X62302510Y-103114990D01*
X62302510Y-103114990D02*
X61785500Y-103632000D01*
X43434000Y-109346997D02*
X44196003Y-109346997D01*
X44196003Y-109346997D02*
X49276000Y-104267000D01*
X66040000Y-105376500D02*
X66040000Y-106362500D01*
X64803500Y-104140000D02*
X66040000Y-105376500D01*
X49693403Y-102652403D02*
X49212500Y-103133306D01*
X49212500Y-103133306D02*
X49212500Y-103695500D01*
X25680000Y-96240000D02*
X24130000Y-97790000D01*
X32343750Y-96240000D02*
X25680000Y-96240000D01*
X33194750Y-97091000D02*
X32343750Y-96240000D01*
X28829000Y-106045000D02*
X28702000Y-105918000D01*
X30445000Y-106045000D02*
X28829000Y-106045000D01*
X43180000Y-95441010D02*
X45149010Y-95441010D01*
X24905999Y-101417001D02*
X26993998Y-103505000D01*
X26993998Y-103505000D02*
X30545000Y-103505000D01*
X22677001Y-101417001D02*
X24905999Y-101417001D01*
X21590000Y-100330000D02*
X22677001Y-101417001D01*
X31687000Y-110935000D02*
X31496000Y-110744000D01*
X33096200Y-110935000D02*
X31687000Y-110935000D01*
X26797000Y-102235000D02*
X26098500Y-101536500D01*
X30445000Y-102235000D02*
X26797000Y-102235000D01*
X21590000Y-110490000D02*
X24130000Y-110490000D01*
X24130000Y-110490000D02*
X25908000Y-108712000D01*
X25908000Y-108712000D02*
X30226000Y-108712000D01*
X30226000Y-108712000D02*
X30594768Y-108712000D01*
X37179500Y-97091000D02*
X36652232Y-97091000D01*
X33236400Y-108712000D02*
X30988000Y-108712000D01*
X37109400Y-112585000D02*
X33236400Y-108712000D01*
X33274000Y-108674400D02*
X33274000Y-102719000D01*
X33236400Y-108712000D02*
X33274000Y-108674400D01*
X85477501Y-96717001D02*
X85477501Y-105530499D01*
X84518500Y-95758000D02*
X85477501Y-96717001D01*
X85477501Y-105530499D02*
X84328000Y-106680000D01*
X62839510Y-94957990D02*
X62801500Y-94996000D01*
X83718490Y-94957990D02*
X62839510Y-94957990D01*
X84518500Y-95758000D02*
X83718490Y-94957990D01*
X35533000Y-97091500D02*
X37084000Y-97091500D01*
X30168232Y-100965000D02*
X30353000Y-100965000D01*
X30445000Y-100965000D02*
X31623000Y-100965000D01*
X35514750Y-97073250D02*
X35533000Y-97091500D01*
X31623000Y-100965000D02*
X35514750Y-97073250D01*
X33274000Y-102719000D02*
X31520000Y-100965000D01*
X31520000Y-100965000D02*
X30545000Y-100965000D01*
X31845010Y-100742990D02*
X31623000Y-100965000D01*
X29570000Y-100965000D02*
X30545000Y-100965000D01*
X29244990Y-100639990D02*
X29570000Y-100965000D01*
X29244990Y-97810010D02*
X29244990Y-100639990D01*
X30040000Y-97015000D02*
X29244990Y-97810010D01*
X32512000Y-107442000D02*
X30988000Y-107442000D01*
X39624000Y-108712000D02*
X40004997Y-109346997D01*
X40004997Y-109346997D02*
X41784000Y-109346997D01*
X41721416Y-107940010D02*
X36585990Y-107940010D01*
X41784000Y-107877426D02*
X41721416Y-107940010D01*
X36585990Y-107940010D02*
X36068000Y-108458000D01*
X36576000Y-107188000D02*
X35814000Y-107188000D01*
X41784000Y-106407855D02*
X41003855Y-107188000D01*
X41003855Y-107188000D02*
X35814000Y-107188000D01*
X36576000Y-105918000D02*
X36068000Y-105918000D01*
X41784000Y-104938284D02*
X40804284Y-105918000D01*
X40804284Y-105918000D02*
X35814000Y-105918000D01*
X36576000Y-104648000D02*
X36068000Y-104648000D01*
X41784000Y-103468713D02*
X40604713Y-104648000D01*
X40604713Y-104648000D02*
X35814000Y-104648000D01*
X41784000Y-101999142D02*
X40405142Y-103378000D01*
X40405142Y-103378000D02*
X36068000Y-103378000D01*
X41784000Y-100529571D02*
X40205571Y-102108000D01*
X40205571Y-102108000D02*
X35560000Y-102108000D01*
X41784000Y-99060000D02*
X40006000Y-100838000D01*
X40006000Y-100838000D02*
X35814000Y-100838000D01*
X33194750Y-95441000D02*
X37210500Y-95441000D01*
X38011009Y-94609491D02*
X37179500Y-95441000D01*
X61341989Y-94609491D02*
X38011009Y-94609491D01*
X65665498Y-98933000D02*
X61341989Y-94609491D01*
X67564000Y-98933000D02*
X65665498Y-98933000D01*
X43243000Y-97091000D02*
X43180000Y-97028000D01*
X45149000Y-97091000D02*
X43243000Y-97091000D01*
X37084000Y-110998000D02*
X37338000Y-110744000D01*
X37109400Y-109194600D02*
X37592000Y-108712000D01*
X37109400Y-110935000D02*
X37109400Y-109194600D01*
X60372500Y-104140000D02*
X60372500Y-103965500D01*
X60372500Y-103965500D02*
X62420500Y-101917500D01*
X61094674Y-99877826D02*
X62230000Y-101013152D01*
X59245500Y-98679000D02*
X59690000Y-98679000D01*
X59690000Y-98679000D02*
X60579000Y-99568000D01*
X57086500Y-98298000D02*
X58674000Y-98298000D01*
X57086500Y-98298000D02*
X55562500Y-98298000D01*
X55562500Y-98298000D02*
X55435500Y-98425000D01*
X54927500Y-98679000D02*
X54546500Y-98679000D01*
X54546500Y-98679000D02*
X53530500Y-99695000D01*
X53022500Y-99949000D02*
X51943000Y-101028500D01*
X51943000Y-101028500D02*
X51943000Y-101346000D01*
X51244500Y-104140000D02*
X51244500Y-102616000D01*
X51244500Y-102616000D02*
X51562000Y-102298500D01*
X62230000Y-101013152D02*
X62230000Y-101600000D01*
X54001501Y-104115001D02*
X54001501Y-104176999D01*
X53022500Y-108303087D02*
X51943000Y-107223587D01*
X51943000Y-107223587D02*
X51943000Y-106807000D01*
X54864000Y-109537500D02*
X54546500Y-109537500D01*
X54546500Y-109537500D02*
X53530500Y-108521500D01*
X57086500Y-109982000D02*
X55372000Y-109982000D01*
X55372000Y-109982000D02*
X55245000Y-109855000D01*
X57086500Y-109982000D02*
X58801000Y-109982000D01*
X58801000Y-109982000D02*
X58991500Y-109791500D01*
X59372500Y-109537500D02*
X59817000Y-109537500D01*
X59817000Y-109537500D02*
X60833000Y-108521500D01*
X60833000Y-108521500D02*
X60896500Y-108521500D01*
X61277500Y-108267500D02*
X62293500Y-107251500D01*
X62293500Y-107251500D02*
X62293500Y-106743500D01*
X62293500Y-106743500D02*
X62357000Y-106680000D01*
X62928500Y-104140000D02*
X62928500Y-105854500D01*
X62928500Y-105854500D02*
X62801500Y-105981500D01*
X54001501Y-104115001D02*
X54585001Y-104115001D01*
X54864000Y-104394000D02*
X54864000Y-109537500D01*
X54585001Y-104115001D02*
X54864000Y-104394000D01*
X43434000Y-107877426D02*
X43443074Y-107877426D01*
X43443074Y-107877426D02*
X49847500Y-101473000D01*
X64239137Y-106639363D02*
X65151000Y-105727500D01*
X64239137Y-107038766D02*
X64239137Y-106639363D01*
X50347250Y-99686750D02*
X50347250Y-100719250D01*
X43434000Y-106407855D02*
X44691097Y-105150758D01*
X44691097Y-105150758D02*
X44691097Y-104317597D01*
X50520194Y-98488500D02*
X51371500Y-98488500D01*
X51371500Y-98488500D02*
X51562000Y-98679000D01*
X62618674Y-109593326D02*
X63754000Y-108458000D01*
X62603326Y-109593326D02*
X62618674Y-109593326D01*
X44691097Y-104317597D02*
X50520194Y-98488500D01*
X50783945Y-102417831D02*
X50783945Y-101452811D01*
X50431990Y-102769786D02*
X50783945Y-102417831D01*
X50783945Y-101452811D02*
X51625500Y-100611256D01*
X51625500Y-100611256D02*
X51625500Y-98933000D01*
X50431990Y-104635010D02*
X50431990Y-102769786D01*
X49403000Y-105664000D02*
X50431990Y-104635010D01*
X50812845Y-97559439D02*
X53443561Y-97559439D01*
X43434000Y-104938284D02*
X50812845Y-97559439D01*
X53443561Y-97559439D02*
X54038500Y-96964500D01*
X62205728Y-111269774D02*
X67627500Y-105848002D01*
X67627500Y-105848002D02*
X67627500Y-103839990D01*
X60090032Y-111269774D02*
X62205728Y-111269774D01*
X55562500Y-96703171D02*
X54744329Y-96703171D01*
X54744329Y-96703171D02*
X54610000Y-96837500D01*
X51757703Y-95978171D02*
X56798671Y-95978171D01*
X44267161Y-103468713D02*
X51757703Y-95978171D01*
X43434000Y-103468713D02*
X44267161Y-103468713D01*
X56798671Y-95978171D02*
X57086500Y-96266000D01*
X42509010Y-109639485D02*
X45107854Y-112238329D01*
X45107854Y-112238329D02*
X56925671Y-112238329D01*
X42509010Y-104393703D02*
X42509010Y-109639485D01*
X43434000Y-103468713D02*
X42509010Y-104393703D01*
X51571303Y-95528161D02*
X58761661Y-95528161D01*
X45100322Y-101999142D02*
X51571303Y-95528161D01*
X43434000Y-101999142D02*
X45100322Y-101999142D01*
X58761661Y-95528161D02*
X59880500Y-96647000D01*
X70977501Y-107137001D02*
X70977501Y-100240999D01*
X54519584Y-110896658D02*
X58184530Y-110896658D01*
X59526201Y-112238329D02*
X65876173Y-112238329D01*
X54146468Y-111269774D02*
X54519584Y-110896658D01*
X58184530Y-110896658D02*
X59526201Y-112238329D01*
X65876173Y-112238329D02*
X70977501Y-107137001D01*
X70662411Y-99925909D02*
X70977501Y-100240999D01*
X62414549Y-99925909D02*
X70662411Y-99925909D01*
X59963032Y-97474392D02*
X62414549Y-99925909D01*
X59963032Y-96946726D02*
X59963032Y-97474392D01*
X43434000Y-100529571D02*
X45933483Y-100529571D01*
X54184151Y-95078151D02*
X60026151Y-95078151D01*
X54165500Y-95059500D02*
X54184151Y-95078151D01*
X51403554Y-95059500D02*
X54165500Y-95059500D01*
X60026151Y-95078151D02*
X62230000Y-97282000D01*
X62230000Y-97282000D02*
X62230000Y-98171000D01*
X45933483Y-100529571D02*
X51403554Y-95059500D01*
X50454587Y-110871000D02*
X44958000Y-110871000D01*
X51696674Y-109628913D02*
X50454587Y-110871000D01*
X44229829Y-112688339D02*
X67397661Y-112688339D01*
X67397661Y-112688339D02*
X67564000Y-112522000D01*
X42545000Y-111125000D02*
X44229829Y-112688339D01*
X63944500Y-98552000D02*
X62420500Y-98552000D01*
X64452500Y-98933000D02*
X63944500Y-98552000D01*
X44767500Y-99377500D02*
X43497500Y-99377500D01*
X49556694Y-106680000D02*
X50020226Y-107143532D01*
X39497000Y-111125000D02*
X38608000Y-110236000D01*
X41351055Y-111125000D02*
X39497000Y-111125000D01*
X48514000Y-106680000D02*
X49556694Y-106680000D01*
X64222242Y-100940000D02*
X64152774Y-101009468D01*
X66240000Y-100940000D02*
X64222242Y-100940000D01*
X58372500Y-102314500D02*
X57785000Y-101727000D01*
X58372500Y-103190000D02*
X58372500Y-102314500D01*
X56001501Y-107944501D02*
X56007000Y-107950000D01*
X56001501Y-105065001D02*
X56001501Y-107944501D01*
X84152500Y-101501000D02*
X84152500Y-96916000D01*
X84152500Y-96916000D02*
X83121500Y-95885000D01*
X82968500Y-95758000D02*
X63754000Y-95758000D01*
X43820439Y-96209022D02*
X41980022Y-96209022D01*
X41980022Y-96209022D02*
X41402000Y-95631000D01*
X33821210Y-113310010D02*
X80999990Y-113310010D01*
X33096200Y-112585000D02*
X33821210Y-113310010D01*
X80999990Y-113310010D02*
X82613500Y-111696500D01*
X82613500Y-111696500D02*
X82613500Y-102997000D01*
X82613500Y-102997000D02*
X84010500Y-101600000D01*
X29321589Y-94427354D02*
X29211622Y-94486133D01*
X29115236Y-94565236D01*
X29036133Y-94661622D01*
X28977354Y-94771589D01*
X28941159Y-94890910D01*
X28928937Y-95015000D01*
X28932000Y-95177750D01*
X29090250Y-95336000D01*
X29911000Y-95336000D01*
X29911000Y-95316000D01*
X30169000Y-95316000D01*
X30169000Y-95336000D01*
X30989750Y-95336000D01*
X31148000Y-95177750D01*
X31151063Y-95015000D01*
X31138841Y-94890910D01*
X31102646Y-94771589D01*
X31043867Y-94661622D01*
X30964764Y-94565236D01*
X30868378Y-94486133D01*
X30758411Y-94427354D01*
X30717685Y-94415000D01*
X37498393Y-94415000D01*
X37249208Y-94664186D01*
X36904500Y-94664186D01*
X36791969Y-94675269D01*
X36683763Y-94708093D01*
X36584039Y-94761397D01*
X36496631Y-94833131D01*
X36424897Y-94920539D01*
X36413960Y-94941000D01*
X33960290Y-94941000D01*
X33949353Y-94920539D01*
X33877619Y-94833131D01*
X33790211Y-94761397D01*
X33690487Y-94708093D01*
X33582281Y-94675269D01*
X33469750Y-94664186D01*
X32919750Y-94664186D01*
X32807219Y-94675269D01*
X32699013Y-94708093D01*
X32599289Y-94761397D01*
X32511881Y-94833131D01*
X32440147Y-94920539D01*
X32386843Y-95020263D01*
X32354019Y-95128469D01*
X32342936Y-95241000D01*
X32342936Y-95641000D01*
X32352533Y-95738446D01*
X32343750Y-95737581D01*
X32319190Y-95740000D01*
X31135750Y-95740000D01*
X30989750Y-95594000D01*
X30169000Y-95594000D01*
X30169000Y-95614000D01*
X29911000Y-95614000D01*
X29911000Y-95594000D01*
X29090250Y-95594000D01*
X28944250Y-95740000D01*
X25704559Y-95740000D01*
X25679999Y-95737581D01*
X25581982Y-95747235D01*
X25546495Y-95758000D01*
X25487733Y-95775825D01*
X25400871Y-95822254D01*
X25324736Y-95884736D01*
X25309075Y-95903819D01*
X24561708Y-96651186D01*
X23368000Y-96651186D01*
X23294487Y-96658426D01*
X23223800Y-96679869D01*
X23158653Y-96714691D01*
X23101552Y-96761552D01*
X23054691Y-96818653D01*
X23019869Y-96883800D01*
X22998426Y-96954487D01*
X22991186Y-97028000D01*
X22991186Y-98552000D01*
X22998426Y-98625513D01*
X23019869Y-98696200D01*
X23054691Y-98761347D01*
X23101552Y-98818448D01*
X23158653Y-98865309D01*
X23223800Y-98900131D01*
X23294487Y-98921574D01*
X23368000Y-98928814D01*
X24892000Y-98928814D01*
X24965513Y-98921574D01*
X25036200Y-98900131D01*
X25101347Y-98865309D01*
X25158448Y-98818448D01*
X25205309Y-98761347D01*
X25240131Y-98696200D01*
X25261574Y-98625513D01*
X25268814Y-98552000D01*
X25268814Y-97358292D01*
X25887106Y-96740000D01*
X29193111Y-96740000D01*
X29188186Y-96790000D01*
X29188186Y-97159709D01*
X28908814Y-97439081D01*
X28889726Y-97454746D01*
X28827244Y-97530881D01*
X28780815Y-97617744D01*
X28762532Y-97678015D01*
X28752225Y-97711993D01*
X28742571Y-97810010D01*
X28744990Y-97834570D01*
X28744991Y-100615420D01*
X28742571Y-100639990D01*
X28752225Y-100738007D01*
X28775581Y-100815000D01*
X28780816Y-100832257D01*
X28827245Y-100919119D01*
X28889727Y-100995254D01*
X28908809Y-101010914D01*
X29199075Y-101301181D01*
X29214736Y-101320264D01*
X29251270Y-101350246D01*
X29281970Y-101407682D01*
X29347486Y-101487514D01*
X29427318Y-101553030D01*
X29515192Y-101600000D01*
X29427318Y-101646970D01*
X29347486Y-101712486D01*
X29329009Y-101735000D01*
X27004106Y-101735000D01*
X26873500Y-101604394D01*
X26873500Y-101460169D01*
X26843717Y-101310441D01*
X26785296Y-101169400D01*
X26700482Y-101042466D01*
X26592534Y-100934518D01*
X26465600Y-100849704D01*
X26324559Y-100791283D01*
X26174831Y-100761500D01*
X26022169Y-100761500D01*
X25872441Y-100791283D01*
X25731400Y-100849704D01*
X25604466Y-100934518D01*
X25496518Y-101042466D01*
X25411704Y-101169400D01*
X25398172Y-101202069D01*
X25276928Y-101080825D01*
X25261263Y-101061737D01*
X25185128Y-100999255D01*
X25098266Y-100952826D01*
X25084158Y-100948546D01*
X25137596Y-100868571D01*
X25223305Y-100661651D01*
X25267000Y-100441985D01*
X25267000Y-100218015D01*
X25223305Y-99998349D01*
X25137596Y-99791429D01*
X25013165Y-99605205D01*
X24854795Y-99446835D01*
X24668571Y-99322404D01*
X24461651Y-99236695D01*
X24241985Y-99193000D01*
X24018015Y-99193000D01*
X23798349Y-99236695D01*
X23591429Y-99322404D01*
X23405205Y-99446835D01*
X23246835Y-99605205D01*
X23122404Y-99791429D01*
X23036695Y-99998349D01*
X22993000Y-100218015D01*
X22993000Y-100441985D01*
X23036695Y-100661651D01*
X23122404Y-100868571D01*
X23154764Y-100917001D01*
X22884108Y-100917001D01*
X22667328Y-100700222D01*
X22683305Y-100661651D01*
X22727000Y-100441985D01*
X22727000Y-100218015D01*
X22683305Y-99998349D01*
X22597596Y-99791429D01*
X22473165Y-99605205D01*
X22314795Y-99446835D01*
X22128571Y-99322404D01*
X21921651Y-99236695D01*
X21701985Y-99193000D01*
X21478015Y-99193000D01*
X21258349Y-99236695D01*
X21051429Y-99322404D01*
X20865205Y-99446835D01*
X20706835Y-99605205D01*
X20582404Y-99791429D01*
X20496695Y-99998349D01*
X20453000Y-100218015D01*
X20453000Y-100441985D01*
X20496695Y-100661651D01*
X20582404Y-100868571D01*
X20706835Y-101054795D01*
X20865205Y-101213165D01*
X21051429Y-101337596D01*
X21258349Y-101423305D01*
X21478015Y-101467000D01*
X21701985Y-101467000D01*
X21921651Y-101423305D01*
X21960222Y-101407328D01*
X22306080Y-101753187D01*
X22321737Y-101772265D01*
X22397872Y-101834747D01*
X22484734Y-101881176D01*
X22570479Y-101907186D01*
X22578984Y-101909766D01*
X22677001Y-101919420D01*
X22701561Y-101917001D01*
X23509719Y-101917001D01*
X23405205Y-101986835D01*
X23246835Y-102145205D01*
X23122404Y-102331429D01*
X23036695Y-102538349D01*
X22993000Y-102758015D01*
X22993000Y-102981985D01*
X23036695Y-103201651D01*
X23122404Y-103408571D01*
X23246835Y-103594795D01*
X23405205Y-103753165D01*
X23591429Y-103877596D01*
X23798349Y-103963305D01*
X24018015Y-104007000D01*
X24241985Y-104007000D01*
X24461651Y-103963305D01*
X24668571Y-103877596D01*
X24854795Y-103753165D01*
X25013165Y-103594795D01*
X25137596Y-103408571D01*
X25223305Y-103201651D01*
X25267000Y-102981985D01*
X25267000Y-102758015D01*
X25223305Y-102538349D01*
X25154761Y-102372868D01*
X26623078Y-103841187D01*
X26638734Y-103860264D01*
X26714869Y-103922746D01*
X26801731Y-103969175D01*
X26895981Y-103997765D01*
X26993998Y-104007419D01*
X27018558Y-104005000D01*
X29144893Y-104005000D01*
X29120236Y-104025236D01*
X29041133Y-104121622D01*
X28982354Y-104231589D01*
X28946159Y-104350910D01*
X28933937Y-104475000D01*
X28937000Y-104487750D01*
X29095250Y-104646000D01*
X30416000Y-104646000D01*
X30416000Y-104626000D01*
X30674000Y-104626000D01*
X30674000Y-104646000D01*
X31994750Y-104646000D01*
X32153000Y-104487750D01*
X32156063Y-104475000D01*
X32143841Y-104350910D01*
X32107646Y-104231589D01*
X32048867Y-104121622D01*
X31969764Y-104025236D01*
X31873378Y-103946133D01*
X31823195Y-103919310D01*
X31856713Y-103856603D01*
X31886691Y-103757776D01*
X31896814Y-103655000D01*
X31896814Y-103355000D01*
X31886691Y-103252224D01*
X31856713Y-103153397D01*
X31808030Y-103062318D01*
X31742514Y-102982486D01*
X31662682Y-102916970D01*
X31574808Y-102870000D01*
X31662682Y-102823030D01*
X31742514Y-102757514D01*
X31808030Y-102677682D01*
X31856713Y-102586603D01*
X31886691Y-102487776D01*
X31896814Y-102385000D01*
X31896814Y-102085000D01*
X31892872Y-102044978D01*
X32774001Y-102926108D01*
X32774000Y-106711670D01*
X32738059Y-106696783D01*
X32588331Y-106667000D01*
X32435669Y-106667000D01*
X32285941Y-106696783D01*
X32144900Y-106755204D01*
X32017966Y-106840018D01*
X31915984Y-106942000D01*
X31845276Y-106942000D01*
X31808030Y-106872318D01*
X31742514Y-106792486D01*
X31662682Y-106726970D01*
X31574808Y-106680000D01*
X31662682Y-106633030D01*
X31742514Y-106567514D01*
X31808030Y-106487682D01*
X31856713Y-106396603D01*
X31886691Y-106297776D01*
X31896814Y-106195000D01*
X31896814Y-105895000D01*
X31886691Y-105792224D01*
X31856713Y-105693397D01*
X31823195Y-105630690D01*
X31873378Y-105603867D01*
X31969764Y-105524764D01*
X32048867Y-105428378D01*
X32107646Y-105318411D01*
X32143841Y-105199090D01*
X32156063Y-105075000D01*
X32153000Y-105062250D01*
X31994750Y-104904000D01*
X30674000Y-104904000D01*
X30674000Y-104924000D01*
X30416000Y-104924000D01*
X30416000Y-104904000D01*
X29095250Y-104904000D01*
X28937000Y-105062250D01*
X28933937Y-105075000D01*
X28944228Y-105179480D01*
X28928059Y-105172783D01*
X28778331Y-105143000D01*
X28625669Y-105143000D01*
X28475941Y-105172783D01*
X28334900Y-105231204D01*
X28207966Y-105316018D01*
X28100018Y-105423966D01*
X28015204Y-105550900D01*
X27956783Y-105691941D01*
X27927000Y-105841669D01*
X27927000Y-105994331D01*
X27956783Y-106144059D01*
X28015204Y-106285100D01*
X28100018Y-106412034D01*
X28207966Y-106519982D01*
X28334900Y-106604796D01*
X28475941Y-106663217D01*
X28625669Y-106693000D01*
X28778331Y-106693000D01*
X28928059Y-106663217D01*
X29069100Y-106604796D01*
X29158592Y-106545000D01*
X29329009Y-106545000D01*
X29347486Y-106567514D01*
X29427318Y-106633030D01*
X29515192Y-106680000D01*
X29427318Y-106726970D01*
X29347486Y-106792486D01*
X29281970Y-106872318D01*
X29233287Y-106963397D01*
X29203309Y-107062224D01*
X29193186Y-107165000D01*
X29193186Y-107465000D01*
X29203309Y-107567776D01*
X29233287Y-107666603D01*
X29281970Y-107757682D01*
X29347486Y-107837514D01*
X29427318Y-107903030D01*
X29515192Y-107950000D01*
X29427318Y-107996970D01*
X29347486Y-108062486D01*
X29281970Y-108142318D01*
X29244724Y-108212000D01*
X25932560Y-108212000D01*
X25908000Y-108209581D01*
X25883440Y-108212000D01*
X25809983Y-108219235D01*
X25715733Y-108247825D01*
X25628871Y-108294254D01*
X25552736Y-108356736D01*
X25537080Y-108375813D01*
X25412765Y-108500128D01*
X25451595Y-108417216D01*
X25517350Y-108150407D01*
X25529790Y-107875898D01*
X25488437Y-107604236D01*
X25394880Y-107345862D01*
X25335051Y-107233931D01*
X25095760Y-107166673D01*
X24312434Y-107950000D01*
X24326576Y-107964142D01*
X24144142Y-108146576D01*
X24130000Y-108132434D01*
X23346673Y-108915760D01*
X23413931Y-109155051D01*
X23662784Y-109271595D01*
X23929593Y-109337350D01*
X24204102Y-109349790D01*
X24475764Y-109308437D01*
X24677508Y-109235385D01*
X24500222Y-109412672D01*
X24461651Y-109396695D01*
X24241985Y-109353000D01*
X24018015Y-109353000D01*
X23798349Y-109396695D01*
X23591429Y-109482404D01*
X23405205Y-109606835D01*
X23246835Y-109765205D01*
X23122404Y-109951429D01*
X23106427Y-109990000D01*
X22613573Y-109990000D01*
X22597596Y-109951429D01*
X22473165Y-109765205D01*
X22314795Y-109606835D01*
X22128571Y-109482404D01*
X21921651Y-109396695D01*
X21701985Y-109353000D01*
X21478015Y-109353000D01*
X21258349Y-109396695D01*
X21051429Y-109482404D01*
X20865205Y-109606835D01*
X20706835Y-109765205D01*
X20582404Y-109951429D01*
X20496695Y-110158349D01*
X20453000Y-110378015D01*
X20453000Y-110601985D01*
X20496695Y-110821651D01*
X20582404Y-111028571D01*
X20706835Y-111214795D01*
X20865205Y-111373165D01*
X21051429Y-111497596D01*
X21258349Y-111583305D01*
X21478015Y-111627000D01*
X21701985Y-111627000D01*
X21921651Y-111583305D01*
X22128571Y-111497596D01*
X22314795Y-111373165D01*
X22473165Y-111214795D01*
X22597596Y-111028571D01*
X22613573Y-110990000D01*
X23106427Y-110990000D01*
X23122404Y-111028571D01*
X23246835Y-111214795D01*
X23405205Y-111373165D01*
X23591429Y-111497596D01*
X23798349Y-111583305D01*
X24018015Y-111627000D01*
X24241985Y-111627000D01*
X24461651Y-111583305D01*
X24668571Y-111497596D01*
X24854795Y-111373165D01*
X25013165Y-111214795D01*
X25137596Y-111028571D01*
X25223305Y-110821651D01*
X25253934Y-110667669D01*
X30721000Y-110667669D01*
X30721000Y-110820331D01*
X30750783Y-110970059D01*
X30809204Y-111111100D01*
X30894018Y-111238034D01*
X31001966Y-111345982D01*
X31128900Y-111430796D01*
X31269941Y-111489217D01*
X31419669Y-111519000D01*
X31572331Y-111519000D01*
X31722059Y-111489217D01*
X31852951Y-111435000D01*
X32330660Y-111435000D01*
X32341597Y-111455461D01*
X32413331Y-111542869D01*
X32500739Y-111614603D01*
X32600463Y-111667907D01*
X32708669Y-111700731D01*
X32821200Y-111711814D01*
X33371200Y-111711814D01*
X33483731Y-111700731D01*
X33591937Y-111667907D01*
X33691661Y-111614603D01*
X33779069Y-111542869D01*
X33850803Y-111455461D01*
X33904107Y-111355737D01*
X33936931Y-111247531D01*
X33948014Y-111135000D01*
X33948014Y-110735000D01*
X33936931Y-110622469D01*
X33904107Y-110514263D01*
X33850803Y-110414539D01*
X33779069Y-110327131D01*
X33691661Y-110255397D01*
X33591937Y-110202093D01*
X33483731Y-110169269D01*
X33371200Y-110158186D01*
X32821200Y-110158186D01*
X32708669Y-110169269D01*
X32600463Y-110202093D01*
X32500739Y-110255397D01*
X32413331Y-110327131D01*
X32341597Y-110414539D01*
X32330660Y-110435000D01*
X32206862Y-110435000D01*
X32182796Y-110376900D01*
X32097982Y-110249966D01*
X31990034Y-110142018D01*
X31863100Y-110057204D01*
X31722059Y-109998783D01*
X31572331Y-109969000D01*
X31419669Y-109969000D01*
X31269941Y-109998783D01*
X31128900Y-110057204D01*
X31001966Y-110142018D01*
X30894018Y-110249966D01*
X30809204Y-110376900D01*
X30750783Y-110517941D01*
X30721000Y-110667669D01*
X25253934Y-110667669D01*
X25267000Y-110601985D01*
X25267000Y-110378015D01*
X25223305Y-110158349D01*
X25207328Y-110119778D01*
X26115107Y-109212000D01*
X29500225Y-109212000D01*
X29518397Y-109221713D01*
X29617224Y-109251691D01*
X29720000Y-109261814D01*
X31370000Y-109261814D01*
X31472776Y-109251691D01*
X31571603Y-109221713D01*
X31589775Y-109212000D01*
X33029295Y-109212000D01*
X36257586Y-112440292D01*
X36257586Y-112785000D01*
X36260049Y-112810010D01*
X34028316Y-112810010D01*
X33948014Y-112729708D01*
X33948014Y-112385000D01*
X33936931Y-112272469D01*
X33904107Y-112164263D01*
X33850803Y-112064539D01*
X33779069Y-111977131D01*
X33691661Y-111905397D01*
X33591937Y-111852093D01*
X33483731Y-111819269D01*
X33371200Y-111808186D01*
X32821200Y-111808186D01*
X32708669Y-111819269D01*
X32600463Y-111852093D01*
X32500739Y-111905397D01*
X32413331Y-111977131D01*
X32341597Y-112064539D01*
X32288293Y-112164263D01*
X32255469Y-112272469D01*
X32244386Y-112385000D01*
X32244386Y-112785000D01*
X32255469Y-112897531D01*
X32288293Y-113005737D01*
X32341597Y-113105461D01*
X32413331Y-113192869D01*
X32500739Y-113264603D01*
X32600463Y-113317907D01*
X32708669Y-113350731D01*
X32821200Y-113361814D01*
X33165908Y-113361814D01*
X33450285Y-113646191D01*
X33465946Y-113665274D01*
X33542081Y-113727756D01*
X33628943Y-113774185D01*
X33694602Y-113794102D01*
X33723192Y-113802775D01*
X33821210Y-113812429D01*
X33845770Y-113810010D01*
X80975430Y-113810010D01*
X80999990Y-113812429D01*
X81024550Y-113810010D01*
X81098007Y-113802775D01*
X81192257Y-113774185D01*
X81279119Y-113727756D01*
X81355254Y-113665274D01*
X81370919Y-113646186D01*
X82949687Y-112067420D01*
X82968764Y-112051764D01*
X83031246Y-111975629D01*
X83077675Y-111888767D01*
X83106265Y-111794517D01*
X83113500Y-111721060D01*
X83113500Y-111721059D01*
X83115919Y-111696500D01*
X83113500Y-111671940D01*
X83113500Y-107406543D01*
X83275989Y-107569032D01*
X83501193Y-107719509D01*
X83751427Y-107823159D01*
X84017074Y-107876000D01*
X84287926Y-107876000D01*
X84553573Y-107823159D01*
X84803807Y-107719509D01*
X85029011Y-107569032D01*
X85220532Y-107377511D01*
X85371009Y-107152307D01*
X85474659Y-106902073D01*
X85527500Y-106636426D01*
X85527500Y-106365574D01*
X85497973Y-106217133D01*
X85813688Y-105901419D01*
X85832765Y-105885763D01*
X85895247Y-105809628D01*
X85941676Y-105722766D01*
X85970266Y-105628516D01*
X85977501Y-105555059D01*
X85979920Y-105530499D01*
X85977501Y-105505939D01*
X85977501Y-96741558D01*
X85979920Y-96717000D01*
X85976982Y-96687171D01*
X85970266Y-96618984D01*
X85941676Y-96524734D01*
X85895247Y-96437872D01*
X85832765Y-96361737D01*
X85813688Y-96346081D01*
X85345314Y-95877708D01*
X85345314Y-95508000D01*
X85333750Y-95390592D01*
X85299504Y-95277696D01*
X85243890Y-95173650D01*
X85169047Y-95082453D01*
X85077850Y-95007610D01*
X84973804Y-94951996D01*
X84860908Y-94917750D01*
X84743500Y-94906186D01*
X84373791Y-94906186D01*
X84089419Y-94621814D01*
X84073754Y-94602726D01*
X83997619Y-94540244D01*
X83910757Y-94493815D01*
X83816507Y-94465225D01*
X83743050Y-94457990D01*
X83718490Y-94455571D01*
X83693930Y-94457990D01*
X63359506Y-94457990D01*
X63316516Y-94415000D01*
X84370224Y-94415000D01*
X84799958Y-94457136D01*
X85192859Y-94575759D01*
X85555233Y-94768437D01*
X85873285Y-95027833D01*
X86134895Y-95344066D01*
X86330099Y-95705089D01*
X86451462Y-96097151D01*
X86496500Y-96525655D01*
X86496501Y-111738713D01*
X86454364Y-112168458D01*
X86335740Y-112561360D01*
X86143063Y-112923733D01*
X85883667Y-113241785D01*
X85567434Y-113503395D01*
X85206411Y-113698599D01*
X84814349Y-113819962D01*
X84385845Y-113865000D01*
X18215000Y-113865000D01*
X18215000Y-108915760D01*
X20806673Y-108915760D01*
X20873931Y-109155051D01*
X21122784Y-109271595D01*
X21389593Y-109337350D01*
X21664102Y-109349790D01*
X21935764Y-109308437D01*
X22194138Y-109214880D01*
X22306069Y-109155051D01*
X22373327Y-108915760D01*
X21590000Y-108132434D01*
X20806673Y-108915760D01*
X18215000Y-108915760D01*
X18215000Y-108024102D01*
X20190210Y-108024102D01*
X20231563Y-108295764D01*
X20325120Y-108554138D01*
X20384949Y-108666069D01*
X20624240Y-108733327D01*
X21407566Y-107950000D01*
X21772434Y-107950000D01*
X22555760Y-108733327D01*
X22795051Y-108666069D01*
X22857424Y-108532885D01*
X22865120Y-108554138D01*
X22924949Y-108666069D01*
X23164240Y-108733327D01*
X23947566Y-107950000D01*
X23164240Y-107166673D01*
X22924949Y-107233931D01*
X22862576Y-107367115D01*
X22854880Y-107345862D01*
X22795051Y-107233931D01*
X22555760Y-107166673D01*
X21772434Y-107950000D01*
X21407566Y-107950000D01*
X20624240Y-107166673D01*
X20384949Y-107233931D01*
X20268405Y-107482784D01*
X20202650Y-107749593D01*
X20190210Y-108024102D01*
X18215000Y-108024102D01*
X18215000Y-106984240D01*
X20806673Y-106984240D01*
X21590000Y-107767566D01*
X22373327Y-106984240D01*
X23346673Y-106984240D01*
X24130000Y-107767566D01*
X24913327Y-106984240D01*
X24846069Y-106744949D01*
X24597216Y-106628405D01*
X24330407Y-106562650D01*
X24055898Y-106550210D01*
X23784236Y-106591563D01*
X23525862Y-106685120D01*
X23413931Y-106744949D01*
X23346673Y-106984240D01*
X22373327Y-106984240D01*
X22306069Y-106744949D01*
X22057216Y-106628405D01*
X21790407Y-106562650D01*
X21515898Y-106550210D01*
X21244236Y-106591563D01*
X20985862Y-106685120D01*
X20873931Y-106744949D01*
X20806673Y-106984240D01*
X18215000Y-106984240D01*
X18215000Y-105298015D01*
X20453000Y-105298015D01*
X20453000Y-105521985D01*
X20496695Y-105741651D01*
X20582404Y-105948571D01*
X20706835Y-106134795D01*
X20865205Y-106293165D01*
X21051429Y-106417596D01*
X21258349Y-106503305D01*
X21478015Y-106547000D01*
X21701985Y-106547000D01*
X21921651Y-106503305D01*
X22128571Y-106417596D01*
X22314795Y-106293165D01*
X22473165Y-106134795D01*
X22597596Y-105948571D01*
X22683305Y-105741651D01*
X22727000Y-105521985D01*
X22727000Y-105298015D01*
X22993000Y-105298015D01*
X22993000Y-105521985D01*
X23036695Y-105741651D01*
X23122404Y-105948571D01*
X23246835Y-106134795D01*
X23405205Y-106293165D01*
X23591429Y-106417596D01*
X23798349Y-106503305D01*
X24018015Y-106547000D01*
X24241985Y-106547000D01*
X24461651Y-106503305D01*
X24668571Y-106417596D01*
X24854795Y-106293165D01*
X25013165Y-106134795D01*
X25137596Y-105948571D01*
X25223305Y-105741651D01*
X25267000Y-105521985D01*
X25267000Y-105298015D01*
X25223305Y-105078349D01*
X25137596Y-104871429D01*
X25013165Y-104685205D01*
X24854795Y-104526835D01*
X24668571Y-104402404D01*
X24461651Y-104316695D01*
X24241985Y-104273000D01*
X24018015Y-104273000D01*
X23798349Y-104316695D01*
X23591429Y-104402404D01*
X23405205Y-104526835D01*
X23246835Y-104685205D01*
X23122404Y-104871429D01*
X23036695Y-105078349D01*
X22993000Y-105298015D01*
X22727000Y-105298015D01*
X22683305Y-105078349D01*
X22597596Y-104871429D01*
X22473165Y-104685205D01*
X22314795Y-104526835D01*
X22128571Y-104402404D01*
X21921651Y-104316695D01*
X21701985Y-104273000D01*
X21478015Y-104273000D01*
X21258349Y-104316695D01*
X21051429Y-104402404D01*
X20865205Y-104526835D01*
X20706835Y-104685205D01*
X20582404Y-104871429D01*
X20496695Y-105078349D01*
X20453000Y-105298015D01*
X18215000Y-105298015D01*
X18215000Y-102758015D01*
X20453000Y-102758015D01*
X20453000Y-102981985D01*
X20496695Y-103201651D01*
X20582404Y-103408571D01*
X20706835Y-103594795D01*
X20865205Y-103753165D01*
X21051429Y-103877596D01*
X21258349Y-103963305D01*
X21478015Y-104007000D01*
X21701985Y-104007000D01*
X21921651Y-103963305D01*
X22128571Y-103877596D01*
X22314795Y-103753165D01*
X22473165Y-103594795D01*
X22597596Y-103408571D01*
X22683305Y-103201651D01*
X22727000Y-102981985D01*
X22727000Y-102758015D01*
X22683305Y-102538349D01*
X22597596Y-102331429D01*
X22473165Y-102145205D01*
X22314795Y-101986835D01*
X22128571Y-101862404D01*
X21921651Y-101776695D01*
X21701985Y-101733000D01*
X21478015Y-101733000D01*
X21258349Y-101776695D01*
X21051429Y-101862404D01*
X20865205Y-101986835D01*
X20706835Y-102145205D01*
X20582404Y-102331429D01*
X20496695Y-102538349D01*
X20453000Y-102758015D01*
X18215000Y-102758015D01*
X18215000Y-97678015D01*
X20453000Y-97678015D01*
X20453000Y-97901985D01*
X20496695Y-98121651D01*
X20582404Y-98328571D01*
X20706835Y-98514795D01*
X20865205Y-98673165D01*
X21051429Y-98797596D01*
X21258349Y-98883305D01*
X21478015Y-98927000D01*
X21701985Y-98927000D01*
X21921651Y-98883305D01*
X22128571Y-98797596D01*
X22314795Y-98673165D01*
X22473165Y-98514795D01*
X22597596Y-98328571D01*
X22683305Y-98121651D01*
X22727000Y-97901985D01*
X22727000Y-97678015D01*
X22683305Y-97458349D01*
X22597596Y-97251429D01*
X22473165Y-97065205D01*
X22314795Y-96906835D01*
X22128571Y-96782404D01*
X21921651Y-96696695D01*
X21701985Y-96653000D01*
X21478015Y-96653000D01*
X21258349Y-96696695D01*
X21051429Y-96782404D01*
X20865205Y-96906835D01*
X20706835Y-97065205D01*
X20582404Y-97251429D01*
X20496695Y-97458349D01*
X20453000Y-97678015D01*
X18215000Y-97678015D01*
X18215000Y-94415000D01*
X29362315Y-94415000D01*
X29321589Y-94427354D01*
G04 #@! TA.AperFunction,Conductor*
D18*
G36*
X29321589Y-94427354D02*
G01*
X29211622Y-94486133D01*
X29115236Y-94565236D01*
X29036133Y-94661622D01*
X28977354Y-94771589D01*
X28941159Y-94890910D01*
X28928937Y-95015000D01*
X28932000Y-95177750D01*
X29090250Y-95336000D01*
X29911000Y-95336000D01*
X29911000Y-95316000D01*
X30169000Y-95316000D01*
X30169000Y-95336000D01*
X30989750Y-95336000D01*
X31148000Y-95177750D01*
X31151063Y-95015000D01*
X31138841Y-94890910D01*
X31102646Y-94771589D01*
X31043867Y-94661622D01*
X30964764Y-94565236D01*
X30868378Y-94486133D01*
X30758411Y-94427354D01*
X30717685Y-94415000D01*
X37498393Y-94415000D01*
X37249208Y-94664186D01*
X36904500Y-94664186D01*
X36791969Y-94675269D01*
X36683763Y-94708093D01*
X36584039Y-94761397D01*
X36496631Y-94833131D01*
X36424897Y-94920539D01*
X36413960Y-94941000D01*
X33960290Y-94941000D01*
X33949353Y-94920539D01*
X33877619Y-94833131D01*
X33790211Y-94761397D01*
X33690487Y-94708093D01*
X33582281Y-94675269D01*
X33469750Y-94664186D01*
X32919750Y-94664186D01*
X32807219Y-94675269D01*
X32699013Y-94708093D01*
X32599289Y-94761397D01*
X32511881Y-94833131D01*
X32440147Y-94920539D01*
X32386843Y-95020263D01*
X32354019Y-95128469D01*
X32342936Y-95241000D01*
X32342936Y-95641000D01*
X32352533Y-95738446D01*
X32343750Y-95737581D01*
X32319190Y-95740000D01*
X31135750Y-95740000D01*
X30989750Y-95594000D01*
X30169000Y-95594000D01*
X30169000Y-95614000D01*
X29911000Y-95614000D01*
X29911000Y-95594000D01*
X29090250Y-95594000D01*
X28944250Y-95740000D01*
X25704559Y-95740000D01*
X25679999Y-95737581D01*
X25581982Y-95747235D01*
X25546495Y-95758000D01*
X25487733Y-95775825D01*
X25400871Y-95822254D01*
X25324736Y-95884736D01*
X25309075Y-95903819D01*
X24561708Y-96651186D01*
X23368000Y-96651186D01*
X23294487Y-96658426D01*
X23223800Y-96679869D01*
X23158653Y-96714691D01*
X23101552Y-96761552D01*
X23054691Y-96818653D01*
X23019869Y-96883800D01*
X22998426Y-96954487D01*
X22991186Y-97028000D01*
X22991186Y-98552000D01*
X22998426Y-98625513D01*
X23019869Y-98696200D01*
X23054691Y-98761347D01*
X23101552Y-98818448D01*
X23158653Y-98865309D01*
X23223800Y-98900131D01*
X23294487Y-98921574D01*
X23368000Y-98928814D01*
X24892000Y-98928814D01*
X24965513Y-98921574D01*
X25036200Y-98900131D01*
X25101347Y-98865309D01*
X25158448Y-98818448D01*
X25205309Y-98761347D01*
X25240131Y-98696200D01*
X25261574Y-98625513D01*
X25268814Y-98552000D01*
X25268814Y-97358292D01*
X25887106Y-96740000D01*
X29193111Y-96740000D01*
X29188186Y-96790000D01*
X29188186Y-97159709D01*
X28908814Y-97439081D01*
X28889726Y-97454746D01*
X28827244Y-97530881D01*
X28780815Y-97617744D01*
X28762532Y-97678015D01*
X28752225Y-97711993D01*
X28742571Y-97810010D01*
X28744990Y-97834570D01*
X28744991Y-100615420D01*
X28742571Y-100639990D01*
X28752225Y-100738007D01*
X28775581Y-100815000D01*
X28780816Y-100832257D01*
X28827245Y-100919119D01*
X28889727Y-100995254D01*
X28908809Y-101010914D01*
X29199075Y-101301181D01*
X29214736Y-101320264D01*
X29251270Y-101350246D01*
X29281970Y-101407682D01*
X29347486Y-101487514D01*
X29427318Y-101553030D01*
X29515192Y-101600000D01*
X29427318Y-101646970D01*
X29347486Y-101712486D01*
X29329009Y-101735000D01*
X27004106Y-101735000D01*
X26873500Y-101604394D01*
X26873500Y-101460169D01*
X26843717Y-101310441D01*
X26785296Y-101169400D01*
X26700482Y-101042466D01*
X26592534Y-100934518D01*
X26465600Y-100849704D01*
X26324559Y-100791283D01*
X26174831Y-100761500D01*
X26022169Y-100761500D01*
X25872441Y-100791283D01*
X25731400Y-100849704D01*
X25604466Y-100934518D01*
X25496518Y-101042466D01*
X25411704Y-101169400D01*
X25398172Y-101202069D01*
X25276928Y-101080825D01*
X25261263Y-101061737D01*
X25185128Y-100999255D01*
X25098266Y-100952826D01*
X25084158Y-100948546D01*
X25137596Y-100868571D01*
X25223305Y-100661651D01*
X25267000Y-100441985D01*
X25267000Y-100218015D01*
X25223305Y-99998349D01*
X25137596Y-99791429D01*
X25013165Y-99605205D01*
X24854795Y-99446835D01*
X24668571Y-99322404D01*
X24461651Y-99236695D01*
X24241985Y-99193000D01*
X24018015Y-99193000D01*
X23798349Y-99236695D01*
X23591429Y-99322404D01*
X23405205Y-99446835D01*
X23246835Y-99605205D01*
X23122404Y-99791429D01*
X23036695Y-99998349D01*
X22993000Y-100218015D01*
X22993000Y-100441985D01*
X23036695Y-100661651D01*
X23122404Y-100868571D01*
X23154764Y-100917001D01*
X22884108Y-100917001D01*
X22667328Y-100700222D01*
X22683305Y-100661651D01*
X22727000Y-100441985D01*
X22727000Y-100218015D01*
X22683305Y-99998349D01*
X22597596Y-99791429D01*
X22473165Y-99605205D01*
X22314795Y-99446835D01*
X22128571Y-99322404D01*
X21921651Y-99236695D01*
X21701985Y-99193000D01*
X21478015Y-99193000D01*
X21258349Y-99236695D01*
X21051429Y-99322404D01*
X20865205Y-99446835D01*
X20706835Y-99605205D01*
X20582404Y-99791429D01*
X20496695Y-99998349D01*
X20453000Y-100218015D01*
X20453000Y-100441985D01*
X20496695Y-100661651D01*
X20582404Y-100868571D01*
X20706835Y-101054795D01*
X20865205Y-101213165D01*
X21051429Y-101337596D01*
X21258349Y-101423305D01*
X21478015Y-101467000D01*
X21701985Y-101467000D01*
X21921651Y-101423305D01*
X21960222Y-101407328D01*
X22306080Y-101753187D01*
X22321737Y-101772265D01*
X22397872Y-101834747D01*
X22484734Y-101881176D01*
X22570479Y-101907186D01*
X22578984Y-101909766D01*
X22677001Y-101919420D01*
X22701561Y-101917001D01*
X23509719Y-101917001D01*
X23405205Y-101986835D01*
X23246835Y-102145205D01*
X23122404Y-102331429D01*
X23036695Y-102538349D01*
X22993000Y-102758015D01*
X22993000Y-102981985D01*
X23036695Y-103201651D01*
X23122404Y-103408571D01*
X23246835Y-103594795D01*
X23405205Y-103753165D01*
X23591429Y-103877596D01*
X23798349Y-103963305D01*
X24018015Y-104007000D01*
X24241985Y-104007000D01*
X24461651Y-103963305D01*
X24668571Y-103877596D01*
X24854795Y-103753165D01*
X25013165Y-103594795D01*
X25137596Y-103408571D01*
X25223305Y-103201651D01*
X25267000Y-102981985D01*
X25267000Y-102758015D01*
X25223305Y-102538349D01*
X25154761Y-102372868D01*
X26623078Y-103841187D01*
X26638734Y-103860264D01*
X26714869Y-103922746D01*
X26801731Y-103969175D01*
X26895981Y-103997765D01*
X26993998Y-104007419D01*
X27018558Y-104005000D01*
X29144893Y-104005000D01*
X29120236Y-104025236D01*
X29041133Y-104121622D01*
X28982354Y-104231589D01*
X28946159Y-104350910D01*
X28933937Y-104475000D01*
X28937000Y-104487750D01*
X29095250Y-104646000D01*
X30416000Y-104646000D01*
X30416000Y-104626000D01*
X30674000Y-104626000D01*
X30674000Y-104646000D01*
X31994750Y-104646000D01*
X32153000Y-104487750D01*
X32156063Y-104475000D01*
X32143841Y-104350910D01*
X32107646Y-104231589D01*
X32048867Y-104121622D01*
X31969764Y-104025236D01*
X31873378Y-103946133D01*
X31823195Y-103919310D01*
X31856713Y-103856603D01*
X31886691Y-103757776D01*
X31896814Y-103655000D01*
X31896814Y-103355000D01*
X31886691Y-103252224D01*
X31856713Y-103153397D01*
X31808030Y-103062318D01*
X31742514Y-102982486D01*
X31662682Y-102916970D01*
X31574808Y-102870000D01*
X31662682Y-102823030D01*
X31742514Y-102757514D01*
X31808030Y-102677682D01*
X31856713Y-102586603D01*
X31886691Y-102487776D01*
X31896814Y-102385000D01*
X31896814Y-102085000D01*
X31892872Y-102044978D01*
X32774001Y-102926108D01*
X32774000Y-106711670D01*
X32738059Y-106696783D01*
X32588331Y-106667000D01*
X32435669Y-106667000D01*
X32285941Y-106696783D01*
X32144900Y-106755204D01*
X32017966Y-106840018D01*
X31915984Y-106942000D01*
X31845276Y-106942000D01*
X31808030Y-106872318D01*
X31742514Y-106792486D01*
X31662682Y-106726970D01*
X31574808Y-106680000D01*
X31662682Y-106633030D01*
X31742514Y-106567514D01*
X31808030Y-106487682D01*
X31856713Y-106396603D01*
X31886691Y-106297776D01*
X31896814Y-106195000D01*
X31896814Y-105895000D01*
X31886691Y-105792224D01*
X31856713Y-105693397D01*
X31823195Y-105630690D01*
X31873378Y-105603867D01*
X31969764Y-105524764D01*
X32048867Y-105428378D01*
X32107646Y-105318411D01*
X32143841Y-105199090D01*
X32156063Y-105075000D01*
X32153000Y-105062250D01*
X31994750Y-104904000D01*
X30674000Y-104904000D01*
X30674000Y-104924000D01*
X30416000Y-104924000D01*
X30416000Y-104904000D01*
X29095250Y-104904000D01*
X28937000Y-105062250D01*
X28933937Y-105075000D01*
X28944228Y-105179480D01*
X28928059Y-105172783D01*
X28778331Y-105143000D01*
X28625669Y-105143000D01*
X28475941Y-105172783D01*
X28334900Y-105231204D01*
X28207966Y-105316018D01*
X28100018Y-105423966D01*
X28015204Y-105550900D01*
X27956783Y-105691941D01*
X27927000Y-105841669D01*
X27927000Y-105994331D01*
X27956783Y-106144059D01*
X28015204Y-106285100D01*
X28100018Y-106412034D01*
X28207966Y-106519982D01*
X28334900Y-106604796D01*
X28475941Y-106663217D01*
X28625669Y-106693000D01*
X28778331Y-106693000D01*
X28928059Y-106663217D01*
X29069100Y-106604796D01*
X29158592Y-106545000D01*
X29329009Y-106545000D01*
X29347486Y-106567514D01*
X29427318Y-106633030D01*
X29515192Y-106680000D01*
X29427318Y-106726970D01*
X29347486Y-106792486D01*
X29281970Y-106872318D01*
X29233287Y-106963397D01*
X29203309Y-107062224D01*
X29193186Y-107165000D01*
X29193186Y-107465000D01*
X29203309Y-107567776D01*
X29233287Y-107666603D01*
X29281970Y-107757682D01*
X29347486Y-107837514D01*
X29427318Y-107903030D01*
X29515192Y-107950000D01*
X29427318Y-107996970D01*
X29347486Y-108062486D01*
X29281970Y-108142318D01*
X29244724Y-108212000D01*
X25932560Y-108212000D01*
X25908000Y-108209581D01*
X25883440Y-108212000D01*
X25809983Y-108219235D01*
X25715733Y-108247825D01*
X25628871Y-108294254D01*
X25552736Y-108356736D01*
X25537080Y-108375813D01*
X25412765Y-108500128D01*
X25451595Y-108417216D01*
X25517350Y-108150407D01*
X25529790Y-107875898D01*
X25488437Y-107604236D01*
X25394880Y-107345862D01*
X25335051Y-107233931D01*
X25095760Y-107166673D01*
X24312434Y-107950000D01*
X24326576Y-107964142D01*
X24144142Y-108146576D01*
X24130000Y-108132434D01*
X23346673Y-108915760D01*
X23413931Y-109155051D01*
X23662784Y-109271595D01*
X23929593Y-109337350D01*
X24204102Y-109349790D01*
X24475764Y-109308437D01*
X24677508Y-109235385D01*
X24500222Y-109412672D01*
X24461651Y-109396695D01*
X24241985Y-109353000D01*
X24018015Y-109353000D01*
X23798349Y-109396695D01*
X23591429Y-109482404D01*
X23405205Y-109606835D01*
X23246835Y-109765205D01*
X23122404Y-109951429D01*
X23106427Y-109990000D01*
X22613573Y-109990000D01*
X22597596Y-109951429D01*
X22473165Y-109765205D01*
X22314795Y-109606835D01*
X22128571Y-109482404D01*
X21921651Y-109396695D01*
X21701985Y-109353000D01*
X21478015Y-109353000D01*
X21258349Y-109396695D01*
X21051429Y-109482404D01*
X20865205Y-109606835D01*
X20706835Y-109765205D01*
X20582404Y-109951429D01*
X20496695Y-110158349D01*
X20453000Y-110378015D01*
X20453000Y-110601985D01*
X20496695Y-110821651D01*
X20582404Y-111028571D01*
X20706835Y-111214795D01*
X20865205Y-111373165D01*
X21051429Y-111497596D01*
X21258349Y-111583305D01*
X21478015Y-111627000D01*
X21701985Y-111627000D01*
X21921651Y-111583305D01*
X22128571Y-111497596D01*
X22314795Y-111373165D01*
X22473165Y-111214795D01*
X22597596Y-111028571D01*
X22613573Y-110990000D01*
X23106427Y-110990000D01*
X23122404Y-111028571D01*
X23246835Y-111214795D01*
X23405205Y-111373165D01*
X23591429Y-111497596D01*
X23798349Y-111583305D01*
X24018015Y-111627000D01*
X24241985Y-111627000D01*
X24461651Y-111583305D01*
X24668571Y-111497596D01*
X24854795Y-111373165D01*
X25013165Y-111214795D01*
X25137596Y-111028571D01*
X25223305Y-110821651D01*
X25253934Y-110667669D01*
X30721000Y-110667669D01*
X30721000Y-110820331D01*
X30750783Y-110970059D01*
X30809204Y-111111100D01*
X30894018Y-111238034D01*
X31001966Y-111345982D01*
X31128900Y-111430796D01*
X31269941Y-111489217D01*
X31419669Y-111519000D01*
X31572331Y-111519000D01*
X31722059Y-111489217D01*
X31852951Y-111435000D01*
X32330660Y-111435000D01*
X32341597Y-111455461D01*
X32413331Y-111542869D01*
X32500739Y-111614603D01*
X32600463Y-111667907D01*
X32708669Y-111700731D01*
X32821200Y-111711814D01*
X33371200Y-111711814D01*
X33483731Y-111700731D01*
X33591937Y-111667907D01*
X33691661Y-111614603D01*
X33779069Y-111542869D01*
X33850803Y-111455461D01*
X33904107Y-111355737D01*
X33936931Y-111247531D01*
X33948014Y-111135000D01*
X33948014Y-110735000D01*
X33936931Y-110622469D01*
X33904107Y-110514263D01*
X33850803Y-110414539D01*
X33779069Y-110327131D01*
X33691661Y-110255397D01*
X33591937Y-110202093D01*
X33483731Y-110169269D01*
X33371200Y-110158186D01*
X32821200Y-110158186D01*
X32708669Y-110169269D01*
X32600463Y-110202093D01*
X32500739Y-110255397D01*
X32413331Y-110327131D01*
X32341597Y-110414539D01*
X32330660Y-110435000D01*
X32206862Y-110435000D01*
X32182796Y-110376900D01*
X32097982Y-110249966D01*
X31990034Y-110142018D01*
X31863100Y-110057204D01*
X31722059Y-109998783D01*
X31572331Y-109969000D01*
X31419669Y-109969000D01*
X31269941Y-109998783D01*
X31128900Y-110057204D01*
X31001966Y-110142018D01*
X30894018Y-110249966D01*
X30809204Y-110376900D01*
X30750783Y-110517941D01*
X30721000Y-110667669D01*
X25253934Y-110667669D01*
X25267000Y-110601985D01*
X25267000Y-110378015D01*
X25223305Y-110158349D01*
X25207328Y-110119778D01*
X26115107Y-109212000D01*
X29500225Y-109212000D01*
X29518397Y-109221713D01*
X29617224Y-109251691D01*
X29720000Y-109261814D01*
X31370000Y-109261814D01*
X31472776Y-109251691D01*
X31571603Y-109221713D01*
X31589775Y-109212000D01*
X33029295Y-109212000D01*
X36257586Y-112440292D01*
X36257586Y-112785000D01*
X36260049Y-112810010D01*
X34028316Y-112810010D01*
X33948014Y-112729708D01*
X33948014Y-112385000D01*
X33936931Y-112272469D01*
X33904107Y-112164263D01*
X33850803Y-112064539D01*
X33779069Y-111977131D01*
X33691661Y-111905397D01*
X33591937Y-111852093D01*
X33483731Y-111819269D01*
X33371200Y-111808186D01*
X32821200Y-111808186D01*
X32708669Y-111819269D01*
X32600463Y-111852093D01*
X32500739Y-111905397D01*
X32413331Y-111977131D01*
X32341597Y-112064539D01*
X32288293Y-112164263D01*
X32255469Y-112272469D01*
X32244386Y-112385000D01*
X32244386Y-112785000D01*
X32255469Y-112897531D01*
X32288293Y-113005737D01*
X32341597Y-113105461D01*
X32413331Y-113192869D01*
X32500739Y-113264603D01*
X32600463Y-113317907D01*
X32708669Y-113350731D01*
X32821200Y-113361814D01*
X33165908Y-113361814D01*
X33450285Y-113646191D01*
X33465946Y-113665274D01*
X33542081Y-113727756D01*
X33628943Y-113774185D01*
X33694602Y-113794102D01*
X33723192Y-113802775D01*
X33821210Y-113812429D01*
X33845770Y-113810010D01*
X80975430Y-113810010D01*
X80999990Y-113812429D01*
X81024550Y-113810010D01*
X81098007Y-113802775D01*
X81192257Y-113774185D01*
X81279119Y-113727756D01*
X81355254Y-113665274D01*
X81370919Y-113646186D01*
X82949687Y-112067420D01*
X82968764Y-112051764D01*
X83031246Y-111975629D01*
X83077675Y-111888767D01*
X83106265Y-111794517D01*
X83113500Y-111721060D01*
X83113500Y-111721059D01*
X83115919Y-111696500D01*
X83113500Y-111671940D01*
X83113500Y-107406543D01*
X83275989Y-107569032D01*
X83501193Y-107719509D01*
X83751427Y-107823159D01*
X84017074Y-107876000D01*
X84287926Y-107876000D01*
X84553573Y-107823159D01*
X84803807Y-107719509D01*
X85029011Y-107569032D01*
X85220532Y-107377511D01*
X85371009Y-107152307D01*
X85474659Y-106902073D01*
X85527500Y-106636426D01*
X85527500Y-106365574D01*
X85497973Y-106217133D01*
X85813688Y-105901419D01*
X85832765Y-105885763D01*
X85895247Y-105809628D01*
X85941676Y-105722766D01*
X85970266Y-105628516D01*
X85977501Y-105555059D01*
X85979920Y-105530499D01*
X85977501Y-105505939D01*
X85977501Y-96741558D01*
X85979920Y-96717000D01*
X85976982Y-96687171D01*
X85970266Y-96618984D01*
X85941676Y-96524734D01*
X85895247Y-96437872D01*
X85832765Y-96361737D01*
X85813688Y-96346081D01*
X85345314Y-95877708D01*
X85345314Y-95508000D01*
X85333750Y-95390592D01*
X85299504Y-95277696D01*
X85243890Y-95173650D01*
X85169047Y-95082453D01*
X85077850Y-95007610D01*
X84973804Y-94951996D01*
X84860908Y-94917750D01*
X84743500Y-94906186D01*
X84373791Y-94906186D01*
X84089419Y-94621814D01*
X84073754Y-94602726D01*
X83997619Y-94540244D01*
X83910757Y-94493815D01*
X83816507Y-94465225D01*
X83743050Y-94457990D01*
X83718490Y-94455571D01*
X83693930Y-94457990D01*
X63359506Y-94457990D01*
X63316516Y-94415000D01*
X84370224Y-94415000D01*
X84799958Y-94457136D01*
X85192859Y-94575759D01*
X85555233Y-94768437D01*
X85873285Y-95027833D01*
X86134895Y-95344066D01*
X86330099Y-95705089D01*
X86451462Y-96097151D01*
X86496500Y-96525655D01*
X86496501Y-111738713D01*
X86454364Y-112168458D01*
X86335740Y-112561360D01*
X86143063Y-112923733D01*
X85883667Y-113241785D01*
X85567434Y-113503395D01*
X85206411Y-113698599D01*
X84814349Y-113819962D01*
X84385845Y-113865000D01*
X18215000Y-113865000D01*
X18215000Y-108915760D01*
X20806673Y-108915760D01*
X20873931Y-109155051D01*
X21122784Y-109271595D01*
X21389593Y-109337350D01*
X21664102Y-109349790D01*
X21935764Y-109308437D01*
X22194138Y-109214880D01*
X22306069Y-109155051D01*
X22373327Y-108915760D01*
X21590000Y-108132434D01*
X20806673Y-108915760D01*
X18215000Y-108915760D01*
X18215000Y-108024102D01*
X20190210Y-108024102D01*
X20231563Y-108295764D01*
X20325120Y-108554138D01*
X20384949Y-108666069D01*
X20624240Y-108733327D01*
X21407566Y-107950000D01*
X21772434Y-107950000D01*
X22555760Y-108733327D01*
X22795051Y-108666069D01*
X22857424Y-108532885D01*
X22865120Y-108554138D01*
X22924949Y-108666069D01*
X23164240Y-108733327D01*
X23947566Y-107950000D01*
X23164240Y-107166673D01*
X22924949Y-107233931D01*
X22862576Y-107367115D01*
X22854880Y-107345862D01*
X22795051Y-107233931D01*
X22555760Y-107166673D01*
X21772434Y-107950000D01*
X21407566Y-107950000D01*
X20624240Y-107166673D01*
X20384949Y-107233931D01*
X20268405Y-107482784D01*
X20202650Y-107749593D01*
X20190210Y-108024102D01*
X18215000Y-108024102D01*
X18215000Y-106984240D01*
X20806673Y-106984240D01*
X21590000Y-107767566D01*
X22373327Y-106984240D01*
X23346673Y-106984240D01*
X24130000Y-107767566D01*
X24913327Y-106984240D01*
X24846069Y-106744949D01*
X24597216Y-106628405D01*
X24330407Y-106562650D01*
X24055898Y-106550210D01*
X23784236Y-106591563D01*
X23525862Y-106685120D01*
X23413931Y-106744949D01*
X23346673Y-106984240D01*
X22373327Y-106984240D01*
X22306069Y-106744949D01*
X22057216Y-106628405D01*
X21790407Y-106562650D01*
X21515898Y-106550210D01*
X21244236Y-106591563D01*
X20985862Y-106685120D01*
X20873931Y-106744949D01*
X20806673Y-106984240D01*
X18215000Y-106984240D01*
X18215000Y-105298015D01*
X20453000Y-105298015D01*
X20453000Y-105521985D01*
X20496695Y-105741651D01*
X20582404Y-105948571D01*
X20706835Y-106134795D01*
X20865205Y-106293165D01*
X21051429Y-106417596D01*
X21258349Y-106503305D01*
X21478015Y-106547000D01*
X21701985Y-106547000D01*
X21921651Y-106503305D01*
X22128571Y-106417596D01*
X22314795Y-106293165D01*
X22473165Y-106134795D01*
X22597596Y-105948571D01*
X22683305Y-105741651D01*
X22727000Y-105521985D01*
X22727000Y-105298015D01*
X22993000Y-105298015D01*
X22993000Y-105521985D01*
X23036695Y-105741651D01*
X23122404Y-105948571D01*
X23246835Y-106134795D01*
X23405205Y-106293165D01*
X23591429Y-106417596D01*
X23798349Y-106503305D01*
X24018015Y-106547000D01*
X24241985Y-106547000D01*
X24461651Y-106503305D01*
X24668571Y-106417596D01*
X24854795Y-106293165D01*
X25013165Y-106134795D01*
X25137596Y-105948571D01*
X25223305Y-105741651D01*
X25267000Y-105521985D01*
X25267000Y-105298015D01*
X25223305Y-105078349D01*
X25137596Y-104871429D01*
X25013165Y-104685205D01*
X24854795Y-104526835D01*
X24668571Y-104402404D01*
X24461651Y-104316695D01*
X24241985Y-104273000D01*
X24018015Y-104273000D01*
X23798349Y-104316695D01*
X23591429Y-104402404D01*
X23405205Y-104526835D01*
X23246835Y-104685205D01*
X23122404Y-104871429D01*
X23036695Y-105078349D01*
X22993000Y-105298015D01*
X22727000Y-105298015D01*
X22683305Y-105078349D01*
X22597596Y-104871429D01*
X22473165Y-104685205D01*
X22314795Y-104526835D01*
X22128571Y-104402404D01*
X21921651Y-104316695D01*
X21701985Y-104273000D01*
X21478015Y-104273000D01*
X21258349Y-104316695D01*
X21051429Y-104402404D01*
X20865205Y-104526835D01*
X20706835Y-104685205D01*
X20582404Y-104871429D01*
X20496695Y-105078349D01*
X20453000Y-105298015D01*
X18215000Y-105298015D01*
X18215000Y-102758015D01*
X20453000Y-102758015D01*
X20453000Y-102981985D01*
X20496695Y-103201651D01*
X20582404Y-103408571D01*
X20706835Y-103594795D01*
X20865205Y-103753165D01*
X21051429Y-103877596D01*
X21258349Y-103963305D01*
X21478015Y-104007000D01*
X21701985Y-104007000D01*
X21921651Y-103963305D01*
X22128571Y-103877596D01*
X22314795Y-103753165D01*
X22473165Y-103594795D01*
X22597596Y-103408571D01*
X22683305Y-103201651D01*
X22727000Y-102981985D01*
X22727000Y-102758015D01*
X22683305Y-102538349D01*
X22597596Y-102331429D01*
X22473165Y-102145205D01*
X22314795Y-101986835D01*
X22128571Y-101862404D01*
X21921651Y-101776695D01*
X21701985Y-101733000D01*
X21478015Y-101733000D01*
X21258349Y-101776695D01*
X21051429Y-101862404D01*
X20865205Y-101986835D01*
X20706835Y-102145205D01*
X20582404Y-102331429D01*
X20496695Y-102538349D01*
X20453000Y-102758015D01*
X18215000Y-102758015D01*
X18215000Y-97678015D01*
X20453000Y-97678015D01*
X20453000Y-97901985D01*
X20496695Y-98121651D01*
X20582404Y-98328571D01*
X20706835Y-98514795D01*
X20865205Y-98673165D01*
X21051429Y-98797596D01*
X21258349Y-98883305D01*
X21478015Y-98927000D01*
X21701985Y-98927000D01*
X21921651Y-98883305D01*
X22128571Y-98797596D01*
X22314795Y-98673165D01*
X22473165Y-98514795D01*
X22597596Y-98328571D01*
X22683305Y-98121651D01*
X22727000Y-97901985D01*
X22727000Y-97678015D01*
X22683305Y-97458349D01*
X22597596Y-97251429D01*
X22473165Y-97065205D01*
X22314795Y-96906835D01*
X22128571Y-96782404D01*
X21921651Y-96696695D01*
X21701985Y-96653000D01*
X21478015Y-96653000D01*
X21258349Y-96696695D01*
X21051429Y-96782404D01*
X20865205Y-96906835D01*
X20706835Y-97065205D01*
X20582404Y-97251429D01*
X20496695Y-97458349D01*
X20453000Y-97678015D01*
X18215000Y-97678015D01*
X18215000Y-94415000D01*
X29362315Y-94415000D01*
X29321589Y-94427354D01*
G37*
G04 #@! TD.AperFunction*
D17*
X82243110Y-96342350D02*
X82317953Y-96433547D01*
X82409150Y-96508390D01*
X82513196Y-96564004D01*
X82626092Y-96598250D01*
X82743500Y-96609814D01*
X83139209Y-96609814D01*
X83652501Y-97123107D01*
X83652500Y-100219818D01*
X83501193Y-100282491D01*
X83275989Y-100432968D01*
X83084468Y-100624489D01*
X82933991Y-100849693D01*
X82830341Y-101099927D01*
X82777500Y-101365574D01*
X82777500Y-101636426D01*
X82830341Y-101902073D01*
X82880420Y-102022974D01*
X82277319Y-102626076D01*
X82258237Y-102641736D01*
X82195755Y-102717871D01*
X82157201Y-102790000D01*
X82149326Y-102804733D01*
X82120735Y-102898983D01*
X82111081Y-102997000D01*
X82113501Y-103021570D01*
X82113500Y-111489393D01*
X80792885Y-112810010D01*
X68283556Y-112810010D01*
X68309217Y-112748059D01*
X68339000Y-112598331D01*
X68339000Y-112445669D01*
X68309217Y-112295941D01*
X68250796Y-112154900D01*
X68165982Y-112027966D01*
X68058034Y-111920018D01*
X67931100Y-111835204D01*
X67790059Y-111776783D01*
X67640331Y-111747000D01*
X67487669Y-111747000D01*
X67337941Y-111776783D01*
X67196900Y-111835204D01*
X67069966Y-111920018D01*
X66962018Y-112027966D01*
X66877204Y-112154900D01*
X66863353Y-112188339D01*
X66633268Y-112188339D01*
X68220607Y-110601000D01*
X74916437Y-110601000D01*
X74928659Y-110725090D01*
X74964854Y-110844411D01*
X75023633Y-110954378D01*
X75102736Y-111050764D01*
X75199122Y-111129867D01*
X75309089Y-111188646D01*
X75428410Y-111224841D01*
X75552500Y-111237063D01*
X76865250Y-111234000D01*
X77023500Y-111075750D01*
X77023500Y-109730000D01*
X77281500Y-109730000D01*
X77281500Y-111075750D01*
X77439750Y-111234000D01*
X78752500Y-111237063D01*
X78876590Y-111224841D01*
X78995911Y-111188646D01*
X79105878Y-111129867D01*
X79202264Y-111050764D01*
X79281367Y-110954378D01*
X79340146Y-110844411D01*
X79376341Y-110725090D01*
X79388563Y-110601000D01*
X79385500Y-109888250D01*
X79227250Y-109730000D01*
X77281500Y-109730000D01*
X77023500Y-109730000D01*
X75077750Y-109730000D01*
X74919500Y-109888250D01*
X74916437Y-110601000D01*
X68220607Y-110601000D01*
X70220608Y-108601000D01*
X74916437Y-108601000D01*
X74919500Y-109313750D01*
X75077750Y-109472000D01*
X77023500Y-109472000D01*
X77023500Y-108126250D01*
X77281500Y-108126250D01*
X77281500Y-109472000D01*
X79227250Y-109472000D01*
X79385500Y-109313750D01*
X79388563Y-108601000D01*
X79376341Y-108476910D01*
X79340146Y-108357589D01*
X79281367Y-108247622D01*
X79202264Y-108151236D01*
X79105878Y-108072133D01*
X78995911Y-108013354D01*
X78876590Y-107977159D01*
X78752500Y-107964937D01*
X77439750Y-107968000D01*
X77281500Y-108126250D01*
X77023500Y-108126250D01*
X76865250Y-107968000D01*
X75552500Y-107964937D01*
X75428410Y-107977159D01*
X75309089Y-108013354D01*
X75199122Y-108072133D01*
X75102736Y-108151236D01*
X75023633Y-108247622D01*
X74964854Y-108357589D01*
X74928659Y-108476910D01*
X74916437Y-108601000D01*
X70220608Y-108601000D01*
X71313688Y-107507921D01*
X71332765Y-107492265D01*
X71395247Y-107416130D01*
X71441676Y-107329268D01*
X71470266Y-107235018D01*
X71477501Y-107161561D01*
X71477501Y-107161552D01*
X71479919Y-107137002D01*
X71477501Y-107112452D01*
X71477501Y-100265559D01*
X71479920Y-100240999D01*
X71470266Y-100142982D01*
X71468625Y-100137571D01*
X71441676Y-100048732D01*
X71395247Y-99961870D01*
X71332765Y-99885735D01*
X71313682Y-99870074D01*
X71033340Y-99589733D01*
X71017675Y-99570645D01*
X70941540Y-99508163D01*
X70854678Y-99461734D01*
X70760428Y-99433144D01*
X70686971Y-99425909D01*
X70662411Y-99423490D01*
X70637851Y-99425909D01*
X68166734Y-99425909D01*
X68183377Y-99401000D01*
X74916437Y-99401000D01*
X74928659Y-99525090D01*
X74964854Y-99644411D01*
X75023633Y-99754378D01*
X75102736Y-99850764D01*
X75199122Y-99929867D01*
X75309089Y-99988646D01*
X75428410Y-100024841D01*
X75552500Y-100037063D01*
X76865250Y-100034000D01*
X77023500Y-99875750D01*
X77023500Y-98530000D01*
X77281500Y-98530000D01*
X77281500Y-99875750D01*
X77439750Y-100034000D01*
X78752500Y-100037063D01*
X78876590Y-100024841D01*
X78995911Y-99988646D01*
X79105878Y-99929867D01*
X79202264Y-99850764D01*
X79281367Y-99754378D01*
X79340146Y-99644411D01*
X79376341Y-99525090D01*
X79388563Y-99401000D01*
X79385500Y-98688250D01*
X79227250Y-98530000D01*
X77281500Y-98530000D01*
X77023500Y-98530000D01*
X75077750Y-98530000D01*
X74919500Y-98688250D01*
X74916437Y-99401000D01*
X68183377Y-99401000D01*
X68250796Y-99300100D01*
X68309217Y-99159059D01*
X68339000Y-99009331D01*
X68339000Y-98856669D01*
X68309217Y-98706941D01*
X68250796Y-98565900D01*
X68165982Y-98438966D01*
X68058034Y-98331018D01*
X67931100Y-98246204D01*
X67790059Y-98187783D01*
X67640331Y-98158000D01*
X67487669Y-98158000D01*
X67337941Y-98187783D01*
X67196900Y-98246204D01*
X67069966Y-98331018D01*
X66967984Y-98433000D01*
X65872604Y-98433000D01*
X64840604Y-97401000D01*
X74916437Y-97401000D01*
X74919500Y-98113750D01*
X75077750Y-98272000D01*
X77023500Y-98272000D01*
X77023500Y-96926250D01*
X77281500Y-96926250D01*
X77281500Y-98272000D01*
X79227250Y-98272000D01*
X79385500Y-98113750D01*
X79388563Y-97401000D01*
X79376341Y-97276910D01*
X79340146Y-97157589D01*
X79281367Y-97047622D01*
X79202264Y-96951236D01*
X79105878Y-96872133D01*
X78995911Y-96813354D01*
X78876590Y-96777159D01*
X78752500Y-96764937D01*
X77439750Y-96768000D01*
X77281500Y-96926250D01*
X77023500Y-96926250D01*
X76865250Y-96768000D01*
X75552500Y-96764937D01*
X75428410Y-96777159D01*
X75309089Y-96813354D01*
X75199122Y-96872133D01*
X75102736Y-96951236D01*
X75023633Y-97047622D01*
X74964854Y-97157589D01*
X74928659Y-97276910D01*
X74916437Y-97401000D01*
X64840604Y-97401000D01*
X63948999Y-96509395D01*
X63980059Y-96503217D01*
X64121100Y-96444796D01*
X64248034Y-96359982D01*
X64350016Y-96258000D01*
X82198024Y-96258000D01*
X82243110Y-96342350D01*
G04 #@! TA.AperFunction,Conductor*
D18*
G36*
X82243110Y-96342350D02*
G01*
X82317953Y-96433547D01*
X82409150Y-96508390D01*
X82513196Y-96564004D01*
X82626092Y-96598250D01*
X82743500Y-96609814D01*
X83139209Y-96609814D01*
X83652501Y-97123107D01*
X83652500Y-100219818D01*
X83501193Y-100282491D01*
X83275989Y-100432968D01*
X83084468Y-100624489D01*
X82933991Y-100849693D01*
X82830341Y-101099927D01*
X82777500Y-101365574D01*
X82777500Y-101636426D01*
X82830341Y-101902073D01*
X82880420Y-102022974D01*
X82277319Y-102626076D01*
X82258237Y-102641736D01*
X82195755Y-102717871D01*
X82157201Y-102790000D01*
X82149326Y-102804733D01*
X82120735Y-102898983D01*
X82111081Y-102997000D01*
X82113501Y-103021570D01*
X82113500Y-111489393D01*
X80792885Y-112810010D01*
X68283556Y-112810010D01*
X68309217Y-112748059D01*
X68339000Y-112598331D01*
X68339000Y-112445669D01*
X68309217Y-112295941D01*
X68250796Y-112154900D01*
X68165982Y-112027966D01*
X68058034Y-111920018D01*
X67931100Y-111835204D01*
X67790059Y-111776783D01*
X67640331Y-111747000D01*
X67487669Y-111747000D01*
X67337941Y-111776783D01*
X67196900Y-111835204D01*
X67069966Y-111920018D01*
X66962018Y-112027966D01*
X66877204Y-112154900D01*
X66863353Y-112188339D01*
X66633268Y-112188339D01*
X68220607Y-110601000D01*
X74916437Y-110601000D01*
X74928659Y-110725090D01*
X74964854Y-110844411D01*
X75023633Y-110954378D01*
X75102736Y-111050764D01*
X75199122Y-111129867D01*
X75309089Y-111188646D01*
X75428410Y-111224841D01*
X75552500Y-111237063D01*
X76865250Y-111234000D01*
X77023500Y-111075750D01*
X77023500Y-109730000D01*
X77281500Y-109730000D01*
X77281500Y-111075750D01*
X77439750Y-111234000D01*
X78752500Y-111237063D01*
X78876590Y-111224841D01*
X78995911Y-111188646D01*
X79105878Y-111129867D01*
X79202264Y-111050764D01*
X79281367Y-110954378D01*
X79340146Y-110844411D01*
X79376341Y-110725090D01*
X79388563Y-110601000D01*
X79385500Y-109888250D01*
X79227250Y-109730000D01*
X77281500Y-109730000D01*
X77023500Y-109730000D01*
X75077750Y-109730000D01*
X74919500Y-109888250D01*
X74916437Y-110601000D01*
X68220607Y-110601000D01*
X70220608Y-108601000D01*
X74916437Y-108601000D01*
X74919500Y-109313750D01*
X75077750Y-109472000D01*
X77023500Y-109472000D01*
X77023500Y-108126250D01*
X77281500Y-108126250D01*
X77281500Y-109472000D01*
X79227250Y-109472000D01*
X79385500Y-109313750D01*
X79388563Y-108601000D01*
X79376341Y-108476910D01*
X79340146Y-108357589D01*
X79281367Y-108247622D01*
X79202264Y-108151236D01*
X79105878Y-108072133D01*
X78995911Y-108013354D01*
X78876590Y-107977159D01*
X78752500Y-107964937D01*
X77439750Y-107968000D01*
X77281500Y-108126250D01*
X77023500Y-108126250D01*
X76865250Y-107968000D01*
X75552500Y-107964937D01*
X75428410Y-107977159D01*
X75309089Y-108013354D01*
X75199122Y-108072133D01*
X75102736Y-108151236D01*
X75023633Y-108247622D01*
X74964854Y-108357589D01*
X74928659Y-108476910D01*
X74916437Y-108601000D01*
X70220608Y-108601000D01*
X71313688Y-107507921D01*
X71332765Y-107492265D01*
X71395247Y-107416130D01*
X71441676Y-107329268D01*
X71470266Y-107235018D01*
X71477501Y-107161561D01*
X71477501Y-107161552D01*
X71479919Y-107137002D01*
X71477501Y-107112452D01*
X71477501Y-100265559D01*
X71479920Y-100240999D01*
X71470266Y-100142982D01*
X71468625Y-100137571D01*
X71441676Y-100048732D01*
X71395247Y-99961870D01*
X71332765Y-99885735D01*
X71313682Y-99870074D01*
X71033340Y-99589733D01*
X71017675Y-99570645D01*
X70941540Y-99508163D01*
X70854678Y-99461734D01*
X70760428Y-99433144D01*
X70686971Y-99425909D01*
X70662411Y-99423490D01*
X70637851Y-99425909D01*
X68166734Y-99425909D01*
X68183377Y-99401000D01*
X74916437Y-99401000D01*
X74928659Y-99525090D01*
X74964854Y-99644411D01*
X75023633Y-99754378D01*
X75102736Y-99850764D01*
X75199122Y-99929867D01*
X75309089Y-99988646D01*
X75428410Y-100024841D01*
X75552500Y-100037063D01*
X76865250Y-100034000D01*
X77023500Y-99875750D01*
X77023500Y-98530000D01*
X77281500Y-98530000D01*
X77281500Y-99875750D01*
X77439750Y-100034000D01*
X78752500Y-100037063D01*
X78876590Y-100024841D01*
X78995911Y-99988646D01*
X79105878Y-99929867D01*
X79202264Y-99850764D01*
X79281367Y-99754378D01*
X79340146Y-99644411D01*
X79376341Y-99525090D01*
X79388563Y-99401000D01*
X79385500Y-98688250D01*
X79227250Y-98530000D01*
X77281500Y-98530000D01*
X77023500Y-98530000D01*
X75077750Y-98530000D01*
X74919500Y-98688250D01*
X74916437Y-99401000D01*
X68183377Y-99401000D01*
X68250796Y-99300100D01*
X68309217Y-99159059D01*
X68339000Y-99009331D01*
X68339000Y-98856669D01*
X68309217Y-98706941D01*
X68250796Y-98565900D01*
X68165982Y-98438966D01*
X68058034Y-98331018D01*
X67931100Y-98246204D01*
X67790059Y-98187783D01*
X67640331Y-98158000D01*
X67487669Y-98158000D01*
X67337941Y-98187783D01*
X67196900Y-98246204D01*
X67069966Y-98331018D01*
X66967984Y-98433000D01*
X65872604Y-98433000D01*
X64840604Y-97401000D01*
X74916437Y-97401000D01*
X74919500Y-98113750D01*
X75077750Y-98272000D01*
X77023500Y-98272000D01*
X77023500Y-96926250D01*
X77281500Y-96926250D01*
X77281500Y-98272000D01*
X79227250Y-98272000D01*
X79385500Y-98113750D01*
X79388563Y-97401000D01*
X79376341Y-97276910D01*
X79340146Y-97157589D01*
X79281367Y-97047622D01*
X79202264Y-96951236D01*
X79105878Y-96872133D01*
X78995911Y-96813354D01*
X78876590Y-96777159D01*
X78752500Y-96764937D01*
X77439750Y-96768000D01*
X77281500Y-96926250D01*
X77023500Y-96926250D01*
X76865250Y-96768000D01*
X75552500Y-96764937D01*
X75428410Y-96777159D01*
X75309089Y-96813354D01*
X75199122Y-96872133D01*
X75102736Y-96951236D01*
X75023633Y-97047622D01*
X74964854Y-97157589D01*
X74928659Y-97276910D01*
X74916437Y-97401000D01*
X64840604Y-97401000D01*
X63948999Y-96509395D01*
X63980059Y-96503217D01*
X64121100Y-96444796D01*
X64248034Y-96359982D01*
X64350016Y-96258000D01*
X82198024Y-96258000D01*
X82243110Y-96342350D01*
G37*
G04 #@! TD.AperFunction*
D17*
X56114270Y-98886517D02*
X56191445Y-98980555D01*
X56285483Y-99057730D01*
X56392770Y-99115076D01*
X56509184Y-99150390D01*
X56630250Y-99162314D01*
X57542750Y-99162314D01*
X57663816Y-99150390D01*
X57780230Y-99115076D01*
X57887517Y-99057730D01*
X57981555Y-98980555D01*
X58058730Y-98886517D01*
X58106043Y-98798000D01*
X58116874Y-98798000D01*
X58122061Y-98850662D01*
X58157375Y-98967075D01*
X58214721Y-99074363D01*
X58291896Y-99168401D01*
X58385934Y-99245576D01*
X58493221Y-99302922D01*
X59336261Y-99652121D01*
X59452675Y-99687435D01*
X59573741Y-99699359D01*
X59694807Y-99687435D01*
X59811221Y-99652121D01*
X59905579Y-99601686D01*
X59983826Y-99679933D01*
X59979135Y-99727566D01*
X59991059Y-99848632D01*
X60026373Y-99965046D01*
X60083719Y-100072333D01*
X60160894Y-100166371D01*
X60806129Y-100811606D01*
X60900167Y-100888781D01*
X61007454Y-100946127D01*
X61123868Y-100981441D01*
X61244934Y-100993365D01*
X61366000Y-100981441D01*
X61462047Y-100952305D01*
X61531323Y-101021582D01*
X61504725Y-101053992D01*
X61447379Y-101161280D01*
X61412065Y-101277693D01*
X61400141Y-101398759D01*
X61412065Y-101519825D01*
X61447379Y-101636239D01*
X61607672Y-102023221D01*
X60267709Y-103363186D01*
X59922500Y-103363186D01*
X59848987Y-103370426D01*
X59778300Y-103391869D01*
X59713153Y-103426691D01*
X59656052Y-103473552D01*
X59609191Y-103530653D01*
X59574369Y-103595800D01*
X59552926Y-103666487D01*
X59545686Y-103740000D01*
X59545686Y-104540000D01*
X59552926Y-104613513D01*
X59574369Y-104684200D01*
X59609191Y-104749347D01*
X59656052Y-104806448D01*
X59713153Y-104853309D01*
X59778300Y-104888131D01*
X59848987Y-104909574D01*
X59922500Y-104916814D01*
X60822500Y-104916814D01*
X60896013Y-104909574D01*
X60966700Y-104888131D01*
X61031847Y-104853309D01*
X61088948Y-104806448D01*
X61135809Y-104749347D01*
X61170631Y-104684200D01*
X61192074Y-104613513D01*
X61199314Y-104540000D01*
X61199314Y-103845791D01*
X62207275Y-102837831D01*
X62248838Y-102850439D01*
X62369904Y-102862363D01*
X62490970Y-102850439D01*
X62607383Y-102815125D01*
X63057774Y-102628567D01*
X63165062Y-102571221D01*
X63259100Y-102494046D01*
X63336275Y-102400008D01*
X63393621Y-102292720D01*
X63428935Y-102176307D01*
X63440859Y-102055241D01*
X63428935Y-101934175D01*
X63393621Y-101817761D01*
X63044422Y-100974721D01*
X62987076Y-100867434D01*
X62909901Y-100773396D01*
X62815863Y-100696221D01*
X62708576Y-100638875D01*
X62592162Y-100603561D01*
X62520453Y-100596498D01*
X62345480Y-100421525D01*
X62414549Y-100428328D01*
X62439109Y-100425909D01*
X63189188Y-100425909D01*
X63179653Y-100443748D01*
X63144339Y-100560161D01*
X63132415Y-100681227D01*
X63144339Y-100802293D01*
X63179653Y-100918707D01*
X63528852Y-101761747D01*
X63586198Y-101869034D01*
X63663373Y-101963072D01*
X63757411Y-102040247D01*
X63864698Y-102097593D01*
X63981112Y-102132907D01*
X64102178Y-102144831D01*
X64223244Y-102132907D01*
X64339657Y-102097593D01*
X64790048Y-101911035D01*
X64897336Y-101853689D01*
X64991374Y-101776514D01*
X65068549Y-101682476D01*
X65125895Y-101575188D01*
X65161209Y-101458775D01*
X65163058Y-101440000D01*
X65643984Y-101440000D01*
X65745966Y-101541982D01*
X65872900Y-101626796D01*
X66013941Y-101685217D01*
X66163669Y-101715000D01*
X66316331Y-101715000D01*
X66466059Y-101685217D01*
X66607100Y-101626796D01*
X66734034Y-101541982D01*
X66841982Y-101434034D01*
X66926796Y-101307100D01*
X66985217Y-101166059D01*
X67015000Y-101016331D01*
X67015000Y-100863669D01*
X66985217Y-100713941D01*
X66926796Y-100572900D01*
X66841982Y-100445966D01*
X66821925Y-100425909D01*
X68283405Y-100425909D01*
X68282926Y-100427487D01*
X68275686Y-100501000D01*
X68275686Y-102501000D01*
X68282926Y-102574513D01*
X68304369Y-102645200D01*
X68339191Y-102710347D01*
X68386052Y-102767448D01*
X68443153Y-102814309D01*
X68508300Y-102849131D01*
X68578987Y-102870574D01*
X68652500Y-102877814D01*
X68711747Y-102877814D01*
X69652500Y-103818566D01*
X69666642Y-103804424D01*
X69849076Y-103986858D01*
X69834934Y-104001000D01*
X69849076Y-104015142D01*
X69666642Y-104197576D01*
X69652500Y-104183434D01*
X68699300Y-105136633D01*
X68795352Y-105400232D01*
X68812523Y-105408557D01*
X68775989Y-105432968D01*
X68584468Y-105624489D01*
X68433991Y-105849693D01*
X68330341Y-106099927D01*
X68277500Y-106365574D01*
X68277500Y-106636426D01*
X68330341Y-106902073D01*
X68433991Y-107152307D01*
X68584468Y-107377511D01*
X68775989Y-107569032D01*
X69001193Y-107719509D01*
X69251427Y-107823159D01*
X69517074Y-107876000D01*
X69531395Y-107876000D01*
X65669068Y-111738329D01*
X62383556Y-111738329D01*
X62397995Y-111733949D01*
X62484857Y-111687520D01*
X62560992Y-111625038D01*
X62576657Y-111605950D01*
X67963687Y-106218922D01*
X67982764Y-106203266D01*
X68045246Y-106127131D01*
X68091675Y-106040269D01*
X68120265Y-105946019D01*
X68127500Y-105872562D01*
X68127500Y-105872553D01*
X68129918Y-105848003D01*
X68127500Y-105823453D01*
X68127500Y-104587519D01*
X68162436Y-104688214D01*
X68253268Y-104858148D01*
X68516867Y-104954200D01*
X69470066Y-104001000D01*
X68516867Y-103047800D01*
X68253268Y-103143852D01*
X68179509Y-103295983D01*
X68121534Y-103238008D01*
X67994600Y-103153194D01*
X67853559Y-103094773D01*
X67703831Y-103064990D01*
X67551169Y-103064990D01*
X67401441Y-103094773D01*
X67260400Y-103153194D01*
X67133466Y-103238008D01*
X67025518Y-103345956D01*
X66940704Y-103472890D01*
X66882283Y-103613931D01*
X66852500Y-103763659D01*
X66852500Y-103916321D01*
X66882283Y-104066049D01*
X66940704Y-104207090D01*
X67025518Y-104334024D01*
X67127501Y-104436007D01*
X67127500Y-105640895D01*
X66740327Y-106028068D01*
X66726796Y-105995400D01*
X66641982Y-105868466D01*
X66540000Y-105766484D01*
X66540000Y-105401057D01*
X66542419Y-105376499D01*
X66539122Y-105343024D01*
X66532765Y-105278483D01*
X66504175Y-105184233D01*
X66457746Y-105097371D01*
X66395264Y-105021236D01*
X66376181Y-105005575D01*
X65667814Y-104297209D01*
X65667814Y-103683750D01*
X65655890Y-103562684D01*
X65620576Y-103446270D01*
X65563230Y-103338983D01*
X65486055Y-103244945D01*
X65392017Y-103167770D01*
X65284730Y-103110424D01*
X65168316Y-103075110D01*
X65047250Y-103063186D01*
X64559750Y-103063186D01*
X64438684Y-103075110D01*
X64322270Y-103110424D01*
X64214983Y-103167770D01*
X64120945Y-103244945D01*
X64043770Y-103338983D01*
X63986424Y-103446270D01*
X63951110Y-103562684D01*
X63939186Y-103683750D01*
X63939186Y-104596250D01*
X63951110Y-104717316D01*
X63986424Y-104833730D01*
X64043770Y-104941017D01*
X64120945Y-105035055D01*
X64214983Y-105112230D01*
X64322270Y-105169576D01*
X64438684Y-105204890D01*
X64559750Y-105216814D01*
X64565670Y-105216814D01*
X64549018Y-105233466D01*
X64464204Y-105360400D01*
X64405783Y-105501441D01*
X64376000Y-105651169D01*
X64376000Y-105795394D01*
X64260868Y-105910527D01*
X64188541Y-105903403D01*
X64067475Y-105915327D01*
X63951062Y-105950641D01*
X63843774Y-106007987D01*
X63749736Y-106085162D01*
X63672561Y-106179200D01*
X63615215Y-106286487D01*
X63266016Y-107129527D01*
X63230702Y-107245941D01*
X63218778Y-107367007D01*
X63230702Y-107488073D01*
X63266016Y-107604487D01*
X63323362Y-107711774D01*
X63377364Y-107777576D01*
X63259966Y-107856018D01*
X63152018Y-107963966D01*
X63067204Y-108090900D01*
X63008783Y-108231941D01*
X62979000Y-108381669D01*
X62979000Y-108521365D01*
X62874652Y-108489711D01*
X62753586Y-108477787D01*
X62632520Y-108489711D01*
X62516106Y-108525025D01*
X62408819Y-108582371D01*
X62314781Y-108659546D01*
X61669546Y-109304781D01*
X61592371Y-109398819D01*
X61535025Y-109506106D01*
X61499711Y-109622520D01*
X61487787Y-109743586D01*
X61499711Y-109864652D01*
X61535025Y-109981066D01*
X61592371Y-110088353D01*
X61669546Y-110182391D01*
X62014261Y-110527106D01*
X62108299Y-110604281D01*
X62144673Y-110623723D01*
X61998623Y-110769774D01*
X61048460Y-110769774D01*
X60991599Y-110632500D01*
X60934253Y-110525212D01*
X60857078Y-110431174D01*
X60763040Y-110353999D01*
X60655752Y-110296653D01*
X60539339Y-110261339D01*
X60418273Y-110249415D01*
X60297207Y-110261339D01*
X60180793Y-110296653D01*
X59337753Y-110645852D01*
X59230466Y-110703198D01*
X59136428Y-110780373D01*
X59059253Y-110874411D01*
X59001907Y-110981698D01*
X58996035Y-111001057D01*
X58555459Y-110560482D01*
X58539794Y-110541394D01*
X58467422Y-110482000D01*
X58753233Y-110482000D01*
X58806780Y-110510621D01*
X58923193Y-110545935D01*
X59044259Y-110557859D01*
X59165325Y-110545935D01*
X59281739Y-110510621D01*
X60124779Y-110161422D01*
X60232066Y-110104076D01*
X60326104Y-110026901D01*
X60403279Y-109932863D01*
X60460625Y-109825576D01*
X60495939Y-109709162D01*
X60507863Y-109588096D01*
X60504783Y-109556823D01*
X60782915Y-109278691D01*
X60889760Y-109335801D01*
X61006174Y-109371115D01*
X61127240Y-109383039D01*
X61248306Y-109371115D01*
X61364720Y-109335801D01*
X61472007Y-109278455D01*
X61566045Y-109201280D01*
X62211280Y-108556045D01*
X62288455Y-108462007D01*
X62345801Y-108354720D01*
X62381115Y-108238306D01*
X62393039Y-108117240D01*
X62381115Y-107996174D01*
X62351979Y-107900127D01*
X62629681Y-107622425D01*
X62648764Y-107606764D01*
X62711246Y-107530629D01*
X62757675Y-107443767D01*
X62765394Y-107418321D01*
X62794938Y-107409359D01*
X62902226Y-107352013D01*
X62996264Y-107274838D01*
X63073439Y-107180800D01*
X63130785Y-107073513D01*
X63479984Y-106230473D01*
X63515298Y-106114059D01*
X63527222Y-105992993D01*
X63515298Y-105871927D01*
X63479984Y-105755513D01*
X63428500Y-105659193D01*
X63428500Y-105159543D01*
X63517017Y-105112230D01*
X63611055Y-105035055D01*
X63688230Y-104941017D01*
X63745576Y-104833730D01*
X63780890Y-104717316D01*
X63792814Y-104596250D01*
X63792814Y-103683750D01*
X63780890Y-103562684D01*
X63745576Y-103446270D01*
X63688230Y-103338983D01*
X63611055Y-103244945D01*
X63517017Y-103167770D01*
X63409730Y-103110424D01*
X63293316Y-103075110D01*
X63172250Y-103063186D01*
X62684750Y-103063186D01*
X62563684Y-103075110D01*
X62447270Y-103110424D01*
X62339983Y-103167770D01*
X62245945Y-103244945D01*
X62168770Y-103338983D01*
X62111424Y-103446270D01*
X62076110Y-103562684D01*
X62064186Y-103683750D01*
X62064186Y-104596250D01*
X62076110Y-104717316D01*
X62111424Y-104833730D01*
X62168770Y-104941017D01*
X62245945Y-105035055D01*
X62339983Y-105112230D01*
X62428501Y-105159544D01*
X62428501Y-105188606D01*
X62335201Y-105197795D01*
X62218788Y-105233109D01*
X62111500Y-105290455D01*
X62017462Y-105367630D01*
X61940287Y-105461668D01*
X61882941Y-105568955D01*
X61533742Y-106411995D01*
X61498428Y-106528409D01*
X61486504Y-106649475D01*
X61498428Y-106770541D01*
X61533742Y-106886955D01*
X61591088Y-106994242D01*
X61668263Y-107088280D01*
X61712945Y-107124949D01*
X61644873Y-107193021D01*
X61548826Y-107163885D01*
X61427760Y-107151961D01*
X61306694Y-107163885D01*
X61190280Y-107199199D01*
X61082993Y-107256545D01*
X60988955Y-107333720D01*
X60343720Y-107978955D01*
X60266545Y-108072993D01*
X60209199Y-108180280D01*
X60173885Y-108296694D01*
X60161961Y-108417760D01*
X60168029Y-108479366D01*
X60032580Y-108614815D01*
X59938220Y-108564379D01*
X59821807Y-108529065D01*
X59700741Y-108517141D01*
X59579675Y-108529065D01*
X59463261Y-108564379D01*
X58620221Y-108913578D01*
X58512934Y-108970924D01*
X58418896Y-109048099D01*
X58341721Y-109142137D01*
X58284375Y-109249424D01*
X58249061Y-109365838D01*
X58237620Y-109482000D01*
X58106043Y-109482000D01*
X58058730Y-109393483D01*
X57981555Y-109299445D01*
X57887517Y-109222270D01*
X57780230Y-109164924D01*
X57663816Y-109129610D01*
X57542750Y-109117686D01*
X56630250Y-109117686D01*
X56509184Y-109129610D01*
X56392770Y-109164924D01*
X56285483Y-109222270D01*
X56191445Y-109299445D01*
X56114270Y-109393483D01*
X56066957Y-109482000D01*
X55998880Y-109482000D01*
X55987439Y-109365838D01*
X55952125Y-109249425D01*
X55894779Y-109142137D01*
X55817604Y-109048099D01*
X55723566Y-108970924D01*
X55616279Y-108913578D01*
X55364000Y-108809080D01*
X55364000Y-108382646D01*
X55405018Y-108444034D01*
X55512966Y-108551982D01*
X55639900Y-108636796D01*
X55780941Y-108695217D01*
X55930669Y-108725000D01*
X56083331Y-108725000D01*
X56233059Y-108695217D01*
X56374100Y-108636796D01*
X56501034Y-108551982D01*
X56608982Y-108444034D01*
X56693796Y-108317100D01*
X56752217Y-108176059D01*
X56782000Y-108026331D01*
X56782000Y-107873669D01*
X56752217Y-107723941D01*
X56693796Y-107582900D01*
X56608982Y-107455966D01*
X56501501Y-107348485D01*
X56501501Y-105836891D01*
X56525014Y-105834575D01*
X56595701Y-105813132D01*
X56660848Y-105778310D01*
X56717949Y-105731449D01*
X56764810Y-105674348D01*
X56799632Y-105609201D01*
X56821075Y-105538514D01*
X56825852Y-105490000D01*
X57286437Y-105490000D01*
X57298659Y-105614090D01*
X57334854Y-105733411D01*
X57393633Y-105843378D01*
X57472736Y-105939764D01*
X57569122Y-106018867D01*
X57679089Y-106077646D01*
X57798410Y-106113841D01*
X57922500Y-106126063D01*
X58085250Y-106123000D01*
X58243500Y-105964750D01*
X58243500Y-105219000D01*
X58501500Y-105219000D01*
X58501500Y-105964750D01*
X58659750Y-106123000D01*
X58822500Y-106126063D01*
X58946590Y-106113841D01*
X59065911Y-106077646D01*
X59175878Y-106018867D01*
X59272264Y-105939764D01*
X59351367Y-105843378D01*
X59410146Y-105733411D01*
X59446341Y-105614090D01*
X59458563Y-105490000D01*
X59455500Y-105377250D01*
X59297250Y-105219000D01*
X58501500Y-105219000D01*
X58243500Y-105219000D01*
X57447750Y-105219000D01*
X57289500Y-105377250D01*
X57286437Y-105490000D01*
X56825852Y-105490000D01*
X56828315Y-105465001D01*
X56828315Y-104690000D01*
X57286437Y-104690000D01*
X57289500Y-104802750D01*
X57447750Y-104961000D01*
X58243500Y-104961000D01*
X58243500Y-104215250D01*
X58501500Y-104215250D01*
X58501500Y-104961000D01*
X59297250Y-104961000D01*
X59455500Y-104802750D01*
X59458563Y-104690000D01*
X59446341Y-104565910D01*
X59410146Y-104446589D01*
X59351367Y-104336622D01*
X59272264Y-104240236D01*
X59175878Y-104161133D01*
X59065911Y-104102354D01*
X58946590Y-104066159D01*
X58822500Y-104053937D01*
X58659750Y-104057000D01*
X58501500Y-104215250D01*
X58243500Y-104215250D01*
X58085250Y-104057000D01*
X57922500Y-104053937D01*
X57798410Y-104066159D01*
X57679089Y-104102354D01*
X57569122Y-104161133D01*
X57472736Y-104240236D01*
X57393633Y-104336622D01*
X57334854Y-104446589D01*
X57298659Y-104565910D01*
X57286437Y-104690000D01*
X56828315Y-104690000D01*
X56828315Y-104665001D01*
X56821075Y-104591488D01*
X56799632Y-104520801D01*
X56764810Y-104455654D01*
X56717949Y-104398553D01*
X56660848Y-104351692D01*
X56595701Y-104316870D01*
X56525014Y-104295427D01*
X56451501Y-104288187D01*
X55551501Y-104288187D01*
X55477988Y-104295427D01*
X55407301Y-104316870D01*
X55361247Y-104341487D01*
X55356765Y-104295983D01*
X55328175Y-104201733D01*
X55328082Y-104201558D01*
X55325176Y-104196122D01*
X55299477Y-104148043D01*
X55308090Y-104152647D01*
X55427411Y-104188842D01*
X55551501Y-104201064D01*
X55714251Y-104198001D01*
X55872501Y-104039751D01*
X55872501Y-103294001D01*
X56130501Y-103294001D01*
X56130501Y-104039751D01*
X56288751Y-104198001D01*
X56451501Y-104201064D01*
X56575591Y-104188842D01*
X56694912Y-104152647D01*
X56804879Y-104093868D01*
X56901265Y-104014765D01*
X56980368Y-103918379D01*
X57039147Y-103808412D01*
X57075342Y-103689091D01*
X57087564Y-103565001D01*
X57084501Y-103452251D01*
X56926251Y-103294001D01*
X56130501Y-103294001D01*
X55872501Y-103294001D01*
X55076751Y-103294001D01*
X54918501Y-103452251D01*
X54915438Y-103565001D01*
X54927660Y-103689091D01*
X54954264Y-103776795D01*
X54940265Y-103759737D01*
X54864130Y-103697255D01*
X54824480Y-103676062D01*
X54821075Y-103641488D01*
X54799632Y-103570801D01*
X54764810Y-103505654D01*
X54717949Y-103448553D01*
X54660848Y-103401692D01*
X54595701Y-103366870D01*
X54525014Y-103345427D01*
X54451501Y-103338187D01*
X53551501Y-103338187D01*
X53477988Y-103345427D01*
X53407301Y-103366870D01*
X53342154Y-103401692D01*
X53285053Y-103448553D01*
X53238192Y-103505654D01*
X53203370Y-103570801D01*
X53181927Y-103641488D01*
X53174687Y-103715001D01*
X53174687Y-104515001D01*
X53181927Y-104588514D01*
X53203370Y-104659201D01*
X53238192Y-104724348D01*
X53285053Y-104781449D01*
X53342154Y-104828310D01*
X53407301Y-104863132D01*
X53477988Y-104884575D01*
X53551501Y-104891815D01*
X54364000Y-104891815D01*
X54364001Y-108544442D01*
X54298279Y-108564379D01*
X54286683Y-108570577D01*
X54134607Y-108418502D01*
X54126115Y-108332281D01*
X54090801Y-108215867D01*
X54033455Y-108108580D01*
X53956280Y-108014542D01*
X53311045Y-107369307D01*
X53217007Y-107292132D01*
X53109720Y-107234786D01*
X52993306Y-107199472D01*
X52872240Y-107187548D01*
X52751174Y-107199472D01*
X52655127Y-107228608D01*
X52603931Y-107177412D01*
X52668275Y-107099008D01*
X52725621Y-106991720D01*
X52760935Y-106875307D01*
X52772859Y-106754241D01*
X52760935Y-106633175D01*
X52725621Y-106516761D01*
X52376422Y-105673721D01*
X52319076Y-105566434D01*
X52241901Y-105472396D01*
X52147863Y-105395221D01*
X52040576Y-105337875D01*
X51924162Y-105302561D01*
X51803096Y-105290637D01*
X51682030Y-105302561D01*
X51565617Y-105337875D01*
X51115226Y-105524433D01*
X51007938Y-105581779D01*
X50913900Y-105658954D01*
X50836725Y-105752992D01*
X50779379Y-105860280D01*
X50744065Y-105976693D01*
X50732141Y-106097759D01*
X50744065Y-106218825D01*
X50779379Y-106335239D01*
X51128578Y-107178279D01*
X51185924Y-107285566D01*
X51263099Y-107379604D01*
X51357137Y-107456779D01*
X51464424Y-107514125D01*
X51557884Y-107542476D01*
X51587736Y-107578851D01*
X51606824Y-107594516D01*
X51948021Y-107935714D01*
X51918885Y-108031761D01*
X51906961Y-108152827D01*
X51918885Y-108273893D01*
X51954199Y-108390307D01*
X52011545Y-108497594D01*
X52088720Y-108591632D01*
X52733955Y-109236867D01*
X52827993Y-109314042D01*
X52935280Y-109371388D01*
X53051694Y-109406702D01*
X53172760Y-109418626D01*
X53293826Y-109406702D01*
X53410240Y-109371388D01*
X53517527Y-109314042D01*
X53571578Y-109269683D01*
X53747163Y-109445268D01*
X53740561Y-109467030D01*
X53728637Y-109588096D01*
X53740561Y-109709162D01*
X53775875Y-109825575D01*
X53833221Y-109932863D01*
X53910396Y-110026901D01*
X54004434Y-110104076D01*
X54111721Y-110161422D01*
X54679630Y-110396658D01*
X54544144Y-110396658D01*
X54519584Y-110394239D01*
X54421567Y-110403893D01*
X54359824Y-110422622D01*
X54055707Y-110296653D01*
X53939293Y-110261339D01*
X53818227Y-110249415D01*
X53697161Y-110261339D01*
X53580747Y-110296653D01*
X53473460Y-110353999D01*
X53379422Y-110431174D01*
X53302247Y-110525212D01*
X53244901Y-110632500D01*
X53058343Y-111082891D01*
X53023029Y-111199304D01*
X53011105Y-111320370D01*
X53023029Y-111441436D01*
X53058343Y-111557849D01*
X53115689Y-111665137D01*
X53175756Y-111738329D01*
X45314961Y-111738329D01*
X45190274Y-111613643D01*
X45325100Y-111557796D01*
X45452034Y-111472982D01*
X45554016Y-111371000D01*
X50430027Y-111371000D01*
X50454587Y-111373419D01*
X50479147Y-111371000D01*
X50552604Y-111363765D01*
X50646854Y-111335175D01*
X50733716Y-111288746D01*
X50809851Y-111226264D01*
X50825516Y-111207176D01*
X51442111Y-110590582D01*
X51502167Y-110639868D01*
X51609454Y-110697214D01*
X51725868Y-110732528D01*
X51846934Y-110744452D01*
X51968000Y-110732528D01*
X52084414Y-110697214D01*
X52191701Y-110639868D01*
X52285739Y-110562693D01*
X52630454Y-110217978D01*
X52707629Y-110123940D01*
X52764975Y-110016653D01*
X52800289Y-109900239D01*
X52812213Y-109779173D01*
X52800289Y-109658107D01*
X52764975Y-109541693D01*
X52707629Y-109434406D01*
X52630454Y-109340368D01*
X51985219Y-108695133D01*
X51891181Y-108617958D01*
X51783894Y-108560612D01*
X51667480Y-108525298D01*
X51546414Y-108513374D01*
X51425348Y-108525298D01*
X51308934Y-108560612D01*
X51201647Y-108617958D01*
X51107609Y-108695133D01*
X50762894Y-109039848D01*
X50685719Y-109133886D01*
X50628373Y-109241173D01*
X50593059Y-109357587D01*
X50581135Y-109478653D01*
X50593059Y-109599719D01*
X50628373Y-109716133D01*
X50685719Y-109823420D01*
X50735005Y-109883476D01*
X50247482Y-110371000D01*
X45554016Y-110371000D01*
X45452034Y-110269018D01*
X45325100Y-110184204D01*
X45184059Y-110125783D01*
X45034331Y-110096000D01*
X44881669Y-110096000D01*
X44731941Y-110125783D01*
X44590900Y-110184204D01*
X44463966Y-110269018D01*
X44356018Y-110376966D01*
X44271204Y-110503900D01*
X44215357Y-110638726D01*
X43760209Y-110183579D01*
X43854737Y-110154904D01*
X43954461Y-110101600D01*
X44041869Y-110029866D01*
X44113603Y-109942458D01*
X44164628Y-109846997D01*
X44171443Y-109846997D01*
X44196003Y-109849416D01*
X44220563Y-109846997D01*
X44294020Y-109839762D01*
X44388270Y-109811172D01*
X44475132Y-109764743D01*
X44551267Y-109702261D01*
X44566932Y-109683173D01*
X47761984Y-106488122D01*
X47739000Y-106603669D01*
X47739000Y-106756331D01*
X47768783Y-106906059D01*
X47827204Y-107047100D01*
X47912018Y-107174034D01*
X48019966Y-107281982D01*
X48146900Y-107366796D01*
X48287941Y-107425217D01*
X48437669Y-107455000D01*
X48590331Y-107455000D01*
X48740059Y-107425217D01*
X48881100Y-107366796D01*
X49008034Y-107281982D01*
X49102796Y-107187220D01*
X49396304Y-107895811D01*
X49453650Y-108003098D01*
X49530825Y-108097136D01*
X49624863Y-108174311D01*
X49732150Y-108231657D01*
X49848564Y-108266971D01*
X49969630Y-108278895D01*
X50090696Y-108266971D01*
X50207109Y-108231657D01*
X50657500Y-108045099D01*
X50764788Y-107987753D01*
X50858826Y-107910578D01*
X50936001Y-107816540D01*
X50993347Y-107709252D01*
X51028661Y-107592839D01*
X51040585Y-107471773D01*
X51028661Y-107350707D01*
X50993347Y-107234293D01*
X50644148Y-106391253D01*
X50586802Y-106283966D01*
X50509627Y-106189928D01*
X50415589Y-106112753D01*
X50308302Y-106055407D01*
X50191888Y-106020093D01*
X50098178Y-106010863D01*
X50148217Y-105890059D01*
X50178000Y-105740331D01*
X50178000Y-105596106D01*
X50659824Y-105114283D01*
X50763270Y-105169576D01*
X50879684Y-105204890D01*
X51000750Y-105216814D01*
X51488250Y-105216814D01*
X51609316Y-105204890D01*
X51725730Y-105169576D01*
X51833017Y-105112230D01*
X51927055Y-105035055D01*
X52004230Y-104941017D01*
X52061576Y-104833730D01*
X52096890Y-104717316D01*
X52108814Y-104596250D01*
X52108814Y-103683750D01*
X52096890Y-103562684D01*
X52061576Y-103446270D01*
X52004230Y-103338983D01*
X51927055Y-103244945D01*
X51833017Y-103167770D01*
X51744500Y-103120457D01*
X51744500Y-102983592D01*
X51803096Y-102989363D01*
X51924162Y-102977439D01*
X52040575Y-102942125D01*
X52147863Y-102884779D01*
X52241901Y-102807604D01*
X52276864Y-102765001D01*
X54915438Y-102765001D01*
X54918501Y-102877751D01*
X55076751Y-103036001D01*
X55872501Y-103036001D01*
X55872501Y-102290251D01*
X56130501Y-102290251D01*
X56130501Y-103036001D01*
X56926251Y-103036001D01*
X57084501Y-102877751D01*
X57087564Y-102765001D01*
X57075342Y-102640911D01*
X57039147Y-102521590D01*
X56980368Y-102411623D01*
X56901265Y-102315237D01*
X56804879Y-102236134D01*
X56694912Y-102177355D01*
X56575591Y-102141160D01*
X56451501Y-102128938D01*
X56288751Y-102132001D01*
X56130501Y-102290251D01*
X55872501Y-102290251D01*
X55714251Y-102132001D01*
X55551501Y-102128938D01*
X55427411Y-102141160D01*
X55308090Y-102177355D01*
X55198123Y-102236134D01*
X55101737Y-102315237D01*
X55022634Y-102411623D01*
X54963855Y-102521590D01*
X54927660Y-102640911D01*
X54915438Y-102765001D01*
X52276864Y-102765001D01*
X52319076Y-102713566D01*
X52376422Y-102606279D01*
X52725621Y-101763239D01*
X52759768Y-101650669D01*
X57010000Y-101650669D01*
X57010000Y-101803331D01*
X57039783Y-101953059D01*
X57098204Y-102094100D01*
X57183018Y-102221034D01*
X57290966Y-102328982D01*
X57417900Y-102413796D01*
X57558941Y-102472217D01*
X57687455Y-102497780D01*
X57656052Y-102523552D01*
X57609191Y-102580653D01*
X57574369Y-102645800D01*
X57552926Y-102716487D01*
X57545686Y-102790000D01*
X57545686Y-103590000D01*
X57552926Y-103663513D01*
X57574369Y-103734200D01*
X57609191Y-103799347D01*
X57656052Y-103856448D01*
X57713153Y-103903309D01*
X57778300Y-103938131D01*
X57848987Y-103959574D01*
X57922500Y-103966814D01*
X58822500Y-103966814D01*
X58896013Y-103959574D01*
X58966700Y-103938131D01*
X59031847Y-103903309D01*
X59088948Y-103856448D01*
X59135809Y-103799347D01*
X59170631Y-103734200D01*
X59192074Y-103663513D01*
X59199314Y-103590000D01*
X59199314Y-102790000D01*
X59192074Y-102716487D01*
X59170631Y-102645800D01*
X59135809Y-102580653D01*
X59088948Y-102523552D01*
X59031847Y-102476691D01*
X58966700Y-102441869D01*
X58896013Y-102420426D01*
X58872500Y-102418110D01*
X58872500Y-102339049D01*
X58874918Y-102314499D01*
X58872500Y-102289949D01*
X58872500Y-102289940D01*
X58865265Y-102216483D01*
X58836675Y-102122233D01*
X58790246Y-102035371D01*
X58727764Y-101959236D01*
X58708686Y-101943580D01*
X58560000Y-101794894D01*
X58560000Y-101650669D01*
X58530217Y-101500941D01*
X58471796Y-101359900D01*
X58386982Y-101232966D01*
X58279034Y-101125018D01*
X58152100Y-101040204D01*
X58011059Y-100981783D01*
X57861331Y-100952000D01*
X57708669Y-100952000D01*
X57558941Y-100981783D01*
X57417900Y-101040204D01*
X57290966Y-101125018D01*
X57183018Y-101232966D01*
X57098204Y-101359900D01*
X57039783Y-101500941D01*
X57010000Y-101650669D01*
X52759768Y-101650669D01*
X52760935Y-101646825D01*
X52772859Y-101525759D01*
X52760935Y-101404693D01*
X52725621Y-101288279D01*
X52668275Y-101180992D01*
X52591349Y-101087257D01*
X52655127Y-101023479D01*
X52751174Y-101052615D01*
X52872240Y-101064539D01*
X52993306Y-101052615D01*
X53109720Y-101017301D01*
X53217007Y-100959955D01*
X53311045Y-100882780D01*
X53956280Y-100237545D01*
X54033455Y-100143507D01*
X54090801Y-100036220D01*
X54126115Y-99919806D01*
X54138039Y-99798740D01*
X54137665Y-99794940D01*
X54308802Y-99623804D01*
X54361780Y-99652121D01*
X54478193Y-99687435D01*
X54599259Y-99699359D01*
X54720325Y-99687435D01*
X54836739Y-99652121D01*
X55679779Y-99302922D01*
X55787066Y-99245576D01*
X55881104Y-99168401D01*
X55958279Y-99074363D01*
X56015625Y-98967076D01*
X56050939Y-98850662D01*
X56056126Y-98798000D01*
X56066957Y-98798000D01*
X56114270Y-98886517D01*
G04 #@! TA.AperFunction,Conductor*
D18*
G36*
X56114270Y-98886517D02*
G01*
X56191445Y-98980555D01*
X56285483Y-99057730D01*
X56392770Y-99115076D01*
X56509184Y-99150390D01*
X56630250Y-99162314D01*
X57542750Y-99162314D01*
X57663816Y-99150390D01*
X57780230Y-99115076D01*
X57887517Y-99057730D01*
X57981555Y-98980555D01*
X58058730Y-98886517D01*
X58106043Y-98798000D01*
X58116874Y-98798000D01*
X58122061Y-98850662D01*
X58157375Y-98967075D01*
X58214721Y-99074363D01*
X58291896Y-99168401D01*
X58385934Y-99245576D01*
X58493221Y-99302922D01*
X59336261Y-99652121D01*
X59452675Y-99687435D01*
X59573741Y-99699359D01*
X59694807Y-99687435D01*
X59811221Y-99652121D01*
X59905579Y-99601686D01*
X59983826Y-99679933D01*
X59979135Y-99727566D01*
X59991059Y-99848632D01*
X60026373Y-99965046D01*
X60083719Y-100072333D01*
X60160894Y-100166371D01*
X60806129Y-100811606D01*
X60900167Y-100888781D01*
X61007454Y-100946127D01*
X61123868Y-100981441D01*
X61244934Y-100993365D01*
X61366000Y-100981441D01*
X61462047Y-100952305D01*
X61531323Y-101021582D01*
X61504725Y-101053992D01*
X61447379Y-101161280D01*
X61412065Y-101277693D01*
X61400141Y-101398759D01*
X61412065Y-101519825D01*
X61447379Y-101636239D01*
X61607672Y-102023221D01*
X60267709Y-103363186D01*
X59922500Y-103363186D01*
X59848987Y-103370426D01*
X59778300Y-103391869D01*
X59713153Y-103426691D01*
X59656052Y-103473552D01*
X59609191Y-103530653D01*
X59574369Y-103595800D01*
X59552926Y-103666487D01*
X59545686Y-103740000D01*
X59545686Y-104540000D01*
X59552926Y-104613513D01*
X59574369Y-104684200D01*
X59609191Y-104749347D01*
X59656052Y-104806448D01*
X59713153Y-104853309D01*
X59778300Y-104888131D01*
X59848987Y-104909574D01*
X59922500Y-104916814D01*
X60822500Y-104916814D01*
X60896013Y-104909574D01*
X60966700Y-104888131D01*
X61031847Y-104853309D01*
X61088948Y-104806448D01*
X61135809Y-104749347D01*
X61170631Y-104684200D01*
X61192074Y-104613513D01*
X61199314Y-104540000D01*
X61199314Y-103845791D01*
X62207275Y-102837831D01*
X62248838Y-102850439D01*
X62369904Y-102862363D01*
X62490970Y-102850439D01*
X62607383Y-102815125D01*
X63057774Y-102628567D01*
X63165062Y-102571221D01*
X63259100Y-102494046D01*
X63336275Y-102400008D01*
X63393621Y-102292720D01*
X63428935Y-102176307D01*
X63440859Y-102055241D01*
X63428935Y-101934175D01*
X63393621Y-101817761D01*
X63044422Y-100974721D01*
X62987076Y-100867434D01*
X62909901Y-100773396D01*
X62815863Y-100696221D01*
X62708576Y-100638875D01*
X62592162Y-100603561D01*
X62520453Y-100596498D01*
X62345480Y-100421525D01*
X62414549Y-100428328D01*
X62439109Y-100425909D01*
X63189188Y-100425909D01*
X63179653Y-100443748D01*
X63144339Y-100560161D01*
X63132415Y-100681227D01*
X63144339Y-100802293D01*
X63179653Y-100918707D01*
X63528852Y-101761747D01*
X63586198Y-101869034D01*
X63663373Y-101963072D01*
X63757411Y-102040247D01*
X63864698Y-102097593D01*
X63981112Y-102132907D01*
X64102178Y-102144831D01*
X64223244Y-102132907D01*
X64339657Y-102097593D01*
X64790048Y-101911035D01*
X64897336Y-101853689D01*
X64991374Y-101776514D01*
X65068549Y-101682476D01*
X65125895Y-101575188D01*
X65161209Y-101458775D01*
X65163058Y-101440000D01*
X65643984Y-101440000D01*
X65745966Y-101541982D01*
X65872900Y-101626796D01*
X66013941Y-101685217D01*
X66163669Y-101715000D01*
X66316331Y-101715000D01*
X66466059Y-101685217D01*
X66607100Y-101626796D01*
X66734034Y-101541982D01*
X66841982Y-101434034D01*
X66926796Y-101307100D01*
X66985217Y-101166059D01*
X67015000Y-101016331D01*
X67015000Y-100863669D01*
X66985217Y-100713941D01*
X66926796Y-100572900D01*
X66841982Y-100445966D01*
X66821925Y-100425909D01*
X68283405Y-100425909D01*
X68282926Y-100427487D01*
X68275686Y-100501000D01*
X68275686Y-102501000D01*
X68282926Y-102574513D01*
X68304369Y-102645200D01*
X68339191Y-102710347D01*
X68386052Y-102767448D01*
X68443153Y-102814309D01*
X68508300Y-102849131D01*
X68578987Y-102870574D01*
X68652500Y-102877814D01*
X68711747Y-102877814D01*
X69652500Y-103818566D01*
X69666642Y-103804424D01*
X69849076Y-103986858D01*
X69834934Y-104001000D01*
X69849076Y-104015142D01*
X69666642Y-104197576D01*
X69652500Y-104183434D01*
X68699300Y-105136633D01*
X68795352Y-105400232D01*
X68812523Y-105408557D01*
X68775989Y-105432968D01*
X68584468Y-105624489D01*
X68433991Y-105849693D01*
X68330341Y-106099927D01*
X68277500Y-106365574D01*
X68277500Y-106636426D01*
X68330341Y-106902073D01*
X68433991Y-107152307D01*
X68584468Y-107377511D01*
X68775989Y-107569032D01*
X69001193Y-107719509D01*
X69251427Y-107823159D01*
X69517074Y-107876000D01*
X69531395Y-107876000D01*
X65669068Y-111738329D01*
X62383556Y-111738329D01*
X62397995Y-111733949D01*
X62484857Y-111687520D01*
X62560992Y-111625038D01*
X62576657Y-111605950D01*
X67963687Y-106218922D01*
X67982764Y-106203266D01*
X68045246Y-106127131D01*
X68091675Y-106040269D01*
X68120265Y-105946019D01*
X68127500Y-105872562D01*
X68127500Y-105872553D01*
X68129918Y-105848003D01*
X68127500Y-105823453D01*
X68127500Y-104587519D01*
X68162436Y-104688214D01*
X68253268Y-104858148D01*
X68516867Y-104954200D01*
X69470066Y-104001000D01*
X68516867Y-103047800D01*
X68253268Y-103143852D01*
X68179509Y-103295983D01*
X68121534Y-103238008D01*
X67994600Y-103153194D01*
X67853559Y-103094773D01*
X67703831Y-103064990D01*
X67551169Y-103064990D01*
X67401441Y-103094773D01*
X67260400Y-103153194D01*
X67133466Y-103238008D01*
X67025518Y-103345956D01*
X66940704Y-103472890D01*
X66882283Y-103613931D01*
X66852500Y-103763659D01*
X66852500Y-103916321D01*
X66882283Y-104066049D01*
X66940704Y-104207090D01*
X67025518Y-104334024D01*
X67127501Y-104436007D01*
X67127500Y-105640895D01*
X66740327Y-106028068D01*
X66726796Y-105995400D01*
X66641982Y-105868466D01*
X66540000Y-105766484D01*
X66540000Y-105401057D01*
X66542419Y-105376499D01*
X66539122Y-105343024D01*
X66532765Y-105278483D01*
X66504175Y-105184233D01*
X66457746Y-105097371D01*
X66395264Y-105021236D01*
X66376181Y-105005575D01*
X65667814Y-104297209D01*
X65667814Y-103683750D01*
X65655890Y-103562684D01*
X65620576Y-103446270D01*
X65563230Y-103338983D01*
X65486055Y-103244945D01*
X65392017Y-103167770D01*
X65284730Y-103110424D01*
X65168316Y-103075110D01*
X65047250Y-103063186D01*
X64559750Y-103063186D01*
X64438684Y-103075110D01*
X64322270Y-103110424D01*
X64214983Y-103167770D01*
X64120945Y-103244945D01*
X64043770Y-103338983D01*
X63986424Y-103446270D01*
X63951110Y-103562684D01*
X63939186Y-103683750D01*
X63939186Y-104596250D01*
X63951110Y-104717316D01*
X63986424Y-104833730D01*
X64043770Y-104941017D01*
X64120945Y-105035055D01*
X64214983Y-105112230D01*
X64322270Y-105169576D01*
X64438684Y-105204890D01*
X64559750Y-105216814D01*
X64565670Y-105216814D01*
X64549018Y-105233466D01*
X64464204Y-105360400D01*
X64405783Y-105501441D01*
X64376000Y-105651169D01*
X64376000Y-105795394D01*
X64260868Y-105910527D01*
X64188541Y-105903403D01*
X64067475Y-105915327D01*
X63951062Y-105950641D01*
X63843774Y-106007987D01*
X63749736Y-106085162D01*
X63672561Y-106179200D01*
X63615215Y-106286487D01*
X63266016Y-107129527D01*
X63230702Y-107245941D01*
X63218778Y-107367007D01*
X63230702Y-107488073D01*
X63266016Y-107604487D01*
X63323362Y-107711774D01*
X63377364Y-107777576D01*
X63259966Y-107856018D01*
X63152018Y-107963966D01*
X63067204Y-108090900D01*
X63008783Y-108231941D01*
X62979000Y-108381669D01*
X62979000Y-108521365D01*
X62874652Y-108489711D01*
X62753586Y-108477787D01*
X62632520Y-108489711D01*
X62516106Y-108525025D01*
X62408819Y-108582371D01*
X62314781Y-108659546D01*
X61669546Y-109304781D01*
X61592371Y-109398819D01*
X61535025Y-109506106D01*
X61499711Y-109622520D01*
X61487787Y-109743586D01*
X61499711Y-109864652D01*
X61535025Y-109981066D01*
X61592371Y-110088353D01*
X61669546Y-110182391D01*
X62014261Y-110527106D01*
X62108299Y-110604281D01*
X62144673Y-110623723D01*
X61998623Y-110769774D01*
X61048460Y-110769774D01*
X60991599Y-110632500D01*
X60934253Y-110525212D01*
X60857078Y-110431174D01*
X60763040Y-110353999D01*
X60655752Y-110296653D01*
X60539339Y-110261339D01*
X60418273Y-110249415D01*
X60297207Y-110261339D01*
X60180793Y-110296653D01*
X59337753Y-110645852D01*
X59230466Y-110703198D01*
X59136428Y-110780373D01*
X59059253Y-110874411D01*
X59001907Y-110981698D01*
X58996035Y-111001057D01*
X58555459Y-110560482D01*
X58539794Y-110541394D01*
X58467422Y-110482000D01*
X58753233Y-110482000D01*
X58806780Y-110510621D01*
X58923193Y-110545935D01*
X59044259Y-110557859D01*
X59165325Y-110545935D01*
X59281739Y-110510621D01*
X60124779Y-110161422D01*
X60232066Y-110104076D01*
X60326104Y-110026901D01*
X60403279Y-109932863D01*
X60460625Y-109825576D01*
X60495939Y-109709162D01*
X60507863Y-109588096D01*
X60504783Y-109556823D01*
X60782915Y-109278691D01*
X60889760Y-109335801D01*
X61006174Y-109371115D01*
X61127240Y-109383039D01*
X61248306Y-109371115D01*
X61364720Y-109335801D01*
X61472007Y-109278455D01*
X61566045Y-109201280D01*
X62211280Y-108556045D01*
X62288455Y-108462007D01*
X62345801Y-108354720D01*
X62381115Y-108238306D01*
X62393039Y-108117240D01*
X62381115Y-107996174D01*
X62351979Y-107900127D01*
X62629681Y-107622425D01*
X62648764Y-107606764D01*
X62711246Y-107530629D01*
X62757675Y-107443767D01*
X62765394Y-107418321D01*
X62794938Y-107409359D01*
X62902226Y-107352013D01*
X62996264Y-107274838D01*
X63073439Y-107180800D01*
X63130785Y-107073513D01*
X63479984Y-106230473D01*
X63515298Y-106114059D01*
X63527222Y-105992993D01*
X63515298Y-105871927D01*
X63479984Y-105755513D01*
X63428500Y-105659193D01*
X63428500Y-105159543D01*
X63517017Y-105112230D01*
X63611055Y-105035055D01*
X63688230Y-104941017D01*
X63745576Y-104833730D01*
X63780890Y-104717316D01*
X63792814Y-104596250D01*
X63792814Y-103683750D01*
X63780890Y-103562684D01*
X63745576Y-103446270D01*
X63688230Y-103338983D01*
X63611055Y-103244945D01*
X63517017Y-103167770D01*
X63409730Y-103110424D01*
X63293316Y-103075110D01*
X63172250Y-103063186D01*
X62684750Y-103063186D01*
X62563684Y-103075110D01*
X62447270Y-103110424D01*
X62339983Y-103167770D01*
X62245945Y-103244945D01*
X62168770Y-103338983D01*
X62111424Y-103446270D01*
X62076110Y-103562684D01*
X62064186Y-103683750D01*
X62064186Y-104596250D01*
X62076110Y-104717316D01*
X62111424Y-104833730D01*
X62168770Y-104941017D01*
X62245945Y-105035055D01*
X62339983Y-105112230D01*
X62428501Y-105159544D01*
X62428501Y-105188606D01*
X62335201Y-105197795D01*
X62218788Y-105233109D01*
X62111500Y-105290455D01*
X62017462Y-105367630D01*
X61940287Y-105461668D01*
X61882941Y-105568955D01*
X61533742Y-106411995D01*
X61498428Y-106528409D01*
X61486504Y-106649475D01*
X61498428Y-106770541D01*
X61533742Y-106886955D01*
X61591088Y-106994242D01*
X61668263Y-107088280D01*
X61712945Y-107124949D01*
X61644873Y-107193021D01*
X61548826Y-107163885D01*
X61427760Y-107151961D01*
X61306694Y-107163885D01*
X61190280Y-107199199D01*
X61082993Y-107256545D01*
X60988955Y-107333720D01*
X60343720Y-107978955D01*
X60266545Y-108072993D01*
X60209199Y-108180280D01*
X60173885Y-108296694D01*
X60161961Y-108417760D01*
X60168029Y-108479366D01*
X60032580Y-108614815D01*
X59938220Y-108564379D01*
X59821807Y-108529065D01*
X59700741Y-108517141D01*
X59579675Y-108529065D01*
X59463261Y-108564379D01*
X58620221Y-108913578D01*
X58512934Y-108970924D01*
X58418896Y-109048099D01*
X58341721Y-109142137D01*
X58284375Y-109249424D01*
X58249061Y-109365838D01*
X58237620Y-109482000D01*
X58106043Y-109482000D01*
X58058730Y-109393483D01*
X57981555Y-109299445D01*
X57887517Y-109222270D01*
X57780230Y-109164924D01*
X57663816Y-109129610D01*
X57542750Y-109117686D01*
X56630250Y-109117686D01*
X56509184Y-109129610D01*
X56392770Y-109164924D01*
X56285483Y-109222270D01*
X56191445Y-109299445D01*
X56114270Y-109393483D01*
X56066957Y-109482000D01*
X55998880Y-109482000D01*
X55987439Y-109365838D01*
X55952125Y-109249425D01*
X55894779Y-109142137D01*
X55817604Y-109048099D01*
X55723566Y-108970924D01*
X55616279Y-108913578D01*
X55364000Y-108809080D01*
X55364000Y-108382646D01*
X55405018Y-108444034D01*
X55512966Y-108551982D01*
X55639900Y-108636796D01*
X55780941Y-108695217D01*
X55930669Y-108725000D01*
X56083331Y-108725000D01*
X56233059Y-108695217D01*
X56374100Y-108636796D01*
X56501034Y-108551982D01*
X56608982Y-108444034D01*
X56693796Y-108317100D01*
X56752217Y-108176059D01*
X56782000Y-108026331D01*
X56782000Y-107873669D01*
X56752217Y-107723941D01*
X56693796Y-107582900D01*
X56608982Y-107455966D01*
X56501501Y-107348485D01*
X56501501Y-105836891D01*
X56525014Y-105834575D01*
X56595701Y-105813132D01*
X56660848Y-105778310D01*
X56717949Y-105731449D01*
X56764810Y-105674348D01*
X56799632Y-105609201D01*
X56821075Y-105538514D01*
X56825852Y-105490000D01*
X57286437Y-105490000D01*
X57298659Y-105614090D01*
X57334854Y-105733411D01*
X57393633Y-105843378D01*
X57472736Y-105939764D01*
X57569122Y-106018867D01*
X57679089Y-106077646D01*
X57798410Y-106113841D01*
X57922500Y-106126063D01*
X58085250Y-106123000D01*
X58243500Y-105964750D01*
X58243500Y-105219000D01*
X58501500Y-105219000D01*
X58501500Y-105964750D01*
X58659750Y-106123000D01*
X58822500Y-106126063D01*
X58946590Y-106113841D01*
X59065911Y-106077646D01*
X59175878Y-106018867D01*
X59272264Y-105939764D01*
X59351367Y-105843378D01*
X59410146Y-105733411D01*
X59446341Y-105614090D01*
X59458563Y-105490000D01*
X59455500Y-105377250D01*
X59297250Y-105219000D01*
X58501500Y-105219000D01*
X58243500Y-105219000D01*
X57447750Y-105219000D01*
X57289500Y-105377250D01*
X57286437Y-105490000D01*
X56825852Y-105490000D01*
X56828315Y-105465001D01*
X56828315Y-104690000D01*
X57286437Y-104690000D01*
X57289500Y-104802750D01*
X57447750Y-104961000D01*
X58243500Y-104961000D01*
X58243500Y-104215250D01*
X58501500Y-104215250D01*
X58501500Y-104961000D01*
X59297250Y-104961000D01*
X59455500Y-104802750D01*
X59458563Y-104690000D01*
X59446341Y-104565910D01*
X59410146Y-104446589D01*
X59351367Y-104336622D01*
X59272264Y-104240236D01*
X59175878Y-104161133D01*
X59065911Y-104102354D01*
X58946590Y-104066159D01*
X58822500Y-104053937D01*
X58659750Y-104057000D01*
X58501500Y-104215250D01*
X58243500Y-104215250D01*
X58085250Y-104057000D01*
X57922500Y-104053937D01*
X57798410Y-104066159D01*
X57679089Y-104102354D01*
X57569122Y-104161133D01*
X57472736Y-104240236D01*
X57393633Y-104336622D01*
X57334854Y-104446589D01*
X57298659Y-104565910D01*
X57286437Y-104690000D01*
X56828315Y-104690000D01*
X56828315Y-104665001D01*
X56821075Y-104591488D01*
X56799632Y-104520801D01*
X56764810Y-104455654D01*
X56717949Y-104398553D01*
X56660848Y-104351692D01*
X56595701Y-104316870D01*
X56525014Y-104295427D01*
X56451501Y-104288187D01*
X55551501Y-104288187D01*
X55477988Y-104295427D01*
X55407301Y-104316870D01*
X55361247Y-104341487D01*
X55356765Y-104295983D01*
X55328175Y-104201733D01*
X55328082Y-104201558D01*
X55325176Y-104196122D01*
X55299477Y-104148043D01*
X55308090Y-104152647D01*
X55427411Y-104188842D01*
X55551501Y-104201064D01*
X55714251Y-104198001D01*
X55872501Y-104039751D01*
X55872501Y-103294001D01*
X56130501Y-103294001D01*
X56130501Y-104039751D01*
X56288751Y-104198001D01*
X56451501Y-104201064D01*
X56575591Y-104188842D01*
X56694912Y-104152647D01*
X56804879Y-104093868D01*
X56901265Y-104014765D01*
X56980368Y-103918379D01*
X57039147Y-103808412D01*
X57075342Y-103689091D01*
X57087564Y-103565001D01*
X57084501Y-103452251D01*
X56926251Y-103294001D01*
X56130501Y-103294001D01*
X55872501Y-103294001D01*
X55076751Y-103294001D01*
X54918501Y-103452251D01*
X54915438Y-103565001D01*
X54927660Y-103689091D01*
X54954264Y-103776795D01*
X54940265Y-103759737D01*
X54864130Y-103697255D01*
X54824480Y-103676062D01*
X54821075Y-103641488D01*
X54799632Y-103570801D01*
X54764810Y-103505654D01*
X54717949Y-103448553D01*
X54660848Y-103401692D01*
X54595701Y-103366870D01*
X54525014Y-103345427D01*
X54451501Y-103338187D01*
X53551501Y-103338187D01*
X53477988Y-103345427D01*
X53407301Y-103366870D01*
X53342154Y-103401692D01*
X53285053Y-103448553D01*
X53238192Y-103505654D01*
X53203370Y-103570801D01*
X53181927Y-103641488D01*
X53174687Y-103715001D01*
X53174687Y-104515001D01*
X53181927Y-104588514D01*
X53203370Y-104659201D01*
X53238192Y-104724348D01*
X53285053Y-104781449D01*
X53342154Y-104828310D01*
X53407301Y-104863132D01*
X53477988Y-104884575D01*
X53551501Y-104891815D01*
X54364000Y-104891815D01*
X54364001Y-108544442D01*
X54298279Y-108564379D01*
X54286683Y-108570577D01*
X54134607Y-108418502D01*
X54126115Y-108332281D01*
X54090801Y-108215867D01*
X54033455Y-108108580D01*
X53956280Y-108014542D01*
X53311045Y-107369307D01*
X53217007Y-107292132D01*
X53109720Y-107234786D01*
X52993306Y-107199472D01*
X52872240Y-107187548D01*
X52751174Y-107199472D01*
X52655127Y-107228608D01*
X52603931Y-107177412D01*
X52668275Y-107099008D01*
X52725621Y-106991720D01*
X52760935Y-106875307D01*
X52772859Y-106754241D01*
X52760935Y-106633175D01*
X52725621Y-106516761D01*
X52376422Y-105673721D01*
X52319076Y-105566434D01*
X52241901Y-105472396D01*
X52147863Y-105395221D01*
X52040576Y-105337875D01*
X51924162Y-105302561D01*
X51803096Y-105290637D01*
X51682030Y-105302561D01*
X51565617Y-105337875D01*
X51115226Y-105524433D01*
X51007938Y-105581779D01*
X50913900Y-105658954D01*
X50836725Y-105752992D01*
X50779379Y-105860280D01*
X50744065Y-105976693D01*
X50732141Y-106097759D01*
X50744065Y-106218825D01*
X50779379Y-106335239D01*
X51128578Y-107178279D01*
X51185924Y-107285566D01*
X51263099Y-107379604D01*
X51357137Y-107456779D01*
X51464424Y-107514125D01*
X51557884Y-107542476D01*
X51587736Y-107578851D01*
X51606824Y-107594516D01*
X51948021Y-107935714D01*
X51918885Y-108031761D01*
X51906961Y-108152827D01*
X51918885Y-108273893D01*
X51954199Y-108390307D01*
X52011545Y-108497594D01*
X52088720Y-108591632D01*
X52733955Y-109236867D01*
X52827993Y-109314042D01*
X52935280Y-109371388D01*
X53051694Y-109406702D01*
X53172760Y-109418626D01*
X53293826Y-109406702D01*
X53410240Y-109371388D01*
X53517527Y-109314042D01*
X53571578Y-109269683D01*
X53747163Y-109445268D01*
X53740561Y-109467030D01*
X53728637Y-109588096D01*
X53740561Y-109709162D01*
X53775875Y-109825575D01*
X53833221Y-109932863D01*
X53910396Y-110026901D01*
X54004434Y-110104076D01*
X54111721Y-110161422D01*
X54679630Y-110396658D01*
X54544144Y-110396658D01*
X54519584Y-110394239D01*
X54421567Y-110403893D01*
X54359824Y-110422622D01*
X54055707Y-110296653D01*
X53939293Y-110261339D01*
X53818227Y-110249415D01*
X53697161Y-110261339D01*
X53580747Y-110296653D01*
X53473460Y-110353999D01*
X53379422Y-110431174D01*
X53302247Y-110525212D01*
X53244901Y-110632500D01*
X53058343Y-111082891D01*
X53023029Y-111199304D01*
X53011105Y-111320370D01*
X53023029Y-111441436D01*
X53058343Y-111557849D01*
X53115689Y-111665137D01*
X53175756Y-111738329D01*
X45314961Y-111738329D01*
X45190274Y-111613643D01*
X45325100Y-111557796D01*
X45452034Y-111472982D01*
X45554016Y-111371000D01*
X50430027Y-111371000D01*
X50454587Y-111373419D01*
X50479147Y-111371000D01*
X50552604Y-111363765D01*
X50646854Y-111335175D01*
X50733716Y-111288746D01*
X50809851Y-111226264D01*
X50825516Y-111207176D01*
X51442111Y-110590582D01*
X51502167Y-110639868D01*
X51609454Y-110697214D01*
X51725868Y-110732528D01*
X51846934Y-110744452D01*
X51968000Y-110732528D01*
X52084414Y-110697214D01*
X52191701Y-110639868D01*
X52285739Y-110562693D01*
X52630454Y-110217978D01*
X52707629Y-110123940D01*
X52764975Y-110016653D01*
X52800289Y-109900239D01*
X52812213Y-109779173D01*
X52800289Y-109658107D01*
X52764975Y-109541693D01*
X52707629Y-109434406D01*
X52630454Y-109340368D01*
X51985219Y-108695133D01*
X51891181Y-108617958D01*
X51783894Y-108560612D01*
X51667480Y-108525298D01*
X51546414Y-108513374D01*
X51425348Y-108525298D01*
X51308934Y-108560612D01*
X51201647Y-108617958D01*
X51107609Y-108695133D01*
X50762894Y-109039848D01*
X50685719Y-109133886D01*
X50628373Y-109241173D01*
X50593059Y-109357587D01*
X50581135Y-109478653D01*
X50593059Y-109599719D01*
X50628373Y-109716133D01*
X50685719Y-109823420D01*
X50735005Y-109883476D01*
X50247482Y-110371000D01*
X45554016Y-110371000D01*
X45452034Y-110269018D01*
X45325100Y-110184204D01*
X45184059Y-110125783D01*
X45034331Y-110096000D01*
X44881669Y-110096000D01*
X44731941Y-110125783D01*
X44590900Y-110184204D01*
X44463966Y-110269018D01*
X44356018Y-110376966D01*
X44271204Y-110503900D01*
X44215357Y-110638726D01*
X43760209Y-110183579D01*
X43854737Y-110154904D01*
X43954461Y-110101600D01*
X44041869Y-110029866D01*
X44113603Y-109942458D01*
X44164628Y-109846997D01*
X44171443Y-109846997D01*
X44196003Y-109849416D01*
X44220563Y-109846997D01*
X44294020Y-109839762D01*
X44388270Y-109811172D01*
X44475132Y-109764743D01*
X44551267Y-109702261D01*
X44566932Y-109683173D01*
X47761984Y-106488122D01*
X47739000Y-106603669D01*
X47739000Y-106756331D01*
X47768783Y-106906059D01*
X47827204Y-107047100D01*
X47912018Y-107174034D01*
X48019966Y-107281982D01*
X48146900Y-107366796D01*
X48287941Y-107425217D01*
X48437669Y-107455000D01*
X48590331Y-107455000D01*
X48740059Y-107425217D01*
X48881100Y-107366796D01*
X49008034Y-107281982D01*
X49102796Y-107187220D01*
X49396304Y-107895811D01*
X49453650Y-108003098D01*
X49530825Y-108097136D01*
X49624863Y-108174311D01*
X49732150Y-108231657D01*
X49848564Y-108266971D01*
X49969630Y-108278895D01*
X50090696Y-108266971D01*
X50207109Y-108231657D01*
X50657500Y-108045099D01*
X50764788Y-107987753D01*
X50858826Y-107910578D01*
X50936001Y-107816540D01*
X50993347Y-107709252D01*
X51028661Y-107592839D01*
X51040585Y-107471773D01*
X51028661Y-107350707D01*
X50993347Y-107234293D01*
X50644148Y-106391253D01*
X50586802Y-106283966D01*
X50509627Y-106189928D01*
X50415589Y-106112753D01*
X50308302Y-106055407D01*
X50191888Y-106020093D01*
X50098178Y-106010863D01*
X50148217Y-105890059D01*
X50178000Y-105740331D01*
X50178000Y-105596106D01*
X50659824Y-105114283D01*
X50763270Y-105169576D01*
X50879684Y-105204890D01*
X51000750Y-105216814D01*
X51488250Y-105216814D01*
X51609316Y-105204890D01*
X51725730Y-105169576D01*
X51833017Y-105112230D01*
X51927055Y-105035055D01*
X52004230Y-104941017D01*
X52061576Y-104833730D01*
X52096890Y-104717316D01*
X52108814Y-104596250D01*
X52108814Y-103683750D01*
X52096890Y-103562684D01*
X52061576Y-103446270D01*
X52004230Y-103338983D01*
X51927055Y-103244945D01*
X51833017Y-103167770D01*
X51744500Y-103120457D01*
X51744500Y-102983592D01*
X51803096Y-102989363D01*
X51924162Y-102977439D01*
X52040575Y-102942125D01*
X52147863Y-102884779D01*
X52241901Y-102807604D01*
X52276864Y-102765001D01*
X54915438Y-102765001D01*
X54918501Y-102877751D01*
X55076751Y-103036001D01*
X55872501Y-103036001D01*
X55872501Y-102290251D01*
X56130501Y-102290251D01*
X56130501Y-103036001D01*
X56926251Y-103036001D01*
X57084501Y-102877751D01*
X57087564Y-102765001D01*
X57075342Y-102640911D01*
X57039147Y-102521590D01*
X56980368Y-102411623D01*
X56901265Y-102315237D01*
X56804879Y-102236134D01*
X56694912Y-102177355D01*
X56575591Y-102141160D01*
X56451501Y-102128938D01*
X56288751Y-102132001D01*
X56130501Y-102290251D01*
X55872501Y-102290251D01*
X55714251Y-102132001D01*
X55551501Y-102128938D01*
X55427411Y-102141160D01*
X55308090Y-102177355D01*
X55198123Y-102236134D01*
X55101737Y-102315237D01*
X55022634Y-102411623D01*
X54963855Y-102521590D01*
X54927660Y-102640911D01*
X54915438Y-102765001D01*
X52276864Y-102765001D01*
X52319076Y-102713566D01*
X52376422Y-102606279D01*
X52725621Y-101763239D01*
X52759768Y-101650669D01*
X57010000Y-101650669D01*
X57010000Y-101803331D01*
X57039783Y-101953059D01*
X57098204Y-102094100D01*
X57183018Y-102221034D01*
X57290966Y-102328982D01*
X57417900Y-102413796D01*
X57558941Y-102472217D01*
X57687455Y-102497780D01*
X57656052Y-102523552D01*
X57609191Y-102580653D01*
X57574369Y-102645800D01*
X57552926Y-102716487D01*
X57545686Y-102790000D01*
X57545686Y-103590000D01*
X57552926Y-103663513D01*
X57574369Y-103734200D01*
X57609191Y-103799347D01*
X57656052Y-103856448D01*
X57713153Y-103903309D01*
X57778300Y-103938131D01*
X57848987Y-103959574D01*
X57922500Y-103966814D01*
X58822500Y-103966814D01*
X58896013Y-103959574D01*
X58966700Y-103938131D01*
X59031847Y-103903309D01*
X59088948Y-103856448D01*
X59135809Y-103799347D01*
X59170631Y-103734200D01*
X59192074Y-103663513D01*
X59199314Y-103590000D01*
X59199314Y-102790000D01*
X59192074Y-102716487D01*
X59170631Y-102645800D01*
X59135809Y-102580653D01*
X59088948Y-102523552D01*
X59031847Y-102476691D01*
X58966700Y-102441869D01*
X58896013Y-102420426D01*
X58872500Y-102418110D01*
X58872500Y-102339049D01*
X58874918Y-102314499D01*
X58872500Y-102289949D01*
X58872500Y-102289940D01*
X58865265Y-102216483D01*
X58836675Y-102122233D01*
X58790246Y-102035371D01*
X58727764Y-101959236D01*
X58708686Y-101943580D01*
X58560000Y-101794894D01*
X58560000Y-101650669D01*
X58530217Y-101500941D01*
X58471796Y-101359900D01*
X58386982Y-101232966D01*
X58279034Y-101125018D01*
X58152100Y-101040204D01*
X58011059Y-100981783D01*
X57861331Y-100952000D01*
X57708669Y-100952000D01*
X57558941Y-100981783D01*
X57417900Y-101040204D01*
X57290966Y-101125018D01*
X57183018Y-101232966D01*
X57098204Y-101359900D01*
X57039783Y-101500941D01*
X57010000Y-101650669D01*
X52759768Y-101650669D01*
X52760935Y-101646825D01*
X52772859Y-101525759D01*
X52760935Y-101404693D01*
X52725621Y-101288279D01*
X52668275Y-101180992D01*
X52591349Y-101087257D01*
X52655127Y-101023479D01*
X52751174Y-101052615D01*
X52872240Y-101064539D01*
X52993306Y-101052615D01*
X53109720Y-101017301D01*
X53217007Y-100959955D01*
X53311045Y-100882780D01*
X53956280Y-100237545D01*
X54033455Y-100143507D01*
X54090801Y-100036220D01*
X54126115Y-99919806D01*
X54138039Y-99798740D01*
X54137665Y-99794940D01*
X54308802Y-99623804D01*
X54361780Y-99652121D01*
X54478193Y-99687435D01*
X54599259Y-99699359D01*
X54720325Y-99687435D01*
X54836739Y-99652121D01*
X55679779Y-99302922D01*
X55787066Y-99245576D01*
X55881104Y-99168401D01*
X55958279Y-99074363D01*
X56015625Y-98967076D01*
X56050939Y-98850662D01*
X56056126Y-98798000D01*
X56066957Y-98798000D01*
X56114270Y-98886517D01*
G37*
G04 #@! TD.AperFunction*
D17*
X40323519Y-95128469D02*
X40312436Y-95241000D01*
X40312436Y-95641000D01*
X40323519Y-95753531D01*
X40356343Y-95861737D01*
X40409647Y-95961461D01*
X40481381Y-96048869D01*
X40520263Y-96080778D01*
X40445839Y-96103354D01*
X40335872Y-96162133D01*
X40239486Y-96241236D01*
X40160383Y-96337622D01*
X40101604Y-96447589D01*
X40065409Y-96566910D01*
X40053187Y-96691000D01*
X40056250Y-96803750D01*
X40214500Y-96962000D01*
X41035250Y-96962000D01*
X41035250Y-96942000D01*
X41293250Y-96942000D01*
X41293250Y-96962000D01*
X42114000Y-96962000D01*
X42272250Y-96803750D01*
X42274823Y-96709022D01*
X42473271Y-96709022D01*
X42434783Y-96801941D01*
X42405000Y-96951669D01*
X42405000Y-97104331D01*
X42434783Y-97254059D01*
X42493204Y-97395100D01*
X42578018Y-97522034D01*
X42685966Y-97629982D01*
X42812900Y-97714796D01*
X42953941Y-97773217D01*
X43103669Y-97803000D01*
X43256331Y-97803000D01*
X43406059Y-97773217D01*
X43547100Y-97714796D01*
X43674034Y-97629982D01*
X43713016Y-97591000D01*
X44383460Y-97591000D01*
X44394397Y-97611461D01*
X44466131Y-97698869D01*
X44553539Y-97770603D01*
X44653263Y-97823907D01*
X44761469Y-97856731D01*
X44874000Y-97867814D01*
X45424000Y-97867814D01*
X45536531Y-97856731D01*
X45644737Y-97823907D01*
X45744461Y-97770603D01*
X45831869Y-97698869D01*
X45903603Y-97611461D01*
X45956907Y-97511737D01*
X45989731Y-97403531D01*
X46000814Y-97291000D01*
X46000814Y-96891000D01*
X45989731Y-96778469D01*
X45956907Y-96670263D01*
X45903603Y-96570539D01*
X45831869Y-96483131D01*
X45744461Y-96411397D01*
X45644737Y-96358093D01*
X45536531Y-96325269D01*
X45424000Y-96314186D01*
X44874000Y-96314186D01*
X44761469Y-96325269D01*
X44653263Y-96358093D01*
X44572369Y-96401332D01*
X44595439Y-96285353D01*
X44595439Y-96142999D01*
X44653263Y-96173907D01*
X44761469Y-96206731D01*
X44874000Y-96217814D01*
X45424000Y-96217814D01*
X45536531Y-96206731D01*
X45644737Y-96173907D01*
X45744461Y-96120603D01*
X45831869Y-96048869D01*
X45903603Y-95961461D01*
X45956907Y-95861737D01*
X45989731Y-95753531D01*
X46000814Y-95641000D01*
X46000814Y-95241000D01*
X45989731Y-95128469D01*
X45983974Y-95109491D01*
X50646456Y-95109491D01*
X45726378Y-100029571D01*
X45186570Y-100029571D01*
X45261534Y-99979482D01*
X45369482Y-99871534D01*
X45454296Y-99744600D01*
X45512717Y-99603559D01*
X45542500Y-99453831D01*
X45542500Y-99301169D01*
X45512717Y-99151441D01*
X45454296Y-99010400D01*
X45369482Y-98883466D01*
X45261534Y-98775518D01*
X45134600Y-98690704D01*
X44993559Y-98632283D01*
X44843831Y-98602500D01*
X44691169Y-98602500D01*
X44541441Y-98632283D01*
X44400400Y-98690704D01*
X44273466Y-98775518D01*
X44210814Y-98838170D01*
X44210814Y-98785000D01*
X44199731Y-98672469D01*
X44166907Y-98564263D01*
X44113603Y-98464539D01*
X44041869Y-98377131D01*
X43954461Y-98305397D01*
X43854737Y-98252093D01*
X43746531Y-98219269D01*
X43634000Y-98208186D01*
X43234000Y-98208186D01*
X43121469Y-98219269D01*
X43013263Y-98252093D01*
X42913539Y-98305397D01*
X42826131Y-98377131D01*
X42754397Y-98464539D01*
X42701093Y-98564263D01*
X42668269Y-98672469D01*
X42657186Y-98785000D01*
X42657186Y-99335000D01*
X42668269Y-99447531D01*
X42701093Y-99555737D01*
X42754397Y-99655461D01*
X42826131Y-99742869D01*
X42889391Y-99794786D01*
X42826131Y-99846702D01*
X42754397Y-99934110D01*
X42701093Y-100033834D01*
X42668269Y-100142040D01*
X42657186Y-100254571D01*
X42657186Y-100804571D01*
X42668269Y-100917102D01*
X42701093Y-101025308D01*
X42754397Y-101125032D01*
X42826131Y-101212440D01*
X42889391Y-101264357D01*
X42826131Y-101316273D01*
X42754397Y-101403681D01*
X42701093Y-101503405D01*
X42668269Y-101611611D01*
X42657186Y-101724142D01*
X42657186Y-102274142D01*
X42668269Y-102386673D01*
X42701093Y-102494879D01*
X42754397Y-102594603D01*
X42826131Y-102682011D01*
X42889391Y-102733928D01*
X42826131Y-102785844D01*
X42754397Y-102873252D01*
X42701093Y-102972976D01*
X42668269Y-103081182D01*
X42657186Y-103193713D01*
X42657186Y-103538421D01*
X42560814Y-103634793D01*
X42560814Y-103193713D01*
X42549731Y-103081182D01*
X42516907Y-102972976D01*
X42463603Y-102873252D01*
X42391869Y-102785844D01*
X42328609Y-102733928D01*
X42391869Y-102682011D01*
X42463603Y-102594603D01*
X42516907Y-102494879D01*
X42549731Y-102386673D01*
X42560814Y-102274142D01*
X42560814Y-101724142D01*
X42549731Y-101611611D01*
X42516907Y-101503405D01*
X42463603Y-101403681D01*
X42391869Y-101316273D01*
X42328609Y-101264357D01*
X42391869Y-101212440D01*
X42463603Y-101125032D01*
X42516907Y-101025308D01*
X42549731Y-100917102D01*
X42560814Y-100804571D01*
X42560814Y-100254571D01*
X42549731Y-100142040D01*
X42516907Y-100033834D01*
X42463603Y-99934110D01*
X42391869Y-99846702D01*
X42328609Y-99794786D01*
X42391869Y-99742869D01*
X42463603Y-99655461D01*
X42516907Y-99555737D01*
X42549731Y-99447531D01*
X42560814Y-99335000D01*
X42560814Y-98785000D01*
X42549731Y-98672469D01*
X42516907Y-98564263D01*
X42463603Y-98464539D01*
X42391869Y-98377131D01*
X42304461Y-98305397D01*
X42204737Y-98252093D01*
X42096531Y-98219269D01*
X41984000Y-98208186D01*
X41584000Y-98208186D01*
X41471469Y-98219269D01*
X41363263Y-98252093D01*
X41263539Y-98305397D01*
X41176131Y-98377131D01*
X41104397Y-98464539D01*
X41051093Y-98564263D01*
X41018269Y-98672469D01*
X41007186Y-98785000D01*
X41007186Y-99129707D01*
X39798895Y-100338000D01*
X37004414Y-100338000D01*
X37057646Y-100238411D01*
X37093841Y-100119090D01*
X37106063Y-99995000D01*
X37103000Y-99982250D01*
X36944750Y-99824000D01*
X35624000Y-99824000D01*
X35624000Y-99844000D01*
X35366000Y-99844000D01*
X35366000Y-99824000D01*
X34045250Y-99824000D01*
X33887000Y-99982250D01*
X33883937Y-99995000D01*
X33896159Y-100119090D01*
X33932354Y-100238411D01*
X33991133Y-100348378D01*
X34070236Y-100444764D01*
X34166622Y-100523867D01*
X34216805Y-100550690D01*
X34183287Y-100613397D01*
X34153309Y-100712224D01*
X34143186Y-100815000D01*
X34143186Y-101115000D01*
X34153309Y-101217776D01*
X34183287Y-101316603D01*
X34231970Y-101407682D01*
X34297486Y-101487514D01*
X34377318Y-101553030D01*
X34465192Y-101600000D01*
X34377318Y-101646970D01*
X34297486Y-101712486D01*
X34231970Y-101792318D01*
X34183287Y-101883397D01*
X34153309Y-101982224D01*
X34143186Y-102085000D01*
X34143186Y-102385000D01*
X34153309Y-102487776D01*
X34183287Y-102586603D01*
X34231970Y-102677682D01*
X34297486Y-102757514D01*
X34377318Y-102823030D01*
X34465192Y-102870000D01*
X34377318Y-102916970D01*
X34297486Y-102982486D01*
X34231970Y-103062318D01*
X34183287Y-103153397D01*
X34153309Y-103252224D01*
X34143186Y-103355000D01*
X34143186Y-103655000D01*
X34153309Y-103757776D01*
X34183287Y-103856603D01*
X34231970Y-103947682D01*
X34297486Y-104027514D01*
X34377318Y-104093030D01*
X34465192Y-104140000D01*
X34377318Y-104186970D01*
X34297486Y-104252486D01*
X34231970Y-104332318D01*
X34183287Y-104423397D01*
X34153309Y-104522224D01*
X34143186Y-104625000D01*
X34143186Y-104925000D01*
X34153309Y-105027776D01*
X34183287Y-105126603D01*
X34231970Y-105217682D01*
X34297486Y-105297514D01*
X34377318Y-105363030D01*
X34465192Y-105410000D01*
X34377318Y-105456970D01*
X34297486Y-105522486D01*
X34231970Y-105602318D01*
X34183287Y-105693397D01*
X34153309Y-105792224D01*
X34143186Y-105895000D01*
X34143186Y-106195000D01*
X34153309Y-106297776D01*
X34183287Y-106396603D01*
X34231970Y-106487682D01*
X34297486Y-106567514D01*
X34377318Y-106633030D01*
X34465192Y-106680000D01*
X34377318Y-106726970D01*
X34297486Y-106792486D01*
X34231970Y-106872318D01*
X34183287Y-106963397D01*
X34153309Y-107062224D01*
X34143186Y-107165000D01*
X34143186Y-107465000D01*
X34153309Y-107567776D01*
X34183287Y-107666603D01*
X34231970Y-107757682D01*
X34297486Y-107837514D01*
X34377318Y-107903030D01*
X34465192Y-107950000D01*
X34377318Y-107996970D01*
X34297486Y-108062486D01*
X34231970Y-108142318D01*
X34183287Y-108233397D01*
X34153309Y-108332224D01*
X34143186Y-108435000D01*
X34143186Y-108735000D01*
X34153309Y-108837776D01*
X34183287Y-108936603D01*
X34200717Y-108969212D01*
X33774000Y-108542495D01*
X33774000Y-102743560D01*
X33776419Y-102719000D01*
X33766765Y-102620983D01*
X33757803Y-102591440D01*
X33738175Y-102526733D01*
X33691746Y-102439871D01*
X33629264Y-102363736D01*
X33610187Y-102348080D01*
X32278605Y-101016500D01*
X33887178Y-99407928D01*
X34045250Y-99566000D01*
X35366000Y-99566000D01*
X35366000Y-98920250D01*
X35624000Y-98920250D01*
X35624000Y-99566000D01*
X36944750Y-99566000D01*
X37103000Y-99407750D01*
X37106063Y-99395000D01*
X37093841Y-99270910D01*
X37057646Y-99151589D01*
X36998867Y-99041622D01*
X36919764Y-98945236D01*
X36823378Y-98866133D01*
X36713411Y-98807354D01*
X36594090Y-98771159D01*
X36470000Y-98758937D01*
X35782250Y-98762000D01*
X35624000Y-98920250D01*
X35366000Y-98920250D01*
X35207750Y-98762000D01*
X34536098Y-98759009D01*
X35446857Y-97848250D01*
X35591081Y-97848250D01*
X35740809Y-97818467D01*
X35881850Y-97760046D01*
X36008784Y-97675232D01*
X36092516Y-97591500D01*
X36414228Y-97591500D01*
X36424897Y-97611461D01*
X36496631Y-97698869D01*
X36584039Y-97770603D01*
X36683763Y-97823907D01*
X36791969Y-97856731D01*
X36904500Y-97867814D01*
X37454500Y-97867814D01*
X37567031Y-97856731D01*
X37675237Y-97823907D01*
X37774961Y-97770603D01*
X37862369Y-97698869D01*
X37934103Y-97611461D01*
X37987407Y-97511737D01*
X37993697Y-97491000D01*
X40053187Y-97491000D01*
X40065409Y-97615090D01*
X40101604Y-97734411D01*
X40160383Y-97844378D01*
X40239486Y-97940764D01*
X40335872Y-98019867D01*
X40445839Y-98078646D01*
X40565160Y-98114841D01*
X40689250Y-98127063D01*
X40877000Y-98124000D01*
X41035250Y-97965750D01*
X41035250Y-97220000D01*
X41293250Y-97220000D01*
X41293250Y-97965750D01*
X41451500Y-98124000D01*
X41639250Y-98127063D01*
X41763340Y-98114841D01*
X41882661Y-98078646D01*
X41992628Y-98019867D01*
X42089014Y-97940764D01*
X42168117Y-97844378D01*
X42226896Y-97734411D01*
X42263091Y-97615090D01*
X42275313Y-97491000D01*
X42272250Y-97378250D01*
X42114000Y-97220000D01*
X41293250Y-97220000D01*
X41035250Y-97220000D01*
X40214500Y-97220000D01*
X40056250Y-97378250D01*
X40053187Y-97491000D01*
X37993697Y-97491000D01*
X38020231Y-97403531D01*
X38031314Y-97291000D01*
X38031314Y-96891000D01*
X38020231Y-96778469D01*
X37987407Y-96670263D01*
X37934103Y-96570539D01*
X37862369Y-96483131D01*
X37774961Y-96411397D01*
X37675237Y-96358093D01*
X37567031Y-96325269D01*
X37454500Y-96314186D01*
X36904500Y-96314186D01*
X36791969Y-96325269D01*
X36683763Y-96358093D01*
X36584039Y-96411397D01*
X36496631Y-96483131D01*
X36424897Y-96570539D01*
X36413693Y-96591500D01*
X36124940Y-96591500D01*
X36116732Y-96579216D01*
X36008784Y-96471268D01*
X35881850Y-96386454D01*
X35740809Y-96328033D01*
X35591081Y-96298250D01*
X35438419Y-96298250D01*
X35288691Y-96328033D01*
X35147650Y-96386454D01*
X35020716Y-96471268D01*
X34912768Y-96579216D01*
X34827954Y-96706150D01*
X34769533Y-96847191D01*
X34739750Y-96996919D01*
X34739750Y-97141143D01*
X31866476Y-100014419D01*
X31886691Y-99947776D01*
X31896814Y-99845000D01*
X31896814Y-99545000D01*
X31886691Y-99442224D01*
X31856713Y-99343397D01*
X31808030Y-99252318D01*
X31742514Y-99172486D01*
X31662682Y-99106970D01*
X31571603Y-99058287D01*
X31472776Y-99028309D01*
X31370000Y-99018186D01*
X29744990Y-99018186D01*
X29744990Y-98017115D01*
X29920291Y-97841814D01*
X30290000Y-97841814D01*
X30407408Y-97830250D01*
X30520304Y-97796004D01*
X30624350Y-97740390D01*
X30715547Y-97665547D01*
X30790390Y-97574350D01*
X30846004Y-97470304D01*
X30880250Y-97357408D01*
X30891814Y-97240000D01*
X30891814Y-96790000D01*
X30886889Y-96740000D01*
X32136645Y-96740000D01*
X32342936Y-96946292D01*
X32342936Y-97291000D01*
X32354019Y-97403531D01*
X32386843Y-97511737D01*
X32440147Y-97611461D01*
X32511881Y-97698869D01*
X32599289Y-97770603D01*
X32699013Y-97823907D01*
X32807219Y-97856731D01*
X32919750Y-97867814D01*
X33469750Y-97867814D01*
X33582281Y-97856731D01*
X33690487Y-97823907D01*
X33790211Y-97770603D01*
X33877619Y-97698869D01*
X33949353Y-97611461D01*
X34002657Y-97511737D01*
X34035481Y-97403531D01*
X34046564Y-97291000D01*
X34046564Y-96891000D01*
X34035481Y-96778469D01*
X34002657Y-96670263D01*
X33949353Y-96570539D01*
X33877619Y-96483131D01*
X33790211Y-96411397D01*
X33690487Y-96358093D01*
X33582281Y-96325269D01*
X33469750Y-96314186D01*
X33125042Y-96314186D01*
X33028670Y-96217814D01*
X33469750Y-96217814D01*
X33582281Y-96206731D01*
X33690487Y-96173907D01*
X33790211Y-96120603D01*
X33877619Y-96048869D01*
X33949353Y-95961461D01*
X33960290Y-95941000D01*
X36413960Y-95941000D01*
X36424897Y-95961461D01*
X36496631Y-96048869D01*
X36584039Y-96120603D01*
X36683763Y-96173907D01*
X36791969Y-96206731D01*
X36904500Y-96217814D01*
X37454500Y-96217814D01*
X37567031Y-96206731D01*
X37675237Y-96173907D01*
X37774961Y-96120603D01*
X37862369Y-96048869D01*
X37934103Y-95961461D01*
X37987407Y-95861737D01*
X38020231Y-95753531D01*
X38031314Y-95641000D01*
X38031314Y-95296292D01*
X38218116Y-95109491D01*
X40329276Y-95109491D01*
X40323519Y-95128469D01*
G04 #@! TA.AperFunction,Conductor*
D18*
G36*
X40323519Y-95128469D02*
G01*
X40312436Y-95241000D01*
X40312436Y-95641000D01*
X40323519Y-95753531D01*
X40356343Y-95861737D01*
X40409647Y-95961461D01*
X40481381Y-96048869D01*
X40520263Y-96080778D01*
X40445839Y-96103354D01*
X40335872Y-96162133D01*
X40239486Y-96241236D01*
X40160383Y-96337622D01*
X40101604Y-96447589D01*
X40065409Y-96566910D01*
X40053187Y-96691000D01*
X40056250Y-96803750D01*
X40214500Y-96962000D01*
X41035250Y-96962000D01*
X41035250Y-96942000D01*
X41293250Y-96942000D01*
X41293250Y-96962000D01*
X42114000Y-96962000D01*
X42272250Y-96803750D01*
X42274823Y-96709022D01*
X42473271Y-96709022D01*
X42434783Y-96801941D01*
X42405000Y-96951669D01*
X42405000Y-97104331D01*
X42434783Y-97254059D01*
X42493204Y-97395100D01*
X42578018Y-97522034D01*
X42685966Y-97629982D01*
X42812900Y-97714796D01*
X42953941Y-97773217D01*
X43103669Y-97803000D01*
X43256331Y-97803000D01*
X43406059Y-97773217D01*
X43547100Y-97714796D01*
X43674034Y-97629982D01*
X43713016Y-97591000D01*
X44383460Y-97591000D01*
X44394397Y-97611461D01*
X44466131Y-97698869D01*
X44553539Y-97770603D01*
X44653263Y-97823907D01*
X44761469Y-97856731D01*
X44874000Y-97867814D01*
X45424000Y-97867814D01*
X45536531Y-97856731D01*
X45644737Y-97823907D01*
X45744461Y-97770603D01*
X45831869Y-97698869D01*
X45903603Y-97611461D01*
X45956907Y-97511737D01*
X45989731Y-97403531D01*
X46000814Y-97291000D01*
X46000814Y-96891000D01*
X45989731Y-96778469D01*
X45956907Y-96670263D01*
X45903603Y-96570539D01*
X45831869Y-96483131D01*
X45744461Y-96411397D01*
X45644737Y-96358093D01*
X45536531Y-96325269D01*
X45424000Y-96314186D01*
X44874000Y-96314186D01*
X44761469Y-96325269D01*
X44653263Y-96358093D01*
X44572369Y-96401332D01*
X44595439Y-96285353D01*
X44595439Y-96142999D01*
X44653263Y-96173907D01*
X44761469Y-96206731D01*
X44874000Y-96217814D01*
X45424000Y-96217814D01*
X45536531Y-96206731D01*
X45644737Y-96173907D01*
X45744461Y-96120603D01*
X45831869Y-96048869D01*
X45903603Y-95961461D01*
X45956907Y-95861737D01*
X45989731Y-95753531D01*
X46000814Y-95641000D01*
X46000814Y-95241000D01*
X45989731Y-95128469D01*
X45983974Y-95109491D01*
X50646456Y-95109491D01*
X45726378Y-100029571D01*
X45186570Y-100029571D01*
X45261534Y-99979482D01*
X45369482Y-99871534D01*
X45454296Y-99744600D01*
X45512717Y-99603559D01*
X45542500Y-99453831D01*
X45542500Y-99301169D01*
X45512717Y-99151441D01*
X45454296Y-99010400D01*
X45369482Y-98883466D01*
X45261534Y-98775518D01*
X45134600Y-98690704D01*
X44993559Y-98632283D01*
X44843831Y-98602500D01*
X44691169Y-98602500D01*
X44541441Y-98632283D01*
X44400400Y-98690704D01*
X44273466Y-98775518D01*
X44210814Y-98838170D01*
X44210814Y-98785000D01*
X44199731Y-98672469D01*
X44166907Y-98564263D01*
X44113603Y-98464539D01*
X44041869Y-98377131D01*
X43954461Y-98305397D01*
X43854737Y-98252093D01*
X43746531Y-98219269D01*
X43634000Y-98208186D01*
X43234000Y-98208186D01*
X43121469Y-98219269D01*
X43013263Y-98252093D01*
X42913539Y-98305397D01*
X42826131Y-98377131D01*
X42754397Y-98464539D01*
X42701093Y-98564263D01*
X42668269Y-98672469D01*
X42657186Y-98785000D01*
X42657186Y-99335000D01*
X42668269Y-99447531D01*
X42701093Y-99555737D01*
X42754397Y-99655461D01*
X42826131Y-99742869D01*
X42889391Y-99794786D01*
X42826131Y-99846702D01*
X42754397Y-99934110D01*
X42701093Y-100033834D01*
X42668269Y-100142040D01*
X42657186Y-100254571D01*
X42657186Y-100804571D01*
X42668269Y-100917102D01*
X42701093Y-101025308D01*
X42754397Y-101125032D01*
X42826131Y-101212440D01*
X42889391Y-101264357D01*
X42826131Y-101316273D01*
X42754397Y-101403681D01*
X42701093Y-101503405D01*
X42668269Y-101611611D01*
X42657186Y-101724142D01*
X42657186Y-102274142D01*
X42668269Y-102386673D01*
X42701093Y-102494879D01*
X42754397Y-102594603D01*
X42826131Y-102682011D01*
X42889391Y-102733928D01*
X42826131Y-102785844D01*
X42754397Y-102873252D01*
X42701093Y-102972976D01*
X42668269Y-103081182D01*
X42657186Y-103193713D01*
X42657186Y-103538421D01*
X42560814Y-103634793D01*
X42560814Y-103193713D01*
X42549731Y-103081182D01*
X42516907Y-102972976D01*
X42463603Y-102873252D01*
X42391869Y-102785844D01*
X42328609Y-102733928D01*
X42391869Y-102682011D01*
X42463603Y-102594603D01*
X42516907Y-102494879D01*
X42549731Y-102386673D01*
X42560814Y-102274142D01*
X42560814Y-101724142D01*
X42549731Y-101611611D01*
X42516907Y-101503405D01*
X42463603Y-101403681D01*
X42391869Y-101316273D01*
X42328609Y-101264357D01*
X42391869Y-101212440D01*
X42463603Y-101125032D01*
X42516907Y-101025308D01*
X42549731Y-100917102D01*
X42560814Y-100804571D01*
X42560814Y-100254571D01*
X42549731Y-100142040D01*
X42516907Y-100033834D01*
X42463603Y-99934110D01*
X42391869Y-99846702D01*
X42328609Y-99794786D01*
X42391869Y-99742869D01*
X42463603Y-99655461D01*
X42516907Y-99555737D01*
X42549731Y-99447531D01*
X42560814Y-99335000D01*
X42560814Y-98785000D01*
X42549731Y-98672469D01*
X42516907Y-98564263D01*
X42463603Y-98464539D01*
X42391869Y-98377131D01*
X42304461Y-98305397D01*
X42204737Y-98252093D01*
X42096531Y-98219269D01*
X41984000Y-98208186D01*
X41584000Y-98208186D01*
X41471469Y-98219269D01*
X41363263Y-98252093D01*
X41263539Y-98305397D01*
X41176131Y-98377131D01*
X41104397Y-98464539D01*
X41051093Y-98564263D01*
X41018269Y-98672469D01*
X41007186Y-98785000D01*
X41007186Y-99129707D01*
X39798895Y-100338000D01*
X37004414Y-100338000D01*
X37057646Y-100238411D01*
X37093841Y-100119090D01*
X37106063Y-99995000D01*
X37103000Y-99982250D01*
X36944750Y-99824000D01*
X35624000Y-99824000D01*
X35624000Y-99844000D01*
X35366000Y-99844000D01*
X35366000Y-99824000D01*
X34045250Y-99824000D01*
X33887000Y-99982250D01*
X33883937Y-99995000D01*
X33896159Y-100119090D01*
X33932354Y-100238411D01*
X33991133Y-100348378D01*
X34070236Y-100444764D01*
X34166622Y-100523867D01*
X34216805Y-100550690D01*
X34183287Y-100613397D01*
X34153309Y-100712224D01*
X34143186Y-100815000D01*
X34143186Y-101115000D01*
X34153309Y-101217776D01*
X34183287Y-101316603D01*
X34231970Y-101407682D01*
X34297486Y-101487514D01*
X34377318Y-101553030D01*
X34465192Y-101600000D01*
X34377318Y-101646970D01*
X34297486Y-101712486D01*
X34231970Y-101792318D01*
X34183287Y-101883397D01*
X34153309Y-101982224D01*
X34143186Y-102085000D01*
X34143186Y-102385000D01*
X34153309Y-102487776D01*
X34183287Y-102586603D01*
X34231970Y-102677682D01*
X34297486Y-102757514D01*
X34377318Y-102823030D01*
X34465192Y-102870000D01*
X34377318Y-102916970D01*
X34297486Y-102982486D01*
X34231970Y-103062318D01*
X34183287Y-103153397D01*
X34153309Y-103252224D01*
X34143186Y-103355000D01*
X34143186Y-103655000D01*
X34153309Y-103757776D01*
X34183287Y-103856603D01*
X34231970Y-103947682D01*
X34297486Y-104027514D01*
X34377318Y-104093030D01*
X34465192Y-104140000D01*
X34377318Y-104186970D01*
X34297486Y-104252486D01*
X34231970Y-104332318D01*
X34183287Y-104423397D01*
X34153309Y-104522224D01*
X34143186Y-104625000D01*
X34143186Y-104925000D01*
X34153309Y-105027776D01*
X34183287Y-105126603D01*
X34231970Y-105217682D01*
X34297486Y-105297514D01*
X34377318Y-105363030D01*
X34465192Y-105410000D01*
X34377318Y-105456970D01*
X34297486Y-105522486D01*
X34231970Y-105602318D01*
X34183287Y-105693397D01*
X34153309Y-105792224D01*
X34143186Y-105895000D01*
X34143186Y-106195000D01*
X34153309Y-106297776D01*
X34183287Y-106396603D01*
X34231970Y-106487682D01*
X34297486Y-106567514D01*
X34377318Y-106633030D01*
X34465192Y-106680000D01*
X34377318Y-106726970D01*
X34297486Y-106792486D01*
X34231970Y-106872318D01*
X34183287Y-106963397D01*
X34153309Y-107062224D01*
X34143186Y-107165000D01*
X34143186Y-107465000D01*
X34153309Y-107567776D01*
X34183287Y-107666603D01*
X34231970Y-107757682D01*
X34297486Y-107837514D01*
X34377318Y-107903030D01*
X34465192Y-107950000D01*
X34377318Y-107996970D01*
X34297486Y-108062486D01*
X34231970Y-108142318D01*
X34183287Y-108233397D01*
X34153309Y-108332224D01*
X34143186Y-108435000D01*
X34143186Y-108735000D01*
X34153309Y-108837776D01*
X34183287Y-108936603D01*
X34200717Y-108969212D01*
X33774000Y-108542495D01*
X33774000Y-102743560D01*
X33776419Y-102719000D01*
X33766765Y-102620983D01*
X33757803Y-102591440D01*
X33738175Y-102526733D01*
X33691746Y-102439871D01*
X33629264Y-102363736D01*
X33610187Y-102348080D01*
X32278605Y-101016500D01*
X33887178Y-99407928D01*
X34045250Y-99566000D01*
X35366000Y-99566000D01*
X35366000Y-98920250D01*
X35624000Y-98920250D01*
X35624000Y-99566000D01*
X36944750Y-99566000D01*
X37103000Y-99407750D01*
X37106063Y-99395000D01*
X37093841Y-99270910D01*
X37057646Y-99151589D01*
X36998867Y-99041622D01*
X36919764Y-98945236D01*
X36823378Y-98866133D01*
X36713411Y-98807354D01*
X36594090Y-98771159D01*
X36470000Y-98758937D01*
X35782250Y-98762000D01*
X35624000Y-98920250D01*
X35366000Y-98920250D01*
X35207750Y-98762000D01*
X34536098Y-98759009D01*
X35446857Y-97848250D01*
X35591081Y-97848250D01*
X35740809Y-97818467D01*
X35881850Y-97760046D01*
X36008784Y-97675232D01*
X36092516Y-97591500D01*
X36414228Y-97591500D01*
X36424897Y-97611461D01*
X36496631Y-97698869D01*
X36584039Y-97770603D01*
X36683763Y-97823907D01*
X36791969Y-97856731D01*
X36904500Y-97867814D01*
X37454500Y-97867814D01*
X37567031Y-97856731D01*
X37675237Y-97823907D01*
X37774961Y-97770603D01*
X37862369Y-97698869D01*
X37934103Y-97611461D01*
X37987407Y-97511737D01*
X37993697Y-97491000D01*
X40053187Y-97491000D01*
X40065409Y-97615090D01*
X40101604Y-97734411D01*
X40160383Y-97844378D01*
X40239486Y-97940764D01*
X40335872Y-98019867D01*
X40445839Y-98078646D01*
X40565160Y-98114841D01*
X40689250Y-98127063D01*
X40877000Y-98124000D01*
X41035250Y-97965750D01*
X41035250Y-97220000D01*
X41293250Y-97220000D01*
X41293250Y-97965750D01*
X41451500Y-98124000D01*
X41639250Y-98127063D01*
X41763340Y-98114841D01*
X41882661Y-98078646D01*
X41992628Y-98019867D01*
X42089014Y-97940764D01*
X42168117Y-97844378D01*
X42226896Y-97734411D01*
X42263091Y-97615090D01*
X42275313Y-97491000D01*
X42272250Y-97378250D01*
X42114000Y-97220000D01*
X41293250Y-97220000D01*
X41035250Y-97220000D01*
X40214500Y-97220000D01*
X40056250Y-97378250D01*
X40053187Y-97491000D01*
X37993697Y-97491000D01*
X38020231Y-97403531D01*
X38031314Y-97291000D01*
X38031314Y-96891000D01*
X38020231Y-96778469D01*
X37987407Y-96670263D01*
X37934103Y-96570539D01*
X37862369Y-96483131D01*
X37774961Y-96411397D01*
X37675237Y-96358093D01*
X37567031Y-96325269D01*
X37454500Y-96314186D01*
X36904500Y-96314186D01*
X36791969Y-96325269D01*
X36683763Y-96358093D01*
X36584039Y-96411397D01*
X36496631Y-96483131D01*
X36424897Y-96570539D01*
X36413693Y-96591500D01*
X36124940Y-96591500D01*
X36116732Y-96579216D01*
X36008784Y-96471268D01*
X35881850Y-96386454D01*
X35740809Y-96328033D01*
X35591081Y-96298250D01*
X35438419Y-96298250D01*
X35288691Y-96328033D01*
X35147650Y-96386454D01*
X35020716Y-96471268D01*
X34912768Y-96579216D01*
X34827954Y-96706150D01*
X34769533Y-96847191D01*
X34739750Y-96996919D01*
X34739750Y-97141143D01*
X31866476Y-100014419D01*
X31886691Y-99947776D01*
X31896814Y-99845000D01*
X31896814Y-99545000D01*
X31886691Y-99442224D01*
X31856713Y-99343397D01*
X31808030Y-99252318D01*
X31742514Y-99172486D01*
X31662682Y-99106970D01*
X31571603Y-99058287D01*
X31472776Y-99028309D01*
X31370000Y-99018186D01*
X29744990Y-99018186D01*
X29744990Y-98017115D01*
X29920291Y-97841814D01*
X30290000Y-97841814D01*
X30407408Y-97830250D01*
X30520304Y-97796004D01*
X30624350Y-97740390D01*
X30715547Y-97665547D01*
X30790390Y-97574350D01*
X30846004Y-97470304D01*
X30880250Y-97357408D01*
X30891814Y-97240000D01*
X30891814Y-96790000D01*
X30886889Y-96740000D01*
X32136645Y-96740000D01*
X32342936Y-96946292D01*
X32342936Y-97291000D01*
X32354019Y-97403531D01*
X32386843Y-97511737D01*
X32440147Y-97611461D01*
X32511881Y-97698869D01*
X32599289Y-97770603D01*
X32699013Y-97823907D01*
X32807219Y-97856731D01*
X32919750Y-97867814D01*
X33469750Y-97867814D01*
X33582281Y-97856731D01*
X33690487Y-97823907D01*
X33790211Y-97770603D01*
X33877619Y-97698869D01*
X33949353Y-97611461D01*
X34002657Y-97511737D01*
X34035481Y-97403531D01*
X34046564Y-97291000D01*
X34046564Y-96891000D01*
X34035481Y-96778469D01*
X34002657Y-96670263D01*
X33949353Y-96570539D01*
X33877619Y-96483131D01*
X33790211Y-96411397D01*
X33690487Y-96358093D01*
X33582281Y-96325269D01*
X33469750Y-96314186D01*
X33125042Y-96314186D01*
X33028670Y-96217814D01*
X33469750Y-96217814D01*
X33582281Y-96206731D01*
X33690487Y-96173907D01*
X33790211Y-96120603D01*
X33877619Y-96048869D01*
X33949353Y-95961461D01*
X33960290Y-95941000D01*
X36413960Y-95941000D01*
X36424897Y-95961461D01*
X36496631Y-96048869D01*
X36584039Y-96120603D01*
X36683763Y-96173907D01*
X36791969Y-96206731D01*
X36904500Y-96217814D01*
X37454500Y-96217814D01*
X37567031Y-96206731D01*
X37675237Y-96173907D01*
X37774961Y-96120603D01*
X37862369Y-96048869D01*
X37934103Y-95961461D01*
X37987407Y-95861737D01*
X38020231Y-95753531D01*
X38031314Y-95641000D01*
X38031314Y-95296292D01*
X38218116Y-95109491D01*
X40329276Y-95109491D01*
X40323519Y-95128469D01*
G37*
G04 #@! TD.AperFunction*
M02*
